<svg width="39" height="16" viewBox="0 0 39 16" fill="none" xmlns="http://www.w3.org/2000/svg">
<path d="M17.3335 13.6349V15.1663H36.9353C38.0756 15.1663 39 14.2419 39 13.1016V6.3977C39 5.2574 38.0756 4.33301 36.9353 4.33301H20.5197L17.3335 13.6349Z" fill="#FAD201"/>
<rect x="3.63269" y="13.4941" width="11.3317" height="1.12452" rx="0.173003" fill="#EEBA03"/>
<mask id="mask0" mask-type="alpha" maskUnits="userSpaceOnUse" x="1" y="2" width="17" height="11">
<path d="M1.60066 6.31452L3.46723 12.6778C3.48885 12.7515 3.55645 12.8021 3.63324 12.8021H14.9238C14.9998 12.8021 15.0669 12.7525 15.0892 12.6799L17.0412 6.31452C17.0828 5.96134 16.7557 5.67716 16.4117 5.76767L16.3059 5.79551C15.6716 5.96851 14.5327 6.44427 13.2784 6.18477C12.3701 5.99685 10.6545 4.15198 9.81831 3.07071L9.80018 3.04979C9.51708 2.72313 9.00708 2.73316 8.73704 3.07071C7.9297 4.06548 6.488 5.83876 5.36348 6.18477C4.23896 6.53077 2.84052 6.09827 2.11967 5.83876L2.11018 5.83623C1.8156 5.75767 1.54087 6.01556 1.60066 6.31452Z" fill="#FCA12D"/>
</mask>
<g mask="url(#mask0)">
<path d="M4.40491 -1.08301L19.0344 4.59619L13.5458 18.7348L-1.08371 13.0556L4.40491 -1.08301Z" fill="#EEBA03"/>
<path d="M4.40491 -2.1665L11.9623 0.767272L6.47365 14.9059L-1.08371 11.9721L4.40491 -2.1665Z" fill="#FAD201"/>
</g>
<circle cx="0.908267" cy="4.80085" r="0.908267" fill="#FAD201"/>
<circle cx="9.29868" cy="1.08127" r="1.08127" fill="#EEBA03"/>
<circle cx="17.6895" cy="4.80085" r="0.908267" fill="#EEBA03"/>
<path d="M25.5767 11.8893L26.9732 7.25558H28.3866L26.2411 13.417H24.9165L22.7795 7.25558H24.1887L25.5767 11.8893ZM30.3205 13.417H29.0509V7.25558H30.3205V13.417ZM32.7706 11.2461V13.417H31.5011V7.25558H33.9047C34.3674 7.25558 34.7737 7.34021 35.1235 7.50948C35.4761 7.67875 35.747 7.91996 35.936 8.23311C36.125 8.54344 36.2195 8.89749 36.2195 9.29528C36.2195 9.89901 36.0122 10.3758 35.5974 10.7256C35.1856 11.0726 34.6143 11.2461 33.8836 11.2461H32.7706ZM32.7706 10.2178H33.9047C34.2405 10.2178 34.4958 10.1388 34.6707 9.98082C34.8484 9.82283 34.9373 9.59714 34.9373 9.30374C34.9373 9.00188 34.8484 8.75785 34.6707 8.57165C34.493 8.38545 34.2475 8.28953 33.9344 8.28389H32.7706V10.2178Z" fill="white"/>
</svg>
