<svg width="47" height="37" viewBox="0 0 47 37" fill="none" xmlns="http://www.w3.org/2000/svg">
<path d="M1.46 36.34C0.579997 27.848 0.139997 19.928 0.139997 12.58C0.139997 8.268 1.152 5.1 3.176 3.076C5.2 1.052 8.368 0.0399998 12.68 0.0399998H15.65C18.95 0.0399998 21.458 0.699999 23.174 2.02C24.934 3.34 26.386 5.65 27.53 8.95L29.84 15.55H33.14V27.43L23.9 27.43L18.29 11.92L12.68 11.92C11.668 11.92 10.876 12.228 10.304 12.844C9.688 13.416 9.38 14.428 9.38 15.88C9.38 18.52 9.512 21.952 9.776 26.176C10.04 30.356 10.238 33.744 10.37 36.34H1.46ZM37.1 27.43V15.55H47V27.43H37.1Z" fill="#43B581"/>
</svg>
