<svg width="139" height="139" viewBox="0 0 139 139" fill="none" xmlns="http://www.w3.org/2000/svg">
<mask id="mask0" mask-type="alpha" maskUnits="userSpaceOnUse" x="0" y="0" width="139" height="139">
<path d="M0 0H139V139H4C1.79086 139 0 137.209 0 135V0Z" fill="#F2F3F5"/>
<path d="M0.5 0.5H138.5V138.5H4C2.06701 138.5 0.5 136.933 0.5 135V0.5Z" stroke="#6A7480" stroke-opacity="0.5"/>
</mask>
<g mask="url(#mask0)">
<mask id="mask1" mask-type="alpha" maskUnits="userSpaceOnUse" x="0" y="-1" width="140" height="140">
<rect y="-1" width="140" height="140" fill="url(#paint0_linear)"/>
</mask>
<g mask="url(#mask1)">
<rect y="-1" width="140" height="140" fill="url(#paint1_linear)"/>
<path d="M18.4334 107.736C18.9181 101.373 24.2219 96.4583 30.6026 96.4583H80.9925C87.7328 96.4583 93.197 101.922 93.197 108.663V139.965H15.9783L18.4334 107.736Z" fill="#222222"/>
<path d="M29.9891 140V120.473L35.5048 140H29.9891Z" fill="#181818"/>
<path d="M91.7783 140.366L93.0234 121.004L82.8894 141.489L91.7783 140.366Z" fill="#181818"/>
<rect x="37.7119" y="99.7354" width="36.9522" height="40.2293" fill="#FEFEFE"/>
<path d="M56.3037 103.126L62.4989 109.506L56.1185 115.702L49.973 109.51L56.3037 103.126Z" fill="#B92929"/>
<path d="M53.815 111.601H58.5611L60.6517 134.045L56.2445 137.931L51.8374 134.045L53.815 111.601Z" fill="#B92929"/>
<ellipse cx="28.5675" cy="76.1092" rx="4.78478" ry="8.80834" fill="#EF8264"/>
<ellipse cx="84.6798" cy="76.1092" rx="4.78478" ry="8.80834" fill="#EF8264"/>
<g filter="url(#filter0_i)">
<path d="M29.1431 59.8102C29.1954 52.8207 34.8763 47.1823 41.8659 47.1823H71.5991C78.5887 47.1823 84.2696 52.8207 84.3219 59.8102L84.584 94.8261C84.6369 101.89 78.9252 107.644 71.8612 107.644H41.6038C34.5398 107.644 28.8281 101.89 28.881 94.8261L29.1431 59.8102Z" fill="#F29C78"/>
</g>
<path d="M56.6782 98.4145C59.0505 98.4145 60.9737 96.6617 60.9737 94.4996H52.3828C52.3828 96.6617 54.3059 98.4145 56.6782 98.4145Z" fill="#EF8264"/>
<rect x="54.3401" y="65.7913" width="4.67603" height="9.24332" rx="1.52243" fill="#EF8264"/>
<circle cx="45.5317" cy="67.205" r="2.71862" fill="#222222"/>
<circle cx="68.3681" cy="67.3264" r="2.82737" fill="#222222"/>
<path d="M41.149 60.4549C41.2994 59.8463 41.8932 59.4573 42.5099 59.5702C43.6392 59.7769 45.4139 60.1173 46.7083 60.4383C47.9688 60.7509 49.6495 61.2623 50.7243 61.5992C51.3224 61.7866 51.667 62.4074 51.5166 63.0159L51.2057 64.2746C51.039 64.9493 50.3344 65.3414 49.671 65.1344C48.5948 64.7987 47.019 64.3226 45.822 64.0257C44.5913 63.7205 42.9265 63.3979 41.7949 63.1891C41.1116 63.0631 40.6713 62.3882 40.838 61.7137L41.149 60.4549Z" fill="#F7C75D"/>
<path d="M72.6435 60.4676C72.4931 59.859 71.8993 59.47 71.2826 59.5829C70.1533 59.7896 68.3786 60.13 67.0842 60.451C65.8237 60.7636 64.143 61.275 63.0682 61.6119C62.4701 61.7993 62.1255 62.4201 62.2758 63.0286L62.5868 64.2873C62.7535 64.962 63.4581 65.3541 64.1215 65.1471C65.1977 64.8114 66.7735 64.3353 67.9705 64.0384C69.2012 63.7332 70.866 63.4105 71.9976 63.2018C72.6809 63.0758 73.1211 62.4009 72.9545 61.7264L72.6435 60.4676Z" fill="#F7C75D"/>
<rect x="50.7517" y="77.535" width="11.7445" height="14.4631" rx="2.60988" fill="#EF8264"/>
<path d="M52.2196 80.3623H61.1367V89.4969H52.2196V80.3623Z" fill="#DF575E"/>
<path d="M56.6781 84.1687C54.6662 84.1687 53.0352 85.7997 53.0352 87.8117V89.1166L60.3211 89.2797V87.8117C60.3211 85.7997 58.6901 84.1687 56.6781 84.1687Z" fill="#EF8264"/>
<path d="M52.4741 79.3945C52.6135 78.9366 53.0358 78.6237 53.5145 78.6237H59.8414C60.32 78.6237 60.7423 78.9366 60.8817 79.3945L61.1092 80.1419C61.258 80.631 60.8921 81.1248 60.381 81.1248H52.9749C52.4637 81.1248 52.0978 80.631 52.2466 80.1419L52.4741 79.3945Z" fill="white"/>
<path d="M52.6066 90.2774C52.784 90.6633 53.1699 90.9105 53.5946 90.9105H59.7613C60.186 90.9105 60.5718 90.6633 60.7493 90.2774L61.0538 89.6153C61.2194 89.2551 60.9563 88.8444 60.5598 88.8444H52.796C52.3996 88.8444 52.1364 89.2551 52.3021 89.6153L52.6066 90.2774Z" fill="white"/>
<rect width="6.35867" height="31.7909" rx="2.06615" transform="matrix(0.998801 0.0489505 -0.0312581 0.999511 26.9512 45.3353)" fill="#F7C75D"/>
<rect width="6.35867" height="31.7909" rx="2.06615" transform="matrix(-0.998801 0.0489505 0.0312581 0.999511 86.7898 45.3353)" fill="#F7C75D"/>
<path d="M60.3975 59.1705C73.7067 58.409 81.5119 54.8066 85.0293 47.2749C86.0362 44.4066 83.1796 37.2607 75.2511 35.0152C66.5691 32.5562 57.4895 32.3661 50.0281 33.9196C37.792 36.4672 36.0999 43.5673 26.8756 44.0585L26.439 54.5382C27.4879 55.3041 28.7578 56.0318 29.9057 56.4865C35.3088 58.627 43.6668 60.1277 60.3975 59.1705Z" fill="#393838" fill-opacity="0.26"/>
<g filter="url(#filter1_i)">
<path d="M59.3706 57.2557C73.2584 56.5801 81.4029 53.3838 85.0731 46.7011C86.1238 44.1562 84.8857 37.9734 76.6125 35.981C67.5531 33.7992 56.3361 33.473 48.5504 34.8513C35.7823 37.1117 35.8962 43.1169 26.2709 43.5527C19.766 43.8473 15.0912 39.7455 14.1396 39.1457C14.1396 43.359 19.973 52.3208 27.5533 54.8743C33.1912 56.7735 41.9126 58.105 59.3706 57.2557Z" fill="#F7C75D"/>
</g>
<path d="M46.0923 57.3927C59.4214 57.2797 71.3197 57.2389 76.0024 53.3966C77.4644 51.8467 75.9224 46.5865 68.644 43.1006C60.674 39.2834 56.6734 43.7112 49.1987 42.7477C36.9409 41.1675 33.3438 47.4415 24.3468 45.3471L18.7044 42.0504C19.1482 43.7622 18.8954 44.1525 21.2403 47.6295C24.9174 53.0817 31.1304 57.5196 46.0923 57.3927Z" fill="#393838" fill-opacity="0.26"/>
<g filter="url(#filter2_i)">
<path d="M60.5259 57.2111C73.7943 56.42 81.5756 52.6772 85.0822 44.8519C86.086 41.8718 83.2382 34.4474 75.3339 32.1143C66.6785 29.5595 57.6268 29.362 50.1882 30.976C37.9896 33.6229 38.0985 40.6548 28.9024 41.1652C22.6876 41.5101 18.2213 36.7069 17.3121 36.0046C17.3121 40.9383 22.8853 51.4325 30.1275 54.4226C35.514 56.6465 43.8465 58.2056 60.5259 57.2111Z" fill="#F7C75D"/>
</g>
<path d="M56.1091 107.668H74.8115V139.874H56.1091V107.668Z" fill="#3A3A3A" fill-opacity="0.15"/>
<path d="M107.5 79.1231C108.938 77.065 111.912 76.7696 113.677 78.5552L121.392 86.3626C122.69 87.6758 122.9 89.7089 121.857 91.2322C119.253 95.0342 114.205 102.099 109.811 106.442C103.562 112.619 91.7977 120.052 91.7977 120.052L78.4254 106.52C78.4254 106.52 90.1896 99.0872 96.4386 92.91C100.33 89.0633 104.735 83.0819 107.5 79.1231Z" fill="#222222"/>
<path d="M114.245 90.2321C113.439 86.8328 111.688 82.7934 110.758 81.2296L119.634 84.7165C120.627 85.3716 122.487 86.8086 122.487 89.2811C122.487 91.5635 117.732 96.7621 115.577 99.7418C115.344 98.1569 115.133 93.9726 114.245 90.2321Z" fill="#181818"/>
<g clip-path="url(#clip0)">
<path d="M127.9 76.2719C128.629 75.3314 130.06 74.6083 130.932 75.2844C131.804 75.9605 131.58 76.7978 131.361 77.639C128.987 80.7159 128.199 80.1816 124.638 84.7654C122.639 87.3392 119.025 88.0012 117.462 86.865L112.325 82.8824C110.753 81.6637 110.417 79.7331 110.797 77.6614C111.077 75.5629 111.306 74.1286 111.485 73.3584C111.918 71.4863 112.332 70.2866 112.463 69.6193C112.667 68.5767 112.943 66.4791 112.968 66.3755C113.066 65.9788 113.096 63.7201 114.438 63.4177C116.138 63.2707 116.756 63.8337 117.202 65.6597C117.19 66.444 117.168 67.0081 116.981 68.2479C116.895 68.8185 116.699 69.854 116.393 71.3542L125.043 59.7551C125.773 58.8156 127.071 58.603 127.944 59.2799C128.818 59.9576 128.935 61.2693 128.206 62.2097L122.56 69.7142C123.295 68.8099 125.151 67.6386 126.011 68.3053L126.048 68.334C126.921 69.0113 127.038 70.3227 126.309 71.2631L125.451 72.6976C126.18 71.757 127.912 70.6576 128.787 71.3354L128.79 71.3382C129.664 72.0154 129.781 73.3266 129.052 74.2672L127.9 76.2719Z" fill="#F7CAA5"/>
<path d="M127.9 76.2719C128.629 75.3314 130.06 74.6083 130.932 75.2844C131.804 75.9605 131.58 76.7978 131.361 77.639C128.987 80.7159 128.199 80.1816 124.638 84.7654C122.639 87.3392 119.025 88.0012 117.462 86.865L112.325 82.8824C110.753 81.6637 110.417 79.7331 110.797 77.6614C111.077 75.5629 111.306 74.1286 111.485 73.3584C111.918 71.4863 112.332 70.2866 112.463 69.6193C112.667 68.5767 112.943 66.4791 112.968 66.3755C113.066 65.9788 113.096 63.7201 114.438 63.4177C116.138 63.2707 116.756 63.8337 117.202 65.6597C117.19 66.444 117.168 67.0081 116.981 68.2479C116.895 68.8185 116.699 69.854 116.393 71.3542L125.043 59.7551C125.773 58.8156 127.071 58.603 127.944 59.2799C128.818 59.9576 128.935 61.2693 128.206 62.2097L122.56 69.7142C123.295 68.8099 125.151 67.6386 126.011 68.3053L126.048 68.334C126.921 69.0113 127.038 70.3227 126.309 71.2631L125.451 72.6976C126.18 71.757 127.912 70.6576 128.787 71.3354L128.79 71.3382C129.664 72.0154 129.781 73.3266 129.052 74.2672L127.9 76.2719Z" fill="#F29C78"/>
<path fill-rule="evenodd" clip-rule="evenodd" d="M125.069 68.1026C123.543 68.8352 122.58 69.5265 122.179 70.1763C121.778 70.8262 121.406 71.4333 121.065 71.9977C122.084 70.9342 122.751 70.2347 123.064 69.8991C123.376 69.5635 124.045 68.9647 125.069 68.1026Z" fill="#EF8264"/>
<path fill-rule="evenodd" clip-rule="evenodd" d="M125.442 59.3496C123.243 61.974 121.734 63.8266 120.563 65.4442C119.107 67.4538 117.742 69.3821 116.467 71.2291C120.782 65.5664 123.343 62.2844 124.148 61.3831C124.673 60.7957 125.489 59.658 126.107 59.4058C128.05 58.6121 125.908 58.7942 125.442 59.3496Z" fill="#EF8264"/>
<path fill-rule="evenodd" clip-rule="evenodd" d="M127.586 71.1774C126.472 71.6547 125.715 72.2182 125.314 72.8681C124.912 73.5179 124.551 74.152 124.229 74.7703C125.17 73.5337 125.787 72.7953 126.08 72.5551C126.373 72.315 126.875 71.8557 127.586 71.1774Z" fill="#EF8264"/>
<path fill-rule="evenodd" clip-rule="evenodd" d="M129.714 75.0157C128.6 75.4929 127.842 76.0565 127.441 76.7063C127.04 77.3562 126.679 77.9903 126.356 78.6086C127.298 77.372 127.915 76.6336 128.208 76.3934C128.5 76.1532 129.003 75.694 129.714 75.0157Z" fill="#EF8264"/>
</g>
<rect x="79.0996" y="118.422" width="7.42" height="3.92" fill="#FF3F3F"/>
<rect x="79.0996" y="118.422" width="7.42" height="3.92" fill="#FF3F3F"/>
<rect x="79.0996" y="118.422" width="7.42" height="3.92" fill="#FF3F3F"/>
<rect x="79.24" y="118.981" width="7.28" height="0.56" fill="#FF3F3F"/>
<rect x="79.24" y="118.981" width="7.28" height="0.56" fill="#FF3F3F"/>
<rect x="79.24" y="118.981" width="7.28" height="0.56" fill="white"/>
<rect x="79.24" y="120.101" width="7.28" height="0.56" fill="#FF3F3F"/>
<rect x="79.24" y="120.101" width="7.28" height="0.56" fill="#FF3F3F"/>
<rect x="79.24" y="120.101" width="7.28" height="0.56" fill="white"/>
<rect x="79.0999" y="121.22" width="7.42" height="0.56" fill="#FF3F3F"/>
<rect x="79.0999" y="121.22" width="7.42" height="0.56" fill="#FF3F3F"/>
<rect x="79.0999" y="121.22" width="7.42" height="0.56" fill="white"/>
<rect x="79.0999" y="118.421" width="3.08" height="2.24" fill="#2036FF"/>
<path d="M79.7271 118.827L79.7911 119.003H79.9983L79.8307 119.112L79.8947 119.288L79.7271 119.179L79.5595 119.288L79.6235 119.112L79.4559 119.003H79.6631L79.7271 118.827Z" fill="white"/>
<path d="M80.5259 119.236L80.5899 119.411H80.7971L80.6295 119.52L80.6935 119.696L80.5259 119.587L80.3583 119.696L80.4223 119.52L80.2547 119.411H80.4619L80.5259 119.236Z" fill="white"/>
<path d="M80.5259 119.948L80.5899 120.124H80.7971L80.6295 120.232L80.6935 120.408L80.5259 120.3L80.3583 120.408L80.4223 120.232L80.2547 120.124H80.4619L80.5259 119.948Z" fill="white"/>
<path d="M80.5259 118.522L80.5899 118.698H80.7971L80.6295 118.807L80.6935 118.983L80.5259 118.874L80.3583 118.983L80.4223 118.807L80.2547 118.698H80.4619L80.5259 118.522Z" fill="white"/>
<path d="M81.4383 118.827L81.5023 119.003H81.7095L81.5419 119.112L81.6059 119.288L81.4383 119.179L81.2706 119.288L81.3347 119.112L81.167 119.003H81.3742L81.4383 118.827Z" fill="white"/>
<path d="M79.7271 119.643L79.7911 119.818H79.9983L79.8307 119.927L79.8947 120.103L79.7271 119.994L79.5595 120.103L79.6235 119.927L79.4559 119.818H79.6631L79.7271 119.643Z" fill="white"/>
<path d="M81.4383 119.643L81.5023 119.818H81.7095L81.5419 119.927L81.6059 120.103L81.4383 119.994L81.2706 120.103L81.3347 119.927L81.167 119.818H81.3742L81.4383 119.643Z" fill="white"/>
</g>
</g>
<defs>
<filter id="filter0_i" x="28.8806" y="47.1823" width="55.7037" height="60.4622" filterUnits="userSpaceOnUse" color-interpolation-filters="sRGB">
<feFlood flood-opacity="0" result="BackgroundImageFix"/>
<feBlend mode="normal" in="SourceGraphic" in2="BackgroundImageFix" result="shape"/>
<feColorMatrix in="SourceAlpha" type="matrix" values="0 0 0 0 0 0 0 0 0 0 0 0 0 0 0 0 0 0 127 0" result="hardAlpha"/>
<feOffset dy="-4.3498"/>
<feComposite in2="hardAlpha" operator="arithmetic" k2="-1" k3="1"/>
<feColorMatrix type="matrix" values="0 0 0 0 0.937255 0 0 0 0 0.509804 0 0 0 0 0.392157 0 0 0 1 0"/>
<feBlend mode="normal" in2="shape" result="effect1_innerShadow"/>
</filter>
<filter id="filter1_i" x="14.1396" y="34.0251" width="71.2519" height="23.492" filterUnits="userSpaceOnUse" color-interpolation-filters="sRGB">
<feFlood flood-opacity="0" result="BackgroundImageFix"/>
<feBlend mode="normal" in="SourceGraphic" in2="BackgroundImageFix" result="shape"/>
<feColorMatrix in="SourceAlpha" type="matrix" values="0 0 0 0 0 0 0 0 0 0 0 0 0 0 0 0 0 0 127 0" result="hardAlpha"/>
<feOffset dx="1.34219" dy="3.41649"/>
<feComposite in2="hardAlpha" operator="arithmetic" k2="-1" k3="1"/>
<feColorMatrix type="matrix" values="0 0 0 0 1 0 0 0 0 0.844156 0 0 0 0 0.5 0 0 0 1 0"/>
<feBlend mode="normal" in2="shape" result="effect1_innerShadow"/>
</filter>
<filter id="filter2_i" x="17.3121" y="29.9414" width="67.9637" height="27.5759" filterUnits="userSpaceOnUse" color-interpolation-filters="sRGB">
<feFlood flood-opacity="0" result="BackgroundImageFix"/>
<feBlend mode="normal" in="SourceGraphic" in2="BackgroundImageFix" result="shape"/>
<feColorMatrix in="SourceAlpha" type="matrix" values="0 0 0 0 0 0 0 0 0 0 0 0 0 0 0 0 0 0 127 0" result="hardAlpha"/>
<feOffset dx="1.34219" dy="3.41649"/>
<feComposite in2="hardAlpha" operator="arithmetic" k2="-1" k3="1"/>
<feColorMatrix type="matrix" values="0 0 0 0 1 0 0 0 0 0.844156 0 0 0 0 0.5 0 0 0 1 0"/>
<feBlend mode="normal" in2="shape" result="effect1_innerShadow"/>
</filter>
<linearGradient id="paint0_linear" x1="72.31" y1="139" x2="70" y2="-1" gradientUnits="userSpaceOnUse">
<stop stop-color="#E64444"/>
<stop offset="1" stop-color="#FF6161"/>
</linearGradient>
<linearGradient id="paint1_linear" x1="72.31" y1="139" x2="70" y2="-1" gradientUnits="userSpaceOnUse">
<stop stop-color="#E64444"/>
<stop offset="1" stop-color="#FF6161"/>
</linearGradient>
<clipPath id="clip0">
<rect width="28.6936" height="28.2232" fill="white" transform="translate(129.153 54.0332) rotate(67.7878)"/>
</clipPath>
</defs>
</svg>
