<svg width="24" height="20" viewBox="0 0 24 20" fill="none" xmlns="http://www.w3.org/2000/svg">
<path d="M10.0094 20.0187C15.5374 20.0187 20.0187 15.5374 20.0187 10.0094C20.0187 4.48135 15.5374 0 10.0094 0C4.48135 0 0 4.48135 0 10.0094C0 15.5374 4.48135 20.0187 10.0094 20.0187Z" fill="#FAD201"/>
<path fill-rule="evenodd" clip-rule="evenodd" d="M10.0001 13.1249L7.88002 14.2395C7.45656 14.4621 6.9328 14.2993 6.71018 13.8759C6.62152 13.7072 6.59093 13.5141 6.62314 13.3263L7.02803 10.9656L5.31287 9.29373C4.97028 8.95979 4.96327 8.41136 5.29721 8.06877C5.43019 7.93235 5.60443 7.84357 5.79295 7.81617L8.16326 7.47175L9.22329 5.32389C9.43502 4.89488 9.95444 4.71874 10.3835 4.93047C10.5543 5.01478 10.6926 5.15306 10.7769 5.32389L11.8369 7.47175L14.2072 7.81617C14.6807 7.88497 15.0087 8.32454 14.9399 8.79799C14.9125 8.98652 14.8237 9.16075 14.6873 9.29373L12.9721 10.9656L13.377 13.3263C13.4579 13.7979 13.1412 14.2457 12.6697 14.3265C12.4819 14.3588 12.2888 14.3282 12.1201 14.2395L10.0001 13.1249Z" fill="#AC9622"/>
</svg>
