<svg width="139" height="139" viewBox="0 0 139 139" fill="none" xmlns="http://www.w3.org/2000/svg">
<mask id="mask0" mask-type="alpha" maskUnits="userSpaceOnUse" x="0" y="0" width="139" height="139">
<path d="M0 4C0 1.79086 1.79086 0 4 0H139V139H0V4Z" fill="#F2F3F5"/>
<path d="M0.5 4C0.5 2.06701 2.067 0.5 4 0.5H138.5V138.5H0.5V4Z" stroke="#6A7480" stroke-opacity="0.5"/>
</mask>
<g mask="url(#mask0)">
<mask id="mask1" mask-type="alpha" maskUnits="userSpaceOnUse" x="0" y="0" width="140" height="140">
<rect width="140" height="140" fill="url(#paint0_linear)"/>
</mask>
<g mask="url(#mask1)">
<rect x="-0.140137" width="140.14" height="140.14" fill="url(#paint1_linear)"/>
<path d="M97.7092 106.425H43.71V134.318H97.7092V106.425Z" fill="url(#paint2_linear)"/>
<path d="M84.1062 106.425H58.5493V134.318H84.1062V106.425Z" fill="url(#paint3_linear)"/>
<path d="M84.7926 111.811C84.6831 97.1843 56.654 98.1596 56.7635 111.811C56.873 125.462 68.3694 137.86 70.5591 140.088C72.6394 137.999 84.9021 126.437 84.7926 111.811Z" fill="#DE813E"/>
<path d="M81.3577 110.011C81.2756 99.5712 60.2538 100.267 60.3359 110.011C60.418 119.755 69.0403 128.605 70.6826 130.195C72.2428 128.704 81.4399 120.452 81.3577 110.011Z" fill="url(#paint4_linear)"/>
<path d="M78.1978 107.95C78.1404 101.489 63.4388 101.92 63.4963 107.95C63.5537 113.98 69.5836 119.456 70.7322 120.44C71.8233 119.517 78.2552 114.41 78.1978 107.95Z" fill="url(#paint5_linear)"/>
<path fill-rule="evenodd" clip-rule="evenodd" d="M38.2872 111.371C44.9974 111.371 50.5633 116.26 51.6025 122.662C52.4942 122.324 53.4627 122.139 54.4745 122.139C58.9445 122.139 62.5682 125.754 62.5682 130.214C62.5682 130.579 62.544 130.938 62.4971 131.289C64.3549 129.775 66.7277 128.868 69.3129 128.868C73.5835 128.868 77.2746 131.343 79.0241 134.934C80.1939 129.16 85.0649 124.831 90.8961 124.831C91.031 124.831 91.1653 124.833 91.2992 124.837C92.8085 118.654 98.397 114.063 105.06 114.063C112.883 114.063 119.224 120.39 119.224 128.195C119.224 136 112.883 142.328 105.06 142.328C104.11 142.328 103.182 142.234 102.284 142.056C100.572 146.929 96.1194 150.403 90.8961 150.403C85.8576 150.403 81.536 147.171 79.699 142.567C78.4211 147.088 74.255 150.403 69.3129 150.403C63.3529 150.403 58.5214 145.582 58.5214 139.636C58.5214 138.731 58.6333 137.852 58.844 137.012C57.5839 137.821 56.0841 138.29 54.4745 138.29C51.5965 138.29 49.0693 136.791 47.6343 134.533C45.2107 136.86 41.9163 138.29 38.2872 138.29C30.8372 138.29 24.7977 132.264 24.7977 124.831C24.7977 117.397 30.8372 111.371 38.2872 111.371Z" fill="#C9D1FF"/>
<circle cx="17.3601" cy="133.559" r="14.14" fill="#C9D1FF"/>
<circle cx="125.3" cy="133.559" r="14.14" fill="#C9D1FF"/>
<path fill-rule="evenodd" clip-rule="evenodd" d="M42.3337 119.447C49.0388 119.447 54.4743 124.87 54.4743 131.56C54.4743 132.779 54.294 133.955 53.9585 135.064C54.9134 134.546 56.0084 134.252 57.1722 134.252C60.8972 134.252 63.9169 137.265 63.9169 140.982C63.9169 141.145 63.911 141.307 63.8996 141.467C66.1224 138.709 69.5344 136.944 73.3595 136.944C76.512 136.944 79.3839 138.143 81.5421 140.109C82.3496 133.031 88.6452 127.522 96.2916 127.522C104.487 127.522 111.13 133.85 111.13 141.655C111.13 149.46 104.487 155.787 96.2916 155.787C91.9429 155.787 88.0311 154.005 85.3171 151.166C84.3167 156.85 79.3438 161.17 73.3595 161.17C66.6545 161.17 61.219 155.747 61.219 149.057C61.219 148.023 61.3489 147.019 61.5932 146.061C60.4114 147.089 58.8646 147.711 57.1722 147.711C53.4471 147.711 50.4274 144.698 50.4274 140.982C50.4274 140.846 50.4315 140.711 50.4394 140.577C48.291 142.502 45.4494 143.673 42.3337 143.673C35.6287 143.673 30.1932 138.25 30.1932 131.56C30.1932 124.87 35.6287 119.447 42.3337 119.447Z" fill="#E6E8FE"/>
<circle cx="23.66" cy="137.199" r="10.64" fill="#E6E8FE"/>
<circle cx="119.42" cy="137.199" r="10.64" fill="#E6E8FE"/>
<mask id="mask2" mask-type="alpha" maskUnits="userSpaceOnUse" x="39" y="81" width="28" height="28">
<path d="M58.5213 81.8297L46.6095 91.8884C45.2487 92.9491 44.0336 94.3539 42.9643 96.1028C42.0125 97.6594 41.0013 101.099 39.9306 106.422L39.9306 106.422C39.7516 107.312 40.1928 108.211 40.916 108.432C41.0221 108.464 41.1309 108.48 41.2402 108.48C44.2279 108.48 49.9883 108.479 58.5213 108.477C69.1667 108.475 69.1667 99.5926 58.5213 81.8297Z" fill="white"/>
</mask>
<g mask="url(#mask2)">
<path d="M58.5213 81.8297L46.6095 91.8884C45.2487 92.9491 44.0336 94.3539 42.9643 96.1028C42.0125 97.6594 41.0013 101.099 39.9306 106.422L39.9306 106.422C39.7516 107.312 40.1928 108.211 40.916 108.432C41.0221 108.464 41.1309 108.48 41.2402 108.48C44.2279 108.48 49.9883 108.479 58.5213 108.477C69.1667 108.475 69.1667 99.5926 58.5213 81.8297Z" fill="#E9447E"/>
<path fill-rule="evenodd" clip-rule="evenodd" d="M70.1704 51.3937C58.3268 64.3315 52.2725 83.7484 52.0074 109.644C84.389 112.43 52.0074 109.644 84.389 112.43C86.8015 86.0109 82.7207 65.7074 72.1464 51.5198L72.1464 51.5198C71.6351 50.8337 70.7567 50.7705 70.1845 51.3785C70.1798 51.3835 70.1751 51.3885 70.1704 51.3937Z" fill="url(#paint6_linear)"/>
</g>
<mask id="mask3" mask-type="alpha" maskUnits="userSpaceOnUse" x="75" y="81" width="27" height="28">
<path d="M82.6967 81.1425L94.6085 91.4605C95.9693 92.5486 97.1844 93.9896 98.2537 95.7836C99.2055 97.3803 100.217 100.908 101.287 106.368L101.287 106.368C101.466 107.281 101.025 108.204 100.302 108.43C100.196 108.463 100.087 108.48 99.9775 108.48C94.4433 108.478 88.683 108.477 82.6967 108.477C72.5713 108.477 72.5713 99.3655 82.6967 81.1425Z" fill="white"/>
</mask>
<g mask="url(#mask3)">
<path d="M82.6967 81.1425L94.6085 91.4605C95.9693 92.5486 97.1844 93.9896 98.2537 95.7836C99.2055 97.3803 100.217 100.908 101.287 106.368L101.287 106.368C101.466 107.281 101.025 108.204 100.302 108.43C100.196 108.463 100.087 108.48 99.9775 108.48C94.4433 108.478 88.683 108.477 82.6967 108.477C72.5713 108.477 72.5713 99.3655 82.6967 81.1425Z" fill="#E9447E"/>
<path fill-rule="evenodd" clip-rule="evenodd" d="M72.0872 50.043C83.9898 63.3092 90.0704 83.2244 90.329 109.789C57.7746 112.662 90.329 109.789 57.7746 112.662C55.3573 85.5614 59.466 64.732 70.1006 50.1733L70.1007 50.1733C70.6149 49.4693 71.498 49.404 72.073 50.0274C72.0778 50.0325 72.0825 50.0377 72.0872 50.043Z" fill="url(#paint7_linear)"/>
</g>
<mask id="mask4" mask-type="alpha" maskUnits="userSpaceOnUse" x="55" y="13" width="32" height="96">
<path d="M69.7197 13.8677C58.9635 30.0995 54.1696 53.2872 55.3381 83.4309C55.3381 91.6198 55.3382 106.435 55.3382 108.509C75.1071 108.509 67.4579 108.509 86.8468 108.509C86.8468 103.472 86.8468 86.9778 86.8468 83.4309C87.7289 52.4636 82.66 29.2589 71.6401 13.8167C71.1072 13.0699 70.2531 13.0843 69.7325 13.8487C69.7282 13.855 69.724 13.8613 69.7197 13.8677Z" fill="white"/>
</mask>
<g mask="url(#mask4)">
<path d="M69.7193 13.8228C58.9631 25.1137 54.1521 48.648 55.3377 91.0655C55.3377 93.5327 55.3377 108.441 55.3377 108.441H86.8464C86.8464 108.441 86.8464 94.2566 86.8464 91.0655C87.6783 70.2202 82.6596 24.5289 71.6396 13.7873C71.1068 13.2679 70.2527 13.2779 69.7321 13.8096C69.7278 13.814 69.7235 13.8184 69.7193 13.8228Z" fill="white"/>
<path d="M88.2282 10.5184H70.6406V108.487H88.2282V10.5184Z" fill="#F0F2FF"/>
</g>
<path d="M70.8152 45.8802C73.7952 45.8802 76.211 43.4698 76.211 40.4965C76.211 37.5232 73.7952 35.1128 70.8152 35.1128C67.8352 35.1128 65.4194 37.5232 65.4194 40.4965C65.4194 43.4698 67.8352 45.8802 70.8152 45.8802Z" fill="url(#paint8_linear)" stroke="#4F27B8" stroke-width="1.34592"/>
<path d="M99.6638 41.4458C100.781 41.4458 101.687 40.542 101.687 39.427C101.687 38.312 100.781 37.4081 99.6638 37.4081C98.5463 37.4081 97.6404 38.312 97.6404 39.427C97.6404 40.542 98.5463 41.4458 99.6638 41.4458Z" fill="white"/>
<path opacity="0.770159" d="M117.874 60.2891C118.619 60.2891 119.223 59.6865 119.223 58.9432C119.223 58.1999 118.619 57.5973 117.874 57.5973C117.129 57.5973 116.525 58.1999 116.525 58.9432C116.525 59.6865 117.129 60.2891 117.874 60.2891Z" fill="white"/>
<path opacity="0.770159" d="M91.5008 14.1716C92.2458 14.1716 92.8497 13.569 92.8497 12.8257C92.8497 12.0823 92.2458 11.4797 91.5008 11.4797C90.7558 11.4797 90.1519 12.0823 90.1519 12.8257C90.1519 13.569 90.7558 14.1716 91.5008 14.1716Z" fill="white"/>
<path opacity="0.770159" d="M9.60883 108.43C10.3538 108.43 10.9578 107.827 10.9578 107.084C10.9578 106.341 10.3538 105.738 9.60883 105.738C8.86383 105.738 8.25989 106.341 8.25989 107.084C8.25989 107.827 8.86383 108.43 9.60883 108.43Z" fill="white"/>
<path d="M40.3105 33.3703C41.428 33.3703 42.3339 32.4664 42.3339 31.3514C42.3339 30.2364 41.428 29.3325 40.3105 29.3325C39.193 29.3325 38.2871 30.2364 38.2871 31.3514C38.2871 32.4664 39.193 33.3703 40.3105 33.3703Z" fill="white"/>
<path opacity="0.313384" d="M32.8906 65.673C33.6356 65.673 34.2395 65.0705 34.2395 64.3271C34.2395 63.5838 33.6356 62.9812 32.8906 62.9812C32.1456 62.9812 31.5416 63.5838 31.5416 64.3271C31.5416 65.0705 32.1456 65.673 32.8906 65.673Z" fill="white"/>
<path opacity="0.313384" d="M9.60883 51.5452C10.3538 51.5452 10.9578 50.9426 10.9578 50.1993C10.9578 49.456 10.3538 48.8534 9.60883 48.8534C8.86383 48.8534 8.25989 49.456 8.25989 50.1993C8.25989 50.9426 8.86383 51.5452 9.60883 51.5452Z" fill="white"/>
<path opacity="0.313384" d="M17.8529 22.0036C18.5979 22.0036 19.2018 21.401 19.2018 20.6577C19.2018 19.9144 18.5979 19.3118 17.8529 19.3118C17.1078 19.3118 16.5039 19.9144 16.5039 20.6577C16.5039 21.401 17.1078 22.0036 17.8529 22.0036Z" fill="white"/>
<path opacity="0.2" d="M119.256 14.1716C120.001 14.1716 120.605 13.569 120.605 12.8257C120.605 12.0823 120.001 11.4797 119.256 11.4797C118.511 11.4797 117.907 12.0823 117.907 12.8257C117.907 13.569 118.511 14.1716 119.256 14.1716Z" fill="white"/>
<path opacity="0.630046" d="M26.8209 77.7856C27.9384 77.7856 28.8443 76.8817 28.8443 75.7667C28.8443 74.6517 27.9384 73.7478 26.8209 73.7478C25.7034 73.7478 24.7975 74.6517 24.7975 75.7667C24.7975 76.8817 25.7034 77.7856 26.8209 77.7856Z" fill="white"/>
<path opacity="0.49249" d="M111.13 93.9372C111.875 93.9372 112.479 93.3346 112.479 92.5913C112.479 91.848 111.875 91.2454 111.13 91.2454C110.385 91.2454 109.781 91.848 109.781 92.5913C109.781 93.3346 110.385 93.9372 111.13 93.9372Z" fill="white"/>
<path opacity="0.49249" d="M130.111 81.7735C130.856 81.7735 131.46 81.1709 131.46 80.4276C131.46 79.6843 130.856 79.0817 130.111 79.0817C129.366 79.0817 128.762 79.6843 128.762 80.4276C128.762 81.1709 129.366 81.7735 130.111 81.7735Z" fill="white"/>
<path d="M69.3545 87.5122V91.7594L69.4722 91.9167H73.2504V90.741H71.8336L71.733 90.6288V87.5121C71.733 86.7252 71.5213 86.3562 70.978 86.3562H70.1105C69.5664 86.3564 69.3545 86.7252 69.3545 87.5122ZM70.7513 87.5122C71.0073 87.5122 71.0604 87.6816 71.0604 88.0505V90.6159L70.9387 90.7412H70.1293L70.0266 90.629V88.0505C70.0266 87.6816 70.0792 87.5122 70.3364 87.5122H70.7513Z" fill="#3B2A65"/>
<path d="M70.0692 84.2125L71.5514 83.2008L71.695 83.2568V85.4942L72.3976 86.0653V82.7349L72.5381 82.5041L73.2513 81.987V80.6415L69.3062 83.5907" fill="#3B2A65"/>
<path d="M72.484 70.8341H71.4353L71.3308 70.7131V68.4622H70.6631V72.0297H73.2512V66.7673H72.5867V70.7078" fill="#3B2A65"/>
<path d="M69.3545 66.7118V72.0297H70.0887H70.7097V70.8379H70.0887V66.7118H69.3545Z" fill="#3B2A65"/>
<path d="M70.0497 77.9606V73.6764C69.5049 73.7424 69.3538 74.0804 69.3538 74.9379V78.0062C69.3538 78.9738 69.5426 79.2825 70.2749 79.2825H72.3293C73.0623 79.2825 73.2512 78.9738 73.2512 78.0062V74.9379C73.2512 74.0679 73.0878 73.7347 72.5227 73.7119V77.9606L72.4041 78.0866H70.129" fill="#3B2A65"/>
<path d="M70.8733 94.7759V97.8926L70.7723 97.9844H70.1056L70.0351 97.8931V93.6915L69.8947 93.6341C69.5265 93.7772 69.3547 94.1478 69.3547 94.836V97.7546C69.3547 98.7217 69.5436 99.0308 70.2759 99.0308H70.7066C71.4398 99.0308 71.6283 98.7217 71.6283 97.7546V94.6449L71.714 94.5472H72.411L72.5198 94.6269V98.184H72.5164V99.1157C72.5164 99.1157 72.5699 99.2224 72.5949 99.2183C73.1071 99.1388 73.2522 98.7898 73.2522 97.9544V94.7759C73.2522 93.809 73.0633 93.4907 72.3303 93.4907H71.7937C71.0619 93.4907 70.8733 93.809 70.8733 94.7759Z" fill="#3B2A65"/>
<path d="M70.6493 58.3062L69.404 60.0138V61.7845L69.569 61.8578L71.4353 59.308C71.1868 58.9694 70.9243 58.6348 70.6493 58.3062Z" fill="#E9447E"/>
<path d="M69.4068 56.4781V54.8953L69.6163 54.7616C70.6554 55.8378 75.1097 60.6512 75.5869 71.1141C75.5869 71.1141 75.2907 62.332 69.4068 56.4781Z" fill="#E9447E"/>
<ellipse cx="68.757" cy="128.443" rx="15.6556" ry="7.91677" transform="rotate(10.4623 68.757 128.443)" fill="url(#paint9_radial)" fill-opacity="0.5"/>
</g>
</g>
<defs>
<linearGradient id="paint0_linear" x1="70" y1="0" x2="70" y2="140" gradientUnits="userSpaceOnUse">
<stop stop-color="#343434"/>
<stop offset="1" stop-color="#43209F"/>
</linearGradient>
<linearGradient id="paint1_linear" x1="69.9299" y1="0" x2="69.9299" y2="140.14" gradientUnits="userSpaceOnUse">
<stop stop-color="#343434"/>
<stop offset="1" stop-color="#43209F"/>
</linearGradient>
<linearGradient id="paint2_linear" x1="70.7096" y1="106.425" x2="70.7096" y2="134.318" gradientUnits="userSpaceOnUse">
<stop stop-color="#674DB2"/>
<stop offset="1" stop-color="#4622A5"/>
</linearGradient>
<linearGradient id="paint3_linear" x1="71.3278" y1="106.425" x2="71.3278" y2="134.318" gradientUnits="userSpaceOnUse">
<stop stop-color="#836FC3"/>
<stop offset="1" stop-color="#4622A5"/>
</linearGradient>
<linearGradient id="paint4_linear" x1="81.3583" y1="110.455" x2="65.913" y2="131.233" gradientUnits="userSpaceOnUse">
<stop stop-color="#FFAC71"/>
<stop offset="1" stop-color="#FFA25F" stop-opacity="0"/>
</linearGradient>
<linearGradient id="paint5_linear" x1="76.3432" y1="111.028" x2="70.8471" y2="120.44" gradientUnits="userSpaceOnUse">
<stop stop-color="#FFF4BC"/>
<stop offset="1" stop-color="#FFF4BC" stop-opacity="0"/>
</linearGradient>
<linearGradient id="paint6_linear" x1="69.6412" y1="84.9798" x2="67.4052" y2="110.969" gradientUnits="userSpaceOnUse">
<stop stop-color="#E9447E"/>
<stop offset="1" stop-color="#B13F96"/>
</linearGradient>
<linearGradient id="paint7_linear" x1="72.6091" y1="84.4957" x2="74.9609" y2="111.145" gradientUnits="userSpaceOnUse">
<stop stop-color="#E9447E"/>
<stop offset="1" stop-color="#B13F96"/>
</linearGradient>
<linearGradient id="paint8_linear" x1="68.6064" y1="36.9316" x2="74.2576" y2="44.7074" gradientUnits="userSpaceOnUse">
<stop stop-color="#41219E"/>
<stop offset="1" stop-color="#6E57B9"/>
</linearGradient>
<radialGradient id="paint9_radial" cx="0" cy="0" r="1" gradientUnits="userSpaceOnUse" gradientTransform="translate(68.757 128.443) rotate(90) scale(7.91677 15.6556)">
<stop stop-color="#F8A365"/>
<stop offset="1" stop-color="#DE813E" stop-opacity="0"/>
</radialGradient>
</defs>
</svg>
