<svg width="68" height="49" viewBox="0 0 68 49" fill="none" xmlns="http://www.w3.org/2000/svg">
<g clip-path="url(#clip0)">
<path d="M1.40234 17.9883L67.4023 17.9883L67.4023 0.988283L1.40234 0.98828L1.40234 17.9883Z" fill="#92C88F"/>
<path opacity="0.495047" d="M66.9023 12.4883L1.90234 12.4883" stroke="#43B581" stroke-linecap="square"/>
<path opacity="0.495047" d="M66.9023 9.48828L1.90234 9.48828" stroke="#43B581" stroke-linecap="square"/>
<path opacity="0.495047" d="M66.9023 6.48828L1.90234 6.48828" stroke="#43B581" stroke-linecap="square"/>
<path opacity="0.495047" d="M66.9023 3.48828L1.90234 3.48828" stroke="#43B581" stroke-linecap="square"/>
<path d="M1.40234 14.7883L1.40234 47.9883L67.4023 47.9883L67.4023 14.7883L1.40234 14.7883Z" fill="#43B581"/>
<path fill-rule="evenodd" clip-rule="evenodd" d="M6.80266 23.9877C9.34317 23.9877 11.4027 21.9282 11.4027 19.3877C11.4027 19.1842 11.3895 18.9839 11.3638 18.7874L57.4415 18.7874C57.4159 18.9839 57.4027 19.1842 57.4027 19.3877C57.4027 21.9282 59.4621 23.9877 62.0027 23.9877L62.2021 23.9832L62.2023 38.7919C62.1361 38.7891 62.0695 38.7877 62.0027 38.7877C59.4621 38.7877 57.4027 40.8472 57.4027 43.3877L57.4071 43.5882L11.3984 43.5883C11.4012 43.5218 11.4027 43.4549 11.4027 43.3877C11.4027 40.8472 9.34317 38.7877 6.80266 38.7877L6.60212 38.7932L6.60207 23.9834C6.66858 23.9862 6.73545 23.9877 6.80266 23.9877Z" fill="#F2F2F2"/>
<path d="M42.6023 31.1883C42.6023 26.77 39.0206 23.1883 34.6023 23.1883C30.1841 23.1883 26.6023 26.77 26.6023 31.1883C26.6023 35.6066 30.1841 39.1883 34.6023 39.1883C39.0206 39.1883 42.6023 35.6066 42.6023 31.1883Z" fill="#43B581"/>
<path d="M33.907 38.0414L33.907 35.5258C33.3914 35.4424 32.9825 35.2836 32.6805 35.0492C32.3836 34.8148 32.1492 34.5388 31.9773 34.2211L31.0477 34.2211L31.0477 32.8773L33.0086 32.8773L33.0086 32.9633L33.0242 32.9555C33.0242 33.3773 33.17 33.7003 33.4617 33.9242C33.7534 34.143 34.1857 34.2523 34.7586 34.2523C35.2794 34.2523 35.6909 34.1508 35.993 33.9477C36.3003 33.7445 36.4539 33.4555 36.4539 33.0805C36.4539 32.8878 36.4018 32.7263 36.2977 32.5961C36.1987 32.4659 36.0711 32.3591 35.9148 32.2758C35.7638 32.1872 35.5945 32.1169 35.407 32.0648C35.2195 32.0128 35.0398 31.9633 34.868 31.9164L33.493 31.5492C33.1961 31.4711 32.9227 31.3695 32.6727 31.2445C32.4227 31.1143 32.2065 30.9555 32.0242 30.768C31.8471 30.5805 31.7091 30.3591 31.6102 30.1039C31.5112 29.8487 31.4617 29.5518 31.4617 29.2133C31.4617 28.9112 31.5164 28.6326 31.6258 28.3773C31.7352 28.1169 31.894 27.8878 32.1023 27.6898C32.3107 27.4919 32.5659 27.3279 32.868 27.1977C33.1753 27.0674 33.5216 26.9737 33.907 26.9164L33.907 24.2523L35.4461 24.2523L35.4461 26.9242C35.8888 27.0023 36.2716 27.143 36.5945 27.3461C36.9174 27.5492 37.1779 27.7914 37.3758 28.0727L38.1648 28.0727L38.1648 29.4164L36.532 29.4164L36.3523 29.4398L36.3523 29.4164L36.3367 29.4164L36.3367 29.2445C36.2846 28.906 36.1154 28.6326 35.8289 28.4242C35.5424 28.2159 35.1622 28.1117 34.6883 28.1117C34.1206 28.1117 33.6883 28.2055 33.3914 28.393C33.0945 28.5753 32.9461 28.8279 32.9461 29.1508C32.9461 29.3695 32.993 29.544 33.0867 29.6742C33.1857 29.8044 33.3081 29.9112 33.4539 29.9945C33.5997 30.0727 33.7586 30.1352 33.9305 30.182C34.1076 30.2237 34.2768 30.268 34.4383 30.3148L35.7977 30.7289C36.1414 30.8331 36.4487 30.9529 36.7195 31.0883C36.9956 31.2185 37.2273 31.3721 37.4148 31.5492C37.6023 31.7263 37.7456 31.9346 37.8445 32.1742C37.9487 32.4086 38.0008 32.6846 38.0008 33.0023C38.0008 33.3253 37.9383 33.6273 37.8133 33.9086C37.6935 34.1846 37.5216 34.432 37.2977 34.6508C37.0737 34.8695 36.8029 35.0544 36.4852 35.2055C36.1727 35.3565 35.8263 35.4633 35.4461 35.5258L35.4461 38.0414L33.907 38.0414Z" fill="#F2F2F2"/>
<path d="M19.0023 31.1883C19.0023 30.3046 18.286 29.5883 17.4023 29.5883C16.5187 29.5883 15.8023 30.3046 15.8023 31.1883C15.8023 32.0719 16.5187 32.7883 17.4023 32.7883C18.286 32.7883 19.0023 32.0719 19.0023 31.1883Z" fill="#439C3E"/>
<path d="M53.4023 31.1883C53.4023 30.3046 52.686 29.5883 51.8023 29.5883C50.9187 29.5883 50.2023 30.3046 50.2023 31.1883C50.2023 32.0719 50.9187 32.7883 51.8023 32.7883C52.686 32.7883 53.4023 32.0719 53.4023 31.1883Z" fill="#439C3E"/>
</g>
<defs>
<clipPath id="clip0">
<rect x="67.5" y="0.500002" width="48" height="67" rx="4" transform="rotate(90 67.5 0.500002)" fill="white"/>
</clipPath>
</defs>
</svg>
