<svg width="70" height="51" viewBox="0 0 70 51" fill="none" xmlns="http://www.w3.org/2000/svg">
<path d="M0.00012207 25.4L0.00012207 14H8.40012V25.4H0.00012207Z" fill="#B4B6FF"/>
<path d="M0.00012207 36.8L0.00012207 25.4H8.40012V36.8H0.00012207Z" fill="#565AD4"/>
<path fill-rule="evenodd" clip-rule="evenodd" d="M8.40015 19.1V31.7L23.8298 25.5158L8.40015 19.1Z" fill="#6A6EED"/>
<path fill-rule="evenodd" clip-rule="evenodd" d="M8.40015 8.29999L23.8298 25.5158L8.40015 19.7V8.29999Z" fill="#B4B6FF"/>
<path fill-rule="evenodd" clip-rule="evenodd" d="M8.40015 42.6063L23.8298 25.5158L8.40015 31.1V42.6063Z" fill="#4A4DC0"/>
<path fill-rule="evenodd" clip-rule="evenodd" d="M0.00012207 25.4L8.40012 31.1V19.7L0.00012207 25.4Z" fill="#8D90FF"/>
<path fill-rule="evenodd" clip-rule="evenodd" d="M0.00012207 36.8L8.40012 42.6063V31.1L0.00012207 36.8Z" fill="#6A6EED"/>
<path fill-rule="evenodd" clip-rule="evenodd" d="M0.00012207 14L8.40012 19.5532V8.29999L0.00012207 14Z" fill="#D6D7FF"/>
<path d="M67.3501 25.55C67.3501 38.1421 57.1422 48.35 44.5501 48.35C31.958 48.35 21.7501 38.1421 21.7501 25.55C21.7501 12.9579 31.958 2.75 44.5501 2.75C57.1422 2.75 67.3501 12.9579 67.3501 25.55Z" stroke="#FAD200" stroke-width="4.5"/>
<path fill-rule="evenodd" clip-rule="evenodd" d="M3.00012 19.9914C4.4716 20.4483 5.48512 20.9532 6.04068 21.5063C6.59624 22.0593 7.15134 23.2239 7.706 25C8.21285 23.2708 8.76762 22.1062 9.37033 21.5063C9.97303 20.9063 11.183 20.4013 13.0001 19.9914C11.1949 19.491 9.98494 18.9348 9.37033 18.323C8.75571 17.7112 8.20093 16.6035 7.706 15C7.21924 16.5947 6.66413 17.7024 6.04068 18.323C5.41722 18.9436 4.4037 19.4998 3.00012 19.9914Z" fill="white"/>
</svg>
