<svg width="75" height="50" viewBox="0 0 75 50" fill="none" xmlns="http://www.w3.org/2000/svg">
<g clip-path="url(#clip0)">
<path d="M5.78966 49.5001C5.75821 49.4965 5.65158 49.4854 5.55272 49.4755C4.65025 49.3849 3.68687 49.0158 2.92957 48.4706C1.79416 47.6532 0.994055 46.4629 0.660322 45.0948C0.482981 44.3678 0.44772 43.5533 0.561149 42.8041C0.865271 40.7951 2.19281 39.0743 4.03438 38.302C4.49396 38.1092 4.95007 37.9873 5.48735 37.9137C5.78518 37.8729 6.51053 37.8727 6.81098 37.9133C7.44818 37.9995 7.98825 38.1602 8.54314 38.4287C9.15373 38.7241 9.57627 39.0283 10.0877 39.5406C10.5349 39.9885 10.811 40.3613 11.1311 40.9494L11.1992 41.0744L10.9578 41.2529C10.6254 41.4989 9.84557 42.0553 9.5916 42.2278L9.38179 42.3703L9.29548 42.1827C9.18877 41.9508 9.1128 41.8134 8.98978 41.6296C8.49824 40.8956 7.7144 40.3712 6.86001 40.205C6.40792 40.117 5.85135 40.1268 5.40565 40.2306C4.93764 40.3396 4.42941 40.584 4.04116 40.8869C3.88466 41.0089 3.59664 41.2946 3.46991 41.4534C2.78612 42.3102 2.53425 43.4019 2.76877 44.4922C2.84996 44.8697 3.06012 45.3629 3.27938 45.6904C3.85965 46.5574 4.74909 47.1128 5.75655 47.2374C5.93466 47.2594 6.36367 47.2594 6.54178 47.2374C7.43398 47.1271 8.25838 46.6635 8.82171 45.9554C8.98762 45.7468 9.10322 45.5663 9.23508 45.3099C9.29286 45.1975 9.34496 45.1056 9.35086 45.1056C9.35676 45.1056 9.76752 45.3955 10.2637 45.7498L11.1658 46.394L11.0744 46.5669C10.8847 46.9257 10.5583 47.3767 10.2544 47.7001C9.7365 48.2511 9.23211 48.6255 8.57583 48.9462C8.00902 49.2231 7.40838 49.3997 6.77013 49.4772C6.62703 49.4945 5.89141 49.5117 5.78966 49.5001ZM13.5027 43.6349V37.9891H14.5975H15.6924V40.0154V42.0417H18.5521H21.4118V40.0154V37.9891H22.5066H23.6015V43.6349V49.2808H22.5066H21.4118V46.7969V44.3131H18.5521H15.6924V46.7969V49.2808H14.5975H13.5027V43.6349ZM25.8138 48.2799C26.0578 47.7294 27.1839 45.1888 28.3162 42.634L30.3749 37.9891L31.911 37.9892L33.447 37.9894L35.9356 43.5657C37.3043 46.6326 38.4382 49.1731 38.4554 49.2113L38.4867 49.2808H37.1757H35.8647L35.3586 48.1615L34.8524 47.0422L31.9224 47.0462L28.9924 47.0502L28.4919 48.1655L27.9914 49.2808H26.6807H25.37L25.8138 48.2799ZM33.9262 44.7642C33.917 44.7244 31.9277 40.2777 31.9191 40.2778C31.9131 40.2779 30.0238 44.6872 29.9936 44.7717C29.9903 44.7811 30.7457 44.787 31.9598 44.787C33.637 44.787 33.9307 44.7836 33.9262 44.7642ZM40.2531 43.6349V37.9891L41.7933 37.9894L43.3334 37.9897L45.7437 41.375L48.1541 44.7604L48.1582 41.3747L48.1623 37.9891H49.2653H50.3683V43.6351V49.2811L49.4831 49.2768L48.598 49.2726L45.5408 45.0286C43.8594 42.6944 42.4782 40.7844 42.4714 40.784C42.4647 40.7837 42.4592 42.6953 42.4592 45.0321V49.2808H41.3561H40.2531V43.6349ZM54.3555 43.6349V37.9891H58.3019H62.2483V39.1248V40.2605H59.4049H56.5616V41.388V42.5156H59.1925H61.8234V43.6513V44.787H59.1925H56.5616V45.9145V47.042H59.8135H63.0653V48.1614V49.2808H58.7104H54.3555V43.6349ZM66.1538 43.6349V37.9891H67.2568H68.3599V42.5156V47.042H71.432H74.5041V48.1614V49.2808H70.329H66.1538V43.6349Z" fill="black"/>
<path d="M28.3491 35.1175C25.9921 35.0085 23.3675 34.2929 21.2515 33.1823C19.6271 32.3296 18.3397 31.3755 16.991 30.0248C15.9346 28.9668 15.1552 27.9923 14.4955 26.9043L14.2067 26.4281L14.6164 26.2108C15.4148 25.7874 19.0541 23.9238 19.0827 23.9238C19.0986 23.9238 19.249 24.1285 19.4168 24.3786C21.3134 27.2054 24.2804 29.0443 27.7526 29.5448C28.3596 29.6323 30.1848 29.6183 30.8458 29.5211C31.5813 29.413 32.4635 29.2124 33.0239 29.026C33.0603 29.0138 32.9907 28.9007 32.8304 28.7117C31.5893 27.2487 30.4579 25.2408 29.8214 23.3715C28.67 19.9901 28.5881 16.3604 29.5861 12.95C30.2058 10.8322 31.2724 8.77661 32.6231 7.09677C32.8243 6.8465 32.989 6.62569 32.989 6.60608C32.989 6.53943 31.9346 6.25877 31.2435 6.14148C30.1759 5.96027 28.5044 5.93781 27.5395 6.0917C25.9159 6.35064 24.2679 6.9587 22.9802 7.774C21.5451 8.68256 20.3485 9.85015 19.3935 11.2735L18.9719 11.902L18.4352 11.6202C18.14 11.4652 17.0434 10.8969 15.9983 10.3573C14.9532 9.81777 14.0949 9.37343 14.091 9.36993C14.0744 9.35526 14.7286 8.31465 14.9979 7.92742C15.8156 6.75171 17.2676 5.19467 18.3403 4.34314C21.1454 2.11651 24.2638 0.862493 27.7747 0.549307C28.4259 0.491205 30.0408 0.490691 30.6691 0.548376C32.898 0.753022 34.8086 1.29345 36.7825 2.27757L37.7259 2.7479L38.0419 2.56807C38.5523 2.27767 39.459 1.85867 40.1476 1.595C42.0797 0.855216 44.0256 0.503071 46.1754 0.504122C47.6767 0.504856 48.9292 0.652369 50.2888 0.988584C53.3605 1.74816 55.98 3.2049 58.237 5.40865C59.4606 6.6034 60.4195 7.82324 61.1937 9.16997L61.3111 9.37409L59.4014 10.3593C58.3511 10.9011 57.2524 11.47 56.9598 11.6234L56.4279 11.9023L56.0258 11.2958C54.042 8.3031 50.7969 6.35479 47.2449 6.02382C46.1933 5.92584 44.6319 6.01607 43.6827 6.22965C43.1942 6.33957 42.4012 6.56615 42.4014 6.59574C42.4016 6.6112 42.5313 6.78293 42.6898 6.97736C44.7253 9.47491 45.9962 12.5194 46.4068 15.8814C46.5049 16.6839 46.5179 18.7326 46.4301 19.527C46.0592 22.8818 44.7907 25.9777 42.7659 28.4701C42.3069 29.0351 42.3265 28.996 42.4737 29.0529C42.5432 29.0797 42.8685 29.1697 43.1966 29.2529C44.8642 29.6754 46.6592 29.7351 48.3447 29.4241C51.4101 28.8584 54.171 27.0454 55.9467 24.432C56.1119 24.189 56.261 23.9738 56.2781 23.9539C56.2953 23.934 56.7046 24.1158 57.1878 24.358C58.1449 24.8378 61.1429 26.3892 61.175 26.4214C61.2286 26.4749 60.2731 27.8932 59.6872 28.63C59.1324 29.3274 57.6783 30.7799 56.9836 31.3304C54.473 33.32 51.6555 34.5365 48.5522 34.9708C44.989 35.4696 41.2153 34.8017 38.145 33.1289L37.711 32.8926L37.1728 33.1773C34.5061 34.5882 31.4473 35.2608 28.3491 35.1175ZM38.3041 25.3158C39.7902 23.4763 40.7174 21.2449 40.9459 18.9582C41.0226 18.1908 40.9771 16.6275 40.8576 15.9287C40.5289 14.0057 39.8257 12.3575 38.6912 10.8514C38.4775 10.5678 38.1664 10.1886 37.9998 10.0089L37.6969 9.68201L37.4159 9.98677C37.0454 10.3885 36.428 11.2081 36.1168 11.7112C34.5368 14.2662 34.0209 17.405 34.69 20.3924C35.1111 22.2724 36.0791 24.1662 37.3838 25.6621L37.6842 26.0066L37.8157 25.8821C37.888 25.8137 38.1078 25.5588 38.3041 25.3158Z" fill="black"/>
</g>
<defs>
<clipPath id="clip0">
<rect width="74.0082" height="49" fill="white" transform="translate(0.49588 0.50412)"/>
</clipPath>
</defs>
</svg>
