<svg width="87" height="51" viewBox="0 0 87 51" fill="none" xmlns="http://www.w3.org/2000/svg">
<path fill-rule="evenodd" clip-rule="evenodd" d="M84.1859 3.39009C84.7848 1.43593 84.1859 0 81.3353 0L71.909 0C69.5122 0 68.4073 1.24043 67.808 2.60827C67.808 2.60827 63.0144 14.04 56.2237 21.4656C54.0267 23.6151 53.0279 24.2991 51.8295 24.2991C51.2304 24.2991 50.3631 23.6151 50.3631 21.6611V3.3901C50.3631 1.0451 49.6675 0 47.67 0L32.8573 0C31.3595 0 30.4587 1.08837 30.4587 2.11985C30.4587 4.34286 33.8539 4.85551 34.2039 11.1088V24.6901C34.2039 27.6677 33.6543 28.2075 32.4559 28.2075C29.2604 28.2075 21.4872 16.7248 16.8769 3.58543C15.9734 1.03161 15.0673 0 12.6582 0L3.23189 0C0.538672 0 0 1.24043 0 2.60827C0 5.05101 3.19571 17.1667 14.8798 33.1905C22.6691 44.1334 33.6437 50.0653 43.6302 50.0653C49.622 50.0653 50.3632 48.7478 50.3632 46.4784L50.3632 38.2078C50.3632 35.5727 50.9309 35.0469 52.8283 35.0469C54.2263 35.0469 56.6231 35.7308 62.2156 41.0069C68.6069 47.2601 69.6606 50.0653 73.2556 50.0653H82.6819C85.3751 50.0653 86.7217 48.7478 85.9449 46.1478C85.0948 43.5565 82.0433 39.7968 77.9942 35.3399C75.7971 32.7996 72.5016 30.064 71.5029 28.6958C70.1049 26.9373 70.5043 26.1555 71.5029 24.5923C71.5029 24.5923 82.9875 8.76384 84.1859 3.39009Z" fill="#5181B8"/>
</svg>
