<svg width="56" height="51" viewBox="0 0 56 51" fill="none" xmlns="http://www.w3.org/2000/svg">
<g clip-path="url(#clip0)">
<path d="M54.7899 50.422C54.5345 50.6774 54.2535 50.8051 53.8959 50.8051C53.5383 50.8051 53.2573 50.6774 53.0019 50.422C52.7465 50.1666 52.6443 49.8856 52.6443 49.528C52.6443 49.1704 52.772 48.8894 53.0019 48.634C53.2573 48.3785 53.5383 48.2764 53.8959 48.2764C54.2535 48.2764 54.5345 48.4041 54.7899 48.634C55.0453 48.8894 55.173 49.1704 55.173 49.528C55.173 49.86 55.0453 50.1666 54.7899 50.422ZM53.1296 48.7617C52.9253 48.966 52.8231 49.2215 52.8231 49.528C52.8231 49.8345 52.9253 50.0899 53.1296 50.2943C53.3339 50.4986 53.5894 50.6263 53.8959 50.6263C54.2024 50.6263 54.4578 50.5242 54.6622 50.2943C54.8665 50.0899 54.9687 49.8345 54.9687 49.528C54.9687 49.2215 54.8665 48.966 54.6622 48.7617C54.4578 48.5573 54.2024 48.4552 53.8959 48.4552C53.6149 48.4296 53.3595 48.5318 53.1296 48.7617ZM53.8959 48.8128C54.0747 48.8128 54.2024 48.8383 54.279 48.8639C54.4323 48.9149 54.4834 49.0427 54.4834 49.2215C54.4834 49.3492 54.4323 49.4258 54.3557 49.5024C54.3046 49.528 54.228 49.5535 54.1513 49.5791C54.2535 49.6046 54.3301 49.6302 54.3812 49.7068C54.4323 49.7834 54.4578 49.86 54.4578 49.9111V50.2176H54.228V50.0388C54.228 49.8856 54.1769 49.7834 54.1002 49.7323C54.0492 49.7068 53.947 49.6812 53.8193 49.6812H53.6405V50.2176H53.385V48.8383H53.8959V48.8128ZM54.1513 49.0427C54.1002 49.0171 53.9981 48.9916 53.8448 48.9916H53.6405V49.4769H53.8704C53.9725 49.4769 54.0492 49.4769 54.1002 49.4514C54.2024 49.4258 54.2535 49.3492 54.2535 49.247C54.2535 49.1448 54.2024 49.0937 54.1513 49.0427Z" fill="black"/>
<path d="M45.5688 0H9.783C4.39341 0 0 4.26569 0 9.47648V41.2776C0 46.565 4.24015 50.7285 9.68083 50.7285H45.4922C50.9329 50.7285 55.173 46.565 55.173 41.2776V9.47648C55.173 4.16352 50.9584 0 45.5688 0ZM54.0747 41.2776C54.0747 45.9775 50.2943 49.6302 45.4667 49.6302H9.68083C4.85318 49.6557 1.09835 45.9775 1.09835 41.2776V9.47648C1.09835 4.77655 4.90427 1.07281 9.783 1.07281H45.5944C50.3709 1.07281 54.1002 4.75101 54.1002 9.47648V41.2776H54.0747Z" fill="#040301"/>
<path d="M54.0747 41.2776C54.0747 45.9775 50.2943 49.6302 45.4667 49.6302H9.68086C4.85322 49.6557 1.09839 45.9775 1.09839 41.2776V9.47648C1.09839 4.77656 4.90431 1.07281 9.78303 1.07281H45.5944C50.371 1.07281 54.1003 4.75102 54.1003 9.47648V41.2776H54.0747Z" fill="#FFAB00"/>
<path d="M44.1899 31.1881H39.6177L38.8259 26.2072L35.8884 31.137H31.2651L34.0749 34.1L31.776 39.0809L36.8335 36.0668L40.7927 39.1319L40.052 34.1" fill="white"/>
<path d="M47.3823 30.192H40.4602L39.3618 23.2953L35.326 30.1409H34.5597C34.0999 29.349 33.9211 28.1996 33.9211 27.4844C33.9211 26.3094 33.9978 25.16 33.9978 23.6529C33.9978 21.6606 33.4103 20.6133 31.8521 20.2302V20.1791C35.1472 19.7193 36.6542 17.5226 36.6542 14.4574C36.6542 10.0896 33.7423 9.14447 29.9364 9.14447H19.6936L15.3513 29.6811H20.792L22.3757 22.197H26.0028C27.9441 22.197 28.7359 23.1421 28.7359 24.9556C28.7359 26.335 28.5826 27.4333 28.5826 28.4806C28.5826 28.8637 28.6593 29.7833 28.9402 30.1409L32.8739 34.3044L29.4766 41.5842L36.7309 37.2674L42.146 41.4309L41.1498 34.5598L47.3823 30.192ZM27.6375 18.3655H23.2952L24.3425 13.4102H28.3783C29.8087 13.4102 31.3157 13.7933 31.3157 15.5302C31.3157 17.7525 29.6044 18.3655 27.6375 18.3655ZM36.833 36.0669L31.7755 39.0809L34.0999 34.1256L31.2902 31.1626H35.9135L38.8254 26.2328L39.6172 31.2137H44.215L40.077 34.1L40.8178 39.1576L36.833 36.0669Z" fill="#040301"/>
</g>
<defs>
<clipPath id="clip0">
<rect width="55.173" height="50.7796" fill="white"/>
</clipPath>
</defs>
</svg>
