<svg width="104" height="20" viewBox="0 0 104 20" fill="none" xmlns="http://www.w3.org/2000/svg">
<path d="M6.55086 19.2797H2.65437L2.65437 9.77612H0L0 6.68195H2.65426V4.48023C2.65426 1.87119 3.82825 0 7.71419 0C8.53608 0 9.82639 0.162079 9.82639 0.162079V3.03518H8.47114C7.09023 3.03518 6.55107 3.44615 6.55107 4.58231L6.55107 6.68195H9.77469L9.48763 9.77612H6.55096L6.55086 19.2797ZM15.4915 6.43469C15.4347 6.43469 15.3763 6.43671 15.3185 6.43813C11.7054 6.43813 10.0523 9.09715 10.0523 12.8717C10.0523 17.6266 12.1966 19.5297 15.3467 19.5297C17.149 19.5297 18.3331 18.7875 19.0528 17.4024V19.281L22.7589 19.281V6.68327H19.0528V8.62062C18.4652 7.37418 17.2479 6.44946 15.4915 6.43469ZM16.4338 9.41149C17.9513 9.41149 18.8621 10.4471 18.8621 12.2086L18.8657 14.0078C18.8657 15.195 18.1134 16.584 16.4338 16.584C13.8517 16.584 13.9207 13.8562 13.9207 12.9477C13.9207 9.89155 15.2964 9.41149 16.4338 9.41149ZM24.2557 12.9828C24.2557 11.4519 24.1808 6.44288 30.851 6.44288C33.5285 6.44288 34.6466 7.27584 34.6466 7.27584L33.7479 10.0027C33.7479 10.0027 32.6313 9.40117 31.1764 9.40117C29.3129 9.40117 28.1238 10.4581 28.1238 12.3178L28.1259 13.6512C28.1259 15.4381 29.2732 16.631 31.1802 16.631C32.5057 16.631 33.7274 16.0237 33.7274 16.0237L34.6237 18.6937C34.6237 18.6937 33.6014 19.5319 30.8697 19.5319C24.5186 19.5319 24.2558 15.0378 24.2558 12.9828H24.2557ZM56.3769 6.43813C59.9901 6.43813 61.6692 9.09715 61.6692 12.8717C61.6692 17.6266 59.5248 19.5297 56.3747 19.5297C54.5724 19.5297 53.2401 18.7876 52.5204 17.4024V19.281L48.8609 19.2796V0.38304L52.7464 0.0514969V8.44995C53.3071 6.98061 55.1501 6.43813 56.377 6.43813H56.3769ZM55.2876 9.41149C53.7701 9.41149 52.7464 10.4471 52.7464 12.2086L52.7427 14.0078C52.7405 15.195 53.4517 16.584 55.2876 16.584C57.8697 16.584 57.8007 13.8562 57.8007 12.9477C57.8007 9.89155 56.4251 9.41149 55.2876 9.41149ZM41.3881 6.44855C37.2901 6.44855 35.1266 8.63458 35.1266 12.5194V13.2412C35.1266 18.2833 38.1648 19.5815 41.7869 19.5815C45.3077 19.5815 46.9013 18.618 46.9013 18.618L46.1742 16.0523C46.1742 16.0523 44.2996 16.8326 42.2528 16.8326C40.1309 16.8326 39.2183 16.3035 38.9844 14.3084H47.2119V12.25C47.2119 8.03595 44.7838 6.44845 41.388 6.44845L41.3881 6.44855ZM41.4869 9.01773C42.9054 9.01773 43.8246 9.86879 43.7741 11.8426H38.9915C39.0745 9.76519 40.0657 9.01783 41.4869 9.01783V9.01773ZM69.4166 6.43125C65.2082 6.43125 62.9927 8.75154 62.9927 12.9096C62.9927 18.6148 66.8117 19.5331 69.4236 19.5331C73.2472 19.5331 75.791 17.5191 75.791 12.9614C75.791 8.21775 72.9308 6.43125 69.4166 6.43125ZM69.3636 9.42181C71.2141 9.42181 71.9474 10.7768 71.9474 12.3192V13.6453C71.9474 15.5137 70.9214 16.5944 69.3566 16.5944C67.8932 16.5944 66.8647 15.5835 66.8647 13.6453V12.3192C66.8647 10.252 68.0885 9.42181 69.3636 9.42181ZM83.5315 6.43125C79.3231 6.43125 77.1076 8.75154 77.1076 12.9096C77.1076 18.6148 80.9266 19.5331 83.5385 19.5331C87.362 19.5331 89.9059 17.5191 89.9059 12.9614C89.9059 8.21775 87.0456 6.43125 83.5315 6.43125ZM83.4785 9.42181C85.329 9.42181 86.0622 10.7768 86.0622 12.3192V13.6453C86.0622 15.5137 85.0362 16.5944 83.4715 16.5944C82.0081 16.5944 80.9796 15.5835 80.9796 13.6453V12.3192C80.9796 10.252 82.2034 9.42181 83.4785 9.42181ZM91.3742 19.2797V0.38304L95.2709 0.0514969V12.7172L99.1369 6.68195H103.252L99.2192 12.9327L103.407 19.2797H99.2805L95.2709 13.1168V19.2797H91.3742Z" fill="#1877F2"/>
</svg>
