<svg width="65" height="52" viewBox="0 0 65 52" fill="none" xmlns="http://www.w3.org/2000/svg">
<path fill-rule="evenodd" clip-rule="evenodd" d="M64.7747 6.09828C62.3878 7.12885 59.827 7.82849 57.1405 8.1405C59.8849 6.5332 61.9916 3.98043 62.9773 0.94547C60.4068 2.43931 57.5657 3.51715 54.541 4.10334C52.1155 1.57894 48.6656 0 44.8388 0C37.5042 0 31.5514 5.8241 31.5514 13.0002C31.5514 14.0213 31.6674 15.0141 31.8993 15.9595C20.8539 15.4206 11.0647 10.2394 4.51287 2.37313C3.37257 4.29243 2.71545 6.52374 2.71545 8.90633C2.71545 13.4162 5.06369 17.3967 8.62954 19.7225C6.45524 19.6563 4.40657 19.0701 2.60915 18.0963C2.60915 18.153 2.60915 18.2003 2.60915 18.257C2.60915 24.5539 7.18967 29.8107 13.268 31.002C12.1567 31.2951 10.9778 31.4558 9.76984 31.4558C8.90978 31.4558 8.07872 31.3707 7.26698 31.2194C8.9581 36.3817 13.8672 40.1447 19.675 40.2487C15.1234 43.7375 9.40262 45.8175 3.16964 45.8175C2.09699 45.8175 1.04366 45.7513 0 45.6378C5.87543 49.3252 12.8622 51.4809 20.3707 51.4809C44.8098 51.4809 58.1745 31.6733 58.1745 14.4941C58.1745 13.9268 58.1648 13.3689 58.1358 12.8111C60.7353 10.9769 62.9869 8.68887 64.765 6.07937L64.7747 6.09828Z" fill="#41ABE1"/>
</svg>
