<svg width="103" height="40" viewBox="0 0 103 40" fill="none" xmlns="http://www.w3.org/2000/svg">
<g clip-path="url(#clip0)">
<path d="M51.4262 0.984802C23.5497 0.984802 1.20374 9.34053 1.20374 19.8167C1.20374 30.2291 23.7338 38.6493 51.4262 38.6493C79.1192 38.6493 101.649 30.2008 101.649 19.8167C101.649 9.43258 79.1192 0.984802 51.4262 0.984802Z" fill="#003478"/>
<path d="M71.2085 23.806C71.2219 23.8922 71.3351 23.9748 71.4447 24.0139C71.4852 24.0274 71.5049 24.0544 71.4627 24.146C71.15 24.8163 70.8625 25.2028 70.4705 25.7852C70.1097 26.3233 69.7035 26.7431 69.2118 27.147C68.47 27.7608 67.4398 28.429 66.5882 27.9798C66.21 27.7835 66.0462 27.254 66.0535 26.8254C66.0715 25.6202 66.6077 24.3828 67.5978 23.1667C68.8049 21.6807 70.1392 20.9099 71.0149 21.3312C71.921 21.7634 71.6319 22.8124 71.2261 23.6358C71.1946 23.6995 71.1946 23.7534 71.2081 23.8055L71.2085 23.806ZM80.9309 14.4144C80.996 14.2994 80.9275 14.2154 80.7822 14.2154C80.0255 14.2154 79.0325 14.2171 78.244 14.2171C78.0562 14.2171 77.9592 14.2395 77.8707 14.4147C77.5796 14.9724 74.0327 20.2881 73.3725 21.3204C73.2611 21.4776 73.1255 21.4556 73.1097 21.2754C73.0428 20.6623 72.5133 19.9575 71.6791 19.6203C71.0433 19.3624 70.4218 19.3157 69.7756 19.4015C68.609 19.5583 67.5697 20.1737 66.656 20.8677C65.2788 21.9146 64.0906 23.2716 62.5568 24.2743C61.7195 24.8201 60.5728 25.2961 59.8055 24.5855C59.1111 23.9418 59.1896 22.5119 60.252 21.406C60.3639 21.2901 60.4982 21.388 60.4771 21.4909C60.3769 21.991 60.4995 22.4884 60.8796 22.8371C61.343 23.2527 62.0064 23.2996 62.5742 23.0222C63.2441 22.6902 63.6378 22.0492 63.7526 21.3217C63.93 20.1931 63.0614 19.1978 61.9743 19.1179C61.0913 19.0559 60.2445 19.3632 59.4193 20.0442C59.0056 20.3874 58.7707 20.6409 58.4129 21.1498C58.3257 21.2751 58.1918 21.2876 58.1958 21.1025C58.2363 19.6577 57.6392 18.8447 56.4447 18.8182C55.5174 18.7958 54.527 19.2991 53.7548 19.9147C52.9084 20.5944 52.1684 21.4952 51.375 22.3417C51.2761 22.4459 51.1903 22.4409 51.1625 22.2388C51.14 21.2814 50.8979 20.3542 50.4549 19.6957C50.2981 19.4666 49.968 19.3533 49.6908 19.5079C49.5627 19.578 49.1174 19.7828 48.7931 20.0439C48.6323 20.1764 48.5693 20.3683 48.6408 20.6142C49.0684 22.0444 48.9745 23.6706 48.3941 25.044C47.8613 26.3019 46.8258 27.4364 45.6087 27.8204C44.8069 28.0747 43.9734 27.9502 43.4576 27.2394C42.7493 26.2584 43.0353 24.5522 44.0913 23.1356C45.0231 21.8881 46.3711 21.0957 47.7155 20.5855C47.8737 20.5244 47.9065 20.4229 47.8615 20.2886C47.7888 20.0675 47.6719 19.7665 47.6248 19.6291C47.5012 19.3008 47.1561 19.2477 46.7344 19.2935C45.7575 19.4072 44.8763 19.7419 44.0058 20.208C41.7263 21.4287 40.5835 23.7911 40.0827 25.0549C39.8414 25.6621 39.6352 26.0408 39.3687 26.3767C39.0094 26.8283 38.5583 27.2396 37.7334 27.9639C37.6589 28.0304 37.6032 28.1688 37.666 28.2977C37.7501 28.472 38.1791 29.0779 38.3001 29.1319C38.4344 29.1979 38.5903 29.1049 38.6527 29.0609C39.2299 28.6696 39.9204 28.0495 40.2583 27.6289C40.3769 27.4847 40.4987 27.5453 40.5616 27.7641C40.877 28.8892 41.7027 29.8079 42.8445 30.1922C44.9346 30.897 47.1024 29.8768 48.7388 28.1007C49.7788 26.9718 50.154 26.2457 50.5527 25.7522C51.2282 24.9152 52.5608 23.0428 54.1479 21.8406C54.73 21.3972 55.4187 21.059 55.7651 21.2836C56.0432 21.4638 56.133 21.8824 55.687 22.6936C54.0687 25.6486 51.6878 29.1204 51.2512 29.9623C51.1712 30.1083 51.2422 30.2233 51.394 30.2233C52.2408 30.2191 53.0802 30.2212 53.8489 30.2212C53.9769 30.2167 54.034 30.1566 54.0983 30.0663C55.3401 28.1223 56.5088 26.2722 57.7615 24.3593C57.8316 24.2465 57.8963 24.3323 57.899 24.3817C57.9259 24.8255 58.0337 25.4325 58.2974 25.8312C58.771 26.5681 59.442 26.8847 60.1862 26.8896C60.7784 26.8986 61.078 26.8064 61.7166 26.5679C62.2362 26.3752 62.6533 26.1223 62.9735 25.8934C63.1603 25.7631 63.1931 25.981 63.1886 26.0143C62.9011 27.5575 63.2561 29.386 64.7898 30.1442C66.6253 31.0492 68.6418 29.7771 69.8021 28.6288C69.9157 28.5183 70.0374 28.53 70.0491 28.7685C70.0761 29.207 70.2719 29.7272 70.6346 30.0913C71.607 31.0672 73.5691 30.6804 75.5381 29.1564C76.8023 28.1806 78.1251 26.8019 79.32 25.3421C79.3649 25.2855 79.3973 25.1947 79.311 25.1027C79.1291 24.9122 78.8658 24.6943 78.6854 24.5265C78.6032 24.4564 78.4824 24.4766 78.4132 24.5289C77.1884 25.6938 76.0859 27.0222 74.4925 28.1207C73.955 28.4958 73.0985 28.7984 72.7138 28.2775C72.5638 28.0754 72.5809 27.7959 72.7273 27.4289C73.1919 26.2704 80.5474 15.0716 80.9293 14.4111" fill="white"/>
<path d="M46.3242 15.766C46.3557 15.9322 46.4204 15.9646 46.4959 15.9506C46.8705 15.8756 47.2806 15.5674 47.5233 15.2102C47.7444 14.8863 47.8481 14.4189 47.6284 14.2316C47.4326 14.0632 47.1136 14.1107 46.8772 14.3196C46.4064 14.7356 46.2634 15.3258 46.3241 15.7663L46.3242 15.766ZM27.5769 30.1816C24.8343 30.1996 22.4181 28.5059 22.1409 25.5718C21.9868 23.9459 22.4463 22.4969 23.3664 21.3031C24.1828 20.2394 25.5643 19.3557 26.7336 19.1398C27.1141 19.0701 27.6254 19.1128 27.8367 19.3662C28.1683 19.7521 28.073 20.176 27.7415 20.3451C26.8493 20.8006 25.7759 21.5803 25.2447 22.6451C24.8139 23.5142 24.7269 24.5615 25.3849 25.5593C26.4863 27.2222 29.5563 27.2679 32.4109 24.616C33.1178 23.9669 33.7504 23.3433 34.3935 22.6047C35.6508 21.1671 36.0689 20.6433 37.7402 18.3252C37.7581 18.2982 37.7671 18.2631 37.7581 18.2461C37.7446 18.2146 37.7222 18.2101 37.6724 18.2056C36.5567 18.2371 35.584 18.5691 34.6386 19.2756C34.3663 19.4742 33.9745 19.4463 33.8029 19.1849C33.612 18.8893 33.749 18.5045 34.063 18.2872C35.5839 17.2294 37.2454 17.0376 38.9421 16.7513C38.9407 16.7513 39.0598 16.7557 39.1568 16.6282C39.8533 15.7343 40.3792 14.928 41.1217 14.024C41.8698 13.1068 42.8361 12.2646 43.5744 11.6319C44.605 10.7458 45.266 10.4476 45.9376 10.0821C46.1146 9.98954 45.9152 9.87905 45.8613 9.87905C42.1111 9.17421 38.2131 8.26215 34.4888 9.64092C31.9094 10.6035 30.7791 12.6489 31.3228 14.0157C31.7095 14.9852 32.9846 15.1428 34.1784 14.5587C35.1699 14.0729 36.0874 13.2899 36.7379 12.282C37.1017 11.7223 37.8685 12.1261 37.4542 13.0981C36.3644 15.6597 34.2823 17.6915 31.7462 17.7773C29.5878 17.8474 28.1952 16.2595 28.1997 14.3006C28.2087 10.4368 32.51 7.8916 37.0305 7.51111C42.4745 7.06121 47.6308 8.51134 53.0361 9.16699C57.1776 9.6685 61.1481 9.67894 65.3108 8.72267C65.8029 8.61575 66.1482 8.92975 66.1161 9.42678C66.0757 10.1452 65.519 10.8372 64.1481 11.5849C62.5888 12.4401 60.9576 12.6995 59.254 12.7135C55.1345 12.7494 51.2972 11.142 47.3263 10.2792C47.3308 10.453 47.3767 10.6601 47.2311 10.7698C45.0316 12.3922 43.0434 14.0397 41.7118 16.3538C41.6669 16.4072 41.6893 16.458 41.7688 16.4526C42.925 16.3911 43.9646 16.3614 45.044 16.2751C45.2327 16.2572 45.2398 16.2122 45.2232 16.0748C45.1275 15.2772 45.3607 14.3676 46.0623 13.742C46.7804 13.0982 47.6795 13.025 48.2755 13.4886C48.9531 14.0167 48.8931 14.9663 48.5225 15.6784C48.1452 16.401 47.522 16.7875 46.9239 16.9751C46.9239 16.9751 46.7981 17.0021 46.817 17.1162C46.8394 17.2986 47.6554 17.7502 47.7251 17.8705C47.7925 17.985 47.7566 18.1625 47.634 18.2986C47.5477 18.3975 47.4125 18.49 47.2396 18.4869C47.0998 18.4841 47.0149 18.4357 46.8362 18.3391C46.4705 18.141 46.0135 17.8152 45.7086 17.4312C45.6049 17.3014 45.5518 17.2988 45.2926 17.3131C44.1246 17.3805 42.3035 17.5566 41.0696 17.7107C40.7704 17.7466 40.7264 17.8037 40.6648 17.9074C38.6975 21.1515 36.597 24.6499 34.2907 26.9921C31.817 29.5035 29.7608 30.1647 27.5779 30.1818" fill="white"/>
<path d="M51.4251 4.06433C25.7795 4.06433 4.99186 11.151 4.99186 19.8228C4.99186 28.4952 25.7795 35.5825 51.4251 35.5825C77.0702 35.5825 97.8566 28.4952 97.8566 19.8228C97.8566 11.151 77.0702 4.06433 51.4251 4.06433ZM51.4251 37.0107C24.846 37.0107 3.29972 29.3155 3.29972 19.8228C3.29972 10.3287 24.846 2.63486 51.4251 2.63486C78.0018 2.63486 99.5467 10.3287 99.5467 19.8228C99.5467 29.3155 78.0018 37.0107 51.4251 37.0107" fill="white"/>
</g>
<defs>
<clipPath id="clip0">
<rect width="101.634" height="38.8531" fill="white" transform="translate(0.609467 0.390533)"/>
</clipPath>
</defs>
</svg>
