<svg width="105" height="34" viewBox="0 0 105 34" fill="none" xmlns="http://www.w3.org/2000/svg">
<path d="M87.3072 28.1507C87.3057 28.1507 86.9841 28.4273 86.9841 28.4273C86.5246 28.8236 86.0517 29.2479 85.4809 29.0357C85.3233 28.9804 85.2124 28.7777 85.1858 28.6205C85.1598 27.486 85.6893 26.4349 86.2027 25.4114L86.3344 25.1438C87.8114 22.7644 89.5282 19.9608 92.0497 18.0151C92.4746 17.7193 92.9357 17.4708 93.4223 17.6646C93.5342 17.7658 93.6646 17.9413 93.6646 18.1163C93.6646 18.1719 93.6135 18.3193 93.584 18.3652C92.8798 19.4632 92.2091 20.6159 91.5569 21.7224C90.2824 23.9084 88.9602 26.1676 87.3072 28.1509L87.3072 28.1507ZM73.6452 22.5433C73.5487 22.6082 71.8454 22.0546 71.5162 20.533C71.2369 19.2229 72.172 18.1992 73.0767 17.6832C73.465 17.3879 74.05 17.2867 74.479 17.4337C74.8773 17.6922 74.9851 18.1537 74.9851 18.651C74.9851 18.956 74.9432 19.2693 74.9062 19.5551C74.9062 19.5551 74.8992 19.6106 74.898 19.6198C74.6142 20.6432 74.1799 21.6486 73.6453 22.5434L73.6452 22.5433ZM67.1385 28.7319C66.9647 28.4829 66.9071 28.2105 66.9014 27.9162C66.868 26.1078 68.8847 22.8694 70.3081 21.1051H70.3113C70.9078 22.3653 72.2586 23.1753 73.0741 23.5167C72.0613 25.6934 68.5877 30.355 67.1388 28.7319H67.1385ZM91.7226 29.053C91.3855 29.2743 90.9118 29.1041 91.089 28.597C91.53 27.3058 93.2837 24.6746 93.2837 24.6746L98.1683 16.316L94.8224 16.316C94.6634 16.568 94.3233 17.1468 94.3233 17.1468C94.1685 16.898 93.7056 16.3448 93.515 16.2253C92.6976 15.7269 91.4983 15.9626 90.671 16.4144C87.0739 18.4437 84.4495 22.4532 82.3795 25.5795C82.3795 25.5795 80.2007 29.0551 78.9911 29.3136C78.047 29.3874 78.1443 28.1602 78.1852 27.8743C78.5503 25.8081 79.3982 23.8438 80.2524 22.0639C81.9897 20.9019 83.9725 19.3801 85.7743 17.7109C89.6847 14.1045 92.9812 10.0187 93.463 9.10582C93.463 9.10582 92.9414 9.20739 92.3255 9.22566C89.3172 13.2744 83.161 19.159 81.2947 20.0346C82.1215 18.1159 87.4635 8.958 92.0095 4.57758L92.7248 3.91331C93.8309 2.87113 94.9771 1.80133 95.8702 1.62606C95.9645 1.61689 96.0859 1.62606 96.1908 1.83853C96.2307 2.64999 95.9176 3.24954 95.5584 3.93196L95.055 4.92816C95.055 4.92816 95.768 4.79899 96.2363 4.65105C96.7796 3.66467 97.3814 2.55762 97.1596 1.23906C97.0855 0.814758 96.7672 0.492019 96.3512 0.418172C94.9952 0.169158 93.5173 1.13724 92.3281 1.92143L92.2801 1.9489C86.1672 6.56951 81.0052 13.2286 76.4922 22.3221C76.1651 22.5616 74.9014 22.8478 74.6865 22.7093C75.1322 21.8241 75.6933 20.6341 75.9741 19.3429C76.0227 18.974 76.0679 18.596 76.0679 18.2272C76.0679 17.4334 75.8704 16.6866 75.1333 16.1703C74.2692 15.7552 73.2012 15.949 72.481 16.2624C69.2551 17.5536 66.8441 20.7449 65.1043 23.3729C64.1686 25.0427 63.2356 26.831 62.9773 28.8789C62.7953 30.4834 63.1657 31.5164 64.1113 32.033C65.0837 32.5123 66.3076 32.0141 66.7884 31.7746C70.0565 30.1145 72.3401 26.7853 74.14 23.7416C74.2116 23.7325 75.1944 23.7051 75.9377 23.5203C75.9477 23.5203 75.9518 23.5203 75.9683 23.53C75.9257 23.6677 75.5416 24.7748 75.5416 24.7748C74.4008 28.0025 73.8732 30.1977 74.9508 31.4982C76.4906 33.3336 79.0398 31.4339 81.1138 28.9249C80.6686 31.9314 82.2837 32.402 83.5148 32.1716C84.929 31.8029 86.5049 30.3454 87.2362 29.5986C87.0014 30.4746 87.0652 32.0426 88.3517 32.1992C89.2335 32.3565 89.8934 31.8937 90.6569 31.497C93.3958 30.0581 96.6747 25.2636 97.5258 23.8774L96.4097 23.8774C95.1996 25.6418 93.6598 27.9551 91.7229 29.0533L91.7226 29.053ZM49.5277 11.1492H52.6624L54.4315 8.37677H51.2962L49.5277 11.1492ZM99.6014 3.78414C97.2112 5.09398 94.7336 5.94224 91.7341 5.6472C90.9028 6.55126 90.0936 7.48264 89.3476 8.4417C93.5572 9.47465 98.02 7.17823 100.509 4.99271C103.142 2.78839 104.492 0.0125921 104.492 0.0125921C104.492 0.0125921 102.519 2.18894 99.6013 3.78419L99.6014 3.78414ZM73.243 3.08347C72.7445 8.59857 68.301 11.8362 67.2017 12.0938C66.5354 12.2227 65.3985 11.9371 66.4134 9.62245C67.908 6.50484 70.4598 3.85834 73.1976 2.50237C73.2642 2.73299 73.2625 2.88018 73.2429 3.08332L73.243 3.08347ZM64.5846 16.9819C64.2663 16.318 63.5106 15.8937 62.7052 15.9397C60.0899 16.1704 57.5318 18.2454 56.1885 21.2244C55.4837 22.7555 55.099 24.0189 54.8468 26.0294C55.66 25.1258 57.3189 23.6411 59.2013 22.8294C59.2013 22.8294 59.4574 20.9019 60.7636 19.1864C61.2578 18.4761 62.247 17.3325 63.3576 17.6368C64.3279 17.9506 63.9869 20.5422 62.6972 23.0501C61.7429 24.8949 60.2826 26.7399 58.8051 28.0123C57.4988 29.0822 55.5661 30.3733 53.8751 29.3773C52.8101 28.7689 52.2669 27.4959 52.3817 25.8542C52.8905 21.197 55.0879 17.231 58.2322 12.712C61.4747 8.51565 65.0489 4.20872 69.8639 1.91165C70.846 1.43215 71.7555 1.32148 72.5416 1.61664C72.5416 1.61664 68.0218 4.01453 65.8671 8.4509C65.3191 9.57625 64.5568 11.0976 65.3244 12.4442C65.7255 13.145 66.4378 13.2004 67.0112 13.1635C69.6521 12.5731 71.3584 10.1937 72.7526 8.01739C73.5608 6.36654 74.2792 4.72487 74.2792 2.8985C74.2792 2.67721 74.2673 2.38223 74.2479 2.16064C75.5096 1.51532 78.0969 2.65866 78.0969 2.65866C80.1187 3.30449 84.424 6.48652 85.8759 7.09493C86.5842 6.30192 87.7483 5.10308 88.4037 4.50348L87.4549 3.94083C85.9358 3.0462 84.3301 2.19764 82.7496 1.35845C79.1604 -0.531936 76.2387 0.131932 74.7517 0.648459C74.1674 0.851223 73.6332 1.02652 73.6332 1.02652C72.5298 -0.13548 70.7201 -0.0250876 69.3866 0.2887C64.5912 1.61669 60.139 4.85371 55.3657 10.4705C51.8563 14.8699 49.6792 18.6698 48.5193 22.4232C47.625 24.95 47.3532 28.6667 49.536 30.871C51.3919 32.7426 53.8529 32.3372 55.5909 31.6642C59.3562 29.8749 62.7403 26.0195 64.4269 21.5836C64.8337 20.265 65.2854 18.402 64.5848 16.9815L64.5846 16.9819ZM22.8474 12.7029C22.8411 12.7213 22.2079 14.1229 22.2079 14.1229C22.1163 14.1967 21.9716 14.1599 21.8057 14.1229L21.5215 14.0766C20.629 13.8093 19.9558 13.2374 19.7483 12.555C19.462 11.2269 20.6379 10.1847 21.1561 9.80679C21.6532 9.47448 22.4261 9.29928 22.8749 9.64069C23.1516 9.95436 23.2565 10.36 23.2565 10.803C23.2567 11.4023 23.0649 12.0755 22.8474 12.7029H22.8474ZM21.4872 15.3679C21.4872 15.3679 21.4584 15.4512 21.4442 15.4784C21.4406 15.4784 20.0048 17.7377 20.0048 17.7377C19.1383 18.8538 18.0564 20.2561 16.704 20.929C16.3031 21.0582 15.749 21.1413 15.4667 20.8003C14.868 20.1085 15.1766 19.1494 15.4272 18.3747L15.5159 18.098C16.2346 16.2168 17.3749 14.5563 18.4847 13.0159C18.4985 13.0068 18.5296 12.9976 18.5408 12.9976C18.5435 13.0069 18.5479 13.0069 18.5498 13.0254C19.2463 14.3163 20.5522 14.9155 21.5288 15.1926C21.5347 15.1926 21.541 15.2018 21.541 15.2204C21.5411 15.2478 21.5252 15.285 21.4872 15.3677L21.4872 15.3679ZM39.4475 13.8831C40.0897 13.0256 41.959 10.729 42.4147 10.3418C43.9473 9.04084 44.5599 9.61327 44.6129 10.0188C43.1825 12.4904 41.4943 15.3217 39.9071 17.8672C39.9102 17.8582 39.4104 18.5957 39.4104 18.5957C38.7093 19.6285 38.0035 20.5138 36.8521 21.1317C36.6879 21.1781 36.4173 21.1966 36.2371 21.0671C36.0203 20.9287 35.9348 20.6981 35.9592 20.4582C36.0282 19.6653 36.8651 17.2401 39.4474 13.883L39.4475 13.8831ZM23.5305 8.27581C21.5491 7.02157 17.5666 9.41945 14.3769 13.5323C11.46 17.2217 10.2004 21.5098 11.5712 23.4929C13.6103 25.8261 17.3956 22.4323 19.0053 20.6157L19.213 20.4033C20.3077 19.2689 21.1535 17.9039 21.9721 16.5941C21.9721 16.5941 22.7244 15.3952 22.7604 15.3398C23.2254 15.2571 23.7854 15.1279 24.4166 14.9526C24.4076 14.9801 22.0018 18.8814 22.2473 20.818C22.3237 21.4088 22.2653 23.5669 24.4492 24.2216C27.3599 24.6923 29.6843 22.5154 31.7345 20.5786C31.7345 20.5786 32.0839 20.2561 32.2815 20.072C32.2315 20.2652 32.1663 20.5229 32.1663 20.5229C31.3142 23.382 32.4628 23.9819 33.1814 24.2033C35.3528 24.8123 37.9471 21.7686 37.9554 21.7686C37.8881 22.7273 37.6914 23.5205 38.739 24.1569C39.7278 24.4984 40.7285 23.9778 41.489 23.489C44.2287 21.626 46.4358 18.7104 48.2184 16.19H47.0812C47.0678 16.19 44.2752 20.0951 42.4618 20.9438C42.4592 20.9438 42.129 21.1073 41.9389 20.9779C41.7035 20.7841 41.7963 20.3814 41.9415 20.0961C41.9506 20.0774 48.943 8.3768 48.943 8.3768L45.6416 8.3768C45.6416 8.3768 45.2809 8.93975 45.2516 8.97665C45.2293 8.95825 45.1764 8.86147 45.1397 8.81509C43.0943 6.08527 38.4621 10.2842 34.9746 15.1533C33.632 17.0257 31.9226 19.1339 30.1502 20.6558C30.1502 20.6558 27.5244 22.9781 26.4024 21.3096C25.9923 20.6086 26.1185 19.5837 26.3498 18.9106C27.6561 15.323 29.907 12.0673 32.4684 10.1024C33.1915 9.55861 33.9774 9.40133 34.3675 9.63197C34.7391 9.84444 34.799 10.3697 34.5639 10.7294C33.9673 10.711 33.4894 10.886 33.1009 11.2733C32.3355 12.0481 32.0695 12.7953 32.3129 13.4963C33.4951 15.1194 35.8529 11.9099 35.7388 9.95468C35.6981 9.25361 35.3104 8.58975 34.7319 8.26663C33.8698 7.76886 32.5544 7.89778 31.7032 8.29461C30.5637 8.70946 28.7599 10.1573 27.7069 11.2827C26.3814 12.694 24.1082 14.2617 23.3972 14.0861C23.6301 13.4863 25.5503 9.69599 23.5303 8.27611L23.5305 8.27581ZM40.1251 28.7962C36.2369 26.3797 30.96 25.9557 22.4501 28.2336C13.378 30.2905 10.3529 31.609 6.38057 28.9621C4.85445 27.6618 4.30727 25.5682 4.71589 22.5527C5.66354 17.6367 8.22435 12.9057 12.7734 7.65831C15.3124 4.92849 17.6676 2.5858 20.7775 1.64519C23.161 1.05502 22.9382 2.86228 22.6498 3.12072C22.3455 3.12072 21.8342 3.167 21.4391 3.41573C21.1185 3.65567 20.2383 4.43044 20.191 5.47262C20.1228 7.06802 21.8341 6.73593 22.5723 5.86C23.3679 4.87292 24.5436 2.98258 23.6188 1.22084C23.2311 0.593767 22.5613 0.160412 21.7296 0.0128189C18.8819 -0.144201 16.2296 1.16549 13.7819 2.61345C8.43026 6.20096 4.14812 11.1722 1.72545 16.6137C0.328476 19.8968 -0.934848 24.5997 0.958884 28.4277C2.42378 31.0837 5.46505 32.4945 9.09369 32.1994C11.6385 31.9415 14.7154 31.1479 16.7854 30.6688C18.855 30.1889 29.449 26.6754 32.9302 32.7905C32.9302 32.7905 34.0877 30.6225 36.9804 30.5763C39.3587 30.3646 42.7897 31.2406 45.2882 33.011C44.4558 31.8032 42.0958 30.0232 40.127 28.7964L40.1251 28.7962Z" fill="#F40009"/>
</svg>
