<svg width="62" height="50" viewBox="0 0 62 50" fill="none" xmlns="http://www.w3.org/2000/svg">
<g clip-path="url(#clip0)">
<path d="M3.80396 24.942C3.80396 11.17 15.1846 0 29.223 0C43.2614 0 54.6421 11.17 54.6421 24.942C54.6421 38.7203 43.2614 49.8903 29.223 49.8903C15.1846 49.8903 3.80396 38.7203 3.80396 24.942Z" fill="white"/>
<path d="M6.07153 25.0287C6.07153 12.4585 16.4919 2.27356 29.3471 2.27356C42.2022 2.27356 52.6226 12.4647 52.6226 25.0287C52.6226 37.5988 42.2022 47.7838 29.3471 47.7838C16.4919 47.7838 6.07153 37.5988 6.07153 25.0287Z" fill="#FF8300"/>
<path d="M32.3146 7.40324C30.6667 6.8023 29.248 6.72176 28.0027 6.9324C28.5727 7.3289 28.6037 7.98559 28.6037 7.98559C28.6037 7.98559 27.4266 6.96957 25.599 7.75637C25.2211 7.94842 24.8555 8.16525 24.5086 8.38828C22.396 9.81938 19.9241 13.6914 17.5514 13.5365C17.5328 13.5365 16.8327 13.4994 16.8203 13.4994C16.9628 13.5675 17.7248 14.0198 17.7434 14.0198C18.6107 14.3543 20.1038 15.1907 23.1395 13.6357C26.5283 11.8948 27.1106 9.96807 30.202 9.75743C30.9455 9.70787 31.6393 9.83177 32.2836 10.0672C34.613 10.9159 36.3105 13.2206 36.8867 14.3109C36.8867 14.3047 36.8867 14.2985 36.8867 14.2985C36.8867 14.2862 36.546 8.93966 32.3146 7.40324Z" fill="#2BA756"/>
<path d="M30.2018 9.75116C27.1166 9.9556 26.528 11.8885 23.1392 13.6294C20.1035 15.1844 18.6105 14.348 17.7432 14.0135C17.7308 14.0135 16.9626 13.5674 16.8201 13.4931C16.8201 13.4931 18.976 16.6403 22.8233 17.2536C23.7897 17.4085 25.5554 17.0677 26.2678 15.8659C26.3855 16.727 26.1439 17.1297 25.8837 17.4518C29.5637 16.7208 31.5895 14.1993 33.4667 13.6727C35.8085 13.0222 36.8926 14.2985 36.8926 14.2985C36.1926 12.9789 33.8632 9.88126 30.7532 9.73877C30.5673 9.73877 30.3876 9.73877 30.2018 9.75116Z" fill="#4C9C2E"/>
<path d="M30.2018 9.75116C27.1166 9.9556 26.528 11.8885 23.1392 13.6294C20.1035 15.1844 18.6105 14.348 17.7432 14.0135C17.7308 14.0135 16.9626 13.5674 16.8201 13.4931C16.8201 13.4931 18.976 16.6403 22.8233 17.2536C23.7897 17.4085 25.5554 17.0677 26.2678 15.8659C26.3855 16.727 26.1439 17.1297 25.8837 17.4518C29.5637 16.7208 31.5895 14.1993 33.4667 13.6727C35.8085 13.0222 36.8926 14.2985 36.8926 14.2985C36.1926 12.9789 33.8632 9.88126 30.7532 9.73877C30.5673 9.73877 30.3876 9.73877 30.2018 9.75116Z" fill="url(#paint0_linear)"/>
<path d="M15.6368 15.3704C14.1933 13.8463 11.1886 13.6171 8.32021 14.9801C7.0316 15.5934 0.563767 18.9079 0.0557572 24.1181L0.0309762 24.434C0.0123905 24.8677 0 25.289 0 25.7164C0 33.4853 3.59324 40.3 7.32277 43.7446C9.3734 45.6341 11.0399 46.7678 12.502 46.1174C13.3384 45.7456 13.9641 44.9341 14.1623 43.3976C14.3606 41.8612 14.2491 39.9779 14.2491 39.9779C15.8412 42.0037 18.5362 42.8029 20.6735 42.3383C22.4082 41.9603 24.4278 40.5602 24.7624 38.3857L24.8367 37.9025C24.8367 37.9025 25.3819 38.045 25.4191 38.0511C26.5218 38.2494 28.114 38.1998 28.9813 37.4316C29.2539 37.1838 29.446 36.8926 29.5451 36.5643L29.6752 36.1306L30.1027 36.2731C31.0567 36.5829 32.0542 36.5023 32.9835 36.0439C33.5782 35.7527 34.0676 35.35 34.4393 34.8482L34.7429 34.4455L35.1022 34.7924C35.443 35.1208 35.7589 35.35 36.0997 35.5049C37.5308 36.174 39.2654 35.889 40.5107 34.7863C40.9443 34.4021 41.4028 33.7083 41.7993 32.8409L42.0285 32.3391L42.4994 32.7047L42.7534 32.8967C43.2428 33.1817 44.0606 33.318 45.1633 32.3329C45.9873 31.6019 46.6873 30.5611 47.2511 29.2353L47.5237 28.5972L47.9883 29.1052C48.2671 29.415 48.5335 29.6504 48.8123 29.8425C50.1443 30.747 51.9347 30.9948 53.2605 30.462C53.6632 30.3009 54.0287 30.0841 54.357 29.7991L54.6172 29.5823L54.896 29.7743C55.6085 30.2637 56.5006 30.6231 57.6219 30.8709C58.7681 31.1249 59.3442 30.5859 59.5796 30.2451C59.9885 29.6628 59.9699 28.8388 59.5363 28.145C59.1336 27.5007 59.3256 26.782 59.7283 25.4686C60.0133 24.5517 60.3293 23.5171 60.4098 22.2843C60.6514 18.6043 59.2017 16.7395 57.9441 15.8226C55.8625 14.3048 53.2171 14.5278 51.5816 15.1721L51.2222 15.3394L50.6523 15.6244L50.4726 15.1845C50.2744 14.7075 49.9646 14.3048 49.5557 13.9826C48.676 13.295 47.437 13.0843 45.8696 13.3445L45.6032 13.3879L45.4421 13.1711C42.8277 9.62739 40.7399 10.3089 40.1637 10.6C39.2778 11.0461 38.7203 11.963 38.6025 13.1711C38.5902 13.295 38.584 13.4189 38.584 13.5552C38.584 13.9145 38.6273 14.3234 38.7079 14.8004L38.7884 15.2651L37.729 15.3766C37.0475 15.4447 36.459 15.5005 36.0625 15.5872C35.3067 15.7483 34.7615 16.2439 34.6066 16.913C34.6066 16.9192 34.5694 17.1484 34.5694 17.1484C34.5694 17.1236 34.5694 17.421 34.5694 17.421V17.8175L34.1791 17.898L33.8942 17.929C32.5498 18.1582 31.224 18.9698 30.2823 20.1531L30.0593 20.4381L29.7372 20.2708C29.1672 19.9796 28.6654 19.8991 28.1945 20.0292C27.637 20.1841 27.1971 20.5434 26.9555 21.0514C26.8626 21.2435 26.8006 21.4665 26.7696 21.7143L26.6395 22.7427L25.989 21.9311C25.4748 21.293 24.8925 20.785 24.242 20.4009C22.0984 19.1433 19.5893 19.3539 17.96 19.9734C17.136 20.2832 15.7483 20.7726 14.6022 22.148C16.5103 19.8681 17.5201 17.359 15.6368 15.3704Z" fill="white"/>
<path d="M30.4248 22.4887C31.4346 19.2672 36.0067 17.1174 39.6371 21.9869C43.0692 26.5837 41.2478 32.4135 39.6619 33.8198C37.9148 35.3748 35.1517 34.4517 35.2323 31.8621C35.288 29.9849 35.9881 29.6442 36.4961 26.5528C36.9607 23.7154 36.3536 21.1195 33.7578 21.8692C32.0789 22.3524 31.7939 24.6075 32.9152 27.5192C34.2286 30.9328 34.6809 33.7702 32.4196 34.8916C30.5548 35.8209 28.5662 34.5632 28.4113 31.6267C28.2254 28.0954 29.0494 24.8243 28.1945 22.8047C27.9343 22.1851 27.9033 21.4355 28.529 21.262C29.1176 21.1072 29.9601 21.9745 30.4248 22.4887ZM28.3493 35.9633C28.3122 35.3934 26.6023 34.8854 26.7262 31.4036C26.7758 30.1212 26.7696 28.3184 26.5032 26.5404C25.6049 20.4257 20.8221 20.2646 18.4122 21.1753C16.6775 21.832 15.4756 23.2755 15.1101 24.0437C14.726 24.8429 14.9428 25.6607 15.9093 25.196C16.8138 24.75 18.1148 24.5145 18.8458 25.3385C19.5273 26.1067 19.5521 27.1165 19.6946 28.0892C19.1928 28.1883 17.7245 28.653 17.2165 28.9937C14.9924 30.4558 12.3099 33.4914 14.3357 37.7104C15.3208 39.7672 17.6378 41.7001 20.4132 41.093C21.9249 40.7647 23.8764 39.3893 23.5233 37.2458C23.2383 35.5173 20.6363 35.604 19.2114 35.5173C16.1695 35.3314 16.9501 32.5436 17.9661 31.5152C19.2857 30.1832 20.8841 31.1868 21.3239 32.4135C22.1355 34.6561 22.9595 36.3227 25.642 36.7997C26.8501 37.0103 28.4051 36.8183 28.3493 35.9633ZM14.3481 27.4697C13.7348 26.3112 11.4921 26.9555 9.23083 28.1883C8.66707 27.1041 8.07852 25.5244 8.07852 25.5244C8.07852 25.5244 11.9567 23.641 14.5154 19.7938C17.2785 15.6306 12.5701 14.3729 8.87151 16.1262C6.35005 17.3219 1.51776 20.3761 1.30712 24.4898C0.916819 32.1719 4.36137 39.2716 8.19003 42.8029C11.7275 46.0678 12.7559 45.5412 12.7311 42.425C12.7126 38.776 12.0249 35.35 11.1885 32.7604C13.2082 31.0257 14.9552 28.6096 14.3481 27.4697ZM52.0523 16.3492C50.9062 16.8015 50.1628 17.4829 49.661 18.1334C49.2521 18.66 49.6796 19.1866 50.1876 19.0627C51.3399 18.7839 53.1923 18.7963 53.4834 21.0886C49.5866 21.2125 48.0502 23.2445 48.044 25.8775C48.0316 28.9379 51.2036 29.9106 52.7834 29.2787C53.533 28.9751 53.9976 28.591 54.0906 27.8228C54.2888 26.2058 52.2816 26.2182 51.8293 26.0633C50.2805 25.5182 50.7823 23.7215 51.7674 23.2259C52.6347 22.7861 53.849 23.3003 53.9914 24.6261C54.264 27.1475 54.2578 28.8202 57.8883 29.6194C58.7556 29.8115 58.6689 29.1672 58.452 28.8202C57.2625 26.9307 58.9538 25.0225 59.1397 22.1975C59.5362 16.12 54.8278 15.2465 52.0523 16.3492ZM49.4503 16.3988C49.4813 15.4881 48.6573 13.772 45.0455 14.819C41.601 9.28664 38.5591 11.6284 40.4177 16.2811C39.4698 16.566 37.1466 16.6652 36.3226 16.8324C35.573 16.9935 35.7527 17.6874 36.3846 18.1892C37.5555 19.1247 40.5354 19.4468 41.6939 19.5645C43.3418 23.6534 43.7755 28.6034 43.3047 30.8585C43.0383 32.1409 43.6826 31.9179 44.3145 31.3603C47.1271 28.8574 47.6723 22.9595 46.8855 18.976C48.9981 18.1087 49.4318 17.1794 49.4503 16.3988Z" fill="#144F89"/>
<path d="M58.7061 27.1971C58.7122 26.3669 59.3813 25.6978 60.2115 25.704C61.0417 25.704 61.7107 26.3793 61.7107 27.2095C61.7107 28.0396 61.0355 28.7087 60.2053 28.7025C59.3751 28.6963 58.7061 28.021 58.7061 27.1971Z" fill="white"/>
<path d="M60.1742 26.2926C60.707 26.2616 61.1407 26.6519 61.1717 27.1661C61.2027 27.6927 60.8124 28.1202 60.2796 28.1574C59.7468 28.1884 59.3007 27.8043 59.2697 27.2777C59.2388 26.7635 59.6415 26.3298 60.1742 26.2926ZM60.1742 26.4847C59.7654 26.5095 59.4804 26.8564 59.5052 27.2653C59.5237 27.6742 59.8521 27.9901 60.2734 27.9653C60.6823 27.9467 60.961 27.5998 60.9363 27.1847C60.9115 26.7758 60.5893 26.4599 60.1804 26.4847H60.1742ZM60.1061 27.7113L59.8955 27.7237L59.8397 26.8006C59.9202 26.782 60.0379 26.7573 60.1928 26.7449C60.3663 26.7325 60.453 26.7573 60.5212 26.8006C60.5707 26.8378 60.6203 26.9059 60.6203 26.9927C60.6265 27.098 60.5522 27.1847 60.4406 27.2219V27.2343C60.5336 27.2591 60.5893 27.3272 60.6203 27.4511C60.6575 27.5936 60.6761 27.6494 60.7008 27.6742L60.4716 27.6865C60.4406 27.6556 60.4221 27.5812 60.3849 27.4759C60.3601 27.3768 60.3043 27.3334 60.1804 27.3396L60.0813 27.3458L60.1061 27.7113ZM60.0813 27.1909L60.1866 27.1847C60.3043 27.1785 60.3973 27.1352 60.3911 27.036C60.3849 26.9493 60.3229 26.8998 60.1866 26.9059C60.1309 26.9121 60.0937 26.9183 60.0689 26.9245L60.0813 27.1909Z" fill="#144F89"/>
</g>
<defs>
<linearGradient id="paint0_linear" x1="16.838" y1="13.0752" x2="36.9042" y2="13.9911" gradientUnits="userSpaceOnUse">
<stop stop-color="#2BA756"/>
<stop offset="1" stop-color="#006A46"/>
</linearGradient>
<clipPath id="clip0">
<rect width="61.7108" height="49.8903" fill="white"/>
</clipPath>
</defs>
</svg>
