<svg width="104" height="34" viewBox="0 0 104 34" fill="none" xmlns="http://www.w3.org/2000/svg">
<path d="M66.2765 15.4158C65.9138 15.5334 65.4181 15.633 64.8026 15.71C64.5091 15.7484 64.1829 15.7675 63.8007 15.7675C63.1592 15.7675 62.4639 15.7164 61.7908 15.6638L61.7675 15.6629C61.1441 15.6159 60.554 15.5716 59.9881 15.5716C59.5837 15.5716 59.2132 15.5956 58.8576 15.6411C57.8001 15.7723 56.9662 16.1045 56.9662 16.1045L56.9752 16.0184C57.18 13.8977 58.9621 12.0871 61.1185 11.8007C61.3173 11.7774 61.5221 11.7643 61.7269 11.7643C63.7586 11.7643 65.7289 13.3043 66.3145 15.3502L66.3291 15.4032L66.2765 15.4158ZM68.7587 16.3162L68.7581 16.2873C68.7487 16.1509 68.7228 15.9303 68.6942 15.6931C68.6386 15.2628 68.5447 14.8393 68.4146 14.4308C67.434 11.3375 64.809 9.34119 61.7269 9.34119C61.4195 9.34119 61.1016 9.36073 60.7882 9.40357C56.8358 9.91204 54.1514 13.4943 54.6741 17.5583C55.1495 21.2374 58.1098 23.758 61.7123 23.758C62.0163 23.758 62.3328 23.7369 62.6526 23.6986C64.5726 23.4547 66.2596 22.6505 67.5234 21.0867C67.5945 20.9977 67.6298 20.8838 67.6166 20.782C67.605 20.6914 67.552 20.6053 67.4565 20.5362C67.2446 20.3836 66.4877 20.0164 66.0758 19.8203C65.9548 19.7598 65.8571 19.7128 65.803 19.6857C65.6782 19.6215 65.5888 19.5925 65.5072 19.5925C65.4072 19.5925 65.3125 19.6436 65.2201 19.756C64.4053 20.703 63.3741 21.2006 62.3207 21.3389C62.1118 21.3645 61.9092 21.378 61.7123 21.378C59.7923 21.378 57.8546 20.0923 57.292 18.3279L57.2781 18.2817L57.3194 18.2618C57.419 18.2122 58.3176 17.7939 59.6491 17.7939C59.8141 17.7939 59.9824 17.8007 60.1467 17.8153C60.5285 17.8454 60.9122 17.895 61.3165 17.9461C62.0633 18.045 62.8374 18.1472 63.7413 18.1472C64.2982 18.1472 64.8458 18.107 65.4042 18.0292C67.602 17.6056 68.4738 16.9893 68.4806 16.9837C68.791 16.783 68.7794 16.6165 68.7587 16.3162" fill="#2151A1"/>
<path d="M103.187 10.151C103.187 9.96644 103.036 9.81799 102.853 9.81799H101.034C100.853 9.81799 100.703 9.96644 100.703 10.151V23.0841C100.703 23.2667 100.853 23.4178 101.034 23.4178H102.853C103.036 23.4178 103.187 23.2667 103.187 23.0841V10.151Z" fill="#2151A1"/>
<path d="M101.945 5.20532C101.04 5.20532 100.303 5.94341 100.303 6.84911C100.303 7.75256 101.04 8.48914 101.945 8.48914C102.851 8.48914 103.587 7.75256 103.587 6.84911C103.587 5.94341 102.851 5.20532 101.945 5.20532Z" fill="#2151A1"/>
<path d="M77.8664 11.7975C80.4441 11.7975 82.4641 13.9189 82.4641 16.6289C82.4641 19.355 80.5475 21.4088 78.0051 21.4088C76.7213 21.4088 75.5315 20.9485 74.6608 20.1145C73.7626 19.2569 73.2699 18.0461 73.2699 16.7101C73.2699 14.0012 75.3316 11.7975 77.8664 11.7975ZM77.7856 23.7625C77.9006 23.7674 78.0198 23.7719 78.1355 23.7719C80.0044 23.7719 81.741 23.0503 83.0316 21.75C84.3401 20.4246 85.0587 18.6068 85.0587 16.6289C85.0587 12.5427 81.9128 9.34119 77.8957 9.34119C74.627 9.34119 71.8674 11.4938 71.0237 14.6957C70.8801 15.2395 70.7317 16.6259 70.7317 18.0085V28.1561C70.7317 28.341 70.8801 28.4917 71.065 28.4917H72.8693C73.0557 28.4917 73.2068 28.3391 73.2068 28.1534L73.2053 21.7609L73.3 21.853C74.1861 22.714 75.8295 23.6708 77.7856 23.7625" fill="#2151A1"/>
<path d="M45.4517 11.7975C48.0271 11.7975 50.0478 13.9189 50.0478 16.6289C50.0478 19.355 48.132 21.4088 45.5874 21.4088C44.3006 21.4088 43.116 20.9485 42.246 20.1145C41.3464 19.2569 40.8514 18.0461 40.8514 16.7101C40.8514 14.0012 42.915 11.7975 45.4517 11.7975ZM45.3716 23.7625C45.4866 23.7674 45.605 23.7719 45.7189 23.7719C47.5897 23.7719 49.327 23.0503 50.6153 21.75C51.9243 20.4246 52.6451 18.6068 52.6451 16.6289C52.6451 12.5427 49.4965 9.34119 45.4788 9.34119C42.2111 9.34119 39.4489 11.4938 38.6071 14.6957C38.4609 15.2395 38.3147 16.6259 38.3147 18.0085V28.1561C38.3147 28.341 38.4646 28.4917 38.645 28.4917H40.4546C40.6402 28.4917 40.7913 28.3391 40.7913 28.1534L40.7883 21.7609L40.8796 21.853C41.7661 22.714 43.4095 23.6708 45.3716 23.7625" fill="#2151A1"/>
<path d="M86.797 21.4971C88.3679 22.9346 90.0838 23.7557 92.3116 23.7557H92.3823C96.2276 23.7309 97.9458 21.629 97.9458 19.5583C97.9458 16.6939 95.2433 15.9111 94.4154 15.7375C94.1497 15.6856 93.8735 15.6337 93.5901 15.5774C92.9208 15.4485 92.226 15.3154 91.5946 15.1411C91.1519 15.0193 89.7088 14.5386 89.7088 13.4597C89.7088 12.2717 91.0271 11.6314 92.2654 11.6314C93.3057 11.6314 94.173 11.8065 95.2828 12.6731C95.3696 12.7415 95.4914 12.8197 95.6398 12.8197C95.7495 12.8197 95.8548 12.7817 95.9679 12.7009C96.2753 12.4743 96.8375 12 97.2088 11.6287C97.2964 11.54 97.3373 11.4431 97.3321 11.3416C97.3234 11.1842 97.2066 11.0553 97.1464 11.0056C95.6624 9.82824 94.2339 9.34645 92.2199 9.34119H92.2053C89.3243 9.34119 87.1495 11.1932 87.1495 13.6483C87.1495 15.5939 88.749 16.9758 91.648 17.5451L93.4635 17.8931C94.6567 18.1122 95.3275 18.7458 95.3042 19.6331C95.2828 20.4978 94.2223 21.3934 92.4796 21.3934C91.0572 21.3934 89.8043 20.838 88.7546 19.8853L88.7392 19.8702C88.6652 19.803 88.5765 19.721 88.4574 19.721C88.3739 19.721 88.2856 19.7598 88.1902 19.8342C88.0808 19.9229 86.8684 20.8815 86.7392 21.0172C86.6798 21.0807 86.652 21.148 86.6531 21.2186C86.6561 21.3306 86.7301 21.4355 86.797 21.4971" fill="#2151A1"/>
<path d="M28.2281 28.2286C21.772 34.6862 11.3003 34.6855 4.84442 28.2286C-1.61481 21.77 -1.61481 11.2992 4.84442 4.8428C11.3017 -1.61437 21.772 -1.61437 28.227 4.8434C34.686 11.2991 34.686 21.7699 28.2282 28.2285" fill="white"/>
<path d="M29.4083 8.19128C29.718 9.1947 29.8879 10.2597 29.8879 11.3639C29.8879 14.9265 28.1362 18.0593 25.4721 20.0221C20.8396 23.4341 14.0875 23.4386 4.76465 26.3763C7.57837 29.7394 11.8067 31.88 16.5354 31.88C25.0102 31.88 31.88 25.0103 31.88 16.5358C31.88 13.4594 30.9694 10.5953 29.4083 8.19128Z" fill="#2151A1"/>
<path d="M25.7386 4.2584C23.1744 2.33125 19.989 1.19104 16.5367 1.19104C8.06216 1.19104 1.19263 8.06234 1.19263 16.5357C1.19263 19.9466 2.30536 23.097 4.18734 25.6442C14.5074 22.6392 22.6562 14.5439 25.7386 4.2584Z" fill="#EB1933"/>
</svg>
