<svg width="75" height="52" viewBox="0 0 75 52" fill="none" xmlns="http://www.w3.org/2000/svg">
<path d="M42.0672 3.56497C41.4641 4.34682 41.129 5.30737 41.129 6.29026C41.129 6.62534 41.129 14.5555 41.129 14.8459C41.0843 15.4937 40.8386 16.0968 40.4365 16.6106C40.2131 16.834 38.8952 18.0179 38.7835 18.152L39.5206 18.1743C39.7664 17.9509 42.3129 15.6947 42.5587 15.382C43.2958 14.5778 43.7203 13.5279 43.7203 12.4333C43.7203 12.0759 43.7203 4.54786 43.7203 4.21279C43.6979 3.38627 44.0107 2.55974 44.5915 1.95661C44.9042 1.62153 45.8871 0.795009 46.0658 0.593964L45.284 0.571625C45.1276 0.772671 42.3353 3.29691 42.0672 3.56497Z" fill="#A32323"/>
<path d="M35.7902 34.6823L38.8952 37.3853H40.9727C42.9608 37.3853 44.8819 36.6034 46.2892 35.1961C47.5625 33.9228 48.0316 32.2028 48.0316 30.5944V26.1491C48.0093 25.1438 47.5848 24.1833 46.8253 23.5131C46.6913 23.3791 45.7754 22.5079 45.7754 22.5079V25.9257C45.7754 25.9257 46.7807 26.9533 46.9594 27.1543C47.8752 28.1372 47.8752 29.9243 44.9489 32.7612C44.4351 33.2527 42.9831 34.6377 40.9727 34.6377L35.7902 34.6823Z" fill="#A32323"/>
<path d="M44.4351 16.4317C44.1 16.7891 43.7649 17.6826 43.7649 18.4868V20.1622H45.4627C46.1328 20.1622 47.004 19.5591 47.1827 19.2463C47.1827 19.224 47.1827 17.571 47.1827 17.571C47.4284 17.9284 47.7412 18.2634 48.0986 18.5315C48.2773 18.3081 49.841 16.4317 51.1366 16.4094C53.3034 16.387 52.812 19.1346 51.9408 20.0058C51.6504 20.2962 50.3771 21.4578 49.975 21.8376C48.9474 22.8205 47.1827 22.3514 47.1827 19.8271C47.1827 19.8271 45.3063 21.6142 45.0159 21.8599C44.7255 22.1057 43.7649 23.1332 43.7649 23.1332V27.5786C43.7649 29.7007 43.0724 30.4155 42.4916 31.0634C42.2683 31.3091 39.878 33.4982 39.543 33.744L38.7611 33.7663C38.7611 33.7663 40.1684 32.493 40.4365 32.2026C40.7492 31.8675 41.129 31.1974 41.129 30.0805C41.129 29.7901 41.0843 23.1109 41.0843 23.1109H30.1832C26.3856 23.1109 25.5815 18.9113 25.5591 17.772C25.5591 17.4369 25.5591 14.0862 25.5591 13.55C25.5591 12.8575 25.1124 11.6959 24.4199 11.3385H25.4921C25.6261 11.3832 26.2963 11.6513 26.2963 14.2425C26.2963 14.2425 26.2516 17.2359 26.2516 17.4146C26.2516 18.7325 27.3015 20.2292 28.7982 20.2292L41.129 20.2069C41.129 19.8718 41.4641 18.6209 42.0672 17.9507C42.4023 17.571 45.0606 15.1584 45.351 14.9127H46.1328C46.0211 15.0244 44.7255 16.1636 44.4574 16.4764L44.4351 16.4317ZM48.4783 18.9559C48.7911 19.3804 49.1485 19.8048 49.5282 20.1845C50.8686 21.2568 51.494 20.0952 50.6005 18.8889C50.2431 18.3975 48.8804 18.5315 48.4783 18.9559Z" fill="#A32323"/>
<path d="M35.2541 26.9088C35.2541 27.512 33.3553 29.098 33.2436 29.1873C33.1096 28.5395 32.6182 27.847 31.2108 26.4174L33.2883 24.3399C34.6956 25.7472 35.2541 26.06 35.2541 26.9088V26.9088Z" fill="#A32323"/>
<path d="M38.8729 3.02882C39.2973 3.45325 40.1909 4.57017 39.6548 5.12863C39.1857 5.59774 38.4485 6.35724 38.4485 6.35724C38.4038 6.08918 37.7113 5.41903 37.7113 5.41903C37.7113 5.41903 37.7113 7.42949 37.7113 7.67521C37.689 8.59109 37.3539 8.83681 37.3539 8.83681C37.3539 8.83681 39.0293 10.4899 39.0293 12.6343C39.0293 13.6619 39.0293 14.6225 39.0293 14.8235C39.0516 15.2256 38.8953 15.65 38.6049 15.9404C38.4485 16.1191 36.9071 17.6828 36.6614 17.8839C36.304 18.1966 35.8572 18.3753 35.3881 18.353H29.6025C28.6866 18.353 27.7484 17.6381 27.7484 16.9233C27.7484 16.7446 27.7707 14.7788 27.7707 14.7788C28.0611 15.1139 28.3739 15.516 29.0887 15.516C29.6695 15.516 30.2503 15.0692 30.4067 14.8905C30.563 14.7118 34.785 10.3335 34.785 10.3335C34.785 10.3335 32.8192 8.50173 31.5236 7.63053C30.8981 7.2061 30.0492 7.74223 29.9152 8.30069C29.5131 10.0431 29.9152 12.679 29.9152 12.679L28.3292 11.093C27.6814 10.4452 27.7037 8.99318 28.4856 8.23367C28.5972 8.09964 29.7812 6.80401 31.2555 6.80401H33.5564C35.0977 6.80401 36.7954 8.34536 36.7954 8.34536C36.9295 8.18899 37.0188 8.01029 37.0412 7.80924C37.0412 7.00506 37.0188 4.88291 37.0188 4.88291C35.8572 3.72131 35.7009 2.51504 36.2593 1.95658C37.3092 0.90667 37.689 0.549255 37.689 0.549255C37.689 0.549255 37.6443 1.82254 38.8729 3.02882V3.02882ZM31.6129 14.6448C31.0321 15.2479 30.9428 15.382 30.4067 15.717H36.9295C38.6942 15.717 38.3368 14.6225 38.0241 14.064C37.3762 12.9247 35.3211 10.8249 35.3211 10.8249C35.3211 10.8249 31.7246 14.5331 31.6129 14.6448V14.6448Z" fill="#A32323"/>
<path d="M24.1743 20.5865H23.102C23.102 20.5865 24.2413 21.2119 24.2413 22.8426V28.0475C24.2413 31.4206 27.0336 34.548 30.429 34.548H33.266C34.9637 34.548 35.5669 34.1459 36.5944 33.23C36.9742 32.8949 37.4656 32.3365 37.6443 32.1354C38.2251 31.4653 38.8729 30.9291 38.8729 29.1867V27.489C38.8729 26.0147 38.0241 25.4116 37.5997 24.9871C37.3316 24.7191 36.6168 24.0266 36.6168 24.0266V27.5114C36.6168 27.5114 37.3316 28.2709 37.6443 28.5166C39.1187 29.6782 37.9571 31.6887 36.5721 31.6887C36.304 31.6887 30.7418 31.6887 30.3397 31.6887C28.0612 31.7333 24.9561 29.7005 24.9561 26.2604V23.4458C24.9784 20.5865 24.1743 20.5865 24.1743 20.5865V20.5865Z" fill="#A32323"/>
<path d="M31.0097 26.9312C31.0097 27.5343 29.111 29.1204 28.9993 29.2097C28.8653 28.5619 28.3738 27.8694 26.9665 26.4397L29.044 24.3623C30.4289 25.7473 31.0097 26.06 31.0097 26.9312V26.9312Z" fill="#A32323"/>
<path d="M9.22976 50.0514H5.879C4.82909 50.0514 4.91844 49.1802 4.80675 48.443V43.6626C4.80675 43.6626 5.54392 43.6403 6.37044 43.6403C7.28632 43.6403 8.44791 43.5062 9.56484 44.1317C8.98404 42.9031 7.73308 42.1436 6.37044 42.1883H4.82909V40.6469C4.82909 40.6469 4.82909 39.3066 4.49401 38.9268H6.70552C8.60428 38.9268 10.0786 38.9045 11.62 39.9097C11.62 39.9097 11.3296 37.3855 7.64373 37.3855H0.45076C0.45076 37.3855 1.70171 38.4577 1.65703 40.6246L1.70171 49.3366C1.70171 51.5257 2.57291 51.5927 2.57291 51.5927H9.65419C11.2626 51.5927 11.821 50.4535 11.821 49.828L11.8434 49.0015C11.8434 49.0015 11.3296 50.0514 9.22976 50.0514V50.0514Z" fill="#A32323"/>
<path d="M28.0833 49.3144V43.216C28.0833 40.8482 26.1622 40.2227 24.7102 40.2227C22.8114 40.2227 22.2306 41.8087 21.9849 42.3672C21.5605 40.8928 20.0638 40.2227 18.8575 40.2227C16.5567 40.2227 15.9759 42.4119 15.9759 42.4119C15.9759 42.4119 15.9312 40.2897 14.0771 40.2897H12.2677C12.2677 40.2897 13.3176 40.7141 13.3176 42.5459V49.3144C13.3176 51.5483 14.2111 51.5929 14.2111 51.5929H17.2045C16.4897 51.0568 16.0652 50.208 16.0652 49.2921V43.2831C16.1099 43.015 16.5567 42.1215 17.83 42.1215C18.5671 42.1215 19.3713 42.881 19.349 43.7298V49.3144C19.349 51.5706 20.2425 51.5929 20.2425 51.5929H23.2359C22.521 51.0345 22.0966 50.208 22.0966 49.2921V43.2831C22.387 42.4119 23.3252 41.9204 24.2188 42.2108C24.8889 42.4342 25.358 43.0373 25.3804 43.7522C25.3804 43.7522 25.3804 48.8453 25.3804 49.3144C25.4027 51.5929 26.2739 51.5706 26.2739 51.5706C27.8376 51.5706 29.2672 51.5706 29.2672 51.5706C28.5301 51.0345 28.1056 50.208 28.0833 49.3144Z" fill="#A32323"/>
<path d="M33.3105 49.3135C33.3105 50.207 33.7349 51.0559 34.4497 51.592C34.4497 51.592 33.0201 51.592 31.4564 51.592C31.4564 51.592 30.5405 51.6143 30.5405 49.3358V42.5226C30.5405 40.7355 29.5129 40.2664 29.5129 40.2664H31.3223C31.9702 40.2664 33.2881 40.2664 33.2881 42.7907V49.2688L33.3105 49.3135Z" fill="#A32323"/>
<path d="M42.514 41.1376C42.514 41.1376 42.2236 40.3334 40.995 40.3334C39.1186 40.3334 38.6718 42.5673 38.6718 42.5673C38.5154 40.8025 38.0463 40.2888 36.7284 40.2888H34.9189C34.9189 40.2888 35.9689 40.7132 35.9689 42.5449V49.3135C35.9689 51.5473 36.8624 51.592 36.8624 51.592H39.8557C39.1409 51.0559 38.7165 50.207 38.7165 49.3135V43.7512C38.7835 43.2821 39.0516 42.8577 39.4536 42.612C40.4589 41.9418 41.7768 42.1428 42.5587 43.0587L42.514 41.1376Z" fill="#A32323"/>
<path d="M56.4309 41.5397C57.0564 41.5397 57.6595 41.6961 58.1956 41.9865V40.2888H55.6937V37.6975C55.1576 38.5464 54.4651 39.3059 53.6833 39.9537C52.8344 40.6462 51.0473 41.5174 51.0473 41.5174L52.9461 41.5397V49.4029C52.9461 51.592 53.862 51.592 53.862 51.592C55.4927 51.592 56.833 51.592 56.833 51.592C56.1182 51.0783 55.6937 50.2517 55.6714 49.3805V41.5397C56.4756 41.5397 55.9394 41.5397 56.4309 41.5397V41.5397Z" fill="#A32323"/>
<path d="M65.5002 44.9581C63.8248 46.7005 62.5068 46.4324 61.4569 47.728C61.4569 47.728 61.6356 49.4704 62.9536 50.0736C63.4004 50.2746 65.2545 50.9448 66.4384 48.8896V50.7214C66.4384 50.7214 65.6789 51.6149 63.244 51.6149C60.3177 51.6149 58.3072 49.314 58.3072 46.1867C58.3072 43.104 59.9379 40.267 63.043 40.2446C66.0587 40.2 67.7117 42.6572 65.5002 44.9581ZM63.6684 44.2432C64.1599 43.3274 64.562 41.0042 62.8643 41.1382C60.8985 41.2946 61.2782 46.4994 61.2782 46.4994C61.926 45.7846 62.9089 45.6282 63.6684 44.2432V44.2432Z" fill="#A32323"/>
<path d="M31.9257 39.3734C32.6852 39.3511 33.266 38.7256 33.266 37.9884C33.2437 37.2289 32.6182 36.6481 31.881 36.6481C31.1438 36.6705 30.5407 37.2736 30.5407 38.0108C30.5407 38.7703 31.1662 39.3734 31.9257 39.3734Z" fill="#A32323"/>
<path d="M45.619 50.297C44.9489 50.297 44.4574 49.5822 44.4574 48.8674C44.4574 46.0527 46.7583 45.6507 47.3838 44.9135V49.6716C47.0934 49.895 46.8253 50.297 45.619 50.297V50.297ZM47.3838 43.8189C46.6913 45.0252 41.2854 45.2932 42.1119 49.4705C42.447 51.1236 43.5416 51.615 44.9265 51.615C46.2668 51.615 47.0934 50.9225 47.4284 50.2524C47.6295 51.5033 48.2773 51.5927 48.2773 51.5927C49.841 51.5927 51.2707 51.5927 51.2707 51.5927C50.5558 51.0566 50.1091 50.23 50.1091 49.3365V42.97C50.1091 41.451 48.4337 40.2671 46.6466 40.2671C45.6414 40.2448 44.6808 40.5352 43.8543 41.0936V43.0594C43.8543 43.0594 44.4798 41.4957 46.0211 41.4957C47.5401 41.4957 47.6518 42.2552 47.6518 42.635C47.6742 43.0371 47.6072 43.4615 47.3838 43.8189V43.8189Z" fill="#A32323"/>
<path d="M72.1124 48.5102C72.1348 49.3144 71.4199 50.3643 69.9009 50.3643C68.3372 50.3643 67.7118 48.7783 67.7118 48.7783V50.7888C68.5606 51.3249 69.5435 51.5929 70.5487 51.5929C72.5815 51.5929 74.659 50.0516 74.6143 47.8848C74.592 47.1699 74.3463 46.4774 73.9219 45.919C73.2294 45.0031 71.9784 44.3553 70.9955 43.7522C70.4371 43.4171 70.1467 42.7916 70.1467 42.5906C70.1243 42.2108 70.3254 41.4513 71.822 41.4513C73.2964 41.4513 73.9442 43.015 73.9442 43.015V41.1162C73.1177 40.5354 72.1124 40.2227 71.0849 40.2227C69.2978 40.2227 67.6671 41.4066 67.7118 42.9256C67.7341 44.2659 68.2926 45.1148 69.3872 45.9413C69.8786 46.2987 70.3924 46.6115 70.9285 46.9019C71.7774 47.371 72.0901 47.9518 72.1124 48.5102V48.5102Z" fill="#A32323"/>
</svg>
