<svg width="102" height="19" viewBox="0 0 102 19" fill="none" xmlns="http://www.w3.org/2000/svg">
<g clip-path="url(#clip0)">
<path d="M12.6275 7.78856C12.5621 7.78856 12.5071 7.79026 12.4761 7.79371C12.4399 7.85914 12.3866 7.94692 12.3074 8.06915C13.5398 8.06915 14.6588 8.1707 15.8964 8.39274L15.547 8.73014C14.4298 8.53219 13.502 8.45303 12.3194 8.45303C12.1473 8.45303 12.1111 8.45303 12.0698 8.45473C12.0285 8.51668 11.9355 8.63718 11.8426 8.74909C11.9476 8.74221 12.1507 8.73876 12.4313 8.73876C13.4039 8.73876 14.3127 8.81104 15.2991 8.96943L14.9496 9.30853C14.1991 9.19148 13.2816 9.12434 12.4588 9.12434C12.1662 9.12434 11.834 9.13467 11.5362 9.15188C11.4691 9.22933 11.2935 9.4187 11.2401 9.47721C11.6343 9.43591 12.0681 9.41696 12.5845 9.41696C13.3195 9.41696 14.0219 9.46518 14.6863 9.56329L14.3368 9.89894C13.8635 9.84044 13.2885 9.80602 12.7808 9.80602C11.4708 9.80602 10.438 10.09 9.37071 10.7424C10.388 11.8338 12.0543 12.524 13.669 12.524H13.8204L13.2559 13.0698C10.9268 12.6325 8.47562 11.6083 6.40484 10.2053C4.41321 8.86096 3.71607 8.46336 2.16169 7.77654L2.15136 7.37715L3.20311 7.82816L3.56116 7.54413L6.99525 9.11746L6.77147 9.29646L5.00881 8.53049L4.83495 8.66645L5.75073 9.17771C6.52363 9.60807 7.11231 9.80084 7.65628 9.80084C8.84573 9.80084 9.91299 8.95737 10.6015 7.4753C11.1196 7.40813 11.6722 7.37715 12.3366 7.37715C13.6999 7.37715 15.0237 7.50797 16.523 7.78856L16.158 8.14143C15.2251 7.94692 13.6397 7.78856 12.6275 7.78856ZM9.28982 17.5917C4.82232 17.5917 1.19837 13.9677 1.19837 9.50025C1.19837 5.03274 4.82232 1.40876 9.28982 1.40876C13.7573 1.40876 17.3813 5.03274 17.3813 9.50025C17.3813 13.9677 13.7573 17.5917 9.28982 17.5917V17.5917ZM9.28982 0.892316C4.52966 0.892316 0.681847 4.74005 0.681847 9.50025C0.681847 14.2604 4.52966 18.1082 9.28982 18.1082C14.05 18.1082 17.8978 14.2604 17.8978 9.50025C17.8978 4.74005 14.05 0.892316 9.28982 0.892316V0.892316ZM32.0312 12.9271H36.9664V15.2389H29.375V3.76159H32.0312V12.9271ZM42.9346 6.97526H45.4103V15.2389H43.0822V14.2879C42.7378 14.9274 42.0329 15.4848 40.7375 15.4848C38.6225 15.4848 37.5239 14.5338 37.5239 11.8121V6.97526H39.9997V11.6973C39.9997 12.7959 40.4753 13.2877 41.4754 13.2877C42.3772 13.2877 42.9346 12.7959 42.9346 11.6973V6.97526ZM47.3124 6.66377C47.3124 4.66348 48.5749 3.59765 50.5588 3.59765C51.1984 3.59765 51.6082 3.69603 51.6082 3.69603V5.69632C51.6082 5.69632 51.2639 5.66365 50.9687 5.66365C50.1981 5.66365 49.7881 5.92598 49.7881 6.64737V6.97526H51.6082V8.99198H49.7881V15.2389H47.3124V8.99198H46.0663V6.97526H47.3124V6.66377V6.66377ZM55.9694 6.97526H57.8549V8.99198H55.9694V12.2056C55.9694 13.091 56.4285 13.3206 57.1499 13.3206C57.445 13.3206 57.8549 13.2714 57.8549 13.2714V15.2553C57.8549 15.2553 57.2811 15.3864 56.6744 15.3864C54.6905 15.3864 53.4936 14.4847 53.4936 12.4844V8.99198H52.2475V6.97526H53.4936V4.56505H55.9694V6.97526ZM63.3364 6.72932C65.4351 6.72932 66.5337 7.68025 66.5337 10.402V15.2389H64.0578V10.5168C64.0578 9.4183 63.5823 8.92647 62.5494 8.92647C61.6148 8.92647 61.0574 9.4183 61.0574 10.5168V15.2389H58.5816V3.77802H61.0737V7.77864C61.5001 7.17195 62.1723 6.72932 63.3364 6.72932V6.72932ZM72.8461 12.0252C72.8461 12.9271 71.9935 13.5993 70.6819 13.5993C70.0423 13.5993 69.6653 13.3042 69.6653 12.7467C69.6653 12.3204 69.9276 11.9597 70.7638 11.845L72.1903 11.6482C72.4362 11.6153 72.6985 11.5662 72.8461 11.517V12.0252ZM71.4689 6.72937C69.0258 6.72937 67.8453 7.66398 67.7469 9.41834H70.1572C70.19 8.95919 70.4523 8.61487 71.4689 8.61487C72.3706 8.61487 72.7969 8.91007 72.7969 9.35266C72.7969 9.7463 72.5509 9.8938 71.9443 9.95935L70.3704 10.1233C68.2388 10.3528 67.2714 11.2382 67.2714 12.8451C67.2714 14.3371 68.1896 15.4848 70.1407 15.4848C71.4689 15.4848 72.2559 15.0585 72.9445 14.2059V15.2389H75.2072V9.81181C75.2072 7.53275 73.8791 6.72937 71.4689 6.72937V6.72937ZM80.932 6.72932C83.0799 6.72932 84.1785 7.68025 84.1785 10.402V15.2389H81.7026V10.5168C81.7026 9.4183 81.2272 8.92647 80.1942 8.92647C79.2596 8.92647 78.7022 9.4183 78.7022 10.5168V15.2389H76.2264V6.9753H78.5546V7.92631C78.8989 7.28678 79.6039 6.72932 80.932 6.72932V6.72932ZM89.4012 10.0577C91.4999 10.3365 92.5492 10.9923 92.5492 12.7139C92.5492 14.4519 91.3196 15.4848 88.7126 15.4848C85.876 15.4848 84.8759 14.3536 84.8268 12.6974H87.2696C87.3354 13.3042 87.7616 13.5993 88.7126 13.5993C89.6799 13.5993 90.0734 13.3697 90.0734 12.9107C90.0734 12.4844 89.7456 12.2877 88.8929 12.1729L88.0239 12.058C86.204 11.8121 85.1546 11.1071 85.1546 9.46749C85.1546 7.89347 86.3188 6.72932 88.7618 6.72932C91.0244 6.72932 92.2378 7.6311 92.3525 9.4183H89.9422C89.8602 8.94291 89.5979 8.6477 88.7618 8.6477C87.9419 8.6477 87.6304 8.92647 87.6304 9.28723C87.6304 9.64783 87.8272 9.84461 88.5322 9.94304L89.4012 10.0577V10.0577ZM98.747 12.0254C98.747 12.9271 97.8942 13.5993 96.5826 13.5993C95.9432 13.5993 95.566 13.3042 95.566 12.7467C95.566 12.3204 95.8284 11.9597 96.6645 11.845L98.0911 11.6482C98.337 11.6155 98.5993 11.5662 98.747 11.517V12.0254ZM97.3696 6.72937C94.9267 6.72937 93.7461 7.66398 93.6478 9.41834H96.058C96.0908 8.95919 96.3531 8.61499 97.3696 8.61499C98.2714 8.61499 98.6977 8.91007 98.6977 9.35278C98.6977 9.7463 98.4518 9.8938 97.8451 9.95935L96.2711 10.1233C94.1397 10.3529 93.1722 11.2383 93.1722 12.8451C93.1722 14.3371 94.0904 15.4848 96.0416 15.4848C97.3696 15.4848 98.1567 15.0585 98.8452 14.2059V15.2389H101.108V9.81181C101.108 7.53287 99.7798 6.72937 97.3696 6.72937" fill="#0A1D3D"/>
</g>
<defs>
<clipPath id="clip0">
<rect width="101" height="17.7898" fill="white" transform="translate(0.394897 0.605103)"/>
</clipPath>
</defs>
</svg>
