<svg width="100" height="29" viewBox="0 0 100 29" fill="none" xmlns="http://www.w3.org/2000/svg">
<g clip-path="url(#clip0)">
<path d="M18.5936 25.475C18.3829 25.4906 18.1722 25.4984 17.9615 25.4984C17.7196 25.4984 17.4855 25.475 17.2514 25.475L17.9537 23.7894L18.5936 25.475ZM19.3662 27.387C19.4911 27.3791 19.6784 27.3479 19.8735 27.3479C20.0686 27.3479 20.3027 27.3791 20.4119 27.387C20.0998 26.7236 19.6471 25.6857 19.3896 25.0926C19.1399 24.5152 18.7341 23.5553 18.4063 22.6188C18.3361 22.6422 18.2581 22.6501 18.1878 22.6501C18.102 22.6501 18.0396 22.6344 17.9615 22.6188C17.7977 23.1807 17.3997 24.0703 16.7051 25.6233L15.9091 27.387C16.0028 27.3713 16.1042 27.3479 16.2135 27.3479C16.3227 27.3479 16.4554 27.3713 16.5412 27.387C16.6505 26.9968 16.869 26.4271 17.0875 25.9042C17.3606 25.8886 17.6338 25.8808 17.9069 25.873C18.2034 25.873 18.4922 25.8886 18.7887 25.9042L19.0775 26.63L19.3662 27.387ZM21.0128 24.2732C21.0128 25.4438 21.0128 26.5754 20.9348 27.387C21.083 27.3791 21.2781 27.3479 21.4264 27.3479C21.5825 27.3479 21.7464 27.3791 21.9102 27.387C21.8556 26.8329 21.84 26.0915 21.84 25.0692C21.84 24.3747 21.84 23.1885 21.9181 22.6813C21.7542 22.7047 21.5825 22.7203 21.4342 22.7203C21.3328 22.7203 21.0752 22.6891 20.9504 22.6813C21.0128 23.3524 21.0128 23.8362 21.0128 24.2732V24.2732ZM25.0864 25.0614C25.7107 24.9444 26.2804 24.5542 26.2804 23.7972C26.2804 23.5085 26.1711 23.2275 25.9682 23.0324C25.6717 22.7515 25.3361 22.6969 24.8913 22.6969C24.7352 22.6969 23.9392 22.7281 23.7597 22.7281C23.4086 22.7281 23.2291 22.7047 23.073 22.6969C23.1198 23.5787 23.1198 23.6802 23.1198 24.5776C23.1198 25.8964 23.112 26.0525 23.0574 27.4026C23.2057 27.3791 23.3696 27.3635 23.5256 27.3635C23.6973 27.3635 23.8456 27.387 23.9861 27.4026C23.9861 27.2231 23.9548 26.3412 23.9548 26.1383V25.1629H24.1187C24.4855 25.6857 24.9147 26.2866 25.2659 26.8251C25.3673 26.9812 25.5234 27.2387 25.6249 27.3948C25.8278 27.3635 25.9136 27.3557 26.1789 27.3557C26.4286 27.3557 26.6003 27.3791 26.7876 27.3948C26.3584 26.8563 26.1711 26.6144 25.6327 25.8574C25.5312 25.7169 25.3751 25.4906 25.2737 25.3424L25.0864 25.0614ZM23.9626 23.0558C24.0641 23.048 24.3216 23.0168 24.4465 23.0168C24.6728 23.0168 24.8991 23.048 25.0864 23.1885C25.3283 23.368 25.3751 23.6099 25.3751 23.8987C25.3751 24.3435 25.1254 24.8429 24.4387 24.8429C24.2592 24.8429 24.0953 24.8273 23.9626 24.8195V23.0558ZM28.6527 25.7872C28.3328 24.8351 27.888 23.5007 27.6694 22.6891C27.4978 22.7125 27.3495 22.7281 27.1934 22.7281C27.0295 22.7281 26.7954 22.7047 26.655 22.6891C26.9359 23.4304 27.1778 24.0859 27.3651 24.6088C27.6773 25.4984 27.888 26.1149 28.1299 26.8719L28.3016 27.3948C28.3952 27.3713 28.5045 27.3557 28.5825 27.3557C28.6605 27.3557 28.723 27.3713 28.84 27.3948C28.9493 27.0358 29.0819 26.5988 29.1756 26.3178C29.4409 25.5375 29.4799 25.4282 29.8233 24.4527L30.0262 23.8831C30.1042 24.1016 30.2291 24.4527 30.3071 24.6712C30.3852 24.8819 30.7363 25.9354 30.8144 26.1696C30.9236 26.4739 30.9548 26.5676 31.2046 27.3948C31.267 27.387 31.3997 27.3557 31.5011 27.3557C31.5948 27.3557 31.6728 27.3791 31.7742 27.3948C32.0318 26.5832 32.063 26.4973 32.4454 25.397C32.8199 24.3279 33.0541 23.7192 33.4677 22.6891C33.2648 22.7437 33.0463 22.7437 32.8434 22.6891C32.5936 23.5787 32.4766 24.0157 32.2737 24.601C31.9537 25.5609 31.9069 25.6701 31.7118 26.193C31.4933 25.5999 31.2826 25.0068 31.0797 24.4059C30.9704 24.0781 30.549 22.7047 30.549 22.6891C30.4554 22.7125 30.3852 22.7281 30.2447 22.7281C30.1198 22.7281 30.034 22.7047 29.9404 22.6891C29.7375 23.5241 29.0117 25.5375 28.9415 25.7247L28.7698 26.1696L28.6527 25.7872ZM35.5669 25.475C35.3562 25.4906 35.1455 25.4984 34.9348 25.4984C34.6929 25.4984 34.4587 25.475 34.2246 25.475L34.9192 23.7894L35.5669 25.475ZM36.3473 27.387C36.4721 27.3791 36.6672 27.3479 36.8545 27.3479C37.0496 27.3479 37.2837 27.3791 37.3852 27.387C37.0808 26.7236 36.6282 25.6857 36.3629 25.0926C36.1131 24.5152 35.7073 23.5553 35.3796 22.6188C35.3016 22.6422 35.2391 22.6501 35.1611 22.6501C35.083 22.6501 35.005 22.6344 34.9348 22.6188C34.7709 23.1807 34.3729 24.0703 33.6784 25.6233L32.8824 27.387C32.976 27.3713 33.0775 27.3479 33.1945 27.3479C33.3038 27.3479 33.4364 27.3713 33.5223 27.387C33.6315 26.9968 33.85 26.4271 34.0686 25.9042C34.3417 25.8886 34.6148 25.8808 34.888 25.873C35.1845 25.873 35.4732 25.8886 35.762 25.9042L36.0507 26.63L36.3473 27.387ZM39.2191 25.5531C39.2191 25.4906 39.2581 25.4204 39.3049 25.3346C39.5936 24.8429 39.859 24.3279 40.1711 23.8362C40.2726 23.6723 40.772 22.8764 40.8813 22.6891C40.8032 22.7203 40.733 22.7281 40.5925 22.7281C40.4599 22.7281 40.3272 22.7125 40.1945 22.6891C39.7029 23.7738 39.5936 24.0079 39.0084 25.0068C38.4231 23.9845 38.1655 23.446 37.8066 22.6891C37.6193 22.7203 37.432 22.7359 37.2447 22.7281C37.0964 22.7281 36.9325 22.7125 36.6828 22.6891C37.0418 23.2822 37.6193 24.2342 37.9704 24.8351L38.3762 25.5375C38.3762 25.9667 38.3528 26.8563 38.3372 27.3948C38.4699 27.3791 38.6572 27.3557 38.7977 27.3557C38.9537 27.3557 39.1176 27.3791 39.2737 27.3948C39.2425 26.7548 39.2269 26.3881 39.2269 25.8106L39.2191 25.5531ZM41.2715 26.3647C41.2402 26.6924 41.2324 26.7861 41.1154 27.1372C41.3651 27.2621 41.8099 27.4884 42.3952 27.4884C43.6516 27.4884 44.1354 26.6846 44.1354 25.9901C44.1354 25.795 44.0886 25.397 43.7999 25.0848C43.6048 24.8663 43.3941 24.7883 42.8712 24.5854C42.2703 24.3513 41.9192 24.2186 41.9192 23.7192C41.9192 23.3134 42.1845 22.9778 42.7308 22.9778C43.16 22.9778 43.5267 23.1807 43.6282 23.5709H43.7218C43.7843 23.3134 43.7999 23.2587 43.9325 22.9232C43.597 22.7749 43.2926 22.6422 42.7932 22.6422C41.5524 22.6422 41.1934 23.407 41.1934 24.0157C41.1934 24.5854 41.3963 24.9366 42.0596 25.2331C42.2547 25.3189 42.5747 25.436 42.762 25.5218C42.8946 25.5765 43.3239 25.7638 43.3239 26.31C43.3239 26.8017 42.9649 27.1684 42.4264 27.1684C42.0206 27.1684 41.6772 27.067 41.3651 26.3803H41.2715V26.3647Z" fill="#505967"/>
<path d="M3.20456 13.6994C3.20456 8.51767 5.98271 7.12079 8.07412 7.12079C11.4454 7.12079 12.9047 9.91455 12.9047 12.8956C12.9047 14.6046 12.7018 16.2044 11.859 17.4998C11.0162 18.7953 9.61928 19.5756 8.09754 19.5756C4.29709 19.5756 3.20456 15.9547 3.20456 13.6994V13.6994ZM13.4431 24.2891C14.0596 23.8599 15.0273 23.3215 15.7218 23.0171L11.0786 20.1297C13.9348 19.123 15.7218 16.5712 15.7218 13.0985C15.7218 8.1665 11.9604 6.06728 8.11314 6.06728C3.96153 6.06728 0.38739 8.3694 0.38739 13.5979C0.38739 14.7061 0.637111 16.8053 2.36175 18.5533C4.14882 20.3638 6.27145 20.6292 8.05852 20.6292C8.28483 20.6292 8.51114 20.6292 8.73745 20.6057L13.4431 24.2891ZM25.3127 14.6046C24.6728 14.6436 24.0563 14.6905 23.4164 14.6905C22.6984 14.6905 21.9961 14.628 21.2781 14.6046L23.3774 9.54777L25.3127 14.6046ZM27.6382 20.3404C28.005 20.317 28.5825 20.2155 29.16 20.2155C29.7374 20.2155 30.4554 20.317 30.7675 20.3404C29.8389 18.3426 28.4888 15.2445 27.7007 13.4497C26.9593 11.725 25.7263 8.84543 24.743 6.02826C24.5167 6.09069 24.3138 6.12971 24.0875 6.12971C23.8378 6.12971 23.6349 6.09069 23.4086 6.02826C22.9169 7.71388 21.723 10.3906 19.6471 15.0338L17.2592 20.3404C17.5479 20.3014 17.8367 20.2155 18.1878 20.2155C18.5156 20.2155 18.9058 20.3014 19.1711 20.3404C19.4989 19.1698 20.1622 17.4608 20.8177 15.8766C21.6371 15.8376 22.4643 15.7986 23.2837 15.7986C24.1655 15.7986 25.0318 15.8376 25.9136 15.8766L26.772 18.0539L27.6382 20.3404ZM36.7609 9.91455C36.7609 9.13417 36.7843 8.35379 36.7999 7.61243C38.2202 7.61243 39.6795 7.63584 40.8891 7.7529C40.8266 7.42514 40.7876 7.23785 40.7876 7.01154C40.7876 6.84766 40.8266 6.58233 40.8891 6.23116C38.9147 6.33261 37.1042 6.35602 35.403 6.35602C33.8188 6.35602 31.5401 6.33261 29.9169 6.23116C29.9794 6.48088 30.0184 6.74621 30.0184 6.98813C30.0184 7.23004 29.9794 7.50318 29.9169 7.74509C30.9704 7.64364 32.937 7.60462 33.1243 7.60462H34.1544C34.1778 8.40842 34.1934 9.12636 34.1934 9.89114L34.2168 15.6269C34.2168 17.1877 34.092 18.7718 34.0139 20.3326C34.7553 20.2546 35.0596 20.2077 35.4108 20.2077C35.6605 20.2077 36.316 20.2702 36.9091 20.3326C36.8467 19.7551 36.7687 19.0762 36.7687 17.5154L36.7609 9.91455ZM48.2012 14.6046C47.5613 14.6436 46.9448 14.6905 46.3127 14.6905C45.5948 14.6905 44.8924 14.628 44.1745 14.6046L46.2737 9.54777L48.2012 14.6046ZM50.5267 20.3404C50.8935 20.317 51.471 20.2155 52.0485 20.2155C52.626 20.2155 53.3439 20.317 53.6561 20.3404C52.7274 18.3426 51.3774 15.2445 50.5892 13.4497C49.8478 11.725 48.6148 8.84543 47.6315 6.02826C47.4052 6.09069 47.2023 6.12971 46.976 6.12971C46.7263 6.12971 46.5234 6.09069 46.2971 6.02826C45.8055 7.71388 44.6115 10.3906 42.5357 15.0338L40.1477 20.3404C40.4364 20.3014 40.7252 20.2155 41.0764 20.2155C41.4041 20.2155 41.7943 20.3014 42.0596 20.3404C42.3874 19.1698 43.0429 17.4608 43.7062 15.8766C44.5256 15.8376 45.3528 15.7986 46.1722 15.7986C47.0541 15.7986 47.9203 15.8376 48.8021 15.8766L49.6683 18.0539L50.5267 20.3404ZM61.9359 13.3482C63.8088 12.997 65.51 11.8265 65.51 9.54777C65.51 8.68155 65.1823 7.83874 64.5658 7.24565C63.6761 6.40284 62.6694 6.23116 61.335 6.23116C60.859 6.23116 58.4788 6.33261 57.9403 6.33261C56.8946 6.33261 56.3562 6.27018 55.888 6.23116C56.0284 8.88445 56.0284 9.17319 56.0284 11.8655C56.0284 15.8376 56.005 16.2824 55.8411 20.3326C56.2937 20.2702 56.7854 20.2077 57.2614 20.2077C57.7765 20.2077 58.2291 20.2936 58.6349 20.3326C58.6349 19.7941 58.5569 17.1487 58.5569 16.5478V13.6292H59.0485C60.1566 15.1899 61.4364 17.0004 62.4822 18.6236C62.7865 19.0996 63.2391 19.8566 63.5513 20.3326C64.1678 20.2546 64.4175 20.2077 65.2135 20.2077C65.9548 20.2077 66.4699 20.2702 67.0474 20.3326C65.7519 18.7094 65.1979 17.9915 63.5747 15.705C63.2625 15.2758 62.8177 14.5968 62.5056 14.1598L61.9359 13.3482ZM58.5647 7.3471C58.869 7.32369 59.6338 7.24565 60.024 7.24565C60.7029 7.24565 61.3818 7.3471 61.9359 7.7607C62.6538 8.29916 62.8021 9.03272 62.8021 9.89894C62.8021 11.2334 62.0451 12.7395 59.9849 12.7395C59.4465 12.7395 58.9548 12.7005 58.5647 12.6771V7.3471Z" fill="#5C0632"/>
<path d="M92.6672 13.387C92.6672 13.5197 90.8099 13.6446 88.1489 13.746C87.6806 13.4807 87.3216 13.2154 87.0641 12.9812C90.2871 13.0983 92.6672 13.2388 92.6672 13.387V13.387ZM90.7553 8.89986C90.7553 9.00912 89.1946 9.11057 86.9627 9.20421C87.2904 9.00912 87.626 8.82183 87.9616 8.64234C89.6472 8.72038 90.7553 8.80622 90.7553 8.89986ZM74.141 18.5532C73.1109 18.5688 72.2057 18.5688 71.4956 18.5688C70.4811 18.5688 69.6539 18.2566 69.6539 17.8664C69.6539 17.4762 70.4811 17.1641 71.4956 17.1641C72.393 17.1641 73.6182 17.1719 75.0151 17.1875C74.4766 17.9679 74.2191 18.4361 74.1879 18.4673L74.141 18.5532ZM74.6951 19.4896C75.0307 19.8954 75.3975 20.2778 75.7955 20.6212C75.7955 20.6212 75.9593 20.8553 76.4588 20.6524C76.966 20.4417 77.403 20.1607 77.8869 19.513C79.3072 19.5364 80.8133 19.5676 82.296 19.5989C82.4209 19.7783 82.6628 20.1451 82.9671 20.5977C78.8389 20.707 74.3518 20.7694 72.0496 20.7694C71.0898 20.7694 70.3172 20.4729 70.3172 20.1061C70.3172 19.7393 71.0898 19.4428 72.0496 19.4428C72.752 19.4428 73.6494 19.4506 74.6795 19.4584C74.6951 19.4818 74.6951 19.4896 74.6951 19.4896V19.4896ZM73.0953 22.9389C72.2447 22.9389 71.558 22.6736 71.558 22.3536C71.558 22.0336 72.2447 21.7683 73.0953 21.7683C75.3428 21.7683 79.9471 21.8386 83.888 21.9478C84.0753 22.2209 84.2704 22.4941 84.4499 22.7438C80.3919 22.8608 75.4521 22.9389 73.0953 22.9389V22.9389ZM86.1979 24.8118C82.8891 24.9601 77.1923 25.0537 74.82 25.0537C74.1567 25.0537 73.6104 24.843 73.6104 24.5933C73.6104 24.3358 74.1489 24.1329 74.82 24.1329C77.0831 24.1329 82.3975 24.2187 85.7531 24.3592C85.9092 24.5152 86.0574 24.6713 86.1979 24.8118V24.8118ZM77.5591 26.0526C79.5101 26.0526 85.4643 26.2009 85.4643 26.3804C85.4643 26.5598 79.5179 26.7081 77.5591 26.7081C77.1767 26.7081 76.8724 26.5598 76.8724 26.3804C76.8646 26.2009 77.1767 26.0526 77.5591 26.0526ZM77.5825 14.027C75.1243 14.066 72.9159 14.0894 71.5034 14.0894C70.4889 14.0894 69.6617 13.7772 69.6617 13.387C69.6617 12.9969 70.4889 12.6847 71.5034 12.6847C73.15 12.6847 75.8579 12.7159 78.7921 12.7705C78.3707 13.1763 77.9727 13.5977 77.5825 14.027ZM89.6472 10.8898C91.0909 10.9679 91.9961 11.0537 91.9961 11.1396C91.9961 11.241 90.8958 11.3346 89.2024 11.4127C89.5613 11.1396 89.6394 10.9054 89.6472 10.8898ZM72.0652 11.8029C71.1054 11.8029 70.3328 11.5063 70.3328 11.1396C70.3328 10.7728 71.1054 10.4762 72.0652 10.4762C74.0318 10.4762 77.5903 10.5231 81.1645 10.6011C80.7431 10.9601 80.3295 11.319 79.9159 11.6936C76.7787 11.7639 73.7977 11.8029 72.0652 11.8029V11.8029ZM82.7408 9.33688C79.0887 9.43052 75.1321 9.48515 73.0953 9.48515C72.2447 9.48515 71.558 9.22762 71.558 8.89986C71.558 8.57991 72.2447 8.31458 73.0953 8.31458C75.335 8.31458 79.9315 8.38481 83.8724 8.49407C83.6773 8.63454 83.4822 8.78281 83.2793 8.93108C83.0998 9.07155 82.9203 9.20421 82.7408 9.33688ZM74.8278 7.1206C74.1645 7.1206 73.6182 6.9177 73.6182 6.66018C73.6182 6.40265 74.1567 6.19975 74.8278 6.19975C77.3406 6.19975 83.607 6.30901 86.791 6.46508C86.5881 6.59775 86.3852 6.73821 86.1823 6.87088C82.8579 7.01915 77.1845 7.1206 74.8278 7.1206V7.1206ZM71.3083 16.3447C70.2704 16.3447 69.4354 16.0247 69.4354 15.6267C69.4354 15.2365 70.2782 14.9166 71.3083 14.9166C72.6037 14.9166 74.5468 14.9322 76.7475 14.9712C76.3729 15.4082 76.014 15.853 75.6706 16.3135C73.9147 16.3291 72.3852 16.3447 71.3083 16.3447V16.3447ZM76.8646 4.87311C76.8646 4.69362 77.1689 4.54535 77.5513 4.54535C79.5023 4.54535 85.4565 4.69362 85.4565 4.87311C85.4565 5.0526 79.5101 5.20087 77.5513 5.20087C77.1767 5.20087 76.8724 5.0526 76.8646 4.87311Z" fill="#505967"/>
<path d="M92.8623 15.0968C92.8779 15.4557 92.8779 15.8069 92.8545 16.1503C89.3896 16.2907 86.112 16.4936 86.112 16.7278C86.112 16.9619 89.3194 17.1648 92.7452 17.2974C92.6828 17.6876 92.6048 18.0778 92.5111 18.4602C89.1399 18.6007 86.0106 18.8036 86.0106 19.0299C86.0106 19.2484 88.9292 19.4513 92.1677 19.5839C92.0195 19.9897 91.8556 20.3955 91.6605 20.7857C88.8824 20.9184 86.588 21.0979 86.588 21.293C86.588 21.4725 88.5936 21.6441 91.122 21.769C90.9816 21.9953 90.8333 22.2216 90.6772 22.4401C90.5055 22.6742 90.3339 22.9084 90.1466 23.1347C88.5624 23.2517 87.4777 23.3922 87.4777 23.5405C87.4777 23.6653 88.2581 23.7824 89.452 23.8916C88.7497 24.5784 87.9693 25.1793 87.1187 25.6709C87.1187 25.6709 86.0496 24.7501 85.1599 23.6731C84.3718 22.7133 82.6939 20.177 82.3038 19.6074C81.9058 19.0377 81.6482 18.8738 81.1878 19.0377C80.5713 19.2562 79.8534 19.3654 79.6271 19.3654C79.4007 19.3654 79.2837 19.2796 79.6583 19.1313C80.025 18.9831 81.4844 18.2963 82.2023 16.8682C83.0061 15.2685 82.296 13.0522 82.296 13.0522C82.0228 14.2383 81.4063 14.6754 81.4063 14.6754C81.6092 13.575 81.3907 12.5839 80.8444 11.8816L80.5401 13.2707C80.5401 13.2707 80.3528 13.2629 79.8846 13.6531C79.4164 14.0511 79.2915 14.6207 79.2915 14.6207C79.6583 14.769 80.1031 14.4022 80.1031 14.4022C79.5334 16.5171 78.7296 18.2417 78.1365 19.1547C77.5434 20.0678 77.0596 20.4111 76.4665 20.6531C75.9671 20.856 75.8032 20.6219 75.8032 20.6219C75.4052 20.2785 75.0306 19.8961 74.7029 19.4903C74.7029 19.4903 74.6716 19.4435 74.7653 19.4435C75.0072 19.4435 75.4442 19.0299 75.5379 18.8582C75.6471 18.6631 75.6315 18.507 75.5769 18.4992C75.5223 18.4914 75.4286 18.6475 74.9604 18.944C74.4922 19.2406 74.2815 19.0377 74.1254 18.8738C74.0083 18.7411 74.1254 18.5773 74.1956 18.4758C74.2659 18.3822 76.7396 13.7779 83.2792 8.93177C91.8478 2.58729 97.3261 0.870458 97.6382 0.745597C97.8489 0.667559 98.1845 0.558306 98.2625 0.636344C98.3483 0.722186 98.3874 0.800224 98.3796 0.901673C98.3718 1.00312 98.3171 1.05775 97.9191 1.22943C94.6259 2.68094 90.7865 5.09231 88.6092 6.49699C85.9247 7.80803 83.3651 9.67313 83.2714 9.71996C83.0685 9.84482 83.2168 10.0321 83.3417 9.95407C87.8757 6.94181 93.1822 4.88941 99.0585 3.20379C99.3394 3.12575 99.4955 3.12575 99.5423 3.18818C99.597 3.25842 99.6204 3.33646 99.6282 3.4223C99.636 3.53155 99.5501 3.58618 99.3082 3.67982C93.0028 6.02096 88.3517 8.19822 85.3628 10.2116C85.3628 10.2116 85.0507 10.3989 85.0507 10.6174C85.0507 10.7032 85.2146 10.711 85.2146 10.711C86.7129 10.7344 88.7107 10.8281 89.6627 10.8827C89.6627 10.8827 89.5301 11.3666 88.617 11.7567C87.9147 12.0533 87.2592 12.0065 86.6193 12.0143C86.4788 12.0143 86.3539 12.1547 86.471 12.3108C86.5022 12.3889 87.8757 14.5973 92.8623 15.0968V15.0968ZM47.1555 26.6464H46.3127C46.3127 26.6464 46.1956 26.1235 46.5078 25.9284C46.8121 25.7255 47.1633 25.5695 47.1633 25.5695L47.1555 26.6464ZM51.1666 24.7032C51.1666 24.7032 50.6516 24.9998 50.3316 25.2885C50.0117 25.5773 50.4019 25.6865 50.4019 25.6865V26.6542H47.9515V23.2673C47.9515 23.2673 47.054 24.0867 46.976 24.196C46.8901 24.313 47.1867 24.4145 47.1867 24.4145L47.1399 24.7344C47.1399 24.7344 46.7809 24.9217 46.3517 25.2105C45.9225 25.4992 45.6025 25.866 45.6025 26.1235C45.6025 26.381 45.4933 27.3799 45.4933 27.3799H51.1744V24.7032H51.1666ZM46.0864 23.4624C46.3673 23.4624 46.5624 23.3532 46.5624 23.1269C46.5624 22.9006 46.4297 22.7445 46.0864 22.7445C45.782 22.7445 45.6962 22.8771 45.6962 23.1269C45.6962 23.3766 45.8054 23.4624 46.0864 23.4624ZM47.1321 23.4624C47.413 23.4624 47.6081 23.3532 47.6081 23.1269C47.6081 22.9006 47.4754 22.7445 47.1321 22.7445C46.8199 22.7445 46.7419 22.8771 46.7419 23.1269C46.7419 23.3766 46.8511 23.4624 47.1321 23.4624ZM48.7162 27.6765C48.4119 27.6765 48.326 27.8091 48.326 28.0511C48.326 28.293 48.4353 28.3866 48.7162 28.3866C48.9972 28.3866 49.1923 28.2774 49.1923 28.0511C49.2001 27.8326 49.0674 27.6765 48.7162 27.6765ZM49.801 27.6765C49.4966 27.6765 49.4108 27.8091 49.4108 28.0511C49.4108 28.293 49.52 28.3866 49.801 28.3866C50.0819 28.3866 50.277 28.2774 50.277 28.0511C50.2848 27.8326 50.1521 27.6765 49.801 27.6765ZM62.0529 23.4C62.3339 23.4 62.5289 23.2907 62.5289 23.0722C62.5289 22.8537 62.3963 22.6899 62.0529 22.6899C61.7486 22.6899 61.6627 22.8225 61.6627 23.0722C61.6627 23.3142 61.772 23.4 62.0529 23.4ZM63.1376 23.4C63.4186 23.4 63.6137 23.2907 63.6137 23.0722C63.6137 22.8537 63.481 22.6899 63.1376 22.6899C62.8333 22.6899 62.7475 22.8225 62.7475 23.0722C62.7475 23.3142 62.8567 23.4 63.1376 23.4ZM66.1343 23.4936C65.9782 23.6263 66.025 23.7824 66.2201 23.759V27.3955H67.0317V22.8693C67.0317 22.8693 66.2904 23.361 66.1343 23.4936ZM62.9035 25.5304H62.3807C62.3807 25.2417 62.9035 25.0856 62.9035 25.0856V25.5304ZM59.4699 26.1313C59.4699 26.264 59.4621 26.4747 59.4543 26.6542H54.9046V25.8504C55.0217 25.546 55.2246 25.507 55.5368 25.507H58.8612C59.5791 25.507 59.4699 25.8816 59.4699 26.1313ZM64.792 23.759V26.6542H63.7073V24.0243C63.7073 24.0243 63.4888 24.1101 63.1845 24.2428C62.8801 24.3833 61.7954 24.8203 61.7954 25.4212V26.1157H62.9035V26.6542H60.2737C60.2737 26.5293 60.2815 26.342 60.2815 26.0689C60.2815 25.2027 59.5479 24.7344 58.8924 24.7344H55.8489C55.3182 24.7344 55.0607 24.8671 54.9124 25.0076V22.7835C54.9124 22.7835 54.4364 23.1191 54.0852 23.3844C53.7341 23.6497 54.0852 23.8292 54.0852 23.8292V26.6542H53.0864L53.0629 24.2272C53.0629 24.2272 52.3684 24.7344 52.1733 24.8905C51.9782 25.0466 52.0875 25.1793 52.306 25.1793C52.306 25.1793 52.267 26.9663 52.267 27.3955C52.267 27.8248 51.9158 28.3086 51.1744 28.0823C51.1744 28.0823 50.9403 28.1291 51.1354 28.3086C51.3305 28.4881 51.5646 28.6207 51.83 28.6207C52.0875 28.6207 53.0473 28.4413 53.0473 27.3955H65.5958V22.8771C65.5958 22.8771 64.8545 23.3688 64.7062 23.4936C64.5501 23.6185 64.597 23.7824 64.792 23.759" fill="#5C0632"/>
</g>
<defs>
<clipPath id="clip0">
<rect width="99.2252" height="28" fill="white" transform="translate(0.38739 0.61261)"/>
</clipPath>
</defs>
</svg>
