<svg width="93" height="51" viewBox="0 0 93 51" fill="none" xmlns="http://www.w3.org/2000/svg">
<path fill-rule="evenodd" clip-rule="evenodd" d="M90.3807 25.5435C90.3807 38.4456 70.4293 48.9052 45.8273 48.9052C21.2178 48.9052 1.2699 38.4456 1.2699 25.5435C1.2699 12.6414 21.2178 2.18176 45.8273 2.18176C70.4293 2.18176 90.3807 12.6414 90.3807 25.5435Z" fill="#FFFAC2"/>
<path fill-rule="evenodd" clip-rule="evenodd" d="M88.5364 25.5263C88.5364 37.3763 69.4063 46.9811 45.8104 46.9811C22.2129 46.9811 3.08337 37.3763 3.08337 25.5263C3.08337 13.6778 22.2129 4.07202 45.8104 4.07202C69.4063 4.07202 88.5364 13.6778 88.5364 25.5263ZM45.8104 5.76147C23.1387 5.76147 4.75862 14.6108 4.75862 25.5263C4.75862 36.4423 23.1387 45.2916 45.8104 45.2916C68.481 45.2916 86.8606 36.4423 86.8606 25.5263C86.8611 14.6108 68.4815 5.76147 45.8104 5.76147Z" fill="#006351"/>
<path fill-rule="evenodd" clip-rule="evenodd" d="M85.7985 25.5263C85.7985 35.8561 67.895 44.2288 45.8105 44.2288C23.725 44.2288 5.82202 35.8556 5.82202 25.5263C5.82202 15.1979 23.7255 6.82471 45.8105 6.82471C67.895 6.82471 85.7985 15.1979 85.7985 25.5263ZM71.4387 16.7707H64.5805L63.7454 19.1589H68.1845L63.1213 20.9122L62.7866 21.8807L70.5778 19.3257L71.4387 16.7707ZM27.7113 20.9619H24.9175C24.9175 20.9619 27.5065 14.0606 27.7144 13.5389C28.0835 12.6146 28.3046 12.6779 28.3046 12.6779H24.446C24.9231 12.9066 24.5002 13.8076 24.5002 13.8076C24.5002 13.8076 21.4099 22.4141 21.1944 22.844C20.9789 23.2745 20.8176 23.3288 20.8176 23.3288H27.5004L28.4349 20.7799C28.3542 21.0228 27.7113 20.9619 27.7113 20.9619ZM39.433 23.3181H42.5807C42.5807 23.3181 42.3652 22.9987 42.4996 22.6493C42.6861 22.1641 44.3558 17.62 44.3558 17.62L45.0819 23.3181H47.933L51.6703 13.1819C51.6703 13.1819 51.8235 12.7063 52.0319 12.7063L49.0023 12.6972C49.0023 12.6972 49.089 13.0471 48.981 13.3163C48.874 13.5855 47.1521 18.1844 47.1521 18.1844L46.4798 12.6972H43.2261C43.2261 12.6972 43.3945 12.9659 43.287 13.2615C43.1993 13.5014 39.8371 22.7289 39.8371 22.7289C39.8371 22.7289 39.6216 23.3181 39.433 23.3181ZM53.8227 12.7008C53.8227 12.7008 54.0909 13.1312 53.7411 14.126C53.3917 15.1214 50.6482 22.5175 50.6482 22.5175C50.6482 22.5175 50.4322 23.2132 50.1371 23.3485L54.4403 23.344C54.4403 23.344 59.6572 23.5366 61.2716 18.053C61.2716 18.053 63.3155 12.647 57.3983 12.7013H53.8227V12.7008ZM54.2796 20.894C54.2796 20.894 54.2932 20.8899 54.7764 20.8899C55.5081 20.8899 56.8644 20.7287 57.7756 18.5099C59.2729 14.8638 57.1839 14.987 57.1839 14.987H56.3767L54.2796 20.894ZM16.0084 31.9058H22.8661L23.7007 29.5172H19.2621L24.3253 27.7643L24.661 26.7959L16.8688 29.3519L16.0084 31.9058ZM28.0267 36.3104C27.9187 36.3104 27.9187 35.9636 27.9187 35.9636L29.1802 32.6162C29.1802 32.6162 30.7515 35.7 30.8595 35.9149C30.967 36.1299 30.9128 36.3099 30.9128 36.3099H34.6719C34.3129 36.3099 33.9433 35.6285 33.9433 35.6285L32.0718 32.2693C34.6897 32.2693 35.5268 29.6748 35.5268 29.6748C36.8177 25.5516 32.4734 25.6591 32.4734 25.6591H28.0272C28.3497 26.0176 28.0982 26.771 28.0982 26.771C28.0982 26.771 25.3374 34.6646 25.1224 35.2746C24.9069 35.8835 24.5124 36.3094 24.5124 36.3094C24.5124 36.3094 28.2097 36.3104 28.0267 36.3104ZM30.6912 28.1091L29.9626 30.2503H30.644C30.644 30.2503 31.9714 30.3669 32.4607 29.3123C32.4607 29.3123 33.0337 28.103 31.4325 28.103C31.0821 28.103 30.6912 28.1091 30.6912 28.1091ZM66.9245 36.35C66.6563 36.3561 66.8434 35.6974 66.8434 35.6974L67.969 32.6552C67.969 32.6552 69.4861 35.74 69.5926 35.955C69.7006 36.171 69.6468 36.349 69.6468 36.349H73.5399C73.1809 36.349 72.7864 35.6675 72.7864 35.6675L70.9144 32.3094C73.5333 32.3094 74.3212 29.8077 74.3212 29.8077C75.6963 25.4898 71.317 25.6987 71.317 25.6987H66.9063C67.2298 26.0576 66.9788 26.8101 66.9788 26.8101C66.9788 26.8101 64.1024 34.7346 63.8864 35.3445C63.6714 35.9545 63.2587 36.3439 63.2587 36.3439L66.9245 36.35ZM69.4886 30.2884C69.4886 30.2884 70.8059 30.3882 71.209 29.3564C71.6846 28.1405 70.4976 28.173 70.4976 28.173H69.5241L68.8072 30.2884H69.4886ZM40.1758 36.5751C44.0562 36.5751 46.3657 32.7683 46.3657 30.0369C46.3657 27.1731 45.1884 25.3853 42.4991 25.3853C39.0684 25.3853 36.8309 27.9889 36.2529 31.2243C35.7225 34.2012 37.4033 36.5751 40.1758 36.5751ZM40.4202 34.0577C41.3881 34.2372 42.4524 33.54 43.0081 31.3146C43.8508 27.9463 42.2978 27.918 42.0138 27.883C41.1554 27.779 40.0085 28.7683 39.543 30.8304C39.3296 31.7719 39.1034 33.8133 40.4202 34.0577ZM47.287 25.6992C47.287 25.6992 47.5537 25.8427 47.5537 26.5231C47.5537 27.2046 47.5537 35.74 47.5537 35.74C47.5537 35.74 47.5167 36.244 47.3265 36.349H50.2101C50.2101 36.349 50.2101 36.134 50.4955 35.7755C50.7825 35.417 56.7716 27.3846 56.7716 27.3846C56.7716 27.3846 58.1371 25.6987 58.4951 25.6987H54.3683C54.3683 25.6987 54.6918 25.9136 54.4408 26.3081C54.1898 26.7031 50.5214 32.1897 50.5214 32.1897L50.568 26.6559C50.568 26.6559 50.5614 25.7686 50.9174 25.6941L47.287 25.6992ZM64.7189 28.212L65.6514 25.6971L58.6593 25.6976C58.6593 25.6976 58.9098 25.9192 58.5878 26.8157C58.2644 27.7121 55.4315 35.3481 55.4315 35.3481C55.4315 35.3481 54.9296 36.352 54.7871 36.352C54.6431 36.352 61.9941 36.352 61.9941 36.352L62.8551 33.8062C62.8551 33.8062 62.7476 33.9497 62.0661 33.9497C61.3831 33.9497 59.0173 33.9497 59.0173 33.9497L59.6633 32.2283H62.0291C62.0291 32.2283 62.5311 32.1928 62.6391 32.3363L63.607 29.616C63.607 29.616 63.536 29.8614 62.8895 29.8614C62.2446 29.8614 60.5947 29.8614 60.5947 29.8614L61.2772 27.9621H64.1815C64.1815 27.9621 64.576 27.9078 64.7189 28.212ZM28.2665 23.3277H31.7159C31.7159 23.3277 31.7052 23.0631 31.795 22.8912C31.9588 22.5804 32.3867 21.8305 32.3867 21.8305H35.8584L35.8655 22.766C35.8655 22.766 35.8832 23.0884 35.6277 23.3369H39.0705C39.0705 23.3369 38.8149 23.1934 38.7678 22.77L38.3358 13.4111C38.3358 13.4111 38.317 12.8128 38.602 12.6871H35.1866C35.1866 12.6871 35.4259 12.9827 34.9685 13.655C34.5117 14.3273 28.6772 22.9784 28.6772 22.9784C28.6772 22.9784 28.5616 23.2 28.2665 23.3277ZM35.7925 16.3088L33.8754 19.4281H35.8199L35.7925 16.3088Z" fill="#006351"/>
</svg>
