<svg width="51" height="51" viewBox="0 0 51 51" fill="none" xmlns="http://www.w3.org/2000/svg">
<path d="M25.6951 0.838226C25.0967 0.838226 23.9291 0.900786 23.8815 0.903676C24.1078 0.964026 6.41809 10.0395 6.41809 9.94428C6.41265 9.97505 6.40432 10.0005 6.38817 10.0206C2.88141 14.3104 0.799927 19.7599 0.799927 25.733C0.799927 30.6559 2.23422 35.2411 4.70041 39.1045C4.71707 39.0955 10.9799 45.1616 10.9032 45.7555C15.0398 48.8155 20.1544 50.6266 25.6942 50.6266C27.6292 50.6266 29.5088 50.3982 31.3178 49.9815C31.2848 49.7853 31.2549 49.589 31.2281 49.3955L30.9011 47.1005C30.8027 46.4727 30.2885 42.2057 30.2885 42.2057L30.2868 42.1931L30.834 41.983C30.834 41.983 31.5534 42.0127 31.5356 42.0149C31.5356 42.0149 32.2651 46.3064 32.3919 47.0509L32.5291 47.8388C32.5821 48.1562 32.6268 48.4709 32.6923 48.7969C32.7382 49.0681 32.779 49.328 32.8191 49.5869C33.4092 49.4096 33.9906 49.2127 34.5609 48.9948C34.4742 48.5071 34.3799 48.0044 34.3719 47.9301L34.0779 46.1842C33.6897 44.383 33.4421 43.047 33.2607 42.1583C33.2349 42.0306 33.1866 41.8036 33.1866 41.8036L33.7485 41.5789L34.4897 41.6367C34.4897 41.6367 35.4352 45.7745 35.6713 47.0255L35.941 48.4183C36.4481 48.189 36.9503 47.9466 37.4378 47.6843L37.2819 46.9696C37.2653 46.9004 37.2472 46.8173 37.226 46.7248C36.9084 45.3271 36.0654 41.4335 36.0654 41.4335L36.7415 41.168L37.4019 41.261H37.4052C37.4052 41.261 38.2536 44.8504 38.8043 46.8933C39.7498 46.3064 40.6557 45.662 41.5098 44.9575C41.5098 44.9575 49.3932 33.1568 49.4497 33.1957C50.1887 30.84 50.5888 28.333 50.5888 25.7329C50.5887 11.9843 39.4431 0.838226 25.6951 0.838226Z" fill="#A3080C"/>
<path d="M31.9318 13.2317C31.9318 13.2317 28.8225 7.36836 27.5541 6.48827C26.2873 5.60818 24.1992 5.05874 22.7516 5.24166C20.9188 5.47303 16.727 7.69136 16.4484 7.76463C16.4504 7.78605 14.8866 9.71505 14.4782 11.7017C14.3874 12.1432 12.7782 19.1817 12.7782 19.1817L15.8382 28.0217L26.743 33.2243L30.7416 28.8717C30.7416 28.8717 31.2518 24.5651 32.3284 21.3351C33.405 18.1051 33.065 16.3484 33.065 16.3484L31.9318 13.2317Z" fill="#FFF1E2"/>
<path d="M19.4738 35.7643C19.4407 35.7769 19.4104 35.7904 19.382 35.8031C19.4104 35.7904 19.4407 35.7769 19.4738 35.7643Z" fill="white"/>
<path d="M18.576 18.9282C18.403 19.0268 18.275 19.0499 18.1951 19.0924C18.115 19.1361 17.9887 19.2299 18.02 19.3977C18.0529 19.5664 18.0992 19.6211 18.1153 19.7512C18.1306 19.8799 18.0687 20.1131 17.9191 20.378C17.7719 20.6435 17.5363 20.8353 17.4025 20.9129C17.2709 20.9917 17.1902 21.0129 17.1154 21.0523C17.0984 21.0602 17.0831 21.1008 17.0678 21.1824C17.0671 21.1831 17.0671 21.1831 17.0663 21.1839C17.0758 21.1764 17.0863 21.1695 17.1009 21.1639C17.1297 21.1516 17.1888 21.1501 17.242 21.1402C17.2935 21.1307 17.3315 21.1186 17.3503 21.1161C17.3704 21.1137 17.4897 21.0969 17.5098 21.0925C17.5298 21.0886 17.8914 21.0129 18.1155 20.9097C18.3384 20.806 18.7297 20.6173 18.9539 20.3463C19.1187 20.1479 19.3171 19.7867 19.3364 19.4282C19.341 19.354 19.3402 19.308 19.3402 19.308C19.3402 19.308 19.341 19.308 19.341 19.3071C19.3436 19.3071 19.3458 19.3064 19.3482 19.3064C19.3111 19.3049 19.2788 19.2927 19.2525 19.2711C19.1924 19.2242 19.144 19.1895 18.9601 18.993C18.8417 18.8661 18.8499 18.7732 18.9138 18.6669C18.9123 18.6693 18.9096 18.6717 18.9079 18.674C18.8533 18.725 18.7469 18.8298 18.576 18.9282Z" fill="white"/>
<path d="M27.7182 17.7565C27.7182 17.7565 27.6173 17.7652 27.5826 17.7805C27.555 17.7919 27.503 17.8113 27.4675 17.8589C27.4321 17.9073 27.424 17.992 27.4983 18.0829C27.5739 18.1736 27.678 18.3429 27.6693 18.4879C27.6638 18.5516 27.6732 18.7601 27.6055 18.9102C27.5299 19.0803 27.4425 19.2481 27.3825 19.3238C27.3478 19.3683 27.1877 19.5455 27.1642 19.6709C27.1579 19.6973 27.1642 19.7265 27.1766 19.754C27.1766 19.754 27.1785 19.7525 27.1785 19.7547C27.1776 19.7556 27.1785 19.7571 27.1776 19.7586C27.1809 19.7488 27.1848 19.7393 27.1926 19.7302C27.2326 19.6854 27.314 19.64 27.4558 19.5963C27.6438 19.5368 27.7772 19.4659 27.8813 19.3867C27.8687 19.4013 27.8655 19.4183 27.8575 19.4351C27.8684 19.4091 27.8804 19.3834 27.9037 19.363C27.9596 19.3149 28.6974 18.8197 28.7163 18.0202C28.7235 17.72 28.334 17.6804 28.1718 17.6749C28.0513 17.6698 27.8242 17.7803 27.7281 17.7571C27.7266 17.7564 27.7237 17.7538 27.7203 17.7531C27.7218 17.7531 27.7218 17.7538 27.7218 17.7538C27.722 17.7557 27.7189 17.7557 27.7182 17.7565Z" fill="white"/>
<path d="M19.8615 23.2757C19.8615 23.2757 22.794 24.1824 24.1965 22.5532C25.599 20.9241 28.0215 23.4174 28.1772 24.154C28.3333 24.8907 24.5365 26.9307 23.389 26.9732C22.2415 27.0157 17.694 26.4065 17.694 25.939C17.694 25.4715 19.8615 23.2757 19.8615 23.2757Z" fill="white"/>
<path d="M31.8961 11.624C31.4298 6.67839 29.1542 4.19962 27.5186 2.99653C25.7998 1.86399 21.7108 0.866434 19.7836 0.956534C17.5099 1.06278 12.2589 3.54291 12.0558 3.72617C11.8621 3.9028 8.34059 9.79126 8.77613 10.8432C9.21167 11.8952 9.82877 16.8634 10.0299 17.2624C10.0911 17.3819 11.0956 20.6187 11.7583 20.4996C12.4262 20.3794 13.0489 17.4273 13.0192 17.1987C12.9342 16.5471 11.7515 13.6107 11.8433 13.1965C11.9363 12.7836 15.095 7.83813 15.3211 7.66439C15.4806 7.54301 20.899 6.86913 20.9305 6.92149C20.9298 6.91996 20.9298 6.91826 20.9276 6.91673L20.9269 6.91588C21.3056 6.58574 22.184 5.71551 22.9689 5.74679C23.7531 5.77909 25.9953 6.05925 27.2621 6.94036C28.5305 7.82045 28.9222 8.68201 29.0298 8.92307C29.0289 8.92307 29.0274 8.92426 29.0265 8.92426C29.069 8.93055 30.8335 12.9415 31.3506 12.9558C31.6955 12.9652 31.9529 12.2185 31.8961 11.624Z" fill="white"/>
<path d="M29.7011 14.9123C29.5129 14.9342 28.9983 14.9812 28.9415 14.9883C28.8406 15.0014 28.8431 15.0585 28.8494 15.1013C28.8547 15.1455 28.8707 15.3149 28.8768 15.3878C28.8831 15.4602 28.9587 15.5027 29.0362 15.4964C29.1143 15.491 29.6064 15.4464 29.6799 15.4351C29.7516 15.4233 29.8225 15.3626 29.8216 15.3047C29.8201 15.2464 29.821 15.0923 29.8201 15.0301C29.8184 14.9674 29.772 14.9043 29.7011 14.9123Z" fill="white"/>
<path d="M9.22648 38.5624C9.32423 38.5836 9.42844 38.6074 9.52908 38.6309C9.30417 38.5787 9.05954 38.5253 8.91929 38.4906C8.84993 38.4731 8.74079 38.4631 8.61448 38.4656C8.40368 38.4702 8.14341 38.5115 7.93329 38.6171C7.66758 38.7492 5.97948 39.6051 5.27194 39.9625C6.08182 41.1229 6.98554 42.2112 7.9763 43.2165C8.03818 42.9613 9.14471 41.8002 9.30043 41.1197C9.51361 40.1872 8.98304 38.9563 9.22648 38.5624Z" fill="white"/>
<path d="M37.4024 41.2623L36.0684 41.4343C36.0684 41.4343 37.028 45.865 37.2849 46.9702L37.4398 47.6849C37.9039 47.435 38.3576 47.1711 38.8035 46.8939C38.252 44.851 37.4036 41.2623 37.4036 41.2623H37.4024V41.2623Z" fill="white"/>
<path d="M45.1327 23.5347C44.459 24.0437 44.0859 24.7312 44.0879 25.4192C44.0911 26.439 44.916 27.4211 46.8271 27.4148C47.3014 27.4116 47.7198 27.3636 48.1001 27.299C48.2111 27.281 48.3199 27.261 48.4231 27.2397L48.6453 26.2904C48.275 26.4142 47.807 26.5165 47.432 26.5182C46.4142 26.5215 45.7318 25.918 45.7303 25.1266C45.7286 24.7048 45.902 24.3344 46.2154 24.0634C46.5512 23.7731 47.0461 23.5975 47.665 23.5975C48.1551 23.5975 48.4418 23.7329 48.6373 23.9264C48.6765 23.9643 48.7127 24.0041 48.7444 24.0457H48.9038L49.2158 22.9254C48.8943 22.8194 48.4178 22.7301 47.9151 22.7245C46.7447 22.7089 45.7937 23.0353 45.1327 23.5347Z" fill="white"/>
<path d="M43.5387 23.6906C43.6761 23.6906 43.7902 23.7405 43.8667 23.806C43.9321 23.8616 43.9714 23.9277 43.9714 23.9848H44.1283L44.4324 22.7683H40.3023L40.2419 23.0063L40.2277 23.0641C40.2277 23.0641 40.6799 23.1149 40.5413 23.5668L39.5103 27.3126L41.2638 27.316H41.5713L41.6494 26.9943C41.6494 26.9943 41.2638 26.9013 41.3646 26.5452C41.3694 26.5229 41.5146 25.9903 41.6013 25.6706C41.64 25.5325 41.6676 25.4332 41.6676 25.4332L42.6114 25.4325C42.7658 25.4325 42.8841 25.4609 42.9755 25.4963C43.1646 25.5687 43.2372 25.6785 43.2372 25.6785L43.511 24.5654H41.9198L42.0917 23.9296L42.1563 23.6924L43.5387 23.6906Z" fill="white"/>
<path d="M38.5203 26.6437C38.3981 26.5128 37.337 24.8599 37.337 24.8599L39.2136 23.358L39.2758 23.308C39.3598 23.2378 39.4388 23.1881 39.508 23.1521C39.7074 23.0496 39.836 23.0642 39.836 23.0642L39.9113 22.7648L37.4991 22.7684L37.4391 23.0056L37.4249 23.0642C37.5887 23.0756 37.8176 23.2221 37.6306 23.3967C37.6061 23.4176 35.6919 24.8803 35.6919 24.8803L35.7068 24.8286L36.1048 23.3869C36.189 23.0989 36.4984 23.0642 36.4984 23.0642L36.574 22.7676L34.2712 22.7682L34.212 23.0054L34.1969 23.064C34.3071 23.0924 34.6216 23.1535 34.5126 23.5667C33.744 26.3442 33.8319 26.0693 33.7799 26.2206C33.6078 26.879 33.3498 26.9696 33.1946 26.9864C33.1607 26.9897 33.1315 26.9897 33.1103 26.9909L33.0786 27.1153L33.0298 27.3122H35.1317H35.4384L35.5188 26.9861C35.5188 26.9861 35.1367 26.9105 35.2094 26.6347C35.2465 26.4962 35.343 26.1446 35.4282 25.8344C35.5108 25.5333 35.5841 25.2694 35.5841 25.2694C36.0018 25.9391 36.0978 26.0219 36.6021 26.7136C37.066 27.3535 37.5619 27.3235 38.759 27.3154C38.8566 27.3147 38.9576 27.3139 39.0664 27.3139L39.1459 26.9939C38.8425 26.9958 38.6415 26.7743 38.5203 26.6437Z" fill="white"/>
<path d="M49.8778 22.8467C49.818 22.7881 49.7471 22.7589 49.6619 22.7589C49.5784 22.7589 49.5075 22.7881 49.4475 22.8467C49.3891 22.9054 49.3591 22.9775 49.3591 23.0615C49.3591 23.1461 49.3891 23.2179 49.4475 23.2777C49.506 23.3365 49.5784 23.3671 49.6619 23.3671C49.7471 23.3671 49.818 23.3363 49.8778 23.2777C49.9371 23.2179 49.9669 23.1461 49.9669 23.0615C49.9677 22.9775 49.937 22.9054 49.8778 22.8467ZM49.8481 23.2478C49.7976 23.2993 49.7347 23.3255 49.6621 23.3255C49.5897 23.3255 49.5281 23.2995 49.4778 23.2478C49.4273 23.1969 49.4013 23.1347 49.4013 23.0615C49.4013 22.9897 49.4273 22.9275 49.4778 22.8767C49.529 22.8252 49.5897 22.7991 49.6621 22.7991C49.7347 22.7991 49.796 22.8252 49.8481 22.8767C49.8985 22.9275 49.9237 22.9897 49.9237 23.0615C49.9237 23.1346 49.8985 23.1969 49.8481 23.2478Z" fill="white"/>
<path d="M49.7999 22.9895C49.7999 22.9477 49.7818 22.9195 49.7485 22.9048C49.7264 22.8977 49.698 22.8938 49.6572 22.8938H49.5404V23.2275H49.5981V23.0956H49.6443C49.6764 23.0956 49.6977 23.0995 49.7115 23.1066C49.7312 23.1196 49.7422 23.1449 49.7414 23.1835V23.2091L49.7439 23.2205C49.7439 23.2221 49.7439 23.2229 49.7439 23.2245C49.7439 23.2245 49.7439 23.226 49.7456 23.2277H49.7999L49.799 23.2229C49.7958 23.2205 49.7958 23.2151 49.7944 23.2059V23.1818V23.1566C49.7944 23.1396 49.7881 23.1211 49.7757 23.1041C49.7647 23.0871 49.7439 23.0757 49.7189 23.0718C49.7393 23.0686 49.7551 23.064 49.7669 23.0556C49.788 23.0412 49.7999 23.0196 49.7999 22.9895ZM49.707 23.048C49.6953 23.0527 49.6769 23.0543 49.6528 23.0543H49.5986V22.9341H49.6482C49.6812 22.9334 49.7057 22.938 49.7206 22.9463C49.7349 22.9541 49.7427 22.9711 49.7427 22.9956C49.7424 23.0204 49.7305 23.0381 49.707 23.048Z" fill="white"/>
<path d="M46.4949 32.2156C43.3215 31.2522 36.8049 31.479 36.8049 31.479L42.1315 44.0306C42.1315 44.0306 42.6248 43.7832 42.6864 43.9182C45.5762 41.2166 47.82 37.8383 49.1656 34.0334C49.0595 33.9518 49.6683 33.179 46.4949 32.2156Z" fill="white"/>
<path d="M35.673 47.0256C35.4352 45.7748 34.4888 41.6368 34.4888 41.6368C34.4888 41.6368 35.7453 41.3066 36.0399 40.5874C36.3345 39.8684 35.6678 38.7607 35.6362 38.3242C35.5 37.0209 34.988 31.6835 34.1487 30.5785C33.6599 29.935 31.4123 28.6654 31.2374 28.6731C30.4299 28.7085 28.8149 32.2254 27.4654 32.5442C26.566 32.7567 25.9307 31.8817 26.0762 31.9478C26.0737 31.9459 26.0706 31.9444 26.0691 31.9429C26.0691 31.9429 26.0706 31.8422 25.9201 31.3695C25.7697 30.895 25.4545 30.3972 25.3962 30.2847C25.3396 30.1718 25.1686 29.9262 25.1626 29.8979C25.1579 29.8702 25.0957 29.712 25.0516 29.4236C24.9678 28.8674 25.0062 28.4948 25.0095 28.4609C25.0112 28.4269 25.0266 28.3261 25.0312 28.3057C25.0348 28.2843 25.0265 28.2481 25.0008 28.2418C24.9739 28.2372 24.9022 28.2197 24.8272 28.2969C24.6708 28.4546 24.6637 28.4846 24.6608 28.5113C24.6553 28.5362 24.6715 28.5838 24.6667 28.6389C24.6497 28.8139 24.6191 28.9476 24.5408 29.0753C24.4627 29.2045 24.4119 29.2489 24.3014 29.2383C24.189 29.2281 24.0955 29.1391 24.0819 28.9084C24.0673 28.6779 24.0219 28.5988 23.9757 28.5444C23.9296 28.4876 23.8246 28.4616 23.7887 28.4638C23.7533 28.4638 23.7237 28.4954 23.4806 28.5551C23.2396 28.6165 22.8564 28.6371 22.8 28.6394C22.7423 28.6428 22.5321 28.6641 22.5305 28.6646C22.5746 28.8292 21.6469 28.5762 21.4908 28.7013C21.172 28.9563 21.0231 30.6121 20.8674 31.4708C20.8672 31.4715 20.8672 31.4723 20.8671 31.4733L15.6399 32.0024L13.8124 36.2524C13.8124 36.2524 14.3649 44.6674 14.3649 44.7949C14.3649 44.9224 25.9249 42.2874 25.9249 42.2874L30.2863 42.193C30.2863 42.193 30.2873 42.1963 30.2881 42.2046C30.3189 42.456 30.8024 46.4723 30.9008 47.1011L31.2277 49.3944C31.2546 49.5892 31.2845 49.7862 31.3175 49.9806C31.8234 49.8638 32.3244 49.7341 32.8184 49.586C32.7783 49.3274 32.737 49.0666 32.6916 48.7972C32.6268 48.4703 32.5819 48.156 32.5292 47.8384L32.3909 47.0504C32.2647 46.3067 31.5337 42.0162 31.5337 42.0162L32.2999 41.5324L33.1866 41.8034C33.2103 41.9122 33.2339 42.0302 33.2607 42.158C33.4426 43.0481 33.6909 44.3828 34.0779 46.1823L34.3719 47.9297C34.3799 48.0038 34.4745 48.5065 34.5618 48.9949C35.0281 48.8159 35.4874 48.6229 35.9405 48.4181L35.673 47.0256Z" fill="white"/>
<path d="M27.0087 15.1441C26.0453 15.2857 24.6428 16.0719 24.7066 16.6457C24.7458 17.0013 26.7551 17.0557 27.6603 17.1203C28.5656 17.1849 28.715 16.3147 28.6664 15.8418C28.6178 15.3688 28.0226 14.9952 27.0087 15.1441Z" fill="#F5D4B7"/>
<path d="M33.583 30.5895C33.1048 30.5397 33.327 31.3149 33.3214 31.3934V31.3949C33.5633 32.3073 33.7641 33.2175 33.9194 34.0413C33.9213 34.1226 33.9274 34.1938 33.9375 34.2516C34.006 34.6107 34.1478 35.7711 34.4204 38.3923C34.4835 39.2653 34.5386 40.176 34.575 40.9418C34.5998 40.9401 36.21 41.0334 36.21 41.0334C36.21 41.0334 36.1463 38.7809 35.6468 35.9547C35.1474 33.1286 34.3985 30.6745 33.583 30.5895Z" fill="#F5D4B7"/>
<path d="M29.2412 23.4921C29.3136 23.0934 29.2306 22.8964 29.1001 22.6633C28.9717 22.4309 28.7235 22.2135 28.4027 22.0027C28.0925 21.7963 27.3912 21.1775 27.3232 21.1191C27.2569 21.0619 26.9295 20.7524 26.8537 20.6908C26.7748 20.6301 26.622 20.503 26.2864 20.3328C25.4733 19.9228 24.8195 20.2296 24.7941 20.2437C24.7693 20.2577 24.6486 20.3552 24.533 20.4651C24.4191 20.573 24.5046 20.7818 24.5483 20.8579C24.5483 20.8579 28.8636 24.0211 28.8723 24.0949L28.8755 24.0973C28.8755 24.0973 29.1812 23.8178 29.2412 23.4921Z" fill="#F5D4B7"/>
<path d="M27.4558 19.5957C27.314 19.6394 27.2326 19.6847 27.1926 19.7297C27.1848 19.7387 27.1817 19.7486 27.1785 19.7581C27.1751 19.7656 27.1751 19.7734 27.1751 19.7809C27.1751 19.7872 27.1751 19.7926 27.1751 19.7982C27.1766 19.8057 27.1797 19.812 27.1814 19.8188C27.1851 19.8266 27.1892 19.8349 27.194 19.8428C27.1972 19.8479 27.2003 19.8535 27.2047 19.8589C27.211 19.8688 27.2198 19.8781 27.2285 19.888C27.2322 19.8927 27.2365 19.8966 27.2411 19.9011C27.2519 19.9119 27.264 19.9235 27.2774 19.9349C27.2807 19.9381 27.2837 19.9412 27.2877 19.9436C27.3028 19.9567 27.3186 19.9687 27.3341 19.9818C27.3373 19.9833 27.3386 19.985 27.342 19.9874C27.3609 20.0012 27.38 20.0138 27.3988 20.0267C27.3995 20.0275 27.4004 20.0275 27.4012 20.0282C27.4225 20.042 27.4429 20.0551 27.4626 20.068C27.4838 20.0806 27.5137 20.0872 27.5501 20.0881C27.5846 20.0896 27.6273 20.0848 27.6732 20.0767C27.8245 20.0468 28.0181 19.9704 28.182 19.8919C28.182 19.8927 28.1803 19.8919 28.1788 19.8927C28.1693 19.896 27.8692 19.4008 27.8809 19.3861C27.7772 19.4654 27.6448 19.5362 27.4558 19.5957Z" fill="#F5D4B7"/>
<path d="M21.6616 22.5553C21.6735 22.5601 21.684 22.567 21.6963 22.5718C21.6947 22.5703 21.6937 22.5694 21.6929 22.5679C21.6315 22.5041 21.6267 22.4899 21.6053 22.4032C21.582 22.3129 21.523 22.2022 21.4982 22.1397C21.4715 22.0766 21.3529 21.8627 21.3071 21.7242C21.2616 21.5855 21.241 21.5008 21.2318 21.3617C21.1965 21.2568 21.1696 21.0481 21.1857 20.8594C21.1995 20.6924 21.2366 20.5002 21.3425 19.9597C21.4142 19.6048 21.3019 19.1959 21.2979 18.8173C21.2945 18.5255 21.2656 17.8081 21.2736 17.0861V17.0837C21.2237 17.1007 14.7971 15.722 14.8424 15.7152C14.8432 15.7152 14.8449 15.7143 14.8463 15.7143C14.8971 15.1822 14.8663 14.4664 14.8376 13.9236C15.0039 12.2931 15.2546 10.4057 15.8307 9.14758C16.276 8.18011 16.2165 8.49886 16.4365 8.04292C16.4487 8.01844 16.4648 7.98971 16.4674 7.95588C16.4698 7.9331 16.4511 7.80509 16.4473 7.76446C16.4473 7.76378 16.4473 7.76378 16.4473 7.76293C16.4342 7.76684 14.868 7.32824 12.9193 11.8008C12.1037 13.6745 13.1891 18.36 13.1891 18.36L14.8855 18.9233L15.9905 18.323L18.6043 17.7865L19.6721 18.3072C19.6721 18.3072 19.3433 19.3069 19.3406 19.3069C19.3406 19.3076 19.3397 19.3076 19.3397 19.3076C19.3397 19.3076 19.3406 19.3545 19.3351 19.4278C19.3168 19.787 19.1182 20.1483 18.9526 20.3468C18.7294 20.6171 18.3382 20.8058 18.1155 20.91C17.8911 21.0126 17.5299 21.0889 17.5086 21.0925C17.4894 21.097 17.3692 21.1134 17.3497 21.1164C17.3303 21.118 17.2933 21.1302 17.2417 21.1404C17.1882 21.1496 17.1295 21.1511 17.1003 21.1633C17.0857 21.1688 17.0746 21.1759 17.0656 21.1843C17.0495 21.1973 17.0408 21.2126 17.0366 21.2296C17.0357 21.2312 17.035 21.2344 17.035 21.2368C17.0316 21.2529 17.0316 21.2691 17.0342 21.2837C17.0449 21.3369 17.1025 21.411 17.1093 21.424C17.1335 21.47 17.272 21.6016 17.499 21.5508C17.7975 21.4838 17.9904 21.424 18.1897 21.3597C18.3906 21.2942 18.657 21.179 18.6976 21.1435C18.7389 21.1091 18.8494 21.0248 18.8671 21.0151C18.8671 21.0143 18.8678 21.0143 18.8678 21.0143C18.8907 20.9933 18.9125 20.9736 18.9341 20.9551C18.9433 20.9473 18.9525 20.9374 18.9618 20.9303C18.964 20.9284 18.9655 20.9269 18.9679 20.925C19.0031 21.3461 18.498 22.6104 18.498 22.6104C18.498 22.6104 17.3213 23.0291 17.3959 22.9737C17.3959 22.9737 17.3946 22.9737 17.3946 22.9744C17.2989 23.0213 17.1581 23.0721 17.0156 22.9606C17.0156 22.9606 16.8771 22.7987 16.7074 22.584C16.6058 22.4557 16.4936 22.3091 16.3921 22.1662C16.3203 22.0654 16.2692 21.9831 16.2314 21.9153C16.1582 21.7905 16.1289 21.7104 16.116 21.6604C16.1145 21.6565 16.1128 21.6521 16.1128 21.649C16.0812 21.5659 16.0548 21.4313 16.0548 21.4313C15.8425 21.4049 15.6191 21.3565 15.4129 21.2812C15.4144 21.2818 15.4144 21.2839 15.4161 21.2854C15.4333 21.3007 13.9587 21.6223 13.9587 21.6223L15.4845 27.8381C15.4845 27.8381 18.332 32.3147 20.117 31.4506C20.383 31.3217 20.8463 30.4144 20.6553 30.1047C20.4592 29.7873 17.4395 24.7781 17.4395 24.7781C17.4395 24.7781 21.6209 22.5373 21.6616 22.5553Z" fill="#F5D4B7"/>
<path d="M27.4495 39.4503C28.0073 39.8206 28.2012 39.9073 28.811 40.1623C29.005 40.2537 29.5169 40.1497 29.7358 39.8219C29.7319 39.8236 29.728 39.8282 29.725 39.8308C29.7233 39.8315 29.7233 39.8315 29.7217 39.8315C29.7074 39.8401 26.6854 37.4688 26.2915 37.3286C26.1512 37.2789 25.3794 37.5621 25.4787 37.7048C25.5676 37.8331 25.9408 38.2219 25.9496 38.2369C26.4764 38.6466 27.1391 39.1933 27.4495 39.4503Z" fill="#F5D4B7"/>
<path d="M21.0233 35.0765L15.9694 32.183C15.9694 32.183 16.1168 33.6166 16.1159 33.639C16.1168 33.6399 16.1167 33.6399 16.1174 33.6409C16.4862 33.9707 17.0637 34.3658 17.1549 34.4278C17.1886 34.4501 17.4235 34.6051 17.4737 34.6612C17.5357 34.7287 18.1593 35.1722 18.2069 35.2054C18.2525 35.2363 18.9258 35.6079 19.3338 35.8252C19.3484 35.8172 19.0499 36.0617 19.0545 36.0539C18.911 36.0634 18.807 36.1293 18.6487 36.1798C17.9403 36.5778 18.3608 37.4057 18.4276 37.9825C18.5631 38.4685 18.7342 39.3124 19.3644 39.3911C19.8442 39.4488 20.9424 39.1485 21.5229 39.0295C21.6052 38.884 22.4469 38.8318 22.4365 38.8436C22.5851 38.7992 22.7843 38.7291 22.8447 38.7404C22.8809 38.7467 22.7131 38.9248 22.6159 39.1067C22.5181 39.2903 21.9139 41.074 21.3514 42.0241C21.1627 42.4132 21.2521 42.2526 21.1372 42.5354V42.5363L22.277 42.7972L24.1186 38.1221L21.0233 35.0765Z" fill="#F5D4B7"/>
<path d="M15.2902 38.7109C15.4864 39.0749 16.0516 39.8384 16.0793 39.8817C16.1069 39.9242 16.2286 40.0553 16.3721 40.2158C16.5159 40.3756 16.6392 40.5153 16.6738 40.5561C16.7085 40.5956 16.978 40.8752 17.0475 40.9393C17.1169 41.0031 17.1973 41.1331 17.2556 41.1873C17.455 41.3663 18.1892 42.0045 18.2601 42.0572C18.331 42.1113 18.6812 42.3461 18.7443 42.3547C19.375 42.4346 19.6845 42.0892 19.7485 41.9868C19.8131 41.8869 19.8253 41.8437 19.7855 41.6938C19.7847 41.7045 17.3508 39.8758 15.7358 36.3588C15.6732 36.2227 15.1131 35.5444 14.5988 35.9551C14.1765 36.2924 14.4819 37.1005 14.4819 37.1005V37.1051C14.6422 37.4363 15.1224 38.4005 15.2902 38.7109Z" fill="#F5D4B7"/>
<path d="M10.5116 39.0575C10.6744 38.4482 9.32379 38.584 9.22638 38.5619C8.80529 39.2435 8.35836 41.5582 8.13073 42.6423C8.09129 42.7643 8.03825 42.9605 7.97586 43.2141C8.28594 43.5293 8.60282 43.8374 8.92854 44.1352C9.16365 43.2204 10.4684 39.2195 10.5116 39.0575Z" fill="#F5D4B7"/>
<path d="M49.744 23.2205C49.744 23.222 49.7449 23.2237 49.7449 23.2243C49.7449 23.2243 49.7449 23.2259 49.7457 23.2275C49.7449 23.226 49.7449 23.2243 49.7449 23.2243C49.7447 23.2237 49.744 23.2222 49.744 23.2205Z" fill="#A3080C"/>
<path d="M46.6747 31.9448C45.9214 31.778 44.1378 31.42 41.7335 31.1991C39.3304 30.9803 37.3633 30.7927 37.093 30.7634C36.8455 30.7388 36.7559 30.512 36.5311 30.3991C35.7165 29.9906 34.177 29.6115 33.2122 29.2718C32.9735 29.1892 32.8166 28.9779 32.4872 28.5762C32.2869 28.3312 32.1514 28.2207 31.9801 28.0655C31.8774 27.9717 31.6538 27.7826 31.594 27.7369C31.5357 27.6897 31.4947 27.5542 31.5452 27.291C31.5957 27.0268 31.7535 25.9966 31.7405 24.7971C31.7371 24.4751 31.8789 24.2689 32.0297 24.1936C32.1108 24.1526 32.6386 23.9179 32.6031 23.399C32.5659 22.8739 32.4037 22.1414 32.8262 21.1103C33.235 20.1114 33.7455 18.3284 33.8072 17.1522C33.8727 15.9027 33.5589 15.0967 33.0659 14.6603C32.8736 14.4917 32.6466 14.2369 32.8319 13.6929C33.0296 13.1076 33.3887 11.5091 33.0359 10.4517C32.9569 10.2169 32.8673 10.2154 32.8134 10.187C32.7593 10.1594 32.5032 9.96325 32.4069 9.53179C32.2776 8.96297 31.8617 6.94133 30.2938 4.8862C29.4632 3.79514 28.5762 3.14625 28.2219 2.88479C27.9791 2.72686 27.5529 2.42987 27.0431 2.15872C26.3136 1.77299 25.7346 1.47872 24.5699 1.10183C24.4598 1.06715 24.2104 0.990815 23.8809 0.902925C23.8801 0.902925 23.8772 0.902925 23.8772 0.902925C23.8772 0.902925 22.8849 0.637385 21.8119 0.512095C21.6286 0.495095 21.3778 0.471975 21.0933 0.452595C19.9886 0.387995 19.5854 0.455825 19.0109 0.513625C18.9496 0.519575 18.887 0.528925 18.8253 0.537255C18.7107 0.552555 18.5922 0.570235 18.4683 0.589615C16.7615 0.881845 15.0251 1.68238 14.1806 2.08511C13.7037 2.31155 13.2819 2.54717 12.894 2.76817C12.8833 2.77497 12.8695 2.78279 12.8624 2.78704C12.7624 2.84807 12.6058 2.93528 12.4532 3.01909C12.2145 3.15373 11.9864 3.27987 11.7654 3.38782C11.0818 3.72034 10.4805 3.89051 10.0409 4.043C9.96098 4.07292 9.89417 4.09825 9.84232 4.11593C9.52544 4.23935 9.32348 4.36685 9.28642 4.57714C9.21876 4.95454 9.66297 5.30473 9.50436 5.9067C9.11387 7.38706 7.44294 8.80793 7.17502 8.97181C6.39897 9.44543 6.44742 9.77506 6.4175 9.9437C6.4175 10.1004 6.44963 10.2745 6.53888 10.4625C6.79745 11.0104 7.27583 11.48 7.50992 11.9752C7.74469 12.4707 7.87848 13.3393 7.70287 14.3545C7.53525 15.3363 7.48272 15.554 7.39551 15.7341C7.30881 15.9148 7.13388 16.2658 7.37511 16.6833C7.61736 17.1021 8.12787 17.5291 8.44815 17.7749C8.61849 17.9065 8.70672 18.0258 8.58041 18.263C8.37233 18.6511 8.42554 19.5662 8.62257 20.0782C8.92007 20.8594 9.26942 21.604 9.59361 22.0825C9.91814 22.5608 10.4972 23.3747 10.8377 23.6692C11.1768 23.9655 11.2234 24.479 11.2168 24.7978C11.2096 25.1148 11.1651 26.0138 12.0889 26.5763C12.5441 26.8561 12.5849 26.7858 12.7519 26.923C12.9188 27.0578 12.9974 27.1278 13.1128 27.4918C13.2282 27.8544 13.7533 29.1258 14.4764 30.0209C14.6873 30.2808 14.8045 30.4651 14.8296 30.5077C14.8551 30.5502 14.8944 30.5975 14.8029 30.8117C14.712 31.0261 14.347 32.2463 14.0558 33.5077C14.0026 33.7391 13.9244 34.0432 13.6342 34.186C13.3435 34.3261 12.6942 34.6848 12.4579 34.8154C12.2201 34.9461 12.1028 35.0172 11.8293 35.3573C11.7076 35.5086 11.619 35.5974 11.5422 35.6897C11.498 35.7431 11.4784 35.7772 11.2472 35.8978C11.0469 36.0018 8.075 37.0475 4.92354 38.9753C4.84551 39.0224 4.77258 39.0642 4.70016 39.1045C4.8858 39.3943 5.07518 39.6815 5.27221 39.9618C5.97975 39.6041 7.66768 38.7485 7.93305 38.6162C8.14249 38.5107 8.4031 38.4697 8.61373 38.4646C8.74055 38.4622 8.84935 38.4726 8.91854 38.4898C9.05998 38.5244 9.30342 38.5782 9.52952 38.6298C9.55043 38.6344 9.57134 38.6395 9.59293 38.6441C9.60687 38.6473 9.62064 38.6504 9.63509 38.6545C9.72842 38.6774 9.81478 38.698 9.88448 38.7167C9.88839 38.7182 9.89162 38.7182 9.89553 38.7199C9.92936 38.7296 9.96013 38.738 9.98376 38.7451C10.1845 38.8112 10.2913 39.1878 10.1827 39.5305C10.1635 39.5951 10.1009 39.8125 10.0093 40.134C9.9637 40.2955 9.91151 40.4815 9.85439 40.6879C9.79693 40.8944 9.7342 41.1215 9.66807 41.3626C9.43568 42.207 9.16283 43.2203 8.92806 44.1351C9.55706 44.7085 10.217 45.2483 10.9028 45.7554C10.9796 45.1616 11.0604 44.5431 11.1229 44.0933C11.2868 42.9196 12.2244 38.5719 12.4891 37.5833C12.6817 36.864 12.7818 36.5363 13.0349 36.4229C13.1109 36.3899 13.1973 36.3394 13.2473 36.3149C13.2972 36.2918 13.4067 36.2653 13.3729 36.4559C13.3341 36.682 13.139 37.6046 12.8518 40.5983C12.6524 42.6752 12.6477 44.5146 12.7194 45.6209C12.7503 46.092 12.7583 46.7579 13.4791 46.4692C14.3213 46.1328 17.1923 45.1033 18.726 44.6307C21.1956 43.8689 25.8244 42.8514 30.2857 42.193L31.5331 42.0157C31.5331 42.0157 32.2635 46.3069 32.3893 47.0506L32.5278 47.8379L32.3906 47.0506C32.2638 46.3069 31.5343 42.0157 31.5343 42.0157C31.7091 41.9918 31.885 41.9693 32.0583 41.9472C32.4578 41.8967 32.8328 41.8496 33.1857 41.8037L34.4888 41.6368C35.0985 41.5588 35.6216 41.4918 36.065 41.4338C36.065 41.4338 36.9072 45.3272 37.2239 46.7257C37.246 46.8177 37.2649 46.9007 37.2807 46.97L37.4366 47.6847C37.4374 47.6847 37.4383 47.6847 37.4389 47.6847L37.2839 46.97C37.0269 45.8638 36.0675 41.434 36.0675 41.434L37.4015 41.2621C37.7961 41.2118 38.2988 41.1487 38.4486 41.1416C38.762 41.1285 38.8989 40.9512 38.6595 40.8793C38.4868 40.8288 38.0877 40.7888 37.8857 40.7839C37.8087 40.7831 37.6684 40.7814 37.5846 40.78C37.2759 40.7746 37.1877 40.7137 37.1198 40.2586C36.9276 38.9238 36.184 35.6152 35.65 33.8709C35.1332 32.188 35.0056 31.7035 34.8811 31.3329C34.7723 31.0138 34.9831 30.9943 35.0844 30.9989C35.461 31.0169 35.9825 31.2124 36.1321 31.5345C36.4631 32.2523 38.7274 38.1829 39.6365 40.3939C40.2101 41.7867 40.8782 43.4634 41.5092 44.9571C41.9135 44.6247 42.3035 44.2747 42.6855 43.9172C41.5109 41.3347 38.896 35.4843 37.5173 32.5236C37.4677 32.417 37.4007 32.2445 37.3669 32.1431C37.3551 32.1093 37.3502 32.0792 37.3502 32.0525C37.3519 31.8637 37.6016 31.8373 37.7252 31.8494C38.2119 31.8982 42.6335 32.1897 43.8406 32.305C44.6372 32.3803 45.432 32.5018 45.9629 32.5965C46.086 32.6193 46.1943 32.6399 46.2857 32.6579C46.3991 32.6805 46.4843 32.6985 46.5394 32.7137C46.9333 32.8163 47.6281 33.0912 48.2713 33.4362C48.5374 33.5779 48.8402 33.7845 49.1647 34.0335C49.2624 33.7559 49.3598 33.4778 49.4484 33.1968C49.2169 33.0362 48.9566 32.8721 48.7013 32.7349C47.9667 32.3434 47.3467 32.0944 46.6747 31.9448ZM10.6719 17.2821C10.5517 17.3338 10.4431 17.3475 10.36 17.1837C10.1584 16.785 10.0052 16.0751 9.9467 15.6139C9.88652 15.153 9.79438 13.7774 9.82345 13.0258C9.85558 12.2737 9.7087 11.8535 9.43993 11.4938C9.17048 11.1345 8.99725 10.8852 8.93112 10.7641C8.84799 10.6132 8.90358 10.51 9.06253 10.3947C9.13971 10.3406 9.2973 10.3731 9.41919 10.3478C9.66025 10.2993 10.4652 10.0074 11.065 9.53706C11.6634 9.06667 12.6171 8.15683 13.2643 7.80663C13.9094 7.45643 14.1959 7.2968 14.951 7.20619C15.085 7.19055 15.2859 7.26212 15.0591 7.43467C14.8325 7.60722 14.1058 7.86477 13.2583 9.14351C12.7379 9.92585 12.6531 10.3777 12.4884 10.7288C12.3228 11.0796 12.1645 11.1789 11.9026 11.463C11.7751 11.5985 11.5153 11.8832 11.4216 12.2962C11.3307 12.7094 10.9545 14.1653 11.1755 16.3673C11.2015 16.6237 11.307 16.9649 11.0667 17.089C10.9183 17.166 10.7909 17.2313 10.6719 17.2821ZM11.7096 20.2491C11.5816 20.1581 11.0583 19.4498 10.8035 18.6625C10.7755 18.5794 10.7449 18.3679 10.8827 18.3075C10.9958 18.2591 11.1459 18.172 11.2239 18.135C11.303 18.0952 11.5 18.0435 11.5272 18.3276C11.5547 18.6123 11.5796 18.9479 11.9041 19.7879C11.9629 19.938 11.975 19.9849 11.9903 20.0451C12.0323 20.2195 11.8281 20.3334 11.7096 20.2491ZM12.7755 17.574C12.7408 17.5799 12.3818 17.6233 12.1882 17.6595C12.068 17.6816 11.9442 17.7265 11.9304 17.6107C11.9143 17.4791 11.8757 17.3054 11.8643 17.2585C11.8539 17.2097 11.8774 17.1634 11.9355 17.1497C12.0782 17.1167 12.6293 17.024 12.6825 17.0213C12.7357 17.0206 12.7896 17.0386 12.8127 17.149C12.8336 17.2596 12.8602 17.3775 12.8665 17.4254C12.8729 17.4747 12.8867 17.557 12.7755 17.574ZM12.9713 15.7757C12.9382 15.6079 12.8918 15.3206 12.9067 15.1418C12.9118 15.0706 12.9334 14.8924 13.0189 14.7963C13.1398 14.6593 13.3005 14.5347 13.4047 14.4504C13.5942 14.2952 13.5548 13.8935 13.5686 13.663C13.6104 12.9933 13.5509 10.8787 14.9231 8.85552C14.976 8.77868 15.0299 8.70779 15.0829 8.64081C15.0991 8.62075 15.1152 8.60223 15.1314 8.58251C15.1708 8.5361 15.2101 8.49139 15.2507 8.45008C15.2677 8.43155 15.2845 8.41387 15.3024 8.39687C15.3508 8.3491 15.4001 8.30354 15.4493 8.26223C15.4564 8.25662 15.4627 8.25033 15.4693 8.24455C15.5249 8.19967 15.5807 8.15904 15.6361 8.12045C15.6562 8.10736 15.6762 8.09444 15.6963 8.08271C15.7345 8.05755 15.7731 8.03494 15.8117 8.01301C15.8336 8.00111 15.8554 7.98886 15.8778 7.97747C15.92 7.95588 15.9633 7.93566 16.0062 7.91645C16.0225 7.90965 16.0385 7.90183 16.0546 7.89435C16.1102 7.87106 16.1673 7.85031 16.224 7.83093C16.2483 7.8226 16.2717 7.81564 16.2957 7.80816C16.3338 7.79626 16.3717 7.78486 16.4096 7.77432C16.4225 7.77109 16.4344 7.76651 16.4475 7.76328C16.4475 7.76396 16.4475 7.76395 16.4475 7.7648C16.7268 7.69034 17.0133 7.64852 17.3026 7.59939C18.1195 7.46067 19.0716 7.59039 19.5614 7.74628C19.9507 7.86953 20.1479 7.96405 20.2781 7.84114C20.4088 7.71874 20.7499 7.33216 20.8945 7.19514C20.9144 7.17576 20.9301 7.15451 20.9408 7.1336C20.9452 7.12646 20.9476 7.11914 20.9508 7.112C20.9561 7.09823 20.9607 7.08362 20.9629 7.06917C20.9637 7.06135 20.9654 7.05302 20.9654 7.04435C20.9654 7.03058 20.9637 7.0168 20.9615 7.00218C20.96 6.99504 20.96 6.98688 20.9564 6.97974C20.9511 6.95968 20.9423 6.9403 20.9302 6.92177C20.8984 6.8689 20.848 6.82182 20.7854 6.78425C20.6266 6.69092 19.0324 5.52098 16.8832 5.46862C14.7832 5.41609 13.0788 6.15916 12.6268 6.31471C12.5353 6.34548 12.4884 6.36162 12.4347 6.3623C12.3814 6.36383 12.1982 6.30127 12.266 6.16884C12.3405 6.0274 12.5268 5.80964 12.7204 5.63318C12.9236 5.45009 13.9172 4.51475 14.8986 4.08159C15.0802 4.00203 15.1244 3.96888 15.2407 3.92366C15.3893 3.86739 15.4771 3.53249 15.1489 3.53164C14.8124 3.52926 14.6785 3.567 14.5008 3.59471C14.3228 3.62429 14.2251 3.54473 14.3375 3.39224C14.4485 3.24026 14.6679 3.07162 15.064 2.85657C15.9241 2.38788 17.4973 1.89386 18.241 1.73117C19.2109 1.51884 19.3293 1.50507 19.973 1.46563C20.5749 1.43095 21.0564 1.47345 21.2842 1.48263C23.2125 1.5559 25.4332 2.19408 27.1524 3.32611C28.7871 4.52886 31.1398 6.53265 31.6061 11.4791C31.662 12.0728 31.6227 12.4092 31.5998 12.5578C31.5794 12.7064 31.4107 12.9796 31.2627 12.6693C30.7749 11.6471 30.021 10.3094 29.1701 9.04134C29.1196 8.96603 29.0683 8.92982 29.0267 8.92438C29.0091 8.92081 28.9944 8.92369 28.9794 8.92998C28.9757 8.93236 28.9731 8.93628 28.9692 8.939C28.961 8.94529 28.9524 8.95311 28.9461 8.96382C28.9428 8.9713 28.9389 8.97912 28.9366 8.98711C28.9326 8.99782 28.9303 9.00989 28.9287 9.02179C28.927 9.0325 28.9253 9.04236 28.9253 9.05341C28.9253 9.07857 28.927 9.10627 28.9342 9.13653C28.9554 9.22629 29.2264 10.5676 29.2364 10.7544C29.2482 10.9407 29.1569 11.398 29.8517 12.2419C30.1354 12.5882 30.3873 12.884 30.5167 13.3949C30.6442 13.9038 30.6876 14.1216 30.6884 14.1757C30.6903 14.2289 30.7515 14.3805 30.5057 14.3821C30.2614 14.3827 29.3286 14.3151 28.9294 14.3241C28.5299 14.3336 25.7727 14.6041 24.7469 14.822C23.721 15.0403 23.169 15.2987 22.6421 15.8522C22.5153 15.9853 22.338 16.1094 22.2977 16.1208C22.2596 16.1315 22.1258 16.1286 21.8644 16.111C21.6039 16.094 21.1523 16.1579 20.9151 16.265C20.6764 16.3717 20.5063 16.471 20.2188 16.3539C19.8079 16.1876 19.1031 15.4286 17.273 15.518C16.1714 15.5719 15.607 15.602 14.8425 15.715C14.798 15.7222 14.7519 15.7288 14.7062 15.7359C14.6771 15.7407 14.647 15.7453 14.6173 15.7504C14.6011 15.7528 14.5843 15.7551 14.5673 15.7582C14.256 15.809 13.9045 15.8745 13.4705 15.9591C13.4103 15.9705 13.3511 15.9828 13.2889 15.9945C13.1198 16.0283 13.0028 15.9525 12.9713 15.7757ZM29.8226 15.3038C29.8226 15.3621 29.7517 15.4225 29.6791 15.4347C29.6074 15.4461 29.1151 15.4911 29.0363 15.4969C28.9592 15.5024 28.8835 15.4599 28.8771 15.3871C28.8708 15.3154 28.8548 15.1452 28.8504 15.1006C28.8424 15.0588 28.8407 15.0005 28.941 14.9876C28.9993 14.9805 29.5127 14.9344 29.7021 14.9119C29.773 14.9036 29.8194 14.9675 29.8211 15.0296C29.8211 15.0918 29.8211 15.246 29.8226 15.3038ZM27.5198 15.8565C27.3675 15.7494 27.0997 15.5807 26.9375 15.5216C26.8257 15.4814 26.8648 15.3415 27.0242 15.3191C27.5789 15.2383 27.9347 15.2383 28.2107 15.4106C28.4124 15.5355 28.5464 15.7781 28.4847 15.992C28.4121 16.2374 28.3161 16.1842 28.1955 16.1822C28.075 16.18 27.6702 15.9641 27.5198 15.8565ZM27.8404 16.9387C27.7428 17.0045 27.4237 16.9458 27.3078 16.9004C27.07 16.8071 26.9011 16.7425 26.5703 16.5326C26.3543 16.3955 25.9787 16.3277 25.6501 16.427C25.4335 16.4924 25.2595 16.5472 25.0687 16.6208C24.8776 16.6941 24.8385 16.52 24.8885 16.4455C24.9378 16.3712 25.2402 16.0171 25.6414 15.8665C25.7258 15.8342 25.8975 15.8165 25.9818 15.8148C26.2404 15.8073 26.5608 15.9335 26.8036 16.1106C27.0484 16.2891 27.437 16.5802 27.6923 16.6893C27.812 16.7408 28.0719 16.7787 27.8404 16.9387ZM19.865 25.5497C18.8974 25.8885 18.6261 25.5482 18.5399 25.4472C18.454 25.3464 18.5599 25.2479 18.6624 25.2002C18.8926 25.0931 19.2007 24.8598 19.3562 24.708C19.5126 24.5564 19.8164 24.0285 20.0357 23.8431C20.1397 23.7545 20.7018 23.5634 21.1245 23.765C21.6272 24.0046 22.4099 24.0294 22.8905 23.9668C23.3708 23.9022 23.5538 23.5512 23.6581 23.3439C23.7619 23.1348 24.0168 23.0583 24.1507 23.0033C24.5194 22.8525 25.0075 22.3466 25.0575 22.295C25.1075 22.2418 25.2596 22.167 25.5015 22.3088C25.9418 22.5676 26.1657 22.9099 26.5746 23.3744C26.9834 23.8392 27.4672 23.9117 27.609 23.9208C27.751 23.9298 27.8392 24.0942 27.8457 24.1394C27.8535 24.1846 27.7353 24.3418 27.6471 24.408C27.5585 24.4741 27.5097 24.5912 26.7269 24.6098C22.7985 24.7067 21.0309 25.1417 19.865 25.5497ZM25.1932 26.0225C24.9601 26.143 24.2668 26.4043 23.9217 26.4708C23.5754 26.5372 22.4767 26.7599 22.2913 26.7749C22.0604 26.7927 21.7369 26.7235 21.456 26.5314C21.3996 26.4925 21.3229 26.3416 21.5278 26.3113C21.9079 26.2549 22.5216 25.9696 24.754 25.8559C24.9939 25.8435 25.1066 25.8385 25.1641 25.8372C25.2215 25.836 25.4279 25.9019 25.1932 26.0225ZM20.0211 30.9788C19.2415 31.1073 17.1659 30.4984 15.8165 27.1681C15.4686 26.3115 15.8501 25.4591 16.1849 25.2867C16.3834 25.1859 16.4909 25.1449 16.5585 25.1279C16.632 25.1094 16.9852 25.0633 17.0253 25.4608C17.0571 25.7823 17.6812 28.4217 18.5203 29.2945C18.7272 29.5109 18.8907 29.4976 18.9441 29.2741C18.99 29.0692 19.0805 28.7998 19.1068 28.6971C19.1253 28.623 19.3278 28.3992 19.4426 28.6845C19.6894 29.2899 19.9872 30.0824 20.1829 30.3998C20.3743 30.7095 20.3128 30.9305 20.0211 30.9788ZM20.1749 22.2711C20.2482 22.3727 20.2936 22.5575 20.288 22.6391C20.2805 22.7333 19.9585 22.9042 19.6238 22.5285C19.2889 22.1519 19.3543 21.6315 19.4929 21.4105C19.7139 21.058 20.1481 21.2336 20.1061 21.3594C19.9611 21.7949 20.1005 22.1687 20.1749 22.2711ZM17.687 17.3943C17.4366 17.3861 17.1671 17.3554 16.71 17.5247C16.1983 17.7137 15.8693 17.9604 15.6313 18.1064C15.3867 18.2589 15.1278 18.3244 15.0411 18.3306C14.9549 18.3381 14.6407 18.2968 14.8572 18.0694C14.9146 18.0071 15.0525 17.9602 15.2618 17.8077C15.4114 17.6976 15.5222 17.619 15.6924 17.4757C15.9956 17.2173 16.6138 16.8438 16.8832 16.8107C17.0809 16.787 17.4304 16.8244 17.6384 16.9946C17.8548 17.1723 17.9379 17.4023 17.687 17.3943ZM13.3814 17.838C13.4077 17.6741 13.5869 17.242 13.9645 17.1167C14.0153 17.1014 14.2035 17.0402 14.3608 16.9997C14.5462 16.953 14.7456 16.9118 14.8473 16.8935C15.1205 16.8459 15.1781 17.0538 15.0061 17.1893C14.8934 17.279 14.7133 17.396 14.5542 17.5248C14.3123 17.7227 14.0799 17.9427 13.9002 18.0921C13.6814 18.2744 13.327 18.1744 13.3814 17.838ZM14.664 22.5438C14.6632 22.5431 14.6625 22.5422 14.6625 22.5422C14.661 22.5398 14.66 22.5383 14.6586 22.5363C14.5909 22.4412 14.5277 22.3413 14.4687 22.2396C14.4563 22.2172 14.4439 22.1942 14.431 22.1718C14.3721 22.0627 14.3171 21.9523 14.2737 21.8362C14.1891 21.6113 14.3308 21.5782 14.4254 21.6271C14.5197 21.6776 14.7958 21.8386 15.0907 21.9008C15.2709 21.9379 15.3779 21.8515 15.4202 21.7216C15.4265 21.7023 15.4346 21.6783 15.4435 21.6523C15.4486 21.6409 15.4525 21.6286 15.4564 21.6161C15.4588 21.6086 15.461 21.6008 15.4639 21.5924C15.4676 21.5783 15.471 21.5646 15.4741 21.5499C15.4766 21.5425 15.4775 21.5346 15.4788 21.5272C15.4824 21.5122 15.4839 21.4976 15.4856 21.4823C15.4863 21.4748 15.4863 21.4677 15.4872 21.4593C15.4872 21.4444 15.4856 21.4297 15.4839 21.4144C15.4831 21.4078 15.4822 21.4007 15.4805 21.3944C15.477 21.3782 15.4707 21.3629 15.4635 21.3476C15.4605 21.3429 15.4591 21.3378 15.4567 21.3339C15.4464 21.3162 15.4324 21.2999 15.4158 21.2846C15.3938 21.2654 15.3665 21.2475 15.3311 21.2337C15.0742 21.1305 14.346 20.9005 13.7991 19.8834C13.7199 19.7396 13.7948 19.6172 13.848 19.5742C13.9014 19.5317 14.0918 19.4103 14.1829 19.354C14.2751 19.2976 14.3999 19.3041 14.5299 19.3938C14.6549 19.4832 14.9263 19.681 15.1441 19.6617C15.3464 19.642 15.3666 19.5591 15.4027 19.5065C15.5453 19.2985 15.9317 18.5426 16.9444 18.5304C17.3623 18.525 17.7536 18.5635 17.8937 18.5549C18.0322 18.5459 18.5264 18.5013 18.8175 18.3033C19.1041 18.1062 19.2263 18.248 19.0607 18.4636C19.0361 18.4959 19.0138 18.5243 18.9929 18.5527C18.9848 18.5629 18.9785 18.5719 18.971 18.5814C18.9485 18.6113 18.9292 18.6397 18.9122 18.6669C18.8491 18.7737 18.8413 18.8661 18.9589 18.993C19.1437 19.1895 19.1918 19.2247 19.2518 19.2711C19.2785 19.2923 19.3105 19.3049 19.3477 19.3058C19.363 19.3058 19.38 19.3025 19.397 19.2979C19.4041 19.2956 19.4111 19.2956 19.4194 19.2925C19.4449 19.2811 19.472 19.2656 19.5017 19.2405C19.6073 19.1472 19.6782 19.0916 19.7703 18.9726C19.8388 18.8847 19.8968 18.9732 19.8798 19.1108C19.8664 19.2179 19.9145 19.9054 19.1653 20.7506C19.1408 20.779 19.0839 20.8259 19.013 20.8861C18.996 20.8999 18.98 20.9136 18.9615 20.9298C18.9523 20.9376 18.9429 20.9468 18.9338 20.9546C18.9103 20.975 18.887 20.9968 18.8629 21.0192C18.8437 21.0369 18.8241 21.0581 18.8046 21.0775C18.7845 21.0976 18.7651 21.1161 18.7449 21.1377C18.7326 21.1508 18.7204 21.1661 18.7078 21.1807C18.6827 21.2091 18.657 21.2378 18.6318 21.2693C18.624 21.28 18.6165 21.2909 18.6094 21.3009C18.581 21.3379 18.5535 21.3753 18.5286 21.4146C18.4969 21.4654 18.4673 21.5187 18.4414 21.5741C18.233 22.0188 18.26 22.1655 18.2374 22.3277C18.217 22.4883 18.0923 22.5523 17.9518 22.6172C17.8672 22.6561 17.6428 22.7858 17.3941 22.974L17.3954 22.9728C17.321 23.0288 17.2451 23.091 17.17 23.1552C17.1556 23.1683 17.1416 23.1804 17.1282 23.1935C17.053 23.2596 16.9789 23.3298 16.9104 23.4029C16.865 23.4507 16.8183 23.4927 16.7714 23.5306C16.7552 23.5432 16.7402 23.553 16.7243 23.5644C16.6913 23.5884 16.6571 23.6108 16.6235 23.6306C16.6058 23.6409 16.5867 23.6506 16.5692 23.6586C16.5352 23.6756 16.5014 23.6894 16.4665 23.7015C16.4482 23.7077 16.4303 23.7154 16.412 23.72C16.4028 23.7224 16.3943 23.7263 16.386 23.729C16.3644 23.7338 16.3426 23.7344 16.321 23.7377C16.2942 23.7424 16.2675 23.7475 16.2401 23.7491C16.2102 23.7506 16.1796 23.7491 16.1488 23.7475C16.1225 23.7446 16.0956 23.7446 16.0699 23.7416C16.0383 23.7368 16.007 23.727 15.9761 23.7183C15.9499 23.7115 15.9237 23.706 15.897 23.6967C15.8675 23.6853 15.8382 23.669 15.8085 23.6545C15.7801 23.6408 15.7529 23.6297 15.7253 23.6127C15.7228 23.6107 15.7199 23.61 15.7175 23.6085C15.6675 23.5768 15.6165 23.54 15.5655 23.4981C15.4341 23.3851 15.2901 23.2535 15.1477 23.11C15.1439 23.1058 15.1402 23.1019 15.1365 23.0986C15.1326 23.0947 15.1286 23.09 15.1251 23.0855C15.0518 23.0114 14.9785 22.9324 14.9073 22.8499C14.9012 22.8423 14.7349 22.6422 14.664 22.5438ZM23.6683 38.3388C23.6222 38.5782 23.4269 39.3848 22.7098 41.0449C22.6613 41.1567 22.6143 41.2647 22.5684 41.3689C22.5573 41.3934 22.5459 41.4166 22.5352 41.4413C22.5175 41.4812 22.499 41.5217 22.4815 41.5593C22.4798 41.5625 22.4789 41.5656 22.4776 41.5688C22.4516 41.6266 22.4252 41.6807 22.3984 41.7345C22.3984 41.7345 22.3968 41.7361 22.3968 41.7379C22.3934 41.7442 22.3897 41.7512 22.3854 41.7582C22.3759 41.777 22.3661 41.7954 22.3567 41.8133C22.3438 41.8372 22.3315 41.8629 22.3178 41.886C22.3178 41.8884 22.3169 41.8892 22.3162 41.8904C22.313 41.8952 22.31 41.9 22.3067 41.9062C22.2945 41.9275 22.2768 41.9584 22.276 41.9598C22.2743 41.963 22.272 41.9659 22.2703 41.9693C22.2703 41.9693 22.2703 41.9693 22.2703 41.971C22.2612 41.9843 22.2532 41.9977 22.2452 42.0103C22.2428 42.0147 22.2406 42.0198 22.238 42.0235C22.2365 42.0252 22.2353 42.0273 22.2329 42.0297C22.2221 42.0477 22.2105 42.0645 22.1993 42.0832C22.1967 42.0858 22.1945 42.0878 22.193 42.0904C22.1801 42.1092 22.167 42.1276 22.1542 42.1454C22.1536 42.1454 22.1515 42.1488 22.1493 42.15C22.1384 42.1652 22.1267 42.1801 22.1155 42.1942C22.1121 42.1976 22.11 42.2005 22.1077 42.2022C22.0947 42.2196 22.081 42.2332 22.0689 42.2481C22.067 42.2481 22.0653 42.2505 22.064 42.2525C22.0568 42.2597 22.0485 42.2668 22.0414 42.2746H22.0407C22.0369 42.2794 22.0323 42.2833 22.0276 42.2872C22.0252 42.2896 22.0215 42.2918 22.0189 42.2952C22.0051 42.3076 21.9921 42.3199 21.9783 42.329C21.9768 42.3306 21.9759 42.3314 21.9737 42.3324C21.9615 42.3426 21.9485 42.351 21.9356 42.359C21.932 42.3613 21.9292 42.3635 21.9258 42.3652C21.9234 42.3668 21.921 42.3676 21.9195 42.3686C21.9167 42.371 21.9144 42.3724 21.912 42.3724C21.9025 42.3787 21.8926 42.3841 21.8827 42.3899C21.8827 42.3899 21.8812 42.3899 21.8795 42.3906C21.8669 42.3975 21.8532 42.4023 21.8385 42.4072C21.8351 42.4089 21.8317 42.4106 21.8278 42.4118C21.8125 42.4164 21.7979 42.4207 21.7818 42.4244C21.6328 42.4565 21.4736 42.4795 21.3804 42.4955C21.3666 42.4968 21.2713 42.5128 21.2634 42.5157C21.2245 42.5213 21.1825 42.5276 21.1375 42.5354C21.1375 42.5354 21.1375 42.5354 21.1375 42.5346C20.0612 42.7158 17.1336 43.2198 15.7757 43.4942C14.8748 43.6741 14.9634 43.2203 14.7373 42.4015C14.6423 42.0572 14.3077 39.0115 14.4816 37.0998C14.5399 36.4651 14.5678 36.2791 14.6817 36.209C14.7954 36.1388 14.9697 36.0254 15.0221 36.0105C15.0731 35.997 15.2283 35.9561 15.3007 36.0868C15.3716 36.216 16.6864 38.8835 17.5457 39.8496C18.3082 40.7106 18.8442 41.3352 19.4869 41.7546C19.5294 41.783 19.566 41.8005 19.5991 41.8114C19.6024 41.8129 19.6063 41.815 19.61 41.816C19.6253 41.8206 19.6391 41.8229 19.6522 41.8246C19.6651 41.8263 19.677 41.8255 19.6884 41.8246C19.6918 41.824 19.6947 41.824 19.6981 41.8229C19.7193 41.8184 19.7363 41.808 19.7492 41.7947C19.7508 41.793 19.7525 41.7908 19.7549 41.7884C19.7669 41.7735 19.7758 41.7546 19.7802 41.7342C19.781 41.731 19.781 41.7271 19.781 41.7237C19.7987 41.6244 19.7515 41.4739 19.6571 41.3718C19.5153 41.2189 18.928 40.6146 18.1543 39.514C17.1535 38.0935 16.4754 35.997 16.293 35.3255C16.1736 34.8859 16.1067 34.1927 16.1177 33.6395C16.117 33.6395 16.1162 33.6395 16.1162 33.6395C16.117 33.615 16.1177 33.5938 16.1191 33.5703C16.1197 33.5528 16.1206 33.5358 16.1216 33.5174C16.1231 33.4802 16.1248 33.4433 16.1269 33.4078C16.1308 33.3556 16.1347 33.3051 16.1408 33.258C16.1434 33.2374 16.1463 33.2192 16.1486 33.1995C16.1537 33.1667 16.1587 33.1349 16.1634 33.1057C16.1667 33.0882 16.1701 33.0719 16.1741 33.056C16.1828 33.0135 16.1927 32.9743 16.2049 32.9401C16.3606 32.4952 16.4907 32.543 16.6284 32.6921C16.7664 32.8425 18.0088 33.97 20.0571 34.8878C20.4921 35.0824 20.7516 35.172 20.8109 35.2361C20.8695 35.2982 20.9632 35.4299 20.7771 35.4738C20.5931 35.5173 20.0467 35.5367 19.4747 35.7628C19.4415 35.7762 19.4109 35.7896 19.3829 35.8021C19.1828 35.8918 19.089 35.9819 19.0465 36.0786C19.0381 36.0973 19.0318 36.1174 19.0273 36.1371C19.0237 36.1504 19.0205 36.1662 19.0189 36.1805C19.0164 36.2024 19.0155 36.2245 19.0164 36.2466C19.0164 36.2611 19.0155 36.276 19.0171 36.291C19.0188 36.3192 19.0218 36.3478 19.0249 36.3777C19.0317 36.4282 19.0386 36.4802 19.0437 36.5373C19.074 36.8477 19.1277 37.0692 19.1672 37.4844C19.2058 37.901 19.1818 38.2776 19.3849 38.4534C19.5874 38.6268 19.8638 38.7298 20.6021 38.5865C21.3025 38.45 21.5358 38.3903 21.6187 38.3879C21.7002 38.3854 21.8969 38.3524 21.7767 38.5817C21.7653 38.6038 21.7503 38.6305 21.7326 38.663C21.5711 38.9505 21.18 39.5983 21.0467 40.03C20.899 40.5058 20.869 40.6374 20.8561 40.7186C20.8442 40.8004 20.9007 40.958 21.046 40.7817C21.191 40.6051 21.4781 39.9473 22.1995 39.1099C22.2962 38.9981 22.3849 38.8996 22.4682 38.8088C22.4689 38.8088 22.4698 38.8071 22.4715 38.8054C22.5367 38.7354 22.5974 38.6717 22.6554 38.6132C22.6715 38.5965 22.6868 38.5816 22.7023 38.5669C22.7516 38.519 22.7977 38.4748 22.8407 38.433C22.8521 38.4233 22.8645 38.4117 22.8745 38.402C22.9821 38.3046 23.0746 38.2295 23.1554 38.1707C23.1635 38.1661 23.1707 38.161 23.1781 38.1557C23.2093 38.1328 23.24 38.1122 23.2684 38.095C23.2762 38.0904 23.2846 38.0848 23.2924 38.0792C23.3208 38.0617 23.3476 38.0472 23.3725 38.0335C23.3764 38.0301 23.3825 38.0272 23.3869 38.0248C23.3903 38.0238 23.3925 38.0214 23.3947 38.0202C23.424 38.0068 23.4483 37.9925 23.4731 37.9813C23.6745 37.882 23.7293 38.0197 23.6683 38.3388ZM24.8623 42.004C24.7467 42.0307 24.2474 42.1065 24.1703 42.1077C24.0943 42.1096 24.0297 42.0385 24.062 41.9839C24.0941 41.9304 24.4378 41.4831 24.6267 40.7045C24.6585 40.5777 24.7379 40.4895 24.7894 40.6717C24.8292 40.8048 24.9834 41.4666 25.0189 41.7157C25.0242 41.7592 25.0509 41.9598 24.8623 42.004ZM25.0718 35.6553C24.7437 35.7784 24.3789 35.4097 24.0836 35.2127C23.4199 34.7589 22.8092 34.3217 22.3083 33.7095C21.5409 32.7727 21.6126 32.1195 21.8355 30.9093C21.9904 30.0496 21.7095 29.2412 21.6483 29.1273C21.5876 29.0131 21.6561 28.8972 21.8377 28.9822C22.0191 29.0675 22.1927 29.3322 22.379 29.5591C22.5638 29.7861 22.6047 29.6248 22.62 29.4706C22.6554 29.1146 22.5752 28.8295 22.5308 28.6641H22.5298C22.5274 28.6561 22.5253 28.6461 22.5236 28.6374C22.4976 28.5388 22.4058 28.319 22.2127 28.279C21.954 28.2246 21.6997 28.2017 21.5616 28.1024C21.4974 28.0562 21.4243 27.9617 21.4967 27.8923C21.6284 27.7646 21.8198 27.5953 22.0017 27.5331C22.2491 27.4481 22.4869 27.3187 22.8002 27.3204C24.9147 27.3338 25.4849 26.8446 26.2932 26.5092C26.4517 26.4427 26.5467 26.4131 26.6824 26.4556C26.8187 26.4966 27.1883 26.6355 27.2816 26.7997C27.3754 26.9646 27.3919 27.6516 27.5725 28.1471C27.7505 28.6442 28.0537 28.1291 28.1202 27.9164C28.184 27.7027 28.209 27.1948 28.2124 27.0663C28.2156 26.9377 28.2532 26.3958 28.4233 26.213C28.7613 25.8521 28.8408 25.4251 28.8818 25.2581C28.918 25.1084 28.9464 24.6897 28.8723 24.0948C28.8643 24.0216 28.8534 23.9447 28.8405 23.866C28.7263 23.1486 28.5819 23.0879 28.3875 22.9575C28.1923 22.8275 27.988 22.8839 27.4912 22.5436C27.0468 22.2379 26.6434 21.7038 26.307 21.3779C25.9719 21.0525 25.442 20.7253 24.8831 20.6676C24.8477 20.6644 24.8168 20.6637 24.7884 20.6637C24.786 20.6637 24.7846 20.6637 24.7821 20.6637C24.7573 20.6653 24.7338 20.667 24.7138 20.6712C24.7098 20.6719 24.7075 20.6736 24.703 20.6744C24.6854 20.6777 24.6692 20.6823 24.6554 20.6879C24.6517 20.6906 24.6483 20.693 24.6437 20.6947C24.633 20.701 24.6225 20.7069 24.6138 20.7139C24.6099 20.7178 24.6067 20.7217 24.6024 20.7261C24.5961 20.7324 24.5898 20.7392 24.5854 20.747C24.5815 20.7525 24.5791 20.7593 24.5757 20.7656C24.5733 20.7724 24.5698 20.7778 24.5682 20.7841C24.565 20.7939 24.5635 20.8035 24.5619 20.814C24.5619 20.8179 24.5613 20.8211 24.5613 20.8254C24.5604 20.8392 24.5604 20.8534 24.5619 20.8679H24.5613C24.5727 21.0061 24.6723 21.1747 24.6976 21.2441C24.733 21.3383 24.8224 21.6263 24.6638 21.7941C24.504 21.9618 23.5697 22.7977 22.6947 22.7768C22.2992 22.7678 21.9693 22.6866 21.6923 22.5684C21.6939 22.5699 21.6949 22.5711 21.6957 22.5727C21.684 22.5676 21.6742 22.5613 21.6619 22.5557C21.5958 22.5266 21.5331 22.495 21.4732 22.4618C21.4637 22.4564 21.4523 22.4516 21.4416 22.4457C21.3744 22.4071 21.3129 22.3664 21.2543 22.3248C21.2366 22.3117 21.2196 22.2988 21.2026 22.2862C21.158 22.2524 21.1155 22.2177 21.0758 22.1822C21.064 22.1715 21.0504 22.1609 21.0387 22.1505C20.9911 22.1052 20.9469 22.0608 20.9056 22.0166C20.8954 22.0043 20.8864 21.993 20.876 21.9819C20.8444 21.9454 20.8155 21.909 20.7876 21.8736C20.7789 21.8622 20.7706 21.852 20.7628 21.8405C20.7313 21.7959 20.7023 21.7534 20.6774 21.7125C20.674 21.7074 20.6723 21.7034 20.6691 21.6987C20.6475 21.6613 20.629 21.6258 20.6127 21.5935C20.6088 21.5848 20.6045 21.577 20.6004 21.5678C20.5843 21.5331 20.5705 21.4993 20.5612 21.4709C20.4335 21.0869 20.7505 20.1792 20.7393 19.5293C20.7354 19.2446 20.6766 18.6982 20.6329 18.3191C20.5894 17.9398 20.7893 17.4293 20.8823 17.3055C20.9032 17.2783 20.9347 17.2523 20.9709 17.2268C20.98 17.22 20.9902 17.2146 20.9999 17.2083C21.0338 17.1862 21.0725 17.1653 21.1164 17.1461C21.1227 17.1429 21.1286 17.1398 21.1358 17.1362C21.1786 17.1185 21.2243 17.1 21.2741 17.0839V17.0862C21.3557 17.0582 21.4436 17.0322 21.5399 17.0106C21.8515 16.9412 22.2158 17.0954 22.3094 17.3526C22.6352 18.2499 22.9961 18.4394 23.1169 18.4981C23.2397 18.5579 23.4325 18.3803 23.5081 18.3148C23.5841 18.2514 23.7672 18.0107 23.6859 17.9051C23.5606 17.7448 23.492 17.6464 23.4558 17.5463C23.3944 17.3769 23.6157 17.3734 23.6681 17.397C24.335 17.6795 24.6544 17.7389 25.3001 17.7173C25.9446 17.6972 26.947 17.2726 27.0711 17.2702C27.1723 17.2678 27.3722 17.33 27.4472 17.4341C27.4596 17.4517 27.4764 17.4769 27.4922 17.5017C27.5568 17.5978 27.6435 17.7266 27.7207 17.7535C27.7241 17.7542 27.7262 17.7559 27.7294 17.7567C27.8249 17.7804 28.0524 17.763 28.1729 17.7681C28.3359 17.7737 28.6188 17.7173 28.6108 18.0167C28.5928 18.816 27.9609 19.3146 27.9035 19.3631C27.8814 19.3831 27.8688 19.4088 27.8574 19.4348C27.8542 19.4419 27.848 19.4494 27.8467 19.4572C27.8433 19.4719 27.8404 19.4865 27.8404 19.5002C27.8404 19.5147 27.8421 19.5278 27.8452 19.5388C27.8601 19.5864 27.9285 19.759 27.9577 19.8059C27.9681 19.8229 27.9806 19.8391 27.9968 19.8544C28.0007 19.8583 28.0073 19.8615 28.0119 19.8657C28.0245 19.8753 28.0369 19.8843 28.0512 19.8906C28.0583 19.8945 28.0679 19.8953 28.0762 19.898C28.0894 19.9013 28.1046 19.9043 28.1197 19.9035C28.1292 19.9035 28.141 19.9003 28.1505 19.898C28.1741 19.8929 28.1962 19.8882 28.2214 19.8729C28.7569 19.5526 28.9746 19.174 29.2077 18.6982C29.4401 18.2246 29.5623 16.6604 29.5758 16.4039C29.589 16.1455 29.6703 15.9867 29.7971 15.8828C29.9231 15.7784 30.5487 15.3777 30.6369 15.3573C30.7267 15.3364 30.8292 15.3278 30.93 15.561C31.0327 15.7958 31.2562 17.2379 31.2987 17.4596C31.3468 17.6952 31.4689 17.6671 31.5304 17.6219C31.6642 17.5242 31.7611 17.404 31.8803 17.1993C32.0034 16.9944 31.9133 16.7119 31.7936 16.5803C31.6756 16.4481 31.4886 16.2368 31.5682 16.027C31.7494 15.5503 32.1302 15.5743 32.2323 15.5913C32.3325 15.6083 32.7184 15.782 32.7881 16.8207C32.8889 18.3594 32.2614 19.9504 32.1118 20.3538C31.781 21.2507 31.7116 21.8614 31.6605 22.1521C31.6108 22.4416 31.391 22.3892 31.3381 22.3423C31.2846 22.2956 31.2159 22.0713 31.1821 22.0382C31.1474 22.005 31.0607 22.022 31.0039 22.269C30.9473 22.5155 30.7583 22.8579 30.6476 23.0442C30.5735 23.1651 30.5873 23.3385 30.6051 23.4731C30.6383 23.7348 30.7744 24.7357 30.7328 25.8737C30.6573 27.8984 29.9804 29.1738 29.4755 29.8413C28.2875 31.4123 27.1733 32.0689 27.0395 32.162C26.8677 32.2819 26.5802 32.2632 26.484 32.2314C26.3862 32.2038 26.3004 32.1029 26.1176 31.9725C26.1027 31.9607 26.0877 31.9544 26.0751 31.9478C25.9299 31.8807 25.9082 32.085 25.9095 32.1384C25.9112 32.1952 25.9991 32.4055 26.0488 32.6095C26.1436 32.994 25.9299 33.4588 25.7101 33.8256C25.3965 34.3443 25.0464 34.9145 25.1195 35.5409C25.1187 35.5967 25.1187 35.6373 25.0718 35.6553ZM35.1388 36.2543C35.3178 37.2834 35.5193 38.5375 35.7469 40.0748C35.7587 40.1559 35.7673 40.2253 35.7736 40.2899C35.7753 40.2979 35.777 40.3067 35.777 40.3144C35.7833 40.3751 35.7865 40.4305 35.7865 40.4759C35.7865 40.4806 35.7859 40.4847 35.7859 40.4884C35.7859 40.5088 35.7859 40.5309 35.7842 40.5485C35.7816 40.566 35.7787 40.5806 35.7753 40.5957C35.7753 40.6018 35.7736 40.6081 35.7736 40.6137C35.7658 40.6452 35.7551 40.672 35.7408 40.6948C35.7391 40.6982 35.7362 40.7011 35.7328 40.7057C35.7204 40.7232 35.7044 40.7389 35.6878 40.7516C35.6823 40.7555 35.6774 40.7596 35.6711 40.7642C35.6499 40.7776 35.6261 40.7893 35.5968 40.7989C35.5898 40.8021 35.5795 40.8033 35.5701 40.8067C35.548 40.8138 35.5239 40.8201 35.4975 40.8273C35.481 40.8307 35.4647 40.8335 35.4479 40.8381C35.4134 40.8451 35.3763 40.8524 35.3371 40.8601C35.2645 40.875 35.158 40.8902 35.0843 40.8963C34.9566 40.9089 34.8077 40.9214 34.6455 40.9357C33.0776 41.0792 30.0091 41.3903 27.5509 41.6999C27.5046 41.7043 27.4572 41.7094 27.4067 41.7174C27.2153 41.7442 27.1043 41.7136 27.0892 41.5258C27.0774 41.3532 26.7898 39.6468 25.9209 38.1931C25.8412 38.0591 25.757 37.9269 25.668 37.7987C25.5689 37.6559 25.7161 37.5473 25.8563 37.5967C26.25 37.7351 27.3404 38.2341 28.8958 39.3472C29.2929 39.631 29.3961 39.7192 29.4851 39.7948C29.4969 39.8052 29.5152 39.8152 29.5316 39.8232C29.5378 39.8265 29.545 39.8278 29.5528 39.8311C29.5635 39.835 29.5773 39.839 29.5907 39.8421C29.5979 39.8436 29.6048 39.8453 29.612 39.8458C29.6269 39.8475 29.6419 39.8482 29.6553 39.8475C29.6616 39.8475 29.667 39.8475 29.6721 39.8475C29.69 39.845 29.7075 39.8396 29.7218 39.8307C29.758 39.8079 29.7747 39.7637 29.7463 39.6874C29.6495 39.4147 29.1293 38.8791 27.7987 37.6443C27.6089 37.4687 27.6056 37.3946 27.8025 37.374C27.9987 37.3553 28.5321 37.3795 28.8157 37.3678C29.1001 37.3553 29.735 37.3377 29.6106 36.5067C29.5152 35.8631 29.4404 35.1974 29.4287 34.9981C29.418 34.7996 29.383 34.4283 28.9182 34.3758C28.4565 34.3227 27.6821 34.43 26.9875 34.6734C26.7959 34.7399 26.7283 34.6515 26.87 34.5221C27.0111 34.3938 28.2307 33.6002 29.2699 32.4068C30.4123 31.0929 30.9148 30.1261 31.2001 29.2469C31.2516 29.0908 31.3174 29.1438 31.3813 29.1795C31.4444 29.2168 31.873 29.5634 32.0249 30.4156C32.1739 31.2695 32.4693 32.4546 31.9486 35.5666C31.6625 37.2714 31.3128 38.2783 31.2316 38.5187C31.1498 38.7565 31.2899 38.8906 31.4475 38.6773C31.8147 38.1759 32.3002 36.7864 32.7099 35.1887C33.1133 33.6123 33.2595 32.2608 33.3214 31.3945V31.3936C33.3277 31.3141 33.3331 31.2393 33.337 31.1675L33.3396 31.1384C33.343 31.0684 33.3465 31.0011 33.3513 30.9407C33.3513 30.9037 33.3559 30.8744 33.3622 30.8477C33.3639 30.8398 33.3668 30.8335 33.3693 30.8265C33.373 30.8146 33.3764 30.8013 33.3809 30.7918C33.3809 30.7901 33.3827 30.7901 33.3827 30.7886C33.3906 30.7736 33.4001 30.761 33.4084 30.7514C33.4111 30.7481 33.4132 30.7451 33.4155 30.7434C33.4234 30.7364 33.4305 30.7332 33.4376 30.7294C33.4431 30.7269 33.4485 30.7231 33.4536 30.7213C33.458 30.7206 33.4614 30.7206 33.466 30.7197C33.4749 30.718 33.4835 30.7163 33.4912 30.7163C33.4944 30.7163 33.4975 30.7163 33.5014 30.718C33.5053 30.718 33.5104 30.718 33.5133 30.718C33.5162 30.718 33.5179 30.7206 33.5194 30.7206C33.551 30.726 33.5799 30.7386 33.6022 30.7481C33.6835 30.7799 34.0427 30.8836 34.2298 31.7455C34.2377 31.7802 34.2457 31.8179 34.255 31.8555C34.2565 31.8681 34.2594 31.8822 34.2628 31.8948C34.2717 31.9295 34.2795 31.9641 34.2878 32.002L34.2897 32.0083C34.4449 32.686 34.7261 33.8584 35.1388 36.2543Z" fill="black"/>
<path d="M28.51 37.7226H28.6847V38.1685H28.7903V37.7226H28.9646V37.633H28.51V37.7226Z" fill="black"/>
<path d="M29.3435 38.0158L29.2087 37.633H29.0567V38.1685H29.1545V37.7375L29.3034 38.1685H29.3893L29.5358 37.7375V38.1685H29.6334V37.633H29.4814L29.3435 38.0158Z" fill="black"/>
</svg>
