<svg width="50" height="51" viewBox="0 0 50 51" fill="none" xmlns="http://www.w3.org/2000/svg">
<path d="M-2.33025 40.1012V46.2024C-2.33025 48.6797 -0.641517 50.2587 1.81798 50.2587C4.40503 50.2587 5.98855 48.5936 5.98855 46.0353V40.1012H3.79881V45.9238C3.79881 47.3187 3.09634 48.1838 1.84128 48.1838C0.465814 48.1838 -0.140503 47.189 -0.140503 46.0353V40.1012H-2.33025Z" fill="black"/>
<path d="M7.05313 40.1855V50.1591H10.5408C12.4724 50.1591 14.1137 49.1739 14.1137 47.2199C14.1137 45.1803 12.329 44.7283 12.329 44.7283C12.329 44.7283 13.6506 44.3612 13.6506 42.6162C13.6506 40.8724 11.9801 40.1855 10.5408 40.1855H7.05313ZM9.25924 42.0799H10.3179C11.0526 42.0799 11.5228 42.4669 11.5228 43.1403C11.5228 43.7427 11.124 44.1972 10.3736 44.1972H9.25924V42.0799ZM9.25924 45.7573H10.4293C11.5296 45.7573 11.9111 46.3225 11.9111 46.9971C11.9111 47.7819 11.4176 48.242 10.5408 48.242H9.25924V45.7573Z" fill="black"/>
<path d="M14.9426 40.1849H17.1434V50.1586H14.9426V40.1849Z" fill="black"/>
<path d="M38.9573 50.1586H36.7564V40.1849H43.6655V42.2465H38.9573V44.531H43.2476V46.2025H38.9573V50.1586Z" fill="black"/>
<path d="M44.4734 40.1849V42.2465H47.3151V50.1586H49.5438V42.2465H52.3298V40.1849H44.4734Z" fill="black"/>
<path d="M19.6559 46.8418L17.9075 48.1201C17.9075 48.1201 18.5117 50.3298 21.5405 50.3298C23.5575 50.3298 25.0417 49.1527 25.0417 47.0834C25.0417 43.7485 20.3786 44.456 20.3786 42.741C20.3786 42.2896 20.78 41.891 21.5207 41.891C22.7093 41.891 23.161 43.0569 23.161 43.0569L24.9099 41.8294C24.9099 41.8294 24.2268 40.0086 21.6086 40.0086C19.4569 40.0086 18.3139 41.389 18.3139 42.8135C18.3139 46.212 22.8412 45.4743 22.8412 47.2578C22.8412 47.8597 22.3669 48.302 21.6282 48.2969C20.1647 48.2969 19.6559 46.8418 19.6559 46.8418V46.8418Z" fill="black"/>
<path d="M30.7248 40.0041C28.133 40.0041 26.9778 41.411 26.9778 41.411L27.3121 41.7453C27.3121 41.7453 25.6353 42.9363 25.6353 45.4941C25.6353 48.4372 27.9051 50.3277 30.737 50.3277C34.0275 50.3277 35.8945 47.8998 35.8945 45.1703C35.8945 42.2596 33.7629 40.0041 30.7248 40.0041ZM30.7718 42.0744C32.5292 42.0744 33.6692 43.4175 33.6692 45.1615C33.6692 46.8874 32.5428 48.2679 30.7718 48.2679C29.0222 48.2679 27.8727 47.0461 27.8727 45.4245C27.8727 43.9486 28.8722 43.3054 28.8722 43.3054L28.51 42.9432C28.51 42.9432 29.2806 42.0744 30.7718 42.0744Z" fill="black"/>
<path d="M23.9894 0.3302C12.6859 0.3302 7.80676 10.3916 7.80676 10.3916L9.24297 11.4197C9.24297 11.4197 7.43566 14.8567 7.48567 19.2651C7.48567 28.2643 14.6493 36.7416 25.1947 36.7416C34.7749 36.7416 42.6886 28.944 42.6886 19.2872C42.6886 6.69256 32.9219 0.3302 23.9894 0.3302ZM24.0875 3.40032C32.919 3.40032 39.7719 10.517 39.7719 18.7906C39.7719 27.561 33.1756 33.6604 25.4889 33.6604C19.8317 33.6604 14.7284 29.3523 14.7284 23.4456C14.7284 20.034 16.5417 17.6555 18.5736 16.3879L18.871 16.7106C18.3149 17.1457 16.7293 19.6927 16.7293 22.196C16.7293 26.8434 20.3737 30.062 24.9654 30.062C30.8143 30.062 34.7151 25.0733 34.7151 19.2809C34.7151 12.5415 28.7663 6.82003 21.6074 6.82003C17.6477 6.82003 14.2869 8.52293 12.3558 10.0262L12.0553 9.75416C14.5817 5.85874 18.9569 3.40032 24.0875 3.40032V3.40032ZM21.4523 9.84746C26.0208 9.84746 30.4811 12.8698 31.5944 17.1598L31.1895 17.3132C29.1905 14.6735 25.915 12.4858 22.0471 12.4858C14.9296 12.4858 11.1918 18.9534 11.7405 24.3551L11.3214 24.5085C11.3214 24.5085 10.5352 22.774 10.5352 20.7171C10.5352 14.7608 15.4267 9.84746 21.4523 9.84746V9.84746ZM24.4719 17.3227C26.6348 17.3227 28.3645 19.0758 28.3645 21.1568C28.3645 22.879 27.2589 23.8996 27.2589 23.8996L28.5685 24.8154C28.5685 24.8154 27.2698 26.8542 24.619 26.8542C22.0832 26.8542 19.8406 24.8075 19.8406 22.0553C19.8406 19.2193 22.28 17.3227 24.4719 17.3227V17.3227Z" fill="black"/>
</svg>
