<svg width="51" height="52" viewBox="0 0 51 52" fill="none" xmlns="http://www.w3.org/2000/svg">
<g clip-path="url(#clip0)">
<path fill-rule="evenodd" clip-rule="evenodd" d="M26.0054 1.43854C22.6693 1.43854 19.4686 2.08296 16.4131 3.37182C13.4714 4.61877 10.8632 6.3751 8.58714 8.6512C6.32144 10.9273 4.55472 13.5358 3.31815 16.4771C2.01891 19.5327 1.37483 22.723 1.37483 26.0698C1.37483 29.4058 2.01891 32.6068 3.31815 35.6517C4.55472 38.603 6.32144 41.2119 8.58714 43.4876C10.8632 45.7634 13.4714 47.5204 16.4131 48.767C19.4683 50.0562 22.669 50.7107 26.0054 50.7107C29.3518 50.7107 32.5424 50.0559 35.598 48.767C38.5393 47.5204 41.1475 45.7634 43.4239 43.4876C45.6893 41.2119 47.4563 38.6034 48.6929 35.6517C49.9921 32.6068 50.6362 29.4058 50.6362 26.0698C50.6362 22.723 49.9921 19.5327 48.6929 16.4771C47.4563 13.5358 45.6893 10.9273 43.4239 8.6512C41.1478 6.3751 38.5396 4.61877 35.598 3.37182C32.5424 2.08296 29.3518 1.43854 26.0054 1.43854Z" fill="white"/>
<path fill-rule="evenodd" clip-rule="evenodd" d="M37.0436 9.50402C37.293 9.47285 37.4384 9.36862 37.5007 9.22353C37.5734 9.04658 37.5319 8.86998 37.3861 8.69338C36.2226 6.71854 33.593 5.5031 29.4774 5.0661C27.7623 4.8791 25.9232 4.96256 23.9487 5.31542C21.8596 5.67936 20.0513 6.26111 18.5236 7.08248C14.72 9.12969 12.5374 11.8421 11.9657 15.2301C11.8823 15.5417 11.903 15.7606 12.0069 15.8953C12.1215 16.0304 12.3089 16.0511 12.5682 15.9677C17.6506 14.2633 21.5895 13.0371 24.3746 12.2888C28.771 11.1357 32.9904 10.2004 37.0436 9.50402Z" fill="#FEBE10"/>
<path fill-rule="evenodd" clip-rule="evenodd" d="M33.1878 3.72587C30.8806 2.97756 28.5421 2.61362 26.1933 2.61362C22.7742 2.61362 19.5524 3.26878 16.5491 4.5881C13.712 5.82502 11.2281 7.57096 9.07671 9.81589C7.00838 11.9881 5.39749 14.472 4.26481 17.2675C3.12174 20.063 2.56007 22.9312 2.56007 25.8833C2.56007 29.0635 3.15256 32.0983 4.34792 35.0077C5.51176 37.8448 7.14343 40.3494 9.27409 42.5324C11.4048 44.7351 13.8782 46.4395 16.6737 47.6456C19.5939 48.9136 22.6703 49.5373 25.9132 49.5373C31.5561 49.5373 36.4823 47.8322 40.6917 44.4027C42.3438 43.0622 43.7989 41.5033 45.0669 39.7476C46.1376 38.261 46.9794 36.754 47.5927 35.2474L43.6534 33.106C41.9909 36.8475 39.6837 39.8089 36.7323 41.9815C33.6037 44.2783 30.0599 45.4529 26.1209 45.5152C23.2004 45.5565 20.4465 45.0994 17.8691 44.1329C15.3541 43.1976 13.1407 41.836 11.2281 40.0385L8.95205 41.015V37.4919C7.68397 35.7876 6.72824 33.917 6.06269 31.8486C5.37671 29.7183 5.0339 27.4626 5.0339 25.0934C5.0339 22.0482 5.59522 19.1696 6.71751 16.4468C7.80898 13.7967 9.36759 11.4687 11.3944 9.46303C13.4416 7.42587 15.8219 5.86726 18.5443 4.7654C21.3714 3.63272 24.4058 3.06101 27.638 3.06101C29.3739 3.06066 31.2341 3.28921 33.1878 3.72587Z" fill="#0061A9"/>
<path fill-rule="evenodd" clip-rule="evenodd" d="M44.9107 19.8342C44.7553 19.5017 44.5052 19.2732 44.1524 19.1274C43.6015 18.9196 42.9986 18.7842 42.3126 18.7427C41.637 18.7011 40.9614 18.7427 40.2754 18.8881C38.9665 19.1478 37.8439 19.7092 36.9186 20.5717C35.5782 21.819 34.9026 23.513 34.9026 25.6745C34.9026 27.4831 35.4951 28.8236 36.68 29.6966C37.688 30.4345 38.9246 30.7254 40.38 30.5588C42.0217 30.3721 43.3005 29.8209 44.2251 28.9067C44.7553 28.3873 45.015 27.6701 45.0254 26.7556C45.0465 26.1323 45.0465 24.8123 45.0254 22.8167L40.1096 23.8874V25.0304C40.12 25.8622 40.5047 26.2047 41.2842 26.0488L41.9082 25.893L41.9185 26.8287C41.9286 26.9118 41.8971 27.0053 41.8039 27.1095C41.6266 27.3377 41.2731 27.4935 40.7537 27.5974C39.9638 27.7117 39.3713 27.5559 38.9665 27.0988C38.5818 26.6725 38.3841 25.9969 38.3737 25.0931C38.3948 24.189 38.6337 23.4407 39.1012 22.8586C39.5275 22.3284 40.0784 21.9752 40.7748 21.8194C41.3877 21.6739 41.9698 21.6324 42.5207 21.7051L43.5391 21.9025C43.9339 21.9652 44.2559 21.8717 44.5368 21.6532C44.7757 21.4454 44.9419 21.1646 45.015 20.8221C45.0877 20.4682 45.0461 20.1458 44.9107 19.8342Z" fill="#FF3B3B"/>
<path fill-rule="evenodd" clip-rule="evenodd" d="M31.6181 21.6326C31.3276 22.017 31.1818 22.5368 31.1818 23.2228L31.1714 26.6939C29.8621 25.0518 28.7706 23.7941 27.9188 22.9315C27.4506 22.4744 26.8478 22.3809 26.0894 22.651L24.4058 23.1601V34.748L26.0375 34.1867C26.64 33.9789 27.0663 33.6773 27.326 33.3033C27.5753 32.9293 27.6899 32.4307 27.6899 31.7963L27.6688 27.795L31.1711 31.8375C31.6912 32.3677 32.3353 32.5238 33.1144 32.2953C33.4679 32.1911 33.7585 31.9937 33.9874 31.6928C34.237 31.3804 34.3617 31.0172 34.3714 30.6013V20.5623C33.7688 20.6866 33.2183 20.822 32.7089 20.9674C32.2321 21.1028 31.8678 21.321 31.6181 21.6326Z" fill="#FF3B3B"/>
<path fill-rule="evenodd" clip-rule="evenodd" d="M21.4233 24.0436C20.8308 24.2618 20.3945 24.563 20.1244 24.9266C19.8124 25.3633 19.667 25.9765 19.667 26.7872L19.6569 36.411L21.5483 35.7354C22.2031 35.4857 22.6602 35.1848 22.9303 34.8001C23.2004 34.4261 23.3358 33.896 23.3358 33.22L23.3462 23.42C22.6287 23.6281 21.995 23.8358 21.4233 24.0436Z" fill="#FF3B3B"/>
<path fill-rule="evenodd" clip-rule="evenodd" d="M12.9533 27.2963L9.451 28.7514L9.43022 40.2981L11.9037 39.2585C12.2361 39.1754 12.4962 38.9677 12.6828 38.666C12.8702 38.3752 12.9533 38.0012 12.9429 37.5337V33.8645L15.7076 36.8058C16.0504 37.1486 16.4555 37.3564 16.923 37.4084C17.4636 37.4814 17.9622 37.3252 18.4196 36.9613C18.8352 36.6185 19.0533 36.1822 19.0741 35.652C19.0845 35.1638 18.9598 34.7687 18.6794 34.457L16.1539 31.9316L18.7417 27.8472C18.9806 27.4525 19.0433 27.047 18.9287 26.6418C18.804 26.2156 18.5235 25.9039 18.0973 25.7169C17.6502 25.5091 17.2035 25.488 16.788 25.6442C16.424 25.7792 16.1439 25.9974 15.9462 26.3091L12.9633 31.3807L12.9533 27.2963Z" fill="#FF3B3B"/>
<path fill-rule="evenodd" clip-rule="evenodd" d="M41.5328 31.4848C41.4085 31.3494 41.1903 31.3186 40.889 31.4017C37.4179 32.2127 33.4371 33.3246 28.9372 34.7374C24.1045 36.2548 20.1864 37.6583 17.1935 38.9468L16.8919 39.0923C16.8195 39.1442 16.7568 39.2065 16.7256 39.3C16.6321 39.4974 16.6841 39.6958 16.8818 39.9033C17.2246 40.3184 17.7963 40.7243 18.607 41.1187C19.4799 41.5346 20.4776 41.8781 21.6206 42.1378C24.4058 42.7507 27.2013 42.7195 30.0075 42.044C33.988 41.0882 37.0744 39.2799 39.2678 36.6191C39.9953 35.725 40.5878 34.7793 41.0445 33.7921C41.3257 33.1896 41.5227 32.649 41.637 32.1708C41.6993 31.8488 41.6685 31.6202 41.5328 31.4848Z" fill="#FEBE10"/>
<path fill-rule="evenodd" clip-rule="evenodd" d="M12.34 18.8058C11.7891 18.5149 11.0823 18.5149 10.2197 18.837C9.78308 18.9928 8.92084 19.3356 7.6216 19.8658L7.63199 28.2838L10.7291 26.9638C11.5813 26.6103 12.2153 26.2155 12.6309 25.7892C13.1506 25.2487 13.4 24.615 13.3892 23.8667C13.3792 23.4508 13.2441 23.0976 12.9633 22.8067C12.7036 22.5259 12.3812 22.3493 11.9965 22.2873C12.7344 21.6948 13.098 20.9985 13.098 20.1878C13.0984 19.5437 12.8386 19.0863 12.34 18.8058ZM10.1574 22.1315L9.7623 22.2977V20.5209C10.1055 20.3336 10.3963 20.292 10.6252 20.3648C10.8434 20.4479 10.9577 20.6352 10.9473 20.9469C10.9473 21.4767 10.6772 21.8718 10.1574 22.1315ZM10.771 23.4719C11.0099 23.5966 11.1346 23.8147 11.1346 24.1475C11.1554 24.7296 10.8538 25.1559 10.2616 25.426L9.78342 25.6441V23.5966C10.1886 23.3892 10.5213 23.3473 10.771 23.4719Z" fill="#FF3B3B"/>
<path fill-rule="evenodd" clip-rule="evenodd" d="M19.2823 16.7582C19.2823 16.4157 19.1787 16.1868 18.9602 16.0621C18.7732 15.9479 18.5132 15.9375 18.2119 16.031C17.8895 16.1245 17.5467 16.2387 17.1727 16.3845V21.612C17.1519 22.3914 16.913 22.8281 16.4351 22.9528C16.1962 23.0047 16.0092 22.9631 15.8842 22.8281C15.7699 22.7031 15.708 22.4957 15.708 22.2256L15.6969 17.9431C15.6969 17.6003 15.5926 17.3614 15.3849 17.2364C15.1875 17.1121 14.9382 17.1121 14.6265 17.2052L13.5662 17.5896V22.7758C13.5562 23.6488 13.8259 24.2825 14.3769 24.6568C14.9385 25.0519 15.6758 25.1142 16.5802 24.8441C17.4632 24.5837 18.1077 24.1893 18.5236 23.6903C19.0225 23.0871 19.2719 22.2457 19.2819 21.1542V16.7582H19.2823Z" fill="#FF3B3B"/>
<path fill-rule="evenodd" clip-rule="evenodd" d="M34.7779 14.5446V13.3703L36.5754 12.996C37.0017 12.9129 37.2199 12.6116 37.2199 12.1126V11.2185C35.7336 11.4682 34.2162 11.7799 32.6784 12.1331L32.6472 19.8135C34.3305 19.4087 35.6194 19.1175 36.5443 18.9198C37.0433 18.8052 37.303 18.4727 37.303 17.9222V17.0281L34.7776 17.579L34.7879 16.0928L36.3677 15.7607C36.804 15.6565 37.0225 15.3864 37.0225 14.9289L37.0124 14.0767L34.7779 14.5446Z" fill="#FF3B3B"/>
<path fill-rule="evenodd" clip-rule="evenodd" d="M19.8647 23.4201L21.122 22.9942C21.6937 22.7653 21.9742 22.3913 21.9846 21.8507L21.995 19.7928L23.8033 21.6741C24.0737 21.9339 24.375 22.0485 24.7282 22.0277C25.009 21.9962 25.2376 21.9027 25.4246 21.7257C25.6535 21.518 25.7677 21.2479 25.7677 20.9255C25.7573 20.6135 25.6535 20.3541 25.4453 20.146L24.0741 18.8364C24.9574 18.1092 25.3937 17.267 25.4041 16.3317C25.4041 15.6769 25.1548 15.1887 24.6454 14.8767C24.126 14.5546 23.4608 14.4819 22.6606 14.6689C21.9746 14.8247 21.0393 15.116 19.865 15.5211V23.4201H19.8647ZM21.9843 18.6082V16.4155C22.7949 16.1139 23.2108 16.2905 23.2212 16.9454C23.2316 17.631 22.8157 18.1819 21.9843 18.6082Z" fill="#FF3B3B"/>
<path fill-rule="evenodd" clip-rule="evenodd" d="M42.4684 11.0737C41.9698 10.689 41.3254 10.5439 40.5563 10.6478L37.7711 11.1153V18.6815L38.9246 18.463C39.5167 18.3276 39.8184 17.9747 39.8287 17.3822V15.5324L41.6062 17.6212C41.7828 17.8186 42.001 17.9328 42.2399 17.9747C42.5207 18.0263 42.7908 17.9747 43.0502 17.8085C43.3314 17.6316 43.4872 17.3826 43.5184 17.0706C43.5495 16.7586 43.4664 16.4885 43.2586 16.2703L41.8867 14.7325C42.7389 14.1608 43.1755 13.4437 43.1755 12.5811C43.1852 11.936 42.9466 11.4477 42.4684 11.0737ZM39.8287 14.3578L39.8184 12.3103C40.619 12.1444 41.0345 12.3418 41.0445 12.9132C41.0445 13.5676 40.6394 14.0458 39.8287 14.3578Z" fill="#FF3B3B"/>
<path fill-rule="evenodd" clip-rule="evenodd" d="M32.1174 13.7756C32.1278 13.4117 31.972 13.1316 31.6496 12.9338C31.2961 12.7361 30.7974 12.653 30.1322 12.6637C28.7187 12.7153 27.6068 13.2039 26.7962 14.1392C26.0479 15.0018 25.6739 16.0933 25.6739 17.4233C25.6739 18.681 26.0479 19.6163 26.7854 20.2296C27.4714 20.801 28.3655 20.9883 29.4355 20.7906C30.35 20.6136 31.0675 20.2919 31.5869 19.8241C31.9713 19.4917 32.1587 19.0446 32.1587 18.4937V15.5108L29.0092 16.2176V17.0906C29.0092 17.2987 29.082 17.4545 29.217 17.5688C29.3524 17.6831 29.5186 17.7246 29.716 17.6831L30.1731 17.5792L30.1835 18.4418C30.1835 18.6187 30.0792 18.7538 29.8611 18.8576C29.653 18.9619 29.404 19.0135 29.1332 19.0031C28.3541 18.9927 27.9694 18.421 27.9486 17.2883C27.959 16.5819 28.1252 16.0098 28.4268 15.5527C28.7284 15.1268 29.1124 14.8564 29.6014 14.7213C29.9127 14.6486 30.3185 14.6386 30.8276 14.7005C31.223 14.7733 31.5347 14.7109 31.7629 14.5447C31.9928 14.3785 32.1067 14.1184 32.1174 13.7756Z" fill="#FF3B3B"/>
<path fill-rule="evenodd" clip-rule="evenodd" d="M14.5327 14.1289C14.6365 14.0558 14.6888 13.9315 14.7093 13.7753C15.0628 12.4345 15.738 11.1145 16.7357 9.8364C17.671 8.64104 18.6897 7.70574 19.8016 7.03015C18.2115 7.72652 16.8084 8.83877 15.5822 10.3666C15.0836 11.0006 14.6784 11.6239 14.3661 12.2475C14.0752 12.84 13.909 13.3286 13.8674 13.7338C13.8674 13.8792 13.8986 13.9935 13.9713 14.0873C14.0437 14.1704 14.1375 14.2116 14.2518 14.222C14.356 14.2328 14.4495 14.2016 14.5327 14.1289Z" fill="white"/>
<path fill-rule="evenodd" clip-rule="evenodd" d="M34.1754 8.27765C34.1854 7.93483 33.9569 7.58128 33.5098 7.21768C33.0839 6.87487 32.4914 6.56287 31.7538 6.272C30.9844 5.99151 30.1738 5.79413 29.3011 5.65873C28.3658 5.52403 27.451 5.48213 26.5676 5.5552C28.3136 5.67951 29.769 6.02267 30.9328 6.61516C31.4422 6.86448 31.8366 7.13458 32.1174 7.42545C32.3872 7.70594 32.5333 7.97638 32.5333 8.2257C32.5434 8.5377 32.419 8.82858 32.1694 9.0779C31.9405 9.33761 31.6288 9.52495 31.2652 9.63922L32.4914 9.348C32.9073 9.2545 33.2086 9.1714 33.4063 9.08829C33.9157 8.91169 34.165 8.64159 34.1754 8.27765Z" fill="white"/>
<path fill-rule="evenodd" clip-rule="evenodd" d="M39.4028 34.1348C39.507 33.917 39.5167 33.7196 39.4447 33.553C39.3928 33.3976 39.2785 33.2933 39.1116 33.2414C38.9454 33.1894 38.7892 33.2102 38.6337 33.2933C38.4464 33.3976 38.3221 33.5735 38.2386 33.8228C37.75 35.0909 37.0637 36.2547 36.181 37.3254C35.1415 38.6035 33.8838 39.6535 32.419 40.4845C33.9049 39.9028 35.2353 39.1029 36.3992 38.0841C37.6984 36.9518 38.696 35.6425 39.4028 34.1348Z" fill="white"/>
<path fill-rule="evenodd" clip-rule="evenodd" d="M47.0091 33.1892H46.2304V33.3141H46.5317V33.9164H46.7293V33.3141H47.0091V33.1892Z" fill="#FF3B3B"/>
<path fill-rule="evenodd" clip-rule="evenodd" d="M47.3113 33.3244L47.4877 33.9164H47.6853L47.8617 33.3244V33.9164H48.0593V33.1892H47.7683L47.5919 33.75L47.4047 33.1892H47.1141V33.9164H47.3113V33.3244Z" fill="#FF3B3B"/>
</g>
<defs>
<clipPath id="clip0">
<rect width="50.2251" height="51.0492" fill="white" transform="translate(0.412079 0.587921)"/>
</clipPath>
</defs>
</svg>
