<svg width="104" height="39" viewBox="0 0 104 39" fill="none" xmlns="http://www.w3.org/2000/svg">
<g clip-path="url(#clip0)">
<path d="M2.83252 31.8582H3.63079V34.2531H6.69099V31.8582H7.46274V37.4463H6.69099V34.8918H3.63079V37.4463H2.83252V31.8582Z" fill="black"/>
<path d="M19.8364 35.424C19.8364 36.8343 18.9848 37.5794 17.5212 37.5794C16.031 37.5794 15.1263 36.9141 15.1263 35.424V31.8582H15.9246V35.424C15.9246 36.4085 16.51 36.9674 17.5212 36.9674C18.5058 36.9674 19.0646 36.4085 19.0646 35.424V31.8582H19.8364V35.424Z" fill="black"/>
<path d="M29.496 37.6056C27.7397 37.712 26.6753 36.2218 26.6753 34.7583C26.6753 33.1351 27.6066 31.7247 29.4693 31.7247C30.7467 31.7247 31.7578 32.2569 31.9707 33.5874H31.1991C31.0394 32.7359 30.3208 32.3367 29.4693 32.3367C28.0324 32.3367 27.447 33.5342 27.447 34.7317C27.447 35.9025 28.1921 37.0202 29.6024 36.9935C30.3208 36.9669 30.9063 36.8339 31.1991 36.3549C31.4119 36.0622 31.3587 35.53 31.332 35.1308H29.4693V34.4922H32.0239C32.0239 34.4922 32.0239 35.9557 32.0239 36.5944C31.3587 37.4193 30.5604 37.5524 29.496 37.6056Z" fill="black"/>
<path d="M41.577 36.9669C42.9873 36.9669 43.5994 35.7695 43.5994 34.6518C43.5994 33.5342 42.9873 32.3367 41.577 32.3367C40.1401 32.3367 39.5546 33.5342 39.5546 34.6518C39.5546 35.7695 40.1401 36.9669 41.577 36.9669ZM41.577 31.7247C43.4397 31.7247 44.3711 33.135 44.3711 34.6518C44.3711 36.1686 43.4397 37.579 41.577 37.579C39.7142 37.579 38.7829 36.1686 38.7829 34.6518C38.7829 33.135 39.7142 31.7247 41.577 31.7247Z" fill="black"/>
<path d="M60.0447 34.2531H61.5881C62.4663 34.2531 62.8388 33.9604 62.8388 33.375C62.8388 32.6033 62.28 32.4702 61.5881 32.4702H60.0447V34.2531ZM60.0447 36.8343H61.9872C62.6525 36.8343 63.0783 36.4351 63.0783 35.8231C63.0783 35.1046 62.4663 34.8918 61.801 34.8918H60.0447V36.8343ZM59.273 31.8582H61.3753C61.9075 31.8582 62.5727 31.8582 62.9187 32.0445C63.3178 32.2839 63.6105 32.6831 63.6105 33.2153C63.6105 33.8273 63.2912 34.2797 62.759 34.4926C63.4774 34.6257 63.8766 35.1579 63.8766 35.8497C63.8766 36.6746 63.238 37.4463 62.0937 37.4463H59.273V31.8582Z" fill="black"/>
<path d="M73.6425 36.9669C75.0795 36.9669 75.6649 35.7695 75.6649 34.6518C75.6649 33.5342 75.0795 32.3367 73.6425 32.3367C72.2322 32.3367 71.6201 33.5342 71.6201 34.6518C71.6201 35.7695 72.2322 36.9669 73.6425 36.9669ZM73.6425 31.7247C75.5052 31.7247 76.4632 33.135 76.4632 34.6518C76.4632 36.1686 75.5052 37.579 73.6425 37.579C71.7798 37.579 70.8485 36.1686 70.8485 34.6518C70.8485 33.135 71.7798 31.7247 73.6425 31.7247Z" fill="black"/>
<path d="M87.1872 33.5076C87.1073 32.6827 86.5485 32.3367 85.7502 32.3367C85.085 32.3367 84.4463 32.5762 84.4463 33.2947C84.4463 33.9866 85.3776 34.093 86.309 34.3059C87.2404 34.4922 88.1718 34.8115 88.1718 35.9291C88.1718 37.1 86.9477 37.579 85.8832 37.579C84.5794 37.579 83.4883 36.9669 83.4883 35.6098H84.2068C84.2068 36.5412 85.0317 36.9669 85.9098 36.9669C86.6284 36.9669 87.4 36.7541 87.4 35.9291C87.4 35.1574 86.4687 35.051 85.5373 34.8381C84.606 34.6518 83.648 34.3857 83.648 33.3479C83.648 32.2303 84.7124 31.7247 85.7768 31.7247C86.9743 31.7247 87.879 32.2569 87.9322 33.5076H87.1872Z" fill="black"/>
<path d="M99.8004 33.5076C99.6939 32.6827 99.1352 32.3367 98.3368 32.3367C97.6981 32.3367 97.0329 32.5762 97.0329 33.2947C97.0329 33.9866 97.9643 34.093 98.9223 34.3059C99.8536 34.4922 100.785 34.8115 100.785 35.9291C100.785 37.1 99.5609 37.579 98.4965 37.579C97.1925 37.579 96.075 36.9669 96.075 35.6098H96.82C96.82 36.5412 97.645 36.9669 98.5231 36.9669C99.2149 36.9669 100.013 36.7541 100.013 35.9291C100.013 35.1574 99.0553 35.051 98.124 34.8381C97.1925 34.6518 96.2612 34.3857 96.2612 33.3479C96.2612 32.2303 97.299 31.7247 98.39 31.7247C99.5609 31.7247 100.492 32.2569 100.519 33.5076H99.8004Z" fill="black"/>
<path d="M9.69794 2.32V12.3787H13.3436C13.3436 12.3787 13.6629 12.3521 13.8492 12.2989C15.9779 12.1126 17.3351 9.558 17.4681 7.69527C17.681 5.69951 16.4569 2.39983 13.3968 2.32C12.492 2.29338 9.69794 2.32 9.69794 2.32ZM9.69794 13.5495V25.604H12.9976C12.9976 25.604 14.8604 25.7371 16.5368 24.3799C18.1866 23.0494 19.0381 21.0803 18.8519 18.8184C18.7188 16.796 17.1754 13.9221 13.7161 13.5495C11.88 13.5495 9.69794 13.5495 9.69794 13.5495ZM17.4681 1.14914C20.209 1.3088 21.9919 2.77237 22.1516 2.95864C23.5619 4.26255 23.9877 6.23171 23.6417 8.12104C23.1894 11.2877 19.2511 12.6182 19.2511 12.6182C22.5507 13.0173 25.0255 15.4921 25.398 18.1531C25.7174 20.7609 24.7594 23.076 22.6039 24.6993C20.4219 26.3225 17.2287 26.8547 15.499 26.8547C15.499 26.8547 2.14059 26.8547 1.39554 26.8547C1.39554 26.4289 1.39554 26.1096 1.39554 25.7371C3.20501 25.7637 3.41793 25.7637 3.41793 25.0452C3.39132 22.3309 3.41793 3.3844 3.41793 2.87881C3.41793 2.29338 3.12517 2.26678 1.39554 2.26678C1.36893 1.8144 1.42216 1.14914 1.42216 1.14914H17.4681Z" fill="black"/>
<path d="M39.2354 2.53326C37.4792 3.70412 36.2551 6.39177 35.6697 8.62703C34.7383 12.0065 34.9246 15.9981 35.8559 20.0961C36.8139 24.194 39.4484 25.631 41.0184 25.9769C43.9455 26.6422 45.8614 24.9391 46.8992 23.3691C48.9216 20.3089 49.4272 14.0023 48.7886 10.3833C48.2031 7.03041 47.2984 4.6887 45.5421 3.1187C43.573 1.38903 40.7522 1.52208 39.2354 2.53326ZM55.0154 18.4462C53.7913 22.0918 51.3432 24.3803 48.5225 25.8705C44.8236 27.8663 39.5282 28.1856 35.8293 25.9769C33.5409 24.6198 27.7132 21.0008 28.4849 12.4589C28.6446 10.6228 29.5759 6.01922 34.7118 2.55988C38.2242 0.271393 43.2802 -0.393864 47.9903 1.78818C55.3347 5.14108 56.8781 13.4169 55.0154 18.4462Z" fill="black"/>
<path d="M76.5962 2.34729C76.6229 4.26324 76.5962 8.22817 76.5962 8.22817L75.6649 8.25478C75.1061 5.78002 73.9086 3.6512 71.8596 2.66662C69.8905 1.70864 66.9101 1.22966 64.9675 2.93272C63.8233 3.94391 63.6636 4.98171 64.0628 6.15256C64.7547 7.88224 66.6706 8.41445 68.1608 9.0797C69.3849 9.55869 71.9926 10.4102 71.9926 10.4102C74.8931 11.4214 78.113 13.3906 78.9912 16.6636C79.3903 18.074 79.3903 19.6706 79.071 21.1076C78.3525 24.3008 76.3036 25.0725 75.1327 25.8708C74.5472 26.2699 69.0655 28.3722 62.4662 26.2167C61.109 25.7644 59.539 25.2321 59.539 25.2321V18.074C59.539 18.074 60.2575 18.1006 60.5502 18.1006C61.0026 19.2448 61.4018 20.6286 62.3598 22.0123C64.595 25.2588 67.7616 26.2433 71.2476 25.4983C72.6313 25.1789 74.1481 24.221 74.5472 22.784C75.0528 21.1608 74.8932 18.4731 69.9969 16.6636C66.4577 15.0404 62.0138 14.3752 59.9116 10.4368C59.0866 8.22817 59.3262 4.39628 62.0404 2.53356C64.7813 0.67084 67.4423 0.245079 70.6621 0.670841C73.8554 1.12322 74.7069 1.54898 76.5962 2.34729Z" fill="black"/>
<path d="M99.9068 2.34729C99.9334 4.26324 99.9068 8.22817 99.9068 8.22817L98.9754 8.25478C98.4166 5.78002 97.2191 3.6512 95.1702 2.66662C93.2009 1.70864 90.2207 1.22966 88.278 2.93272C87.1338 3.94391 86.9742 4.98171 87.3733 6.15256C88.0652 7.88224 89.9811 8.41445 91.4713 9.0797C92.6954 9.55869 95.3032 10.4102 95.3032 10.4102C98.2037 11.4214 101.424 13.3906 102.302 16.6636C102.701 18.074 102.701 19.6706 102.382 21.1076C101.663 24.3008 99.6141 25.0725 98.4432 25.8708C97.8578 26.2699 92.376 28.3722 85.7767 26.2167C84.4195 25.7644 82.8495 25.2321 82.8495 25.2321V18.074C82.8495 18.074 83.568 18.1006 83.8607 18.1006C84.3131 19.2448 84.7123 20.6286 85.6703 22.0123C87.9055 25.2588 91.0722 26.2433 94.5581 25.4983C95.9418 25.1789 97.4586 24.221 97.8578 22.784C98.3634 21.1608 98.2037 18.4731 93.3074 16.6636C89.7682 15.0404 85.3243 14.3752 83.2221 10.4368C82.3972 8.22817 82.6367 4.39628 85.3775 2.53356C88.0918 0.67084 90.7528 0.245079 93.9461 0.670841C97.1659 1.12322 98.0174 1.54898 99.9068 2.34729Z" fill="black"/>
</g>
<defs>
<clipPath id="clip0">
<rect width="102.066" height="38" fill="white" transform="translate(0.966919 0.0330811)"/>
</clipPath>
</defs>
</svg>
