<svg width="102" height="38" viewBox="0 0 102 38" fill="none" xmlns="http://www.w3.org/2000/svg">
<path d="M39.1122 8.22436C49.505 8.93837 56.4336 5.71209 62.4101 0C57.9409 7.93346 48.3679 10.7631 39.1122 8.22436Z" fill="#20255F"/>
<path d="M16.3169 25.8101C12.6675 25.8101 10.1552 19.7278 7.74873 17.718V25.8101H5.60669V14.7032H6.47938C9.52054 14.7032 12.403 21.1029 15.0211 23.1392V14.7032H17.1631V25.7837H16.3169V25.8101Z" fill="#20255F"/>
<path d="M27.4498 26.0218C23.8533 26.0218 21.6055 23.5889 21.6055 20.2568C21.6055 16.8719 23.8268 14.4918 27.4498 14.4918C31.0727 14.4918 33.2941 16.8719 33.2941 20.2568C33.2677 23.5889 31.0727 26.0218 27.4498 26.0218ZM27.4498 16.5016C25.1226 16.5016 23.8797 18.0354 23.8797 20.2568C23.8797 22.4782 25.0962 23.9855 27.4498 23.9855C29.8034 23.9855 31.0198 22.4782 31.0198 20.2568C31.0198 18.0354 29.8034 16.5016 27.4498 16.5016Z" fill="#20255F"/>
<path d="M42.2593 25.8894H41.2279L35.8596 14.7032H38.319L41.7304 22.3723L45.1682 14.7032H47.654L42.2593 25.8894Z" fill="#20255F"/>
<path d="M56.0628 26.0218C52.4663 26.0218 50.2185 23.5889 50.2185 20.2568C50.2185 16.8719 52.4399 14.4918 56.0628 14.4918C59.6858 14.4918 61.9071 16.8719 61.9071 20.2568C61.8807 23.5889 59.6593 26.0218 56.0628 26.0218ZM56.0628 16.5016C53.7357 16.5016 52.4928 18.0354 52.4928 20.2568C52.4928 22.4782 53.7092 23.9855 56.0628 23.9855C58.4164 23.9855 59.6329 22.4782 59.6329 20.2568C59.6329 18.0354 58.4164 16.5016 56.0628 16.5016Z" fill="#20255F"/>
<path d="M70.4226 16.6338V25.8101H68.2805V16.6338H64.2874V14.7297H74.4157V16.6338H70.4226Z" fill="#20255F"/>
<path d="M82.6669 26.0217C79.5993 26.0217 78.0391 24.9639 78.0391 22.0285V14.7297H86.1047V16.7395H80.1811V19.1725H85.6552V21.1823H80.1811V22.1079C80.1811 23.6152 81.0009 24.0119 82.7462 24.0119C84.3065 24.0119 85.1792 23.9061 86.0783 23.7474V25.7308C85.1527 25.863 84.3594 26.0217 82.6669 26.0217Z" fill="#20255F"/>
<path d="M94.9897 26.0217C91.9486 26.0217 90.6792 24.8581 90.6792 21.9227V14.7297H92.8212V21.9756C92.8212 23.483 93.3766 23.9854 95.1219 23.9854C96.6293 23.9854 97.5813 23.8532 98.5069 23.7474V25.7044C97.6078 25.863 96.6822 26.0217 94.9897 26.0217Z" fill="#20255F"/>
<path d="M2.69737 36.2294V34.6427H0.502451V36.2294H0V32.6329H0.502451V34.1667H2.69737V32.6329H3.19983V36.2294H2.69737Z" fill="#20255F"/>
<path d="M7.24624 36.3088C6.08267 36.3088 5.36865 35.5419 5.36865 34.4577C5.36865 33.347 6.08267 32.5801 7.24624 32.5801C8.40981 32.5801 9.12383 33.347 9.12383 34.4577C9.12383 35.5155 8.40981 36.3088 7.24624 36.3088ZM7.24624 33.0561C6.4 33.0561 5.89755 33.6114 5.89755 34.4312C5.89755 35.251 6.37356 35.8064 7.24624 35.8064C8.09248 35.8064 8.59493 35.251 8.59493 34.4312C8.59493 33.6114 8.11892 33.0561 7.24624 33.0561Z" fill="#20255F"/>
<path d="M12.456 33.1089V36.2559H11.9271V33.1089H10.5784V32.6329H13.8046V33.0825H12.456V33.1089Z" fill="#20255F"/>
<path d="M17.2157 36.3088C16.2637 36.3088 15.7612 35.9914 15.7612 35.0659V32.6329H18.2999V33.1089H16.2901V34.1403H18.1677V34.6163H16.2901V35.0659C16.2901 35.6477 16.6339 35.8063 17.2686 35.8063C17.7446 35.8063 18.009 35.7799 18.2999 35.7005V36.1765C17.9826 36.2559 17.7446 36.3088 17.2157 36.3088Z" fill="#20255F"/>
<path d="M21.7907 36.3088C20.8387 36.3088 20.4685 35.965 20.4685 35.013V32.6329H20.971V35.013C20.971 35.6212 21.1825 35.8063 21.8172 35.8063C22.2932 35.8063 22.5577 35.7534 22.875 35.727V36.203C22.5841 36.2559 22.2932 36.3088 21.7907 36.3088Z" fill="#20255F"/>
<path d="M25.8364 36.3088C25.3868 36.3088 24.9108 36.2295 24.5935 36.1237V35.6741C24.9373 35.7799 25.334 35.8592 25.8364 35.8592C26.6298 35.8592 26.8413 35.5683 26.8413 35.2775C26.8413 34.3783 24.5935 34.9072 24.5935 33.585C24.5935 33.0561 24.9902 32.5801 25.9951 32.5801C26.4711 32.5801 26.8678 32.6594 27.1851 32.7387V33.1883C26.8413 33.109 26.4711 33.0561 25.9951 33.0561C25.334 33.0561 25.096 33.2941 25.096 33.5585C25.096 34.4048 27.3702 33.9023 27.3702 35.2246C27.3702 35.727 27.1058 36.3088 25.8364 36.3088Z" fill="#20255F"/>
<path d="M28.7982 37.2344C28.9569 36.9171 29.1684 36.4675 29.0891 35.8064H29.6445C29.7238 36.5204 29.4858 36.8906 29.2478 37.2344H28.7982Z" fill="#20255F"/>
<path d="M35.251 36.3088C34.8014 36.3088 34.3254 36.2295 34.0081 36.1237V35.6741C34.3518 35.7799 34.7485 35.8592 35.251 35.8592C36.0443 35.8592 36.2559 35.5683 36.2559 35.2775C36.2559 34.3783 34.0081 34.9072 34.0081 33.585C34.0081 33.0561 34.4047 32.5801 35.4096 32.5801C35.8856 32.5801 36.2823 32.6594 36.5997 32.7387V33.1883C36.2559 33.109 35.8856 33.0561 35.4096 33.0561C34.7485 33.0561 34.5105 33.2941 34.5105 33.5585C34.5105 34.4048 36.7848 33.9023 36.7848 35.2246C36.7848 35.727 36.5203 36.3088 35.251 36.3088Z" fill="#20255F"/>
<path d="M40.5665 36.3088C39.4559 36.3088 38.9005 35.6741 38.9005 34.6427V32.6329H39.4294V34.6427C39.4294 35.3832 39.7467 35.8063 40.5665 35.8063C41.3863 35.8063 41.7037 35.3832 41.7037 34.6427V32.6329H42.2326V34.6427C42.2326 35.6477 41.7037 36.3088 40.5665 36.3088Z" fill="#20255F"/>
<path d="M44.6128 36.2294V32.6329H45.1153V36.2294H44.6128Z" fill="#20255F"/>
<path d="M49.0024 33.1089V36.2559H48.4735V33.1089H47.1248V32.6329H50.351V33.0825H49.0024V33.1089Z" fill="#20255F"/>
<path d="M53.7357 36.3088C52.7837 36.3088 52.2812 35.9914 52.2812 35.0659V32.6329H54.82V33.1089H52.8101V34.1403H54.6877V34.6163H52.8101V35.0659C52.8101 35.6477 53.1539 35.8063 53.7886 35.8063C54.2646 35.8063 54.5291 35.7799 54.8464 35.7005V36.1765C54.5026 36.2559 54.2646 36.3088 53.7357 36.3088Z" fill="#20255F"/>
<path d="M58.0466 36.3088C57.597 36.3088 57.121 36.2295 56.8037 36.1237V35.6741C57.1475 35.7799 57.5442 35.8592 58.0466 35.8592C58.84 35.8592 59.0515 35.5683 59.0515 35.2775C59.0515 34.3783 56.8037 34.9072 56.8037 33.585C56.8037 33.0561 57.2004 32.5801 58.2053 32.5801C58.6813 32.5801 59.078 32.6594 59.3953 32.7387V33.1883C59.0515 33.109 58.6813 33.0561 58.2053 33.0561C57.5442 33.0561 57.3062 33.2941 57.3062 33.5585C57.3062 34.4048 59.5804 33.9023 59.5804 35.2246C59.6069 35.727 59.316 36.3088 58.0466 36.3088Z" fill="#20255F"/>
<path d="M65.4508 35.965C65.1864 36.1766 64.8162 36.3088 64.3666 36.3088C63.6261 36.3088 63.0708 35.8857 63.0708 35.1981C63.0708 34.6163 63.4146 34.299 63.7319 34.1668C63.5997 33.9552 63.5468 33.7965 63.5468 33.5585C63.5468 33.0825 63.8377 32.5801 64.6575 32.5801C64.9484 32.5801 65.2128 32.633 65.4508 32.7123V33.1354C65.2128 33.0561 64.9748 33.0296 64.7633 33.0296C64.2344 33.0296 64.0493 33.2941 64.0493 33.6114C64.0493 33.9023 64.2344 34.1139 64.5517 34.4048L65.4244 35.3039C65.5037 35.1452 65.5566 34.9601 65.5566 34.775C65.5566 34.5106 65.4773 34.2461 65.3186 34.0081H65.7946C65.9269 34.2197 66.0062 34.4841 66.0062 34.775C66.0062 35.0659 65.9269 35.3832 65.7417 35.6477L66.3235 36.2559H65.6889L65.4508 35.965ZM65.1335 35.6477L64.0228 34.5106C64.0228 34.5106 64.0228 34.5106 63.9964 34.4841C63.7584 34.5899 63.5468 34.8279 63.5468 35.1717C63.5468 35.6212 63.8906 35.8592 64.393 35.8592C64.7104 35.8592 64.9484 35.7799 65.1335 35.6477Z" fill="#20255F"/>
<path d="M72.459 36.2293L71.4276 34.9335H70.6343V36.2293H70.1318V32.6328H71.3483C72.2474 32.6328 72.7499 33.0559 72.7499 33.7699C72.7499 34.3782 72.4325 34.722 72.0359 34.9335L73.1201 36.2558H72.459V36.2293ZM72.1945 33.7699C72.1945 33.2939 71.8772 33.1088 71.3747 33.1088H70.6343V34.5104H71.7185C71.9565 34.4046 72.1945 34.1931 72.1945 33.7699Z" fill="#20255F"/>
<path d="M76.3732 36.3086C75.4212 36.3086 74.9187 35.9913 74.9187 35.0657V32.6328H77.4574V33.1088H75.4476V34.1402H77.3252V34.6162H75.4476V35.0657C75.4476 35.6475 75.7914 35.8062 76.426 35.8062C76.9021 35.8062 77.1665 35.7798 77.4838 35.7004V36.1764C77.1401 36.2558 76.9021 36.3086 76.3732 36.3086Z" fill="#20255F"/>
<path d="M80.6831 36.3088C80.2335 36.3088 79.7575 36.2295 79.4402 36.1237V35.6741C79.784 35.7799 80.1806 35.8592 80.6831 35.8592C81.4764 35.8592 81.688 35.5683 81.688 35.2775C81.688 34.3783 79.4402 34.9072 79.4402 33.585C79.4402 33.0561 79.8369 32.5801 80.8418 32.5801C81.3178 32.5801 81.7144 32.6594 82.0318 32.7387V33.1883C81.688 33.109 81.3178 33.0561 80.8418 33.0561C80.1806 33.0561 79.9426 33.2941 79.9426 33.5585C79.9426 34.4048 82.2169 33.9023 82.2169 35.2246C82.2169 35.727 81.926 36.3088 80.6831 36.3088Z" fill="#20255F"/>
<path d="M85.9723 36.3088C84.8087 36.3088 84.0947 35.5419 84.0947 34.4577C84.0947 33.347 84.8087 32.5801 85.9723 32.5801C87.1359 32.5801 87.8499 33.347 87.8499 34.4577C87.8499 35.5155 87.1359 36.3088 85.9723 36.3088ZM85.9723 33.0561C85.1261 33.0561 84.6236 33.6114 84.6236 34.4312C84.6236 35.251 85.0996 35.8064 85.9723 35.8064C86.8186 35.8064 87.321 35.251 87.321 34.4312C87.321 33.6114 86.845 33.0561 85.9723 33.0561Z" fill="#20255F"/>
<path d="M92.3457 36.2293L91.3144 34.9335H90.521V36.2293H90.0186V32.6328H91.235C92.1341 32.6328 92.6366 33.0559 92.6366 33.7699C92.6366 34.3782 92.3193 34.722 91.9226 34.9335L93.0068 36.2558H92.3457V36.2293ZM92.1077 33.7699C92.1077 33.2939 91.7904 33.1088 91.2879 33.1088H90.5475V34.5104H91.6317C91.8432 34.4046 92.1077 34.1931 92.1077 33.7699Z" fill="#20255F"/>
<path d="M96.1537 33.1088V36.2558H95.6248V33.1088H94.2761V32.6328H97.5024V33.0824H96.1537V33.1088Z" fill="#20255F"/>
<path d="M100.464 36.3088C100.015 36.3088 99.5388 36.2295 99.2214 36.1237V35.6741C99.5652 35.7799 99.9619 35.8592 100.464 35.8592C101.258 35.8592 101.469 35.5683 101.469 35.2775C101.469 34.3783 99.2214 34.9072 99.2214 33.585C99.2214 33.0561 99.6181 32.5801 100.623 32.5801C101.099 32.5801 101.496 32.6594 101.813 32.7387V33.1883C101.469 33.109 101.099 33.0561 100.623 33.0561C99.9619 33.0561 99.7239 33.2941 99.7239 33.5585C99.7239 34.4048 101.998 33.9023 101.998 35.2246C102.025 35.727 101.734 36.3088 100.464 36.3088Z" fill="#20255F"/>
</svg>
