<svg width="102" height="39" viewBox="0 0 102 39" fill="none" xmlns="http://www.w3.org/2000/svg">
<path d="M61.908 11.8193C60.9597 9.78121 60.291 11.5045 60.291 11.5045C59.6576 13.2736 55.6628 17.7708 54.8703 18.567C51.5372 21.4578 52.6907 19.6531 52.4218 18.3613C52.4218 18.3613 52.5633 16.0083 53.225 15.474C53.225 15.474 53.5753 15.6294 53.8477 14.2002C53.8477 14.2002 54.6509 12.3461 52.5031 11.9959C52.5031 11.9959 51.0312 10.991 50.366 13.8323C50.366 13.8323 49.1099 19.2034 50.826 21.6554C50.826 21.6554 51.7105 23.2689 56.2148 18.8743L56.2078 18.8643C57.7788 17.3181 60.1565 14.5228 60.1565 14.5228C62.6758 19.1439 58.8367 20.3858 58.8367 20.3858C57.3966 21.3236 58.8578 21.5428 58.8578 21.5428C64.7703 21.6671 65.2445 18.093 65.2445 18.093C65.386 15.5243 61.9078 11.8196 61.9078 11.8196" fill="#171717"/>
<path d="M47.1262 0.975918C47.1262 0.975918 45.2049 -1.44783 45.5304 1.34399C45.5304 1.34399 45.7923 7.17165 44.8334 14.4253C44.7201 14.1424 44.5751 13.8555 44.3699 13.5687C44.3699 13.5687 42.6962 11.3359 40.8138 11.9587C40.8138 11.9587 38.422 12.7119 37.0314 16.3285C37.0314 16.3285 36.0513 18.8301 36.3308 20.7089C36.3308 20.7089 36.2385 25.6555 42.2575 22.1596C42.2575 22.1596 42.8944 21.7735 43.641 21.0167C43.4995 21.6325 43.2624 22.0394 43.2376 22.6726C43.2376 22.6726 43.0218 23.9784 43.6197 24.3075C43.8462 24.4348 44.0938 24.2573 44.6246 22.9911C44.6246 22.9911 48.9025 12.0117 49.1325 7.47921C49.1325 7.47921 50.6362 5.22884 47.1262 0.975765V0.975918ZM39.6639 20.7337C39.6639 20.7337 39.2216 20.4398 39.2499 19.1131C39.2499 19.1131 39.3737 16.8098 40.9376 14.9628C40.9376 14.9628 41.3728 14.411 41.7337 14.3438C41.8504 14.3238 42.0415 14.4963 42.13 15.2004C42.1511 15.3699 41.6559 15.4091 41.8363 15.9577C41.8363 15.9577 42.6714 18.0665 44.4264 17.1147C44.3521 17.55 44.2742 17.9853 44.1893 18.4203C43.2764 19.6906 41.3551 21.8843 39.6638 20.7343" fill="#171717"/>
<path d="M56.7511 6.33607C56.8464 5.45545 56.3017 4.67302 55.541 4.59168C54.8015 4.51144 54.1292 5.12217 54.0053 5.96448C53.9241 6.32555 53.9241 6.60843 53.9061 7.0012C53.881 7.34823 53.4389 8.58283 53.8278 8.68193C54.2134 8.78222 55.4095 8.03796 55.9898 7.60266C56.3932 7.35492 56.6903 6.89162 56.7505 6.33607" fill="#2D2C2C"/>
<path d="M81.2958 11.1282C81.2958 11.1282 77.1913 17.2283 77.2054 19.2592C77.2054 19.2592 77.0392 21.1346 79.1657 21.0603C79.1657 21.0603 81.3135 20.9329 82.8562 19.6627C82.8562 19.6627 83.8434 18.6787 84.4201 18.5623C84.4201 18.5623 85.8177 18.7076 85.3683 16.8496C85.3683 16.8496 84.9049 14.7479 84.3812 13.9518C84.3812 13.9518 83.907 13.0179 83.3232 13.375C83.3232 13.375 82.7713 13.6259 82.9552 14.6171C82.9552 14.6171 82.9091 14.6572 83.1924 15.4596C83.1924 15.4596 83.854 17.4941 83.4648 17.5507C83.4648 17.5507 83.2807 17.5707 83.0614 17.7773C82.9375 17.8937 82.6898 18.1666 82.4245 18.3541C82.4245 18.3541 80.5492 19.6137 80.9702 17.8335C80.9702 17.8335 81.2178 16.7649 81.4868 16.1033C81.4868 16.1033 82.5307 13.1737 83.6842 11.6061C83.6842 11.6061 84.8058 10.2581 83.4365 10.3642C83.3512 10.3677 83.1464 10.4344 83.0473 10.3842C83.0473 10.3842 82.3254 9.76841 81.2958 11.1305" fill="#171717"/>
<path d="M72.7237 13.8031C71.9983 13.3468 71.1774 11.6553 71.8179 10.8521C72.0974 10.5051 72.6671 10.1943 72.5821 9.69879C72.3982 8.60193 70.484 9.70224 70.1301 11.0079C69.4189 12.9858 67.2782 14.2491 67.2782 14.2491C66.9315 14.56 66.8465 15.3671 66.8465 15.3671C66.7793 16.8248 67.7099 15.7985 67.7099 15.7985C69.0474 14.7617 69.9957 14.0293 69.9957 14.0293C72.515 18.6468 68.6688 19.8888 68.6688 19.8888C68.1628 20.0833 68.0389 20.317 68.0389 20.6139C68.053 21.0101 68.6971 21.0452 68.6971 21.0452C74.6061 21.1685 75.0802 17.5952 75.0802 17.5952C75.3526 16.01 73.7073 14.4887 72.7237 13.8022" fill="#171717"/>
<path d="M34.6216 20.9365C34.6216 20.9365 34.6106 20.8663 34.5504 20.8131C34.3912 20.7038 33.6092 21.0567 32.8344 21.5211C32.7105 21.5913 32.6008 21.6596 32.4946 21.7157C32.2116 21.8963 31.9356 22.0698 31.8259 22.1651C31.8259 22.1651 31.3269 22.5652 31.38 21.6695C31.3835 21.6595 31.3836 21.6495 31.3836 21.6294C31.3907 21.4308 31.4297 21.1802 31.4437 20.9074C31.4437 20.9074 32.1266 18.1758 32.4203 17.4115C32.4203 17.4115 32.5831 16.6894 32.8379 15.8689C32.8379 15.8689 34.0055 14.6587 31.8649 14.2659C31.8649 14.2659 30.8423 11.7502 29.7384 15.7131V15.7095C29.6641 15.3023 29.289 14.6763 28.7158 14.425C28.599 14.3649 28.4362 14.3118 28.2098 14.2937C28.1245 14.2837 28.0683 14.3037 27.8807 14.2836C27.8807 14.2836 26.8546 13.9337 25.7542 15.3063C24.5865 16.5907 21.1756 20.6809 21.954 24.1025C21.954 24.1025 22.3786 25.8752 23.9496 25.8646C23.9496 25.8646 26.0337 25.8846 27.6047 24.3997C27.6047 24.3997 28.0788 23.9784 28.5813 23.363C28.6024 23.5756 28.6344 23.8054 28.698 24.0321C28.7051 24.0822 28.7161 24.1223 28.7302 24.1664C28.7302 24.1664 28.7864 24.5627 29.1123 24.8636C29.3529 25.0832 29.735 25.2496 30.3507 25.1673C30.4109 25.1573 30.4781 25.1374 30.5418 25.1173C30.5418 25.1173 32.7462 24.5827 32.6931 23.6453C32.665 23.1819 32.8346 23.0896 32.8346 23.0896C32.8346 23.0896 32.9726 23.0094 32.9229 22.8489C32.9229 22.8489 34.6814 21.6741 34.6212 20.9311L34.6216 20.9365ZM28.2665 22.2332C28.086 22.5231 27.916 22.8521 27.4419 23.157C27.4419 23.157 25.0323 24.6325 25.1173 22.5482C25.1173 22.5482 25.1985 21.391 25.5949 20.3189C25.5949 20.3189 26.7059 17.4953 28.4255 15.8536C28.5812 15.6941 28.7192 15.6771 28.8077 15.7934C29.0483 16.1194 29.0908 16.4945 29.2712 16.8018C29.3203 16.8821 29.3738 16.9642 29.4304 17.0494C29.2252 18.1038 28.698 20.1136 28.606 21.6281C28.5428 21.8367 28.3937 22.0352 28.2663 22.2298" fill="#171717"/>
<path d="M11.4574 10.7987C11.2983 10.5048 10.9409 10.6683 10.0882 12.0477C10.0882 12.0477 2.79214 24.3717 1.32021 30.2134C1.32021 30.2134 -0.296811 34.2507 1.86864 35.7014C1.86864 35.7014 2.34989 36.4656 2.94431 36.604C3.10709 37.4776 3.41837 38.2847 4.0199 38.0087C4.22862 37.9084 4.26054 37.1953 4.23577 36.4978L4.24679 36.5015C4.23275 35.9178 4.28893 35.4081 4.36004 35.0047C4.40919 34.8382 4.45529 34.6687 4.50153 34.4702C4.50153 34.4702 4.53364 34.3427 4.59382 34.109C4.61889 34.0287 4.63598 33.9927 4.63598 33.9927L4.6219 33.9962C5.28708 31.3636 8.63083 18.4524 11.3023 12.9857C11.3023 12.9857 11.9215 11.6446 11.4579 10.799" fill="#2D2C2C"/>
<path d="M99.7959 19.657C98.8087 19.0482 96.0878 13.5746 96.0878 13.5746C95.4581 12.6267 94.3718 13.7761 94.3718 13.7761C93.6429 14.3388 92.6309 16.1044 92.1108 17.1624C91.4172 18.3477 91.5941 16.8013 91.5941 16.8013C91.6292 16.3801 91.7533 15.7114 92.2239 15.4001C92.2239 15.4001 92.5884 15.704 92.9917 14.3102C92.9917 14.3102 93.7594 12.481 91.8629 11.9857C91.8629 11.9857 90.4936 10.8427 89.5666 13.6133C89.5666 13.6133 88.2786 17.6222 88.7916 20.1202C88.7916 20.1202 89.0288 23.0499 91.5091 20.7571C91.7532 20.5274 92.0186 20.1733 92.2947 19.7771C92.8042 18.9918 92.9457 18.7051 93.2995 17.8878C93.9082 16.4654 94.9767 15.181 95.1677 14.9651C95.0297 16.6317 96.9511 21.0298 96.9511 21.0298C97.6234 23.2731 98.7096 23.1917 98.7096 23.1917C104.314 23.3832 99.7959 19.657 99.7959 19.657" fill="#171717"/>
<path d="M14.3552 32.8504C14.5215 32.6488 14.6808 32.3339 15.5335 32.1253C15.5335 32.1253 44.5477 22.2709 83.1472 24.2418C83.1472 24.2418 85.3374 24.1615 84.743 25.1194C84.3926 25.682 83.7416 25.7172 82.5032 25.7814C82.5032 25.7814 82.0857 25.8515 80.4439 25.8315C80.4439 25.8315 84.3892 27.3671 68.8099 27.0486C68.8099 27.0486 70.1828 28.4498 64.4542 28.0466C64.4542 28.0466 48.4752 27.3175 16.181 33.1736C16.181 33.1736 13.6404 33.7223 14.3552 32.8557" fill="#569FA6"/>
<path d="M87.3647 24.4698C88.5465 24.5401 89.8733 24.5602 91.7133 24.7357C92.6686 24.836 94.1406 24.836 94.3494 25.4509C94.5405 26.0206 93.8222 26.6042 92.5342 26.852C91.8832 26.9794 91.4727 27.0856 90.8889 27.0646C90.1953 27.0445 88.7057 27.0948 88.6633 26.2934C88.6352 25.7949 87.6584 25.7978 87.0144 25.7727C85.7123 25.7226 85.8467 25.3516 86.1299 24.9092C86.2997 24.6404 86.6536 24.4639 87.3648 24.4709" fill="#569FA6"/>
<path d="M100.716 13.7214C101.303 13.7214 101.795 14.1888 101.795 14.7935C101.795 15.3953 101.303 15.8657 100.716 15.8657C100.125 15.8657 99.6364 15.3952 99.6364 14.7935C99.6364 14.1887 100.125 13.7214 100.716 13.7214ZM100.716 16.078C101.43 16.078 102 15.5082 102 14.7935C102 14.0824 101.43 13.5128 100.716 13.5128C100.001 13.5128 99.4312 14.0824 99.4312 14.7935C99.4312 15.5086 100.001 16.078 100.716 16.078ZM100.938 14.8573C101.129 14.8503 101.321 14.748 101.321 14.4641C101.321 14.1602 101.087 14.082 100.822 14.082H100.217V15.522H100.429V14.857H100.694L101.066 15.522H101.303L100.938 14.8573ZM100.79 14.2946C100.96 14.2946 101.112 14.3045 101.112 14.4891C101.112 14.6837 100.846 14.6516 100.648 14.6516H100.429V14.2946H100.79Z" fill="#2D2C2C"/>
<path d="M22.5407 31.4608C22.5407 31.4608 16.2602 22.0206 15.6198 20.0143C15.6198 20.0143 15.3402 19.2539 14.9546 18.8147C15.358 18.8147 15.8108 18.8047 16.331 18.7746C16.331 18.7746 19.6641 18.7145 21.0723 16.1351C21.458 15.431 22.2011 13.0072 19.3279 9.96421C19.3279 9.96421 15.6976 5.65105 7.44624 5.10262C7.44624 5.10262 5.22069 4.05169 0.974704 7.56877C0.974704 7.56877 -0.624658 8.83906 0.274069 9.13624C0.684492 9.27064 0.97118 9.2707 1.34622 9.16639C1.34622 9.16639 8.23885 6.83112 16.8016 11.753C16.8016 11.753 20.1806 13.8866 18.0789 16.0166C18.0789 16.0166 17.2438 16.9433 15.1173 17.2797C15.1173 17.2797 14.6113 17.38 13.6135 17.4813C13.6135 17.4813 13.1147 17.5214 12.4353 17.5515C12.4353 17.5515 11.5754 17.5445 11.4835 17.7993C11.4443 17.9548 11.5896 18.0149 12.0567 18.2416C12.0602 18.2416 12.0567 18.2381 12.0567 18.2416C11.165 18.3419 10.8288 18.4683 10.6165 18.705C10.6165 18.705 10.4432 18.9106 10.5354 19.1403C11.1298 20.7219 13.8543 27.2323 20.011 32.3417C20.011 32.3417 23.5528 35.1087 24.3418 34.4258C24.5859 34.2132 23.6979 33.0743 22.5409 31.4608" fill="#171717"/>
</svg>
