<svg width="70" height="50" viewBox="0 0 70 50" fill="none" xmlns="http://www.w3.org/2000/svg">
<g clip-path="url(#clip0)">
<path d="M48.3979 0.486328H18.1786V31.1753H48.7222V0.486328H48.3979ZM48.3986 30.851H18.5029V0.810618H48.3986V30.851Z" fill="url(#paint0_linear)"/>
<path d="M48.3999 0.810669H18.5043V30.851H48.3999V0.810669Z" fill="url(#paint1_linear)"/>
<path d="M24.8717 17.3661C25.3071 17.3305 25.675 17.2873 25.9799 17.2411C26.0112 17.0786 26.0432 16.9139 26.0775 16.7446C25.7997 16.8751 25.3623 17.1022 24.8717 17.3661Z" fill="#4BAA42"/>
<path d="M24.8723 17.3661C23.5167 18.0926 21.7437 19.0942 21.7437 19.0942C21.6976 19.037 21.6588 18.9792 21.6259 18.9217C21.6617 19.007 21.7186 19.1026 21.8045 19.2095C21.8045 19.2095 24.0409 19.2502 25.6475 19.1274C25.7366 18.5654 25.8468 17.9323 25.9802 17.2415C25.6756 17.2873 25.3077 17.3306 24.8723 17.3661Z" fill="#008743"/>
<path d="M30.2531 16.2553C30.4084 15.7001 30.567 15.1532 30.7253 14.6171C30.2514 14.8102 29.8054 14.9985 29.3945 15.1768C28.6755 18.182 28.0512 21.6594 27.7595 25.4061C27.7595 25.4061 27.0638 25.9207 25.9375 25.3758C25.9375 25.3758 25.8793 25.3622 25.7957 25.3015C25.7938 25.3134 25.7925 25.3218 25.7925 25.3218C25.5383 27.1009 26.7185 27.7547 26.7185 27.7547C27.7531 28.4443 28.4982 28.0996 28.4982 28.0996C28.7883 24.3522 29.2789 21.3816 29.8235 18.5127C30.8919 18.2815 32.3277 17.8726 33.4097 17.5505C33.5751 16.7857 33.7605 15.9691 33.9691 15.109C32.7779 15.4804 31.5228 15.8548 30.2531 16.2553Z" fill="#008743"/>
<path d="M31.5628 11.9171C32.5133 8.96454 33.3037 6.86279 33.3037 6.86279C32.8283 6.74942 32.3547 6.77526 31.9336 6.85665C31.4051 8.25685 30.732 10.2013 30.0747 12.554C30.5754 12.3305 31.0705 12.1186 31.5628 11.9171Z" fill="#008743"/>
<path d="M40.5112 9.09899C41.2758 7.01662 41.8265 5.78568 41.8265 5.78568C41.0716 5.71785 40.4382 5.77599 39.9534 5.86611C39.5862 6.88549 39.164 8.11675 38.7202 9.5289C39.3404 9.36869 39.9369 9.22657 40.5112 9.09899Z" fill="#008743"/>
<path d="M39.2257 12.8694C39.3484 12.4799 39.4696 12.1026 39.5888 11.7396C39.029 11.8746 38.4751 12.0167 37.9302 12.1649C36.6572 16.6546 35.3752 22.3846 34.8271 28.6016C34.8271 28.6016 33.9334 29.0315 33.0154 28.6552C32.8843 30.0273 32.8342 30.8775 32.8342 30.8775H35.8378C36.3862 24.6604 37.0648 20.4069 38.3368 15.9169C42.6947 14.5128 47.6572 11.3655 48.7225 10.5913V10.5063C46.8888 10.5293 45.0849 10.7066 43.332 10.985C42.1327 11.5745 40.757 12.2147 39.2257 12.8694Z" fill="#008743"/>
<path d="M40.5106 9.0989C39.9366 9.22649 39.3397 9.36861 38.7196 9.52881C39.1634 8.11635 39.5859 6.88508 39.9528 5.86602C40.7012 3.78947 41.2209 2.60246 41.2209 2.60246C39.8653 1.97294 38.6795 2.62636 38.6795 2.62636C37.2506 3.49813 36.3307 6.91189 36.3307 6.91189C35.9082 8.16609 35.5264 9.39154 35.1805 10.5724C34.0177 10.959 32.8074 11.4051 31.5639 11.9174C31.072 12.1193 30.5765 12.3311 30.0759 12.5543C30.7332 10.2016 31.4063 8.25717 31.9347 6.85698C32.53 5.28011 32.9421 4.3938 32.9421 4.3938C32.6392 4.00653 31.3678 4.15188 31.3678 4.15188C30.0972 4.26073 29.4072 5.846 29.4072 5.846C28.1459 8.81887 27.2603 11.7249 26.6421 14.2333C26.2099 14.4632 25.7764 14.7016 25.3401 14.949C25.3401 14.949 23.4702 15.8806 21.9266 17.315C21.9266 17.315 21.1589 18.1076 21.6275 18.9219C21.6608 18.9794 21.6996 19.0372 21.7454 19.0944C21.7454 19.0944 23.518 18.0928 24.874 17.3663C25.3649 17.1025 25.8019 16.8751 26.0794 16.7452C26.0455 16.9141 26.0132 17.0792 25.9819 17.2417C25.8485 17.9326 25.7383 18.5656 25.6492 19.1277C25.3669 20.9061 25.2864 21.9813 25.2864 21.9813C24.9802 24.3986 25.5248 25.1044 25.7974 25.3021C25.8814 25.3628 25.9392 25.3764 25.9392 25.3764C27.0652 25.9213 27.7613 25.4067 27.7613 25.4067C28.0526 21.6596 28.6773 18.1822 29.3963 15.1774C29.8071 14.9991 30.2532 14.8108 30.727 14.6176C31.8204 14.1722 33.072 13.6964 34.4441 13.2323C34.2745 13.8777 34.1172 14.5039 33.9709 15.1096C33.7622 15.9697 33.5765 16.7859 33.4114 17.5511C32.5406 21.587 32.2399 24.1968 32.2399 24.1968C31.6046 27.4649 32.2399 28.1002 32.2399 28.1002C32.488 28.3718 32.7541 28.5472 33.0184 28.6558C33.9366 29.032 34.8301 28.6021 34.8301 28.6021C35.3782 22.3851 36.6602 16.6554 37.9331 12.1654C38.478 12.0172 39.0316 11.8751 39.5917 11.7401C40.8074 11.4464 42.0578 11.1893 43.3352 10.9855C45.0884 10.7068 46.8924 10.5298 48.7257 10.5069V8.02591C48.7254 8.02526 45.5258 7.98198 40.5106 9.0989Z" fill="white"/>
<path d="M45.5333 10.6958C45.5333 10.6958 47.1128 10.5062 48.7226 10.5062V8.02527C48.2685 8.01267 47.0889 8.20033 47.0889 8.20033C29.1503 11.9038 21.7423 19.0941 21.7423 19.0941C21.7423 19.0941 25.033 17.2339 26.0763 16.7449C25.6254 18.9797 25.4151 20.6735 25.3311 21.4729C26.21 21.4271 27.2061 21.2078 28.2824 20.8563C28.5895 18.8302 28.9752 16.9232 29.3928 15.1768C30.7523 14.587 32.4729 13.8974 34.4406 13.232C33.9035 15.2756 33.4862 17.1312 33.1645 18.7116C34.3579 18.0844 35.5718 17.3861 36.7701 16.6561C37.1431 15.0563 37.5369 13.5508 37.93 12.1651C40.3276 11.5117 42.8848 10.9694 45.5333 10.6958Z" fill="url(#paint2_linear)"/>
<path d="M38.592 26.6043H38.3003V26.4987H39.0109V26.6043H38.7176V27.4589H38.592V26.6043Z" fill="white"/>
<path d="M39.9291 27.0364C39.9223 26.9027 39.9136 26.7403 39.9136 26.622H39.9107C39.8768 26.7335 39.838 26.8543 39.7896 26.9867L39.62 27.4525H39.526L39.3697 26.9951C39.3241 26.8585 39.287 26.7361 39.2599 26.622H39.2569C39.254 26.7419 39.2473 26.9011 39.2382 27.0465L39.2127 27.458H39.0945L39.1613 26.4977H39.3196L39.4834 26.9622C39.5234 27.08 39.5548 27.1857 39.5803 27.2855H39.5835C39.6087 27.1886 39.6433 27.083 39.6856 26.9622L39.8564 26.4977H40.0147L40.0745 27.458H39.952L39.9291 27.0364Z" fill="white"/>
<path fill-rule="evenodd" clip-rule="evenodd" d="M2.97115 35.2764L1.84454 41.016C1.02574 41.3675 -0.0808483 41.8791 0.192731 42.892L1.60003 42.4014C1.60003 42.4014 1.03155 44.3503 1.03155 45.3823C1.09228 45.9647 1.22568 46.7215 2.63621 46.611C2.976 45.0115 3.30739 43.4056 3.6375 41.7964L7.2541 41.047L6.78931 43.0461C6.57484 43.9434 6.26767 45.1611 6.40623 45.798C6.57387 46.36 6.90203 46.651 8.02574 46.6113L10.3852 35.2767H8.39913L7.51185 39.4595L4.00701 40.1895L5.02606 35.2767H2.97115V35.2764Z" fill="#00733D"/>
<path fill-rule="evenodd" clip-rule="evenodd" d="M18.8037 36.9722L17.4374 43.5836C17.4374 43.5836 17.0867 44.7435 17.0867 45.5658C17.2039 46.656 18.077 46.728 18.6991 46.7083L20.7155 36.9722H18.8037Z" fill="#00733D"/>
<path fill-rule="evenodd" clip-rule="evenodd" d="M51.2985 35.2795L49.5484 43.5857C49.5484 43.5857 49.198 44.7456 49.198 45.568C49.3149 46.6581 50.241 46.7301 50.863 46.7104L53.2749 35.2795H51.2985Z" fill="#00733D"/>
<path fill-rule="evenodd" clip-rule="evenodd" d="M22.0414 39.4204L21.1803 43.5868C21.1803 43.5868 20.8298 44.7466 20.8298 45.569C20.9468 46.6591 21.8205 46.7311 22.4426 46.7114L23.9529 39.4204H22.0414Z" fill="#00733D"/>
<path fill-rule="evenodd" clip-rule="evenodd" d="M67.2385 43.9876C67.5363 42.5842 67.9585 41.2999 67.649 40.5305C66.9475 38.7812 64.4236 38.9866 63.3128 40.1811C63.2324 39.5105 63.1888 39.3894 63.1888 39.3894H61.6936C61.6936 39.3894 61.6561 40.0603 61.5631 40.6168C61.4197 41.8067 60.8503 44.474 60.4136 46.5105H62.2621C62.6297 45.2017 63.0518 42.4217 63.6342 41.3842C64.0315 40.7476 65.3771 40.2857 65.7249 41.349C65.8997 41.7318 65.2954 43.4556 65.1326 44.6504C64.9856 45.726 64.8541 46.6507 66.6739 46.611L67.2385 43.9876Z" fill="#00733D"/>
<path fill-rule="evenodd" clip-rule="evenodd" d="M59.4023 43.9876C59.7001 42.5842 60.1223 41.2999 59.8129 40.5305C59.1107 38.7812 56.5868 38.9866 55.4769 40.1811C55.3962 39.5105 55.3526 39.3894 55.3526 39.3894H53.8574C53.8574 39.3894 53.8193 40.0603 53.7276 40.6168C53.5832 41.8067 53.0144 44.474 52.5774 46.5105H54.4259C54.7932 45.2017 55.2156 42.4217 55.798 41.3842C56.1953 40.7476 57.5406 40.2857 57.8888 41.349C58.0629 41.7318 57.4592 43.4556 57.2964 44.6504C57.1494 45.726 57.0176 46.6507 58.8374 46.611L59.4023 43.9876Z" fill="#00733D"/>
<path d="M45.307 39.4656C45.307 39.4656 44.5589 43.6448 44.2369 44.1413C43.8041 45.0812 43.2207 45.2934 42.4165 45.1684C41.62 44.973 42.0518 43.4455 42.0518 43.4455C42.2505 42.5056 42.8606 39.4707 42.8606 39.4707H40.9808L40.1907 43.076C39.796 44.8202 39.8906 45.4549 40.3971 45.9614C39.3693 46.1994 38.8235 46.6426 38.7514 47.5124C38.6397 48.8677 40.0295 49.6894 41.4591 49.67C44.8897 49.6277 45.7863 47.4242 46.2301 44.3942L47.2401 39.4659H45.307V39.4656ZM41.4879 48.515C41.0008 48.4814 40.3638 48.1978 40.4058 47.589C40.4924 46.3241 42.756 46.9446 43.8706 46.0218C43.8706 46.8751 43.1836 48.6297 41.4879 48.515Z" fill="#00733D"/>
<path d="M28.7292 45.9063C28.9207 46.4499 29.4249 46.6789 30.2305 46.6085L32.5551 35.6156H30.5667L29.7996 39.3301C26.5002 39.0129 24.2886 41.2422 24.2492 44.2012C24.2169 46.7099 26.9756 47.3973 28.7292 45.9063ZM29.5092 40.6324L28.9375 43.3C28.7024 44.7496 27.9756 45.5898 26.9007 45.2458C25.2527 44.7203 26.766 39.8814 29.5092 40.6324Z" fill="#00733D"/>
<path d="M36.3017 45.8513C36.4936 46.3955 37.0527 46.6791 37.8592 46.609L39.1777 40.0586C38.7646 39.4969 37.4216 39.3623 37.4216 39.3623C34.3954 39.0134 31.9519 41.183 31.8779 44.2017C31.8163 46.7098 34.6489 47.443 36.3017 45.8513ZM34.1199 42.7521C34.5824 41.4527 35.6609 40.2285 37.1373 40.6329L36.5659 43.3006C36.3305 44.7502 35.6037 45.6255 34.5285 45.2822C33.7672 45.0386 33.7223 43.8674 34.1199 42.7521Z" fill="#00733D"/>
<path d="M13.348 39.3429C12.0492 39.5137 11.0831 40.2667 10.5179 41.1265C9.86185 42.1236 9.41515 43.767 9.80533 45.059C10.1545 46.214 11.3638 46.7437 12.4455 46.7495C13.9113 46.7586 15.3925 45.7492 16.0563 44.6581C16.3667 44.1488 17.0082 42.5729 16.7585 41.3484C16.4536 39.859 15.2065 39.0974 13.348 39.3429ZM14.4891 43.5541C14.2159 44.3606 13.7814 45.0002 13.2766 45.2476C12.8086 45.4598 11.9429 45.4737 11.6848 44.6342C11.5712 43.8458 11.6341 43.205 11.8954 42.4521C12.2549 41.5276 12.9245 40.5951 13.7281 40.609C14.1974 40.609 14.689 40.8917 14.7595 41.3736C14.8793 41.8283 14.837 42.6917 14.4891 43.5541Z" fill="#00733D"/>
<path fill-rule="evenodd" clip-rule="evenodd" d="M24.2778 36.662C24.659 37.0425 24.5882 37.7331 24.1176 38.2073C23.6477 38.6801 22.9558 38.7554 22.5734 38.3749C22.1922 37.9944 22.263 37.3029 22.7339 36.8303C23.2048 36.3568 23.8948 36.2812 24.2778 36.662Z" fill="#00733D"/>
<path fill-rule="evenodd" clip-rule="evenodd" d="M2.82129 35.1116L1.69403 40.8509C0.875555 41.2023 -0.231357 41.714 0.0425444 42.7269L1.4492 42.2369C1.4492 42.2369 0.881369 44.1842 0.881369 45.2172C0.942092 45.7996 1.07549 46.5563 2.4857 46.4465C2.82614 44.847 3.15721 43.2411 3.48699 41.6319L7.10424 40.8819L6.6388 42.8816C6.42433 43.7782 6.11716 44.9959 6.25572 45.6335C6.42401 46.1949 6.75185 46.4859 7.87523 46.4468L10.2347 35.1122H8.24959L7.36134 39.2944L3.85682 40.0244L4.87588 35.1122H2.82129V35.1116Z" fill="#4BAA42"/>
<path fill-rule="evenodd" clip-rule="evenodd" d="M18.6541 36.8073L17.2875 43.4187C17.2875 43.4187 16.937 44.5786 16.937 45.4009C17.0539 46.492 17.9273 46.5637 18.5494 46.544L20.5662 36.8073H18.6541Z" fill="#4BAA42"/>
<path fill-rule="evenodd" clip-rule="evenodd" d="M51.1468 35.1147L49.3972 43.4209C49.3972 43.4209 49.0464 44.5808 49.0464 45.4032C49.1636 46.4943 50.0893 46.566 50.7111 46.5463L53.1236 35.1147H51.1468Z" fill="#4BAA42"/>
<path fill-rule="evenodd" clip-rule="evenodd" d="M21.8921 39.2524L21.031 43.4188C21.031 43.4188 20.6802 44.5787 20.6802 45.401C20.7974 46.4921 21.6705 46.5638 22.2932 46.5441L23.8036 39.2524H21.8921Z" fill="#4BAA42"/>
<path fill-rule="evenodd" clip-rule="evenodd" d="M67.086 43.8228C67.3838 42.4184 67.8063 41.1342 67.4972 40.3648C66.795 38.6154 64.2717 38.8209 63.1609 40.0153C63.0805 39.3448 63.0369 39.2236 63.0369 39.2236H61.5418C61.5418 39.2236 61.5033 39.8945 61.4109 40.451C61.2669 41.6409 60.6984 44.3083 60.2617 46.3451H62.1102C62.4775 45.0369 62.9 42.2559 63.4823 41.2185C63.8796 40.5818 65.2246 40.1199 65.5728 41.1826C65.7472 41.566 65.1432 43.2905 64.9804 44.4846C64.8337 45.5612 64.702 46.4849 66.5214 46.4459L67.086 43.8228Z" fill="#4BAA42"/>
<path fill-rule="evenodd" clip-rule="evenodd" d="M59.2505 43.8228C59.5483 42.4184 59.9704 41.1342 59.6616 40.3648C58.9595 38.6154 56.4355 38.8209 55.3248 40.0153C55.245 39.3448 55.2007 39.2236 55.2007 39.2236H53.7056C53.7056 39.2236 53.6681 39.8945 53.5757 40.451C53.4317 41.6409 52.8632 44.3083 52.4255 46.3451H54.2747C54.6416 45.0369 55.0641 42.2559 55.6461 41.2185C56.0434 40.5818 57.389 40.1199 57.7369 41.1826C57.9113 41.566 57.3073 43.2905 57.1452 44.4846C56.9976 45.5612 56.8661 46.4849 58.6862 46.4459L59.2505 43.8228Z" fill="#4BAA42"/>
<path d="M45.1555 39.3009C45.1555 39.3009 44.4071 43.4798 44.0854 43.976C43.6526 44.9159 43.0692 45.1281 42.2653 45.0037C41.4685 44.8077 41.9 43.2802 41.9 43.2802C42.0989 42.3403 42.7094 39.3048 42.7094 39.3048H40.8296L40.0392 42.9114C39.6445 44.6556 39.7391 45.2896 40.2449 45.7964C39.2178 46.0348 38.6723 46.4773 38.6002 47.3471C38.4891 48.7017 39.8783 49.5235 41.3076 49.5057C44.7385 49.4624 45.6351 47.2589 46.0786 44.2289L47.0886 39.3012H45.1555V39.3009ZM41.336 48.3497C40.8496 48.3167 40.2123 48.0331 40.254 47.4243C40.3409 46.1594 42.6044 46.7793 43.7194 45.8565C43.7194 46.7105 43.0314 48.4647 41.336 48.3497Z" fill="#4BAA42"/>
<path d="M28.5786 45.7414C28.7708 46.285 29.2743 46.514 30.0805 46.4442L32.4051 35.4507H30.4168L29.65 39.1661C26.3499 38.848 24.1387 41.0773 24.0989 44.0369C24.066 46.545 26.8257 47.2333 28.5786 45.7414ZM29.3586 40.4678L28.7882 43.1354C28.5527 44.5851 27.826 45.4252 26.7504 45.0818C25.1022 44.5553 26.6154 39.7168 29.3586 40.4678Z" fill="#4BAA42"/>
<path d="M36.1501 45.6865C36.3419 46.2307 36.9014 46.5143 37.7076 46.4449L39.0267 39.8938C38.6129 39.3325 37.2699 39.1975 37.2699 39.1975C34.2444 38.8486 31.8003 41.0182 31.7263 44.0376C31.6653 46.5457 34.4976 47.2785 36.1501 45.6865ZM33.9682 42.5873C34.4311 41.2879 35.5099 40.0644 36.9854 40.4681L36.4149 43.1358C36.1795 44.5854 35.4527 45.4607 34.3781 45.1174C33.6162 44.8738 33.571 43.7026 33.9682 42.5873Z" fill="#4BAA42"/>
<path d="M13.1975 39.1781C11.8991 39.3483 10.9327 40.1019 10.3681 40.9617C9.71143 41.9588 9.26472 43.6028 9.65555 44.8951C10.0041 46.0492 11.2134 46.5789 12.2954 46.5847C13.7608 46.5938 15.2421 45.5844 15.9059 44.4933C16.2163 43.9846 16.8581 42.4081 16.6081 41.1836C16.3038 39.6949 15.0567 38.9329 13.1975 39.1781ZM14.3397 43.3893C14.0664 44.1965 13.6316 44.836 13.1265 45.0834C12.6591 45.2957 11.7928 45.3089 11.5354 44.4694C11.4211 43.6813 11.4844 43.0395 11.746 42.2873C12.1048 41.3635 12.7751 40.4303 13.5784 40.4442C14.048 40.4442 14.5389 40.7275 14.6097 41.2097C14.7295 41.6639 14.6872 42.5272 14.3397 43.3893Z" fill="#4BAA42"/>
<path fill-rule="evenodd" clip-rule="evenodd" d="M24.1282 36.494C24.5093 36.8745 24.4376 37.5651 23.968 38.0392C23.4977 38.5124 22.8059 38.5874 22.4237 38.2069C22.0426 37.8264 22.1133 37.1355 22.5839 36.6633C23.0549 36.1891 23.7455 36.1132 24.1282 36.494Z" fill="#4BAA42"/>
<path d="M69.1666 39.5044C69.6359 39.5044 70 39.8691 70 40.3232C70 40.7873 69.6359 41.1462 69.1615 41.1462C68.6925 41.1462 68.3181 40.7873 68.3181 40.3232C68.3181 39.8691 68.6925 39.5044 69.1615 39.5044H69.1666ZM69.1566 39.6694C68.7978 39.6694 68.5281 39.9637 68.5281 40.3232C68.5281 40.6872 68.7978 40.9763 69.167 40.9763C69.5265 40.9815 69.791 40.6869 69.791 40.3232C69.791 39.9637 69.5268 39.6694 69.1621 39.6694H69.1566ZM69.0323 40.747H68.842V39.9337C68.9173 39.9188 69.0222 39.9036 69.1566 39.9036C69.3113 39.9036 69.3811 39.9285 69.4412 39.9682C69.4861 40.0037 69.5213 40.0687 69.5213 40.143C69.5213 40.2382 69.4509 40.3077 69.3517 40.3377V40.3474C69.4318 40.3726 69.4761 40.4372 69.5013 40.547C69.5264 40.6724 69.5413 40.7218 69.5613 40.7466H69.3566C69.3317 40.7166 69.3171 40.6472 69.292 40.5519C69.2768 40.4621 69.227 40.4224 69.1224 40.4224H69.0329V40.747H69.0323ZM69.0368 40.2877H69.1269C69.2316 40.2877 69.3168 40.2531 69.3168 40.1682C69.3168 40.0939 69.2616 40.0435 69.1421 40.0435C69.092 40.0435 69.0568 40.0486 69.0368 40.0532V40.2877Z" fill="#4DAA47"/>
</g>
<defs>
<linearGradient id="paint0_linear" x1="18.1437" y1="0.522762" x2="48.7597" y2="31.1391" gradientUnits="userSpaceOnUse">
<stop stop-color="#BED38B"/>
<stop offset="1" stop-color="#00813F"/>
</linearGradient>
<linearGradient id="paint1_linear" x1="18.4681" y1="0.84691" x2="48.4368" y2="30.8152" gradientUnits="userSpaceOnUse">
<stop stop-color="#91BB3E"/>
<stop offset="1" stop-color="#47A043"/>
</linearGradient>
<linearGradient id="paint2_linear" x1="37.1386" y1="16.9946" x2="34.0863" y2="11.4904" gradientUnits="userSpaceOnUse">
<stop stop-color="white"/>
<stop offset="0.3297" stop-color="#FDFEFC"/>
<stop offset="0.5252" stop-color="#F7FAF4"/>
<stop offset="0.6858" stop-color="#ECF4E6"/>
<stop offset="0.8273" stop-color="#DDEBD2"/>
<stop offset="0.9551" stop-color="#CADFB8"/>
<stop offset="1" stop-color="#C2DAAD"/>
</linearGradient>
<clipPath id="clip0">
<rect y="0.486328" width="70" height="49.1828" rx="4" fill="white"/>
</clipPath>
</defs>
</svg>
