<svg width="102" height="18" viewBox="0 0 102 18" fill="none" xmlns="http://www.w3.org/2000/svg">
<g clip-path="url(#clip0)">
<path d="M4.88859 16.9427H0V0.317436H8.45477L18.1545 12.7293V0.317436H23.0431V16.9427H14.7597L4.88859 4.31892V16.9427ZM46.4327 11.8016C46.4327 14.1126 46.0241 14.9096 45.3476 15.6736C44.3108 16.8107 42.8018 17.1534 39.8943 17.1534H31.5474C28.6399 17.1534 27.1284 16.8107 26.0928 15.6736C25.4163 14.9096 25.0077 14.1126 25.0077 11.8016V5.39258C25.0077 3.08281 25.4163 2.28709 26.0928 1.52182C27.1296 0.383429 28.6399 0.0407715 31.5474 0.0407715H39.8943C42.8018 0.0407715 44.3108 0.383429 45.3476 1.52182C46.0241 2.28709 46.4327 3.08281 46.4327 5.39258V11.8016ZM39.6887 12.9412C40.8055 12.9412 41.1989 12.8752 41.4667 12.6316C41.7167 12.4044 41.8271 12.1112 41.8271 11.134V6.06013C41.8271 5.08292 41.7167 4.7923 41.4667 4.56386C41.1989 4.31892 40.8055 4.2542 39.6887 4.2542H31.7517C30.6349 4.2542 30.2415 4.31892 29.975 4.56386C29.7237 4.7923 29.6133 5.08292 29.6133 6.06013V11.134C29.6133 12.1112 29.7237 12.4044 29.975 12.6316C30.2415 12.8752 30.6349 12.9412 31.7517 12.9412H39.6887ZM53.5371 0.317436V16.9427H48.429V0.317436H53.5371ZM62.1671 0.317436H68.9111L59.8091 8.09324L70.0748 16.9427H62.8587L53.5371 8.27218L62.1671 0.317436ZM71.0165 0.317436H76.1259V16.9427H71.0165V0.317436ZM95.6029 16.9427L94.0914 14.0466H84.2063L82.7126 16.9414H77.0689L86.1239 0.317436H92.4745L101.528 16.9427H95.6029ZM85.9818 10.436H92.3336L89.1571 4.41664L85.9818 10.436Z" fill="#1C4598"/>
</g>
<defs>
<clipPath id="clip0">
<rect width="101.528" height="17.1917" fill="white"/>
</clipPath>
</defs>
</svg>
