<svg width="41" height="49" viewBox="0 0 41 49" fill="none" xmlns="http://www.w3.org/2000/svg">
<path d="M40.1407 37.7286C39.4046 39.4199 38.5333 40.9768 37.5237 42.4082C36.1477 44.3596 35.021 45.7103 34.1526 46.4604C32.8066 47.6916 31.3644 48.3221 29.8201 48.358C28.7114 48.358 27.3744 48.0442 25.818 47.4077C24.2566 46.7742 22.8216 46.4604 21.5095 46.4604C20.1334 46.4604 18.6576 46.7742 17.079 47.4077C15.498 48.0442 14.2244 48.3759 13.2506 48.4088C11.7697 48.4715 10.2936 47.8231 8.82014 46.4604C7.87972 45.6446 6.70344 44.2461 5.29431 42.2648C3.78242 40.1491 2.53944 37.6957 1.56567 34.8986C0.522791 31.8774 0 28.9519 0 26.1196C0 22.8752 0.704866 20.0769 2.1167 17.732C3.22628 15.8485 4.70241 14.3627 6.5499 13.2719C8.3974 12.1812 10.3936 11.6254 12.5434 11.5898C13.7196 11.5898 15.2622 11.9517 17.1791 12.6629C19.0906 13.3765 20.3179 13.7384 20.856 13.7384C21.2583 13.7384 22.6218 13.3153 24.9332 12.4717C27.119 11.6893 28.9638 11.3654 30.4751 11.493C34.5703 11.8217 37.6469 13.4273 39.693 16.32C36.0305 18.5272 34.2187 21.6186 34.2548 25.5844C34.2878 28.6734 35.4146 31.2439 37.6289 33.2849C38.6324 34.2322 39.7531 34.9644 41 35.4843C40.7296 36.2643 40.4442 37.0114 40.1407 37.7286ZM30.7485 0.969372C30.7485 3.39053 29.8592 5.65115 28.0865 7.74357C25.9472 10.231 23.3597 11.6684 20.5538 11.4416C20.518 11.1511 20.4973 10.8454 20.4973 10.5242C20.4973 8.19988 21.5146 5.71241 23.3213 3.67857C24.2232 2.6488 25.3704 1.79256 26.7615 1.10952C28.1496 0.436674 29.4626 0.0645749 30.6974 0.000854492C30.7335 0.324525 30.7485 0.648216 30.7485 0.96934V0.969372Z" fill="#040404"/>
</svg>
