<svg width="102" height="36" viewBox="0 0 102 36" fill="none" xmlns="http://www.w3.org/2000/svg">
<g clip-path="url(#clip0)">
<path d="M17.6936 2.08154C13.6004 2.21806 9.72465 3.95756 6.90197 6.92505C4.07929 9.89254 2.53571 13.8504 2.60398 17.9454C2.67225 22.0403 4.3469 25.9445 7.26693 28.8163C10.187 31.688 14.1185 33.2974 18.2141 33.2974C22.3096 33.2974 26.2412 31.688 29.1612 28.8163C32.0812 25.9445 33.7559 22.0403 33.8241 17.9454C33.8924 13.8504 32.3488 9.89254 29.5261 6.92505C26.7035 3.95756 22.8277 2.21806 18.7345 2.08154H17.6936ZM39.5508 2.08154C35.4575 2.21806 31.5818 3.95756 28.7591 6.92505C25.9364 9.89254 24.3929 13.8504 24.4611 17.9454C24.5294 22.0403 26.204 25.9445 29.1241 28.8163C32.0441 31.688 35.9756 33.2974 40.0712 33.2974C44.1667 33.2974 48.0983 31.688 51.0183 28.8163C53.9384 25.9445 55.613 22.0403 55.6813 17.9454C55.7495 13.8504 54.206 9.89254 51.3833 6.92505C48.5606 3.95756 44.6849 2.21806 40.5916 2.08154H39.5508ZM61.4079 2.08154C57.3147 2.21806 53.4389 3.95756 50.6163 6.92505C47.7936 9.89254 46.25 13.8504 46.3183 17.9454C46.3865 22.0403 48.0612 25.9445 50.9812 28.8163C53.9012 31.688 57.8328 33.2974 61.9283 33.2974C66.0239 33.2974 69.9554 31.688 72.8755 28.8163C75.7955 25.9445 77.4701 22.0403 77.5384 17.9454C77.6067 13.8504 76.0631 9.89254 73.2404 6.92505C70.4177 3.95756 66.542 2.21806 62.4487 2.08154H61.4079ZM83.2651 2.08154C79.1718 2.21806 75.2961 3.95756 72.4734 6.92505C69.6507 9.89254 68.1071 13.8504 68.1754 17.9454C68.2437 22.0403 69.9183 25.9445 72.8383 28.8163C75.7584 31.688 79.6899 33.2974 83.7855 33.2974C87.881 33.2974 91.8126 31.688 94.7326 28.8163C97.6526 25.9445 99.3273 22.0403 99.3956 17.9454C99.4638 13.8504 97.9202 9.89254 95.0976 6.92505C92.2749 3.95756 88.3992 2.21806 84.3059 2.08154H83.2651Z" stroke="#333333" stroke-width="3.64286"/>
</g>
<defs>
<clipPath id="clip0">
<rect width="102" height="35.3878" fill="white"/>
</clipPath>
</defs>
</svg>
