<svg width="75" height="52" viewBox="0 0 75 52" fill="none" xmlns="http://www.w3.org/2000/svg">
<g clip-path="url(#clip0)">
<path d="M69.0888 50.8797C65.6508 50.8797 63.6117 49.1203 63.4556 46.5862H66.743C66.743 47.4309 67.2111 48.5554 69.2448 48.6253C70.6545 48.6253 71.4346 47.7806 71.4346 47.1457C71.2786 46.1611 70.025 46.0912 68.7768 45.876C67.3671 45.6715 66.2749 45.3864 65.4894 45.0367C64.3972 44.4717 63.7677 43.2719 63.7677 42.0075C63.7677 39.7532 65.6508 37.9938 68.9328 37.9938C72.0641 37.9938 74.0979 39.6133 74.2485 42.0775H71.1226C71.1226 41.448 70.9665 40.3881 69.0888 40.3881C67.8352 40.3881 67.0551 40.5979 66.899 41.5125C66.899 42.7823 69.5569 42.7124 71.5907 43.202C73.4684 43.697 74.722 44.8914 74.722 46.5862C74.722 49.6852 72.2202 50.8797 69.0888 50.8797" fill="black"/>
<path d="M9.18527 30.0875L19.9782 23.8195L25.7674 33.7515H11.219" fill="black"/>
<path d="M31.881 50.5057V37.9695Z" fill="black"/>
<path d="M31.881 50.5057V37.9695" stroke="black" stroke-width="3.15822"/>
<path d="M4.17587 44.4236C4.17587 46.3928 5.89757 48.0123 7.76992 48.0123C9.80906 48.0123 11.3693 46.3928 11.3693 44.4236C11.3693 42.5243 9.80906 40.8349 7.76992 40.8349C5.89757 40.8349 4.17587 42.5243 4.17587 44.4236V44.4236ZM7.61389 50.9015C4.17587 50.9015 1.20594 48.0123 1.20594 44.4236C1.20594 40.8349 4.17587 38.0156 7.61389 38.0156C9.02353 38.0156 10.2771 38.3707 11.3693 39.1401V38.1555H14.5007V50.6163H11.3693V49.8416C10.4332 50.5464 9.02353 50.9015 7.61389 50.9015" fill="black"/>
<path d="M49.3879 33.7489L34.3716 7.55777L45.1644 1.21981L63.9361 33.7489" fill="black"/>
<path d="M18.568 44.4236C18.568 46.3928 20.1337 48.0123 22.1674 48.0123C24.0398 48.0123 25.7669 46.3928 25.7669 44.4236C25.7669 42.5243 24.0398 40.8349 22.1674 40.8349C20.1337 40.8349 18.568 42.5243 18.568 44.4236ZM22.0114 50.9015C18.412 50.9015 15.5981 48.0123 15.5981 44.4236C15.5981 40.8349 18.412 38.0156 22.0114 38.0156C23.4157 38.0156 24.6693 38.3707 25.7669 39.1401V33.862H28.8928V50.6163H25.7669V49.8416C24.6693 50.5464 23.4157 50.9015 22.0114 50.9015" fill="black"/>
<path d="M21.8572 18.8926L32.8062 12.6999L44.8527 33.7477H33.4303V36.8467H30.3043V33.7477" fill="black"/>
<path d="M72.6937 36.945C71.9081 36.945 71.128 36.2402 71.128 35.3955C71.128 34.5508 71.9081 33.8459 72.6937 33.8459C73.6298 33.8459 74.2593 34.5508 74.2593 35.3955C74.2593 36.2402 73.6298 36.945 72.6937 36.945ZM72.6937 34.0612C71.9081 34.0612 71.44 34.6907 71.44 35.3955C71.44 36.1003 71.9081 36.7352 72.6937 36.7352C73.4738 36.7352 73.9419 36.1003 73.9419 35.3955C73.9419 34.6907 73.4738 34.0612 72.6937 34.0612Z" fill="black"/>
<path d="M73.0165 36.2459L72.7044 35.5411H72.3924V36.2459H72.1556V34.5565H72.8605C73.0165 34.5565 73.3285 34.7717 73.3285 35.0515C73.3285 35.3312 73.1725 35.4711 73.0165 35.5411L73.3285 36.2459H73.0165ZM72.7044 34.7717H72.3924V35.3312H72.7044C73.0165 35.3312 73.0165 35.2613 73.0165 35.0515C73.0165 34.9062 73.0165 34.7717 72.7044 34.7717" fill="black"/>
<path d="M52.0334 44.4237C52.0334 46.3929 53.5991 48.0124 55.6329 48.0124C57.5106 48.0124 59.2269 46.3929 59.2269 44.4237C59.2269 42.5245 57.5106 40.835 55.6329 40.835C53.5991 40.835 52.0334 42.5245 52.0334 44.4237V44.4237ZM55.4715 50.9016C51.8774 50.9016 49.0635 48.0124 49.0635 44.4237C49.0635 40.835 51.8774 38.0158 55.4715 38.0158C56.8811 38.0158 58.1347 38.3709 59.2269 39.1402V38.1557H62.2022V50.6165H59.2269V49.8417C58.1347 50.5465 56.8811 50.9016 55.4715 50.9016" fill="black"/>
<path d="M37.652 44.4232C37.652 46.3924 39.3737 48.0118 41.2514 48.0118C43.2852 48.0118 44.8508 46.3924 44.8508 44.4232C44.8508 42.5239 43.2852 40.8345 41.2514 40.8345C39.3737 40.8345 37.652 42.5239 37.652 44.4232ZM44.8508 33.8616H47.9768V50.6159H44.8508V49.8411C43.9093 50.546 42.6557 50.9011 41.2514 50.9011C37.652 50.9011 34.682 48.0118 34.682 44.4232C34.682 40.8345 37.652 38.0152 41.2514 38.0152C42.6557 38.0152 43.9093 38.3703 44.8508 39.1397V33.8616Z" fill="black"/>
</g>
<defs>
<clipPath id="clip0">
<rect width="74.0084" height="50.0586" fill="white" transform="translate(0.966492 0.974518)"/>
</clipPath>
</defs>
</svg>
