<svg width="99" height="48" viewBox="0 0 99 48" fill="none" xmlns="http://www.w3.org/2000/svg">
<path d="M0.398926 36.0619L0.398926 24.5229H6.9798C10.6808 24.5229 13.9304 24.7165 14.4056 24.9653C15.1926 25.3774 15.2505 25.9318 15.2505 33.0548C15.2505 42.3052 15.389 42.0451 10.4611 42.0451C6.58114 42.0451 6.51427 42.1036 6.51427 45.499L6.51427 47.6009H3.4566H0.398926L0.398926 36.0619ZM8.69832 33.3297C8.69832 28.6623 8.57863 27.561 8.04977 27.3625C6.93703 26.9447 6.51427 28.5577 6.51427 33.221C6.51427 38.2733 6.69583 39.0535 7.87143 39.0535C8.64158 39.0535 8.69832 38.6608 8.69832 33.3297ZM17.8867 46.7743C17.6095 46.2675 17.4345 41.8023 17.4345 35.2353V24.5229H20.7106H23.9867V33.8434C23.9867 40.9876 24.1242 43.3479 24.5756 43.9519C25.9303 45.7644 26.1707 44.3134 26.1707 34.3272V24.5229L29.4468 24.5229H32.7229V35.5491C32.7229 43.5552 32.5793 46.7157 32.1987 47.0881C31.8368 47.4422 29.6104 47.6009 25.0067 47.6009C18.8615 47.6009 18.3034 47.5361 17.8867 46.7743ZM34.9069 36.5748C34.9069 28.5687 35.0505 25.4081 35.4311 25.0358C36.176 24.3069 56.7888 24.3069 57.5337 25.0358C57.9143 25.4081 58.0579 28.5687 58.0579 36.5748V47.6009H54.7818H51.5057V37.5264C51.5057 28.1617 51.4519 27.462 50.7413 27.5956C50.0435 27.7269 49.9667 28.605 49.8596 37.6702L49.7424 47.6009H46.4744H43.2063V37.8237C43.2063 30.2327 43.077 27.9416 42.6281 27.577C41.249 26.4572 41.0223 27.9084 41.0223 37.8569V47.6009H37.9646H34.9069V36.5748ZM60.6787 36.5043C60.6787 25.9708 60.7216 25.3853 61.5236 24.9653C62.7453 24.3256 74.3422 24.3862 75.0061 25.0358C75.3867 25.4081 75.5303 28.5687 75.5303 36.5748V47.6009H72.2742H69.0181L68.8889 44.7162C68.7894 42.493 68.6095 41.8314 68.1045 41.8314C67.5996 41.8314 67.4197 42.493 67.3201 44.7162L67.191 47.6009H63.9349H60.6787V36.5043ZM68.7597 33.2484C68.7597 28.6265 68.6531 27.7282 68.1045 27.7282C67.5656 27.7282 67.4273 28.634 67.3255 32.8318C67.1943 38.2427 67.338 39.2323 68.2139 38.9466C68.6129 38.8165 68.7597 37.2834 68.7597 33.2484Z" fill="black"/>
<path d="M88.84 37.5839C88.5638 37.2582 88.0806 36.1253 87.9848 34.9381C87.8164 32.8524 88.2552 33.0044 85.6433 30.4383C83.537 28.369 82.1669 27.0097 81.22 24.2839C79.7288 19.9915 77.7775 18.8663 75.3881 18.8663C73.1753 18.8663 69.6521 18.172 67.7674 17.3645C66.8742 16.9818 65.1408 15.7843 63.9154 14.7033L61.6873 12.738L60.6638 13.5257C59.305 14.5715 57.3918 14.5192 54.5097 13.3576C51.827 12.2764 51.3207 12.3428 51.3207 13.1029C51.3207 13.999 50.6095 14.0396 49.5944 13.3888C47.4582 12.0194 49.2622 9.79021 52.8527 9.96505C54.9906 10.0681 55.0914 10.0864 55.0914 9.23196C55.0914 8.22162 54.4543 7.86343 52.6572 7.86343C51.8858 7.86343 51.2134 7.61268 50.5421 6.98343C50.1302 6.74071 49.7625 6.55164 49.5271 5.99853C49.7232 5.29642 49.9245 4.84949 50.3068 4.51186C50.6786 3.80255 51.1198 3.03708 51.9039 2.55271C52.3553 2.27387 52.7951 1.40546 53.139 1.06297C53.4432 0.76 53.4304 0.665147 53.9541 1.08814C54.4925 1.52295 54.7018 1.52531 55.2225 1.10246C55.7475 0.676187 55.9166 0.690347 56.2915 1.19195C56.5365 1.51968 57.4227 2.4068 58.6438 2.68764C62.0468 3.47035 65.0553 5.22861 70.5355 9.65156C77.5173 15.2864 78.2129 15.0435 81.5281 15.3691C85.419 15.7511 86.8825 14.336 89.6734 8.31371C91.5058 4.35965 92.6928 2.84332 94.9078 1.47531C96.7892 0.313273 98.4313 0.2699 98.562 1.58307C98.6874 2.84248 98.6733 3.44448 95.9004 5.08178C92.8167 6.90266 91.9029 7.8313 89.9634 11.7616C88.9646 13.7855 87.752 15.5932 86.8704 16.3725L85.4203 17.6543L86.3838 19.559C87.097 20.969 87.3946 22.2844 87.5298 24.6231C87.7806 28.9635 87.4825 28.5562 88.9805 29.947C89.6771 30.5938 89.9504 30.0764 90.2337 31.379C90.5024 32.6151 90.5722 33.2308 91.1585 34.7854C91.5254 35.7579 91.1893 35.1965 91.0505 36.5709C90.9449 37.6166 91.1961 37.2256 90.729 38.3159C90.5254 38.7912 89.1163 37.9095 88.84 37.5839Z" fill="black"/>
</svg>
