<svg width="103" height="16" viewBox="0 0 103 16" fill="none" xmlns="http://www.w3.org/2000/svg">
<g clip-path="url(#clip0)">
<path d="M35.9211 13.0841C38.7266 13.0841 41.2091 11.1967 41.2091 8.00014C41.2091 4.80357 38.7266 2.91623 35.9211 2.91623C33.1156 2.91623 30.6332 4.80357 30.6332 8.00014C30.6332 11.1967 33.1156 13.0841 35.9211 13.0841ZM17.8469 12.88H19.8872L15.1944 3.10326H13.239L8.90325 12.88H10.7056L11.6407 10.6696H16.8267L17.8469 12.88ZM68.533 3.12026H61.1196V12.897H68.686V11.3327H62.854V8.78229H67.8189V7.218H62.854V4.68455H68.533V3.12026V3.12026ZM42.5523 11.9108C42.9434 12.2339 44.1336 13.0841 46.225 13.0841C48.3333 13.0841 50.0507 11.9449 50.0507 10.1595C50.0507 6.43586 44.6777 7.62607 44.6777 5.60271C44.6777 5.02461 45.1538 4.56552 46.395 4.56552C47.8743 4.56552 48.8434 5.22864 49.2175 5.5347L49.9316 4.08944C49.4896 3.66436 48.1293 2.91623 46.378 2.91623C43.7765 2.91623 42.7053 4.37849 42.7053 5.82375C42.7053 9.19036 48.0953 8.22119 48.0953 10.2445C48.0953 11.0947 47.2452 11.4518 46.293 11.4518C44.8307 11.4518 43.6575 10.8056 43.1644 10.4316L42.5523 11.9108ZM25.5322 4.65054C26.9945 4.65054 27.8107 5.44968 28.2867 5.87476L29.494 4.68455C29.1029 4.24247 27.9297 2.91623 25.4982 2.91623C22.6927 2.91623 20.2103 4.80357 20.2103 8.00014C20.2103 11.1967 22.6587 13.0841 25.4642 13.0841C27.6236 13.0841 29.0859 11.9108 29.562 11.5028L28.5928 10.1425C27.8277 10.7886 26.6034 11.3667 25.4982 11.3667C23.5599 11.3667 22.0976 9.90449 22.0976 8.01715C22.1146 6.1128 23.5769 4.65054 25.5322 4.65054ZM35.9211 11.3497C33.9828 11.3497 32.5205 9.88748 32.5205 8.00014C32.5205 6.1128 33.9828 4.65054 35.9211 4.65054C37.8595 4.65054 39.3217 6.1128 39.3217 8.00014C39.3217 9.88748 37.8595 11.3497 35.9211 11.3497ZM54.4204 4.66754V12.88H56.1548V4.66754H59.5724V3.10326H51.1048V4.66754H54.4204ZM2.5271 3.12026H0.792786V12.897H7.71303V11.3327H2.5271V3.12026ZM14.1572 4.82057L16.1466 9.15635H12.3039L14.1572 4.82057Z" fill="#0A2B1A"/>
<path d="M94.3241 11.2249C94.12 11.0889 93.933 11.0719 93.7289 11.0209C93.4739 10.9359 93.3889 10.6128 93.2869 10.5788C93.0998 10.5108 92.9128 10.7998 92.7938 10.7658C92.6748 10.7318 92.6237 10.3408 92.5387 10.3067C92.3517 10.2387 92.1477 10.5278 92.0286 10.4938C91.9096 10.4598 91.8416 10.0687 91.7566 10.0347C91.5696 9.96668 91.3655 10.2727 91.2465 10.2387C91.1275 10.2047 91.0935 9.79665 90.9915 9.76264C90.7874 9.67763 90.5834 10.0007 90.3963 9.96668C90.2773 9.94968 90.0223 9.89867 89.6822 9.67763C89.5802 9.60962 89.3762 9.45659 89.3762 9.43959C89.3422 9.42258 89.2571 9.40558 89.2741 9.57561C89.3252 9.98368 90.0223 10.2727 90.8384 10.5108C91.6546 10.7488 92.4707 10.9699 92.9468 11.1909C93.2529 11.3269 93.3719 11.497 93.2699 11.667C93.1848 11.786 92.9808 11.803 92.7598 11.684C92.5217 11.565 92.4877 11.3779 92.3347 11.3439C92.1477 11.2929 91.9096 11.65 91.7736 11.616C91.5866 11.565 91.5696 11.1739 91.3995 11.1229C91.1785 11.0719 90.9234 11.4119 90.7874 11.3779C90.6344 11.3439 90.5834 10.9189 90.4474 10.8848C90.2093 10.8168 89.9713 11.1909 89.8353 11.1569C89.6822 11.1229 89.6142 10.6978 89.4782 10.6468C89.2401 10.5448 88.9341 10.9019 88.611 10.7318C87.5738 10.0347 87.7609 9.66063 86.9617 9.42258C86.5537 9.30356 86.0436 9.43958 85.7375 9.47359C85.0234 9.5416 85.0574 8.9295 85.0574 8.9295C85.2614 8.9805 85.5505 9.09952 86.0776 8.91249C86.6557 8.70845 86.9617 8.65745 87.7099 8.91249C88.339 9.11653 88.713 8.92949 88.9341 8.87848C89.0361 8.84448 89.1211 8.79347 89.3252 8.9295C89.5292 9.06552 89.7162 9.20154 89.8182 9.15053C89.9713 9.08252 89.9203 8.65745 90.1753 8.57243C90.2943 8.53842 90.6344 8.86148 90.7704 8.81047C90.9234 8.75946 90.8724 8.31738 91.1445 8.23237C91.2635 8.19836 91.6036 8.52142 91.7396 8.47041C91.8926 8.4194 91.8416 7.97732 92.0967 7.89231C92.2157 7.8583 92.5557 8.18136 92.6918 8.13035C92.8278 8.07934 92.7938 7.63726 93.0488 7.55225C93.1678 7.51824 93.5079 7.8413 93.6439 7.79029C93.78 7.73928 93.763 7.62026 93.882 7.33121C93.899 7.2802 93.95 7.21219 94.001 7.16118C94.171 7.02515 94.4091 6.7361 94.256 6.43004C94.12 6.14099 93.848 6.15799 93.2699 6.27702C92.7768 6.37903 89.6652 7.05916 89.6652 7.05916C89.1891 6.158 88.8491 6.7531 88.1349 6.66808C87.6759 6.61708 86.9447 6.158 85.7885 7.22919C85.1594 7.04216 84.6153 7.21218 84.2072 7.43322C83.5101 7.14417 82.1839 6.46405 79.6504 6.46405C78.9363 6.46405 77.236 6.60008 74.5155 7.3142C73.8184 7.50124 73.1893 7.45023 73.0362 7.04215C72.8832 6.61708 73.4273 6.15799 74.4815 5.6479C77.083 4.40668 78.8173 4.69573 82.3199 2.8424C84.2072 1.85622 84.3263 0.683008 84.3093 0.393956C84.3093 0.206922 84.1222 0.138909 84.0032 0.291936C83.3741 1.1761 83.2041 1.10808 83.017 0.904048C82.762 0.649002 82.5749 1.05708 82.3029 1.27812C82.0818 1.43114 82.0478 1.24411 81.8778 1.14209C81.5718 0.955056 81.3337 1.51616 81.0787 1.63518C80.7896 1.77121 80.7216 1.61818 80.6366 1.51616C80.5686 1.44815 80.4325 1.44815 80.3475 1.53316C79.7524 2.09426 79.6674 2.04325 79.4804 1.83922C79.3444 1.70319 79.2763 1.60117 78.8853 1.99224C78.6642 2.21328 78.2902 2.48533 78.1711 2.19628C78.0521 1.90723 77.9671 1.7542 77.406 2.24729C77.0829 2.53634 76.8619 2.57035 76.7599 2.43432C76.6579 2.2983 76.6749 1.90723 76.1648 2.31531C75.7057 2.67237 75.4677 2.89341 75.3146 2.53634C75.1616 2.19628 74.8215 2.48533 74.5665 2.72338C74.4305 2.8594 74.2094 3.16545 74.0224 2.8424C73.8354 2.53634 73.5463 2.8594 73.1892 3.25047C72.9852 3.47151 72.8492 3.36949 72.6451 3.23347C72.4071 3.06344 72.1521 3.67555 71.812 4.03261C71.744 4.08362 71.659 4.13463 71.4549 3.99861C71.1829 3.81157 70.7578 4.74674 70.6388 4.98478C70.4348 5.35885 70.2307 4.88276 69.9927 5.22282C69.4656 6.00497 68.8875 6.87212 68.7174 8.4194C68.5304 10.2557 69.2105 11.752 69.8907 12.3131C69.8907 12.3131 69.8056 12.5171 69.7036 12.7722C69.5166 13.2823 69.4316 13.9624 69.6866 14.4385C69.9247 14.8976 70.4858 15.6627 70.6898 14.9316C70.7918 14.5915 70.8938 14.6085 71.2169 14.8466C71.727 15.2036 71.591 14.5575 71.693 14.3535C71.761 14.2174 71.846 14.1664 72.2711 14.4385C72.5091 14.5915 72.5941 14.3875 72.6622 14.0814C72.8832 13.1633 72.4581 12.9422 72.016 12.8572C71.71 12.7892 71.3699 12.8402 71.3699 12.8402C72.05 11.803 72.1351 11.2249 71.3699 10.6978C71.4889 10.6468 71.574 10.6808 71.676 10.7148C71.863 10.7998 72.016 10.9359 72.1181 11.1059C72.2201 11.2929 72.3901 11.718 72.05 12.4491C72.2031 12.4491 72.7642 12.4831 73.0192 13.0612C73.3593 13.1633 75.5187 13.3503 76.4708 13.1803C76.8109 13.1293 76.9639 12.8062 77.321 12.5001C77.6951 12.1431 78.1371 11.769 78.5112 12.0581C77.8481 12.3301 77.389 12.8402 77.389 13.4863C77.389 13.9794 77.593 14.1664 77.9501 14.4725C78.2732 14.7275 78.3582 15.1526 78.4772 15.4757C78.6302 15.8837 78.9363 15.9007 79.0043 15.5097C79.1063 14.9656 79.2593 15.0676 79.4804 15.3056C79.7354 15.5947 79.9395 15.5437 79.9395 15.1356C79.9395 14.7615 80.0585 14.5575 80.4836 14.9996C80.6536 15.1866 80.8576 15.1696 80.8576 14.7785C80.8576 14.3025 81.0617 14.3535 81.3337 14.5575C81.4357 14.6255 81.4867 14.6765 81.5377 14.6765C81.7418 14.6595 81.8948 14.2515 81.7248 13.9284C81.6398 13.7584 81.5207 13.5203 80.4325 13.2993C80.0755 13.2313 80.1435 12.9762 80.1435 12.9762C82.813 13.1122 85.0744 12.7722 86.5537 11.871C88.39 12.3131 91.0595 12.3471 91.9266 12.3471C92.7938 12.3301 93.4739 12.2961 94.018 12.0411C94.6811 11.803 94.5961 11.3949 94.3241 11.2249ZM88.8151 7.07616C88.8661 6.94014 88.9851 6.85512 89.0871 6.85512C89.2911 6.85512 89.3932 7.07616 89.3932 7.14417L88.9001 7.24619C88.7641 7.2802 88.7641 7.19518 88.8151 7.07616ZM87.5398 7.02515C87.8799 7.02515 88.0839 7.2802 88.1349 7.39922C88.1349 7.39922 87.6248 7.51824 87.4038 7.56925C87.2678 7.60326 87.1658 7.53525 87.1488 7.41622C87.1318 7.2972 87.2678 7.02515 87.5398 7.02515ZM73.4103 3.89659C73.6483 3.77757 73.8864 3.70955 74.1414 3.65855C74.1924 3.65855 74.2264 3.67555 74.2094 3.72656C74.1584 3.89659 74.1244 4.06662 74.0904 4.23665C74.0734 4.28766 74.0394 4.30466 74.0054 4.28766C73.8184 4.18564 73.6143 4.10063 73.3933 3.99861C73.3593 3.9646 73.3593 3.93059 73.4103 3.89659ZM72.2881 4.42368C72.5261 4.30466 72.7642 4.23665 73.0192 4.18564C73.0702 4.16864 73.1042 4.20264 73.0872 4.23665C73.0532 4.40668 73.0022 4.57671 72.9682 4.74674C72.9682 4.79775 72.9172 4.81475 72.8832 4.79775C72.6962 4.69573 72.4921 4.61072 72.2711 4.5087C72.2371 4.4917 72.2371 4.45769 72.2881 4.42368ZM72.7642 5.57989C72.8152 5.57989 72.8492 5.59689 72.8322 5.6479C72.7982 5.81793 72.7472 5.98796 72.7132 6.15799C72.7132 6.209 72.6622 6.22601 72.6282 6.20901C72.4411 6.10699 72.2371 6.02197 72.016 5.91995C71.965 5.90295 71.965 5.86894 72.016 5.83494C72.2541 5.71591 72.5091 5.6309 72.7642 5.57989ZM72.3051 6.56607C72.2711 6.7361 72.2201 6.90613 72.1861 7.07616C72.1691 7.12717 72.1351 7.14417 72.1011 7.12717C71.914 7.02515 71.71 6.94013 71.4889 6.83812C71.4379 6.82111 71.4379 6.78711 71.4889 6.7531C71.727 6.63408 71.965 6.56607 72.2201 6.51506C72.2711 6.49806 72.3051 6.51506 72.3051 6.56607ZM71.2849 5.10381C71.5229 4.98478 71.761 4.91677 72.016 4.86576C72.067 4.86576 72.1011 4.88277 72.0841 4.91677C72.05 5.0868 71.999 5.25683 71.965 5.42686C71.948 5.47787 71.914 5.49487 71.88 5.47787C71.693 5.37585 71.4889 5.29084 71.2679 5.18882C71.2339 5.15482 71.2339 5.12081 71.2849 5.10381ZM70.5198 5.98796C70.7578 5.86894 70.9959 5.80093 71.2509 5.74992C71.3019 5.73292 71.3359 5.76693 71.3189 5.80093C71.2679 5.97096 71.2339 6.14099 71.1999 6.31102C71.1829 6.36203 71.1489 6.37903 71.1149 6.36203C70.9278 6.26001 70.7238 6.175 70.5028 6.07298C70.4688 6.03897 70.4688 6.00497 70.5198 5.98796ZM70.2307 6.99115C70.4688 6.87213 70.7068 6.80411 70.9618 6.7531C71.0129 6.7361 71.0469 6.77011 71.0299 6.80411C70.9959 6.97414 70.9448 7.14417 70.9108 7.3142C70.8938 7.36521 70.8598 7.38221 70.8258 7.36521C70.6388 7.2802 70.4348 7.17818 70.2137 7.07616C70.1797 7.05916 70.1797 7.02515 70.2307 6.99115ZM70.3497 8.09635C70.2987 8.07934 70.2987 8.02833 70.3497 8.01133C70.5878 7.89231 70.8258 7.82429 71.0809 7.77328C71.1319 7.77328 71.1659 7.79029 71.1489 7.8243C71.1149 7.99433 71.0639 8.16436 71.0299 8.33439C71.0299 8.3854 70.9788 8.4024 70.9448 8.3854C70.7748 8.30038 70.5708 8.19836 70.3497 8.09635ZM71.659 9.33757C71.659 9.38858 71.608 9.40558 71.574 9.38857C71.3869 9.28656 71.1829 9.20154 70.9618 9.09953C70.9108 9.08252 70.9108 9.04852 70.9618 9.01451C71.1999 8.89549 71.4379 8.82748 71.71 8.77647C71.761 8.75947 71.795 8.79347 71.778 8.82748C71.744 8.99751 71.71 9.16754 71.659 9.33757ZM71.608 7.8243C71.557 7.80729 71.557 7.77329 71.608 7.73928C71.846 7.62026 72.0841 7.53525 72.3391 7.50124C72.3901 7.48424 72.4241 7.51824 72.4071 7.55225C72.3731 7.72228 72.3221 7.89231 72.2881 8.06234C72.2711 8.11335 72.2371 8.13035 72.2031 8.11334C72.016 8.02833 71.812 7.92631 71.608 7.8243ZM72.7642 9.89867C72.7642 9.94968 72.7132 9.96668 72.6792 9.94968C72.4921 9.86466 72.2881 9.76264 72.067 9.66062C72.016 9.64362 72.016 9.59261 72.067 9.57561C72.3051 9.45659 72.5431 9.38858 72.7982 9.33757C72.8492 9.32056 72.8832 9.35457 72.8662 9.38857C72.8492 9.55861 72.7982 9.72864 72.7642 9.89867ZM73.0022 8.82748C72.9852 8.87848 72.9512 8.89549 72.9172 8.87848C72.7302 8.77646 72.5261 8.69145 72.3051 8.58943C72.2541 8.57243 72.2541 8.52142 72.3051 8.50442C72.5431 8.3854 72.7812 8.31739 73.0532 8.26638C73.1042 8.24937 73.1382 8.28338 73.1212 8.31738C73.0872 8.48741 73.0532 8.65745 73.0022 8.82748ZM74.1074 9.35457C74.0564 9.5246 74.0224 9.69463 73.9884 9.86466C73.9884 9.91567 73.9374 9.93267 73.9034 9.91567C73.7163 9.81365 73.5123 9.72864 73.2913 9.62662C73.2403 9.60962 73.2403 9.57561 73.2913 9.54161C73.5293 9.42258 73.7674 9.35457 74.0224 9.30356C74.0734 9.28656 74.1074 9.32057 74.1074 9.35457ZM74.1584 8.77647C73.9714 8.67445 73.7674 8.58943 73.5463 8.48741C73.4953 8.47041 73.4953 8.4194 73.5463 8.4024C73.7844 8.28338 74.0224 8.21537 74.2774 8.16436C74.3285 8.16436 74.3625 8.18136 74.3455 8.23237C74.2944 8.4024 74.2604 8.57243 74.2264 8.74246C74.2264 8.77647 74.1924 8.79347 74.1584 8.77647ZM75.0936 10.1707C75.0596 10.3407 75.0086 10.5108 74.9746 10.6808C74.9576 10.7148 74.9236 10.7488 74.8896 10.7148C74.7025 10.6298 74.4985 10.5278 74.2774 10.4258C74.2264 10.4088 74.2264 10.3748 74.2774 10.3407C74.5155 10.2217 74.7535 10.1537 75.0086 10.1027C75.0766 10.0857 75.1106 10.1197 75.0936 10.1707ZM75.3486 9.04851C75.2976 9.21854 75.2636 9.38857 75.2296 9.55861C75.2296 9.59261 75.1786 9.62662 75.1446 9.59261C74.9576 9.5076 74.7535 9.40558 74.5325 9.30356C74.4815 9.28656 74.4815 9.23555 74.5325 9.21854C74.7705 9.09952 75.0086 9.03151 75.2636 8.9805C75.3146 8.9805 75.3486 9.01451 75.3486 9.04851ZM75.4847 8.3854C75.4847 8.4364 75.4337 8.45341 75.3996 8.43641C75.2126 8.35139 75.0086 8.24937 74.7875 8.14735C74.7365 8.13035 74.7365 8.09634 74.7875 8.06234C75.0256 7.94332 75.2636 7.87531 75.5187 7.8243C75.5697 7.80729 75.6037 7.8413 75.5867 7.89231C75.5697 8.04533 75.5357 8.21536 75.4847 8.3854ZM76.2498 10.3067C76.2328 10.3578 76.1988 10.3748 76.1648 10.3578C75.9778 10.2557 75.7737 10.1707 75.5697 10.0687C75.5187 10.0517 75.5187 10.0007 75.5697 9.98368C75.8077 9.86466 76.0458 9.79665 76.3008 9.74564C76.3518 9.74564 76.3858 9.76265 76.3688 9.79665C76.3178 9.94968 76.2838 10.1367 76.2498 10.3067ZM76.4878 9.23555C76.4878 9.28656 76.4368 9.30356 76.4028 9.28656C76.2158 9.18454 76.0118 9.09952 75.7907 8.99751C75.7397 8.9805 75.7397 8.9465 75.7907 8.91249C76.0288 8.79347 76.2668 8.72546 76.5218 8.67445C76.5729 8.67445 76.6069 8.69145 76.5899 8.74246C76.5729 8.87848 76.5219 9.04851 76.4878 9.23555ZM76.6579 8.14735C76.4708 8.04533 76.2668 7.96032 76.0458 7.8583C75.9948 7.8413 75.9948 7.80729 76.0458 7.77328C76.2838 7.65426 76.5218 7.58625 76.7769 7.53524C76.8279 7.51824 76.8619 7.55225 76.8449 7.58625C76.8109 7.75628 76.7599 7.92632 76.7259 8.09635C76.7429 8.14736 76.6919 8.16436 76.6579 8.14735ZM77.6611 9.5246C77.627 9.69463 77.576 9.86466 77.542 10.0347C77.542 10.0857 77.491 10.1027 77.457 10.0857C77.27 9.98368 77.0659 9.89867 76.8449 9.79665C76.7939 9.77965 76.7939 9.74564 76.8449 9.71164C77.083 9.59262 77.321 9.5246 77.593 9.47359C77.6271 9.45659 77.6611 9.47359 77.6611 9.5246ZM77.8991 8.43641C77.8651 8.60644 77.8141 8.77647 77.7801 8.9465C77.7631 8.99751 77.7291 9.01451 77.6951 8.9805C77.508 8.89549 77.304 8.79347 77.1 8.69145C77.0489 8.67445 77.0489 8.64044 77.1 8.60644C77.338 8.48742 77.576 8.4194 77.8311 8.36839C77.8651 8.38539 77.8991 8.4024 77.8991 8.43641ZM77.9331 7.92632C77.7461 7.8413 77.542 7.73928 77.321 7.63726C77.27 7.62026 77.27 7.56925 77.321 7.55225C77.559 7.43322 77.7971 7.36521 78.0521 7.3142C78.1031 7.2972 78.1371 7.33121 78.1201 7.36521C78.0691 7.53524 78.0351 7.70527 78.0011 7.8753C78.0011 7.92631 77.9671 7.96032 77.9331 7.92632ZM78.9023 9.38857C78.8513 9.55861 78.8173 9.72864 78.7833 9.89867C78.7663 9.94968 78.7323 9.96668 78.6982 9.94968C78.5112 9.84766 78.3072 9.76264 78.0861 9.66062C78.0351 9.64362 78.0351 9.60962 78.0861 9.57561C78.3242 9.45659 78.5622 9.38858 78.8173 9.33757C78.8853 9.32056 78.9193 9.35457 78.9023 9.38857ZM79.1403 8.31738C79.1063 8.48741 79.0553 8.65745 79.0213 8.82748C79.0043 8.86148 78.9703 8.89549 78.9363 8.86148C78.7492 8.77647 78.5452 8.67445 78.3242 8.57243C78.2732 8.55543 78.2732 8.50442 78.3242 8.48741C78.5622 8.36839 78.8003 8.30038 79.0553 8.24937C79.1233 8.24937 79.1573 8.28338 79.1403 8.31738ZM79.2593 7.79029C79.2593 7.8413 79.2083 7.8583 79.1743 7.8413C78.9873 7.73928 78.7833 7.65426 78.5622 7.55225C78.5112 7.53524 78.5112 7.50124 78.5622 7.46723C78.8003 7.34821 79.0383 7.2802 79.2934 7.22919C79.3444 7.22919 79.3784 7.24619 79.3614 7.2972C79.3444 7.43322 79.2934 7.60325 79.2593 7.79029ZM80.1435 9.43959C80.0925 9.60962 80.0585 9.77965 80.0245 9.94968C80.0245 10.0007 79.9735 10.0177 79.9395 10.0007C79.7524 9.89867 79.5484 9.81366 79.3444 9.71164C79.2934 9.69463 79.2934 9.64362 79.3444 9.62662C79.5824 9.5076 79.8204 9.43958 80.0755 9.38857C80.1265 9.37157 80.1605 9.38858 80.1435 9.43959ZM80.3815 8.35139C80.3475 8.52142 80.2965 8.69145 80.2625 8.86148C80.2455 8.91249 80.2115 8.92949 80.1775 8.91249C79.9905 8.81047 79.7864 8.72546 79.5654 8.62344C79.5144 8.60643 79.5144 8.57243 79.5654 8.53842C79.8034 8.4194 80.0415 8.35139 80.2965 8.30038C80.3645 8.28338 80.3985 8.31739 80.3815 8.35139ZM80.6196 7.2972C80.5856 7.46723 80.5346 7.63726 80.5006 7.80729C80.4836 7.8583 80.4496 7.8753 80.4156 7.8583C80.2285 7.75628 80.0245 7.67127 79.8204 7.56925C79.7694 7.55225 79.7694 7.51824 79.8204 7.48423C80.0585 7.36521 80.2965 7.2972 80.5686 7.24619C80.6026 7.22919 80.6366 7.26319 80.6196 7.2972ZM81.4697 9.09953C81.4697 9.15053 81.4187 9.16754 81.3847 9.15053C81.1977 9.06552 80.9937 8.9635 80.7726 8.86148C80.7216 8.84448 80.7216 8.79347 80.7726 8.77647C81.0107 8.65745 81.2487 8.57243 81.5038 8.53842C81.5548 8.52142 81.5888 8.55543 81.5718 8.58943C81.5378 8.75946 81.5037 8.9295 81.4697 9.09953ZM81.8268 7.50124C81.7928 7.67127 81.7418 7.8413 81.7078 8.01133C81.6908 8.06234 81.6568 8.07934 81.6228 8.06234C81.4357 7.96032 81.2317 7.8753 81.0107 7.77328C80.9596 7.75628 80.9596 7.70527 81.0107 7.68827C81.2487 7.56925 81.4867 7.50124 81.7418 7.45023C81.8098 7.43322 81.8438 7.45023 81.8268 7.50124ZM82.966 7.89231C82.932 8.06234 82.881 8.23237 82.847 8.4024C82.83 8.45341 82.796 8.47041 82.762 8.45341C82.5749 8.35139 82.3709 8.26638 82.1499 8.16436C82.0989 8.14735 82.0989 8.11335 82.1499 8.07934C82.3879 7.96032 82.6259 7.89231 82.881 7.8413C82.949 7.8243 82.983 7.8583 82.966 7.89231Z" fill="#0B542A"/>
<path d="M97.1795 6.65587C96.4313 6.40082 96.1083 6.45183 95.5472 6.65587C95.0201 6.8429 94.731 6.72388 94.527 6.67287C94.527 6.67287 94.493 7.28498 95.2071 7.21697C95.5132 7.18296 96.0233 7.02994 96.4313 7.16596C97.2305 7.404 97.0264 7.76106 98.0806 8.47519C98.4037 8.64522 98.7097 8.28816 98.9478 8.39018C99.0668 8.44119 99.1518 8.86626 99.3049 8.90027C99.4579 8.93428 99.6959 8.57722 99.917 8.62823C100.053 8.66223 100.104 9.10431 100.257 9.13832C100.41 9.17232 100.648 8.83226 100.869 8.88327C101.039 8.93428 101.056 9.32535 101.243 9.37636C101.396 9.41037 101.634 9.0533 101.821 9.10431C101.974 9.13831 101.991 9.32535 102.246 9.44437C102.467 9.54639 102.671 9.54639 102.756 9.41036C102.858 9.24033 102.739 9.08731 102.433 8.93428C101.94 8.71324 101.124 8.4922 100.325 8.25416C99.5089 8.01611 98.8118 7.72706 98.7608 7.31899C98.7438 7.14896 98.8288 7.16596 98.8628 7.18296C98.5567 6.94492 98.4887 6.74088 98.5057 6.60486C98.4717 6.60486 98.4547 6.62186 98.4207 6.63886C98.1827 6.67287 97.8086 6.87691 97.1795 6.65587Z" fill="#E50043"/>
</g>
<defs>
<clipPath id="clip0">
<rect width="101.999" height="15.585" fill="white" transform="translate(0.792786 0.207642)"/>
</clipPath>
</defs>
</svg>
